<?xml version="1.0" standalone="no"?>
<!DOCTYPE svg PUBLIC "-//W3C//DTD SVG 20010904//EN"
 "http://www.w3.org/TR/2001/REC-SVG-20010904/DTD/svg10.dtd">
<svg version="1.0" xmlns="http://www.w3.org/2000/svg"
 width="617.000000pt" height="617.000000pt" viewBox="0 0 617.000000 617.000000"
 preserveAspectRatio="xMidYMid meet">
<metadata>
Created by potrace 1.14, written by Peter Selinger 2001-2017
</metadata>
<g transform="translate(0.000000,617.000000) scale(0.100000,-0.100000)"
fill="#000000" stroke="none">
<path d="M2866 5668 c-16 -18 -27 -33 -25 -33 4 0 -44 -56 -78 -91 -13 -13
-23 -26 -23 -30 0 -4 -10 -16 -22 -28 -13 -12 -39 -42 -59 -66 -20 -25 -45
-55 -55 -66 -11 -12 -35 -40 -54 -64 -19 -23 -44 -53 -55 -65 -20 -24 -60 -70
-131 -156 -85 -100 -140 -164 -154 -179 -8 -9 -35 -40 -60 -70 -25 -30 -52
-62 -60 -71 -8 -8 -35 -40 -60 -70 -25 -29 -53 -61 -62 -71 -10 -10 -18 -22
-18 -27 0 -5 -3 -11 -8 -13 -4 -1 -30 -30 -57 -63 -28 -33 -53 -62 -56 -65 -3
-3 -30 -34 -60 -70 -29 -36 -58 -70 -64 -76 -5 -6 -28 -33 -50 -60 -51 -61
-138 -162 -180 -208 -6 -6 -28 -33 -50 -61 -22 -27 -47 -56 -55 -65 -8 -9 -31
-35 -50 -59 -19 -24 -40 -48 -46 -55 -6 -6 -39 -45 -73 -86 -35 -41 -67 -76
-72 -78 -5 -2 -9 -8 -9 -13 0 -5 -14 -23 -30 -39 -17 -17 -28 -30 -25 -30 3 0
-4 -11 -17 -24 -13 -13 -41 -45 -63 -71 -78 -93 -100 -119 -128 -149 -23 -25
-27 -37 -23 -66 4 -30 27 -133 42 -195 3 -11 7 -31 10 -45 3 -14 14 -59 24
-100 10 -41 21 -86 23 -100 3 -14 15 -65 27 -115 12 -49 24 -99 26 -110 2 -11
15 -69 30 -130 31 -128 29 -119 38 -167 8 -38 26 -60 53 -64 9 -2 36 -8 62
-14 25 -6 57 -13 71 -16 14 -3 43 -10 65 -15 22 -5 51 -12 65 -15 14 -3 88
-21 165 -40 77 -20 149 -37 160 -39 11 -1 85 -19 164 -39 79 -19 148 -33 153
-30 5 3 8 2 6 -3 -1 -7 6 -42 28 -138 1 -5 7 -30 13 -55 7 -25 13 -54 15 -65
2 -11 11 -51 21 -90 19 -80 23 -99 30 -137 3 -15 10 -39 15 -54 6 -15 8 -29 6
-31 -3 -3 0 -16 5 -30 5 -14 19 -67 30 -117 11 -50 23 -99 25 -109 2 -9 6 -26
9 -38 2 -11 6 -28 9 -37 3 -9 8 -30 11 -47 17 -99 21 -102 160 -135 50 -12
108 -26 130 -31 22 -5 51 -12 65 -15 14 -3 79 -19 145 -35 66 -17 131 -32 145
-35 14 -3 43 -10 65 -15 22 -5 51 -12 65 -15 14 -2 32 -7 40 -10 8 -3 26 -8
40 -10 14 -3 42 -9 62 -15 36 -9 78 3 78 23 0 3 6 13 13 20 6 7 57 67 112 133
55 66 108 129 118 140 10 11 33 38 50 59 18 22 42 50 55 63 12 13 22 26 22 28
0 3 8 13 18 23 9 10 35 39 57 66 22 27 48 58 58 70 26 30 45 53 102 121 28 33
55 65 61 70 6 6 37 41 70 80 32 38 64 75 70 81 5 6 26 31 45 54 18 24 43 53
54 65 11 13 36 42 55 65 19 24 44 53 55 66 12 12 32 37 45 55 14 18 30 38 37
44 17 18 83 94 128 150 22 27 50 60 63 73 12 12 22 25 22 27 0 3 17 23 38 44
20 22 51 56 67 76 40 50 96 115 118 137 9 10 17 21 17 24 0 4 10 16 23 28 25
24 94 108 118 143 8 13 19 20 22 16 4 -3 7 -2 7 4 0 5 9 21 20 34 24 28 91
106 105 123 6 6 30 36 55 66 25 30 47 57 50 60 30 29 90 112 90 125 0 9 -7 43
-14 74 -14 52 -22 89 -31 136 -2 11 -16 67 -30 125 -15 58 -28 114 -31 125 -2
11 -8 38 -13 60 -11 46 -35 151 -80 350 -18 77 -38 146 -45 153 -7 7 -25 14
-42 16 -16 2 -42 9 -59 16 -16 6 -31 11 -33 10 -4 -2 -116 22 -142 31 -14 4
-38 10 -55 13 -16 3 -45 9 -64 15 -19 6 -37 9 -39 6 -3 -3 -10 0 -17 5 -6 5
-29 12 -50 16 -21 3 -49 10 -62 15 -13 5 -23 7 -23 4 0 -2 -15 1 -32 6 -45 14
-70 20 -93 23 -11 2 -20 4 -20 5 0 2 -11 4 -25 7 -21 3 -60 13 -80 19 -19 6
-86 19 -92 17 -4 -1 -10 8 -14 21 -4 12 -6 22 -5 22 1 0 -2 13 -8 28 -6 15
-14 42 -17 60 -3 18 -7 37 -8 42 -1 6 -5 16 -9 23 -5 6 -6 12 -4 12 3 0 1 17
-5 38 -5 20 -11 46 -13 57 -2 11 -11 47 -19 80 -9 33 -19 74 -22 90 -2 17 -7
38 -10 47 -3 9 -7 25 -9 36 -2 10 -15 68 -30 128 -14 60 -28 125 -31 144 -3
19 -11 44 -17 55 -6 11 -9 22 -8 25 1 3 -3 33 -10 68 -13 63 -24 77 -66 85
-10 2 -29 7 -43 10 -70 18 -322 77 -344 81 -14 3 -29 7 -33 9 -5 3 -24 8 -43
11 -19 3 -59 12 -87 20 -29 8 -53 12 -53 9 0 -3 -6 -1 -12 4 -7 6 -20 10 -28
11 -8 0 -61 12 -117 26 -56 14 -110 26 -120 26 -10 0 -31 -15 -47 -32z m298
-1039 c2 -13 12 -55 21 -94 9 -38 18 -74 19 -80 1 -5 8 -37 15 -70 7 -33 15
-67 18 -75 7 -18 9 -25 16 -65 6 -29 10 -47 23 -97 3 -13 7 -32 9 -43 1 -11
11 -49 20 -85 9 -36 19 -74 21 -85 2 -11 6 -29 8 -40 13 -65 38 -172 43 -185
6 -14 9 -30 12 -64 1 -12 56 -39 86 -42 6 0 28 -6 50 -12 22 -6 51 -13 65 -16
14 -3 52 -12 86 -20 34 -8 72 -17 85 -20 13 -3 44 -10 69 -17 25 -6 56 -13 70
-15 14 -3 36 -9 50 -14 14 -5 39 -11 57 -14 17 -2 36 -7 42 -10 5 -3 22 -8 38
-11 32 -5 181 -40 203 -48 8 -3 23 -8 34 -11 18 -6 18 -7 0 -24 -11 -9 -41
-44 -69 -77 -27 -33 -54 -65 -60 -71 -5 -6 -23 -27 -40 -48 -16 -21 -39 -48
-50 -61 -11 -12 -36 -41 -55 -65 -19 -23 -40 -48 -45 -54 -6 -6 -33 -38 -60
-71 -28 -33 -54 -65 -60 -71 -5 -6 -28 -32 -50 -59 -22 -26 -44 -53 -50 -59
-5 -6 -34 -41 -64 -76 -30 -36 -65 -76 -78 -90 -23 -25 -30 -33 -107 -124 -22
-27 -52 -62 -66 -77 -14 -16 -35 -41 -47 -57 -12 -15 -35 -42 -51 -59 -16 -16
-33 -37 -38 -45 -5 -9 -30 -40 -56 -69 -51 -58 -61 -70 -123 -145 -22 -26 -58
-69 -80 -94 -22 -25 -58 -67 -80 -93 -42 -49 -51 -55 -53 -34 -1 14 -14 72
-42 187 -26 106 -50 208 -56 239 -3 14 -7 28 -9 31 -2 4 -7 22 -10 41 -3 19
-12 61 -21 94 -8 33 -16 69 -18 80 -2 11 -16 70 -30 130 -15 61 -28 121 -31
134 -17 91 -21 95 -160 127 -80 18 -102 23 -130 30 -11 2 -47 11 -80 19 -33 9
-69 17 -80 19 -11 2 -60 13 -110 26 -49 12 -98 24 -107 26 -28 6 -47 11 -138
34 -47 12 -98 24 -115 26 -43 8 -47 16 -22 44 35 40 100 119 125 153 12 17 22
27 22 22 0 -6 9 4 19 20 10 17 27 39 38 50 10 11 66 77 125 146 218 260 283
336 348 409 31 36 70 81 86 100 16 19 31 37 34 40 3 3 50 59 105 124 55 66
129 154 163 195 35 42 83 98 105 126 23 27 54 62 70 79 15 16 27 32 27 35 0 3
21 28 45 54 25 26 45 53 45 60 1 18 18 -15 24 -44z"/>
</g>
</svg>
