<svg xmlns="http://www.w3.org/2000/svg" xmlns:xlink="http://www.w3.org/1999/xlink" version="1.1" width="940" height="788" viewBox="0 0 940 788" xml:space="preserve">
<desc>Created with Fabric.js 3.5.0</desc>
<defs>
</defs>
<rect x="0" y="0" width="100%" height="100%" fill="#ffffff"/>
<g transform="matrix(1.5716 0 0 1.5716 469.9901 392.9)" id="758379">
<g style="" vector-effect="non-scaling-stroke">
		<g transform="matrix(1 0 0 1 0 132.523)" id="Background_Complete">
<rect style="stroke: none; stroke-width: 1; stroke-dasharray: none; stroke-linecap: butt; stroke-dashoffset: 0; stroke-linejoin: miter; stroke-miterlimit: 4; is-custom-font: none; font-file-url: none; fill: rgb(235,235,235); fill-rule: nonzero; opacity: 1;" x="-250" y="-0.125" rx="0" ry="0" width="500" height="0.25"/>
</g>
		<g transform="matrix(1 0 0 1 183.34 148.619)" id="Background_Complete">
<rect style="stroke: none; stroke-width: 1; stroke-dasharray: none; stroke-linecap: butt; stroke-dashoffset: 0; stroke-linejoin: miter; stroke-miterlimit: 4; is-custom-font: none; font-file-url: none; fill: rgb(235,235,235); fill-rule: nonzero; opacity: 1;" x="-16.561" y="-0.125" rx="0" ry="0" width="33.122" height="0.25"/>
</g>
		<g transform="matrix(1 0 0 1 76.8735 151.333)" id="Background_Complete">
<rect style="stroke: none; stroke-width: 1; stroke-dasharray: none; stroke-linecap: butt; stroke-dashoffset: 0; stroke-linejoin: miter; stroke-miterlimit: 4; is-custom-font: none; font-file-url: none; fill: rgb(235,235,235); fill-rule: nonzero; opacity: 1;" x="-4.3465" y="-0.125" rx="0" ry="0" width="8.693" height="0.25"/>
</g>
		<g transform="matrix(1 0 0 1 156.182 139.333)" id="Background_Complete">
<rect style="stroke: none; stroke-width: 1; stroke-dasharray: none; stroke-linecap: butt; stroke-dashoffset: 0; stroke-linejoin: miter; stroke-miterlimit: 4; is-custom-font: none; font-file-url: none; fill: rgb(235,235,235); fill-rule: nonzero; opacity: 1;" x="-9.596" y="-0.125" rx="0" ry="0" width="19.192" height="0.25"/>
</g>
		<g transform="matrix(1 0 0 1 -175.9445 141.013)" id="Background_Complete">
<rect style="stroke: none; stroke-width: 1; stroke-dasharray: none; stroke-linecap: butt; stroke-dashoffset: 0; stroke-linejoin: miter; stroke-miterlimit: 4; is-custom-font: none; font-file-url: none; fill: rgb(235,235,235); fill-rule: nonzero; opacity: 1;" x="-21.5965" y="-0.125" rx="0" ry="0" width="43.193" height="0.25"/>
</g>
		<g transform="matrix(1 0 0 1 -142.2775 141.013)" id="Background_Complete">
<rect style="stroke: none; stroke-width: 1; stroke-dasharray: none; stroke-linecap: butt; stroke-dashoffset: 0; stroke-linejoin: miter; stroke-miterlimit: 4; is-custom-font: none; font-file-url: none; fill: rgb(235,235,235); fill-rule: nonzero; opacity: 1;" x="-3.1665" y="-0.125" rx="0" ry="0" width="6.333" height="0.25"/>
</g>
		<g transform="matrix(1 0 0 1 -71.691 145.236)" id="Background_Complete">
<rect style="stroke: none; stroke-width: 1; stroke-dasharray: none; stroke-linecap: butt; stroke-dashoffset: 0; stroke-linejoin: miter; stroke-miterlimit: 4; is-custom-font: none; font-file-url: none; fill: rgb(235,235,235); fill-rule: nonzero; opacity: 1;" x="-46.838" y="-0.125" rx="0" ry="0" width="93.676" height="0.25"/>
</g>
		<g transform="matrix(1 0 0 1 -109.536 -53.624)" id="Background_Complete">
<path style="stroke: none; stroke-width: 1; stroke-dasharray: none; stroke-linecap: butt; stroke-dashoffset: 0; stroke-linejoin: miter; stroke-miterlimit: 4; is-custom-font: none; font-file-url: none; fill: rgb(235,235,235); fill-rule: nonzero; opacity: 1;" transform=" translate(-140.464, -196.376)" d="M 237.014 337.8 H 43.915 c -3.147 0 -5.708 -2.561 -5.708 -5.708 V 60.66 c 0 -3.147 2.561 -5.708 5.708 -5.708 h 193.099 c 3.146 0 5.707 2.561 5.707 5.708 v 271.432 C 242.721 335.239 240.16 337.8 237.014 337.8 z M 43.915 55.203 c -3.01 0 -5.458 2.448 -5.458 5.458 v 271.432 c 0 3.01 2.448 5.458 5.458 5.458 h 193.099 c 3.009 0 5.457 -2.448 5.457 -5.458 V 60.66 c 0 -3.009 -2.448 -5.458 -5.457 -5.458 H 43.915 z" stroke-linecap="round"/>
</g>
		<g transform="matrix(1 0 0 1 106.7615 -53.624)" id="Background_Complete">
<path style="stroke: none; stroke-width: 1; stroke-dasharray: none; stroke-linecap: butt; stroke-dashoffset: 0; stroke-linejoin: miter; stroke-miterlimit: 4; is-custom-font: none; font-file-url: none; fill: rgb(235,235,235); fill-rule: nonzero; opacity: 1;" transform=" translate(-356.7615, -196.376)" d="M 453.31 337.8 H 260.212 c -3.147 0 -5.707 -2.561 -5.707 -5.708 V 60.66 c 0 -3.147 2.561 -5.708 5.707 -5.708 H 453.31 c 3.148 0 5.708 2.561 5.708 5.708 v 271.432 C 459.019 335.239 456.458 337.8 453.31 337.8 z M 260.212 55.203 c -3.009 0 -5.457 2.448 -5.457 5.458 v 271.432 c 0 3.01 2.448 5.458 5.457 5.458 H 453.31 c 3.01 0 5.458 -2.448 5.458 -5.458 V 60.66 c 0 -3.009 -2.448 -5.458 -5.458 -5.458 H 260.212 z" stroke-linecap="round"/>
</g>
		<g transform="matrix(1 0 0 1 -94.7625 40.3285)" id="Background_Complete">
<rect style="stroke: none; stroke-width: 1; stroke-dasharray: none; stroke-linecap: butt; stroke-dashoffset: 0; stroke-linejoin: miter; stroke-miterlimit: 4; is-custom-font: none; font-file-url: none; fill: rgb(235,235,235); fill-rule: nonzero; opacity: 1;" x="-63.2085" y="-4.4615" rx="0" ry="0" width="126.417" height="8.923"/>
</g>
		<g transform="matrix(1 0 0 1 -59.0395 40.3285)" id="Background_Complete">
<rect style="stroke: none; stroke-width: 1; stroke-dasharray: none; stroke-linecap: butt; stroke-dashoffset: 0; stroke-linejoin: miter; stroke-miterlimit: 4; is-custom-font: none; font-file-url: none; fill: rgb(224,224,224); fill-rule: nonzero; opacity: 1;" x="-27.4845" y="-4.4615" rx="0" ry="0" width="54.969" height="8.923"/>
</g>
		<g transform="matrix(1 0 0 1 -148.6325 88.595)" id="Background_Complete">
<rect style="stroke: none; stroke-width: 1; stroke-dasharray: none; stroke-linecap: butt; stroke-dashoffset: 0; stroke-linejoin: miter; stroke-miterlimit: 4; is-custom-font: none; font-file-url: none; fill: rgb(235,235,235); fill-rule: nonzero; opacity: 1;" x="-9.3385" y="-43.804" rx="0" ry="0" width="18.677" height="87.608"/>
</g>
		<g transform="matrix(1 0 0 1 -148.6325 49.312)" id="Background_Complete">
<polygon style="stroke: none; stroke-width: 1; stroke-dasharray: none; stroke-linecap: butt; stroke-dashoffset: 0; stroke-linejoin: miter; stroke-miterlimit: 4; is-custom-font: none; font-file-url: none; fill: rgb(224,224,224); fill-rule: nonzero; opacity: 1;" points="9.3385,4.521 -9.3385,-1.84 -9.3385,-4.521 9.3385,-4.521 "/>
</g>
		<g transform="matrix(1 0 0 1 -40.893 88.595)" id="Background_Complete">
<rect style="stroke: none; stroke-width: 1; stroke-dasharray: none; stroke-linecap: butt; stroke-dashoffset: 0; stroke-linejoin: miter; stroke-miterlimit: 4; is-custom-font: none; font-file-url: none; fill: rgb(224,224,224); fill-rule: nonzero; opacity: 1;" x="-9.339" y="-43.804" rx="0" ry="0" width="18.678" height="87.608"/>
</g>
		<g transform="matrix(1 0 0 1 -77.185 88.595)" id="Background_Complete">
<rect style="stroke: none; stroke-width: 1; stroke-dasharray: none; stroke-linecap: butt; stroke-dashoffset: 0; stroke-linejoin: miter; stroke-miterlimit: 4; is-custom-font: none; font-file-url: none; fill: rgb(235,235,235); fill-rule: nonzero; opacity: 1;" x="-9.339" y="-43.804" rx="0" ry="0" width="18.678" height="87.608"/>
</g>
		<g transform="matrix(1 0 0 1 -77.185 49.312)" id="Background_Complete">
<polygon style="stroke: none; stroke-width: 1; stroke-dasharray: none; stroke-linecap: butt; stroke-dashoffset: 0; stroke-linejoin: miter; stroke-miterlimit: 4; is-custom-font: none; font-file-url: none; fill: rgb(224,224,224); fill-rule: nonzero; opacity: 1;" points="9.339,4.521 -9.339,-1.84 -9.339,-4.521 9.339,-4.521 "/>
</g>
		<g transform="matrix(1 0 0 1 -112.3405 88.595)" id="Background_Complete">
<rect style="stroke: none; stroke-width: 1; stroke-dasharray: none; stroke-linecap: butt; stroke-dashoffset: 0; stroke-linejoin: miter; stroke-miterlimit: 4; is-custom-font: none; font-file-url: none; fill: rgb(224,224,224); fill-rule: nonzero; opacity: 1;" x="-9.3385" y="-43.804" rx="0" ry="0" width="18.677" height="87.608"/>
</g>
		<g transform="matrix(1 0 0 1 -99.3335 -95.0005)" id="Background_Complete">
<rect style="stroke: none; stroke-width: 1; stroke-dasharray: none; stroke-linecap: butt; stroke-dashoffset: 0; stroke-linejoin: miter; stroke-miterlimit: 4; is-custom-font: none; font-file-url: none; fill: rgb(235,235,235); fill-rule: nonzero; opacity: 1;" x="-79.6665" y="-67.8335" rx="0" ry="0" width="159.333" height="135.667"/>
</g>
		<g transform="matrix(-1 0 0 -1 -18.7776 -94.9998)" id="Background_Complete">
<rect style="stroke: none; stroke-width: 1; stroke-dasharray: none; stroke-linecap: butt; stroke-dashoffset: 0; stroke-linejoin: miter; stroke-miterlimit: 4; is-custom-font: none; font-file-url: none; fill: rgb(224,224,224); fill-rule: nonzero; opacity: 1;" x="-0.889" y="-67.8335" rx="0" ry="0" width="1.778" height="135.667"/>
</g>
		<g transform="matrix(0 1 -1 0 -99.333 -95.0003)" id="Background_Complete">
<rect style="stroke: none; stroke-width: 1; stroke-dasharray: none; stroke-linecap: butt; stroke-dashoffset: 0; stroke-linejoin: miter; stroke-miterlimit: 4; is-custom-font: none; font-file-url: none; fill: rgb(245,245,245); fill-rule: nonzero; opacity: 1;" x="-61.8335" y="-73.6665" rx="0" ry="0" width="123.667" height="147.333"/>
</g>
		<g transform="matrix(1 0 0 1 -82.1877 -84.6073)" id="Background_Complete">
<path style="stroke: none; stroke-width: 1; stroke-dasharray: none; stroke-linecap: butt; stroke-dashoffset: 0; stroke-linejoin: miter; stroke-miterlimit: 4; is-custom-font: none; font-file-url: none; fill: rgb(255,255,255); fill-rule: nonzero; opacity: 1;" transform=" translate(-167.8123, -165.3927)" d="M 148.888 198.056 c 8.975 -30.027 11.5 -74.248 30.646 -68.144 c 19.145 6.104 -5.935 71.532 -5.935 71.532 L 148.888 198.056 z" stroke-linecap="round"/>
</g>
		<g transform="matrix(1 0 0 1 -109.6291 -99.4527)" id="Background_Complete">
<path style="stroke: none; stroke-width: 1; stroke-dasharray: none; stroke-linecap: butt; stroke-dashoffset: 0; stroke-linejoin: miter; stroke-miterlimit: 4; is-custom-font: none; font-file-url: none; fill: rgb(255,255,255); fill-rule: nonzero; opacity: 1;" transform=" translate(-140.3708, -150.5473)" d="M 164.352 199.554 c -9.161 -43.481 -6.852 -101.205 -35.313 -99.881 c -28.461 1.324 0 101.771 0 101.771 L 164.352 199.554 z" stroke-linecap="round"/>
</g>
		<g transform="matrix(1 0 0 1 -96.7949 -9.7295)" id="Background_Complete">
<path style="stroke: none; stroke-width: 1; stroke-dasharray: none; stroke-linecap: butt; stroke-dashoffset: 0; stroke-linejoin: miter; stroke-miterlimit: 4; is-custom-font: none; font-file-url: none; fill: rgb(235,235,235); fill-rule: nonzero; opacity: 1;" transform=" translate(-153.2051, -240.2705)" d="M 184.455 194.674 h -62.301 c -2.77 0 -4.873 2.033 -4.986 4.604 c -1.267 28.699 3.434 57.952 12.183 86.589 h 47.709 c 8.749 -28.637 13.45 -57.89 12.182 -86.589 C 189.128 196.707 187.029 194.674 184.455 194.674 z" stroke-linecap="round"/>
</g>
		<g transform="matrix(1 0 0 1 74.445 -7.6515)" id="Background_Complete">
<rect style="stroke: none; stroke-width: 1; stroke-dasharray: none; stroke-linecap: butt; stroke-dashoffset: 0; stroke-linejoin: miter; stroke-miterlimit: 4; is-custom-font: none; font-file-url: none; fill: rgb(224,224,224); fill-rule: nonzero; opacity: 1;" x="-1.755" y="-140.0505" rx="0" ry="0" width="3.51" height="280.101"/>
</g>
		<g transform="matrix(1 0 0 1 156.937 -7.6515)" id="Background_Complete">
<rect style="stroke: none; stroke-width: 1; stroke-dasharray: none; stroke-linecap: butt; stroke-dashoffset: 0; stroke-linejoin: miter; stroke-miterlimit: 4; is-custom-font: none; font-file-url: none; fill: rgb(224,224,224); fill-rule: nonzero; opacity: 1;" x="-1.755" y="-140.0505" rx="0" ry="0" width="3.51" height="280.101"/>
</g>
		<g transform="matrix(1 0 0 1 49.554 -7.6515)" id="Background_Complete">
<rect style="stroke: none; stroke-width: 1; stroke-dasharray: none; stroke-linecap: butt; stroke-dashoffset: 0; stroke-linejoin: miter; stroke-miterlimit: 4; is-custom-font: none; font-file-url: none; fill: rgb(235,235,235); fill-rule: nonzero; opacity: 1;" x="-1.755" y="-140.0505" rx="0" ry="0" width="3.51" height="280.101"/>
</g>
		<g transform="matrix(1 0 0 1 132.046 -7.6515)" id="Background_Complete">
<rect style="stroke: none; stroke-width: 1; stroke-dasharray: none; stroke-linecap: butt; stroke-dashoffset: 0; stroke-linejoin: miter; stroke-miterlimit: 4; is-custom-font: none; font-file-url: none; fill: rgb(235,235,235); fill-rule: nonzero; opacity: 1;" x="-1.755" y="-140.0505" rx="0" ry="0" width="3.51" height="280.101"/>
</g>
		<g transform="matrix(1 0 0 1 103.246 -147.7025)" id="Background_Complete">
<rect style="stroke: none; stroke-width: 1; stroke-dasharray: none; stroke-linecap: butt; stroke-dashoffset: 0; stroke-linejoin: miter; stroke-miterlimit: 4; is-custom-font: none; font-file-url: none; fill: rgb(235,235,235); fill-rule: nonzero; opacity: 1;" x="-55.447" y="-1.9145" rx="0" ry="0" width="110.894" height="3.829"/>
</g>
		<g transform="matrix(1 0 0 1 103.246 -79.1125)" id="Background_Complete">
<rect style="stroke: none; stroke-width: 1; stroke-dasharray: none; stroke-linecap: butt; stroke-dashoffset: 0; stroke-linejoin: miter; stroke-miterlimit: 4; is-custom-font: none; font-file-url: none; fill: rgb(235,235,235); fill-rule: nonzero; opacity: 1;" x="-55.447" y="-1.9145" rx="0" ry="0" width="110.894" height="3.829"/>
</g>
		<g transform="matrix(1 0 0 1 103.246 -10.5225)" id="Background_Complete">
<rect style="stroke: none; stroke-width: 1; stroke-dasharray: none; stroke-linecap: butt; stroke-dashoffset: 0; stroke-linejoin: miter; stroke-miterlimit: 4; is-custom-font: none; font-file-url: none; fill: rgb(235,235,235); fill-rule: nonzero; opacity: 1;" x="-55.447" y="-1.9145" rx="0" ry="0" width="110.894" height="3.829"/>
</g>
		<g transform="matrix(1 0 0 1 103.246 58.0665)" id="Background_Complete">
<rect style="stroke: none; stroke-width: 1; stroke-dasharray: none; stroke-linecap: butt; stroke-dashoffset: 0; stroke-linejoin: miter; stroke-miterlimit: 4; is-custom-font: none; font-file-url: none; fill: rgb(235,235,235); fill-rule: nonzero; opacity: 1;" x="-55.447" y="-1.9145" rx="0" ry="0" width="110.894" height="3.829"/>
</g>
		<g transform="matrix(1 0 0 1 103.246 126.6565)" id="Background_Complete">
<rect style="stroke: none; stroke-width: 1; stroke-dasharray: none; stroke-linecap: butt; stroke-dashoffset: 0; stroke-linejoin: miter; stroke-miterlimit: 4; is-custom-font: none; font-file-url: none; fill: rgb(235,235,235); fill-rule: nonzero; opacity: 1;" x="-55.447" y="-1.9145" rx="0" ry="0" width="110.894" height="3.829"/>
</g>
		<g transform="matrix(1 0 0 1 146.2465 -147.7035)" id="Background_Complete">
<rect style="stroke: none; stroke-width: 1; stroke-dasharray: none; stroke-linecap: butt; stroke-dashoffset: 0; stroke-linejoin: miter; stroke-miterlimit: 4; is-custom-font: none; font-file-url: none; fill: rgb(224,224,224); fill-rule: nonzero; opacity: 1;" x="-12.4455" y="-1.9145" rx="0" ry="0" width="24.891" height="3.829"/>
</g>
		<g transform="matrix(1 0 0 1 146.2465 -79.1135)" id="Background_Complete">
<rect style="stroke: none; stroke-width: 1; stroke-dasharray: none; stroke-linecap: butt; stroke-dashoffset: 0; stroke-linejoin: miter; stroke-miterlimit: 4; is-custom-font: none; font-file-url: none; fill: rgb(224,224,224); fill-rule: nonzero; opacity: 1;" x="-12.4455" y="-1.9145" rx="0" ry="0" width="24.891" height="3.829"/>
</g>
		<g transform="matrix(1 0 0 1 146.2465 -10.5235)" id="Background_Complete">
<rect style="stroke: none; stroke-width: 1; stroke-dasharray: none; stroke-linecap: butt; stroke-dashoffset: 0; stroke-linejoin: miter; stroke-miterlimit: 4; is-custom-font: none; font-file-url: none; fill: rgb(224,224,224); fill-rule: nonzero; opacity: 1;" x="-12.4455" y="-1.9145" rx="0" ry="0" width="24.891" height="3.829"/>
</g>
		<g transform="matrix(1 0 0 1 146.2465 58.0655)" id="Background_Complete">
<rect style="stroke: none; stroke-width: 1; stroke-dasharray: none; stroke-linecap: butt; stroke-dashoffset: 0; stroke-linejoin: miter; stroke-miterlimit: 4; is-custom-font: none; font-file-url: none; fill: rgb(224,224,224); fill-rule: nonzero; opacity: 1;" x="-12.4455" y="-1.9145" rx="0" ry="0" width="24.891" height="3.829"/>
</g>
		<g transform="matrix(1 0 0 1 146.2465 126.6555)" id="Background_Complete">
<rect style="stroke: none; stroke-width: 1; stroke-dasharray: none; stroke-linecap: butt; stroke-dashoffset: 0; stroke-linejoin: miter; stroke-miterlimit: 4; is-custom-font: none; font-file-url: none; fill: rgb(224,224,224); fill-rule: nonzero; opacity: 1;" x="-12.4455" y="-1.9145" rx="0" ry="0" width="24.891" height="3.829"/>
</g>
		<g transform="matrix(1 0 0 1 85.8685 -106.357)" id="Background_Complete">
<path style="stroke: none; stroke-width: 1; stroke-dasharray: none; stroke-linecap: butt; stroke-dashoffset: 0; stroke-linejoin: miter; stroke-miterlimit: 4; is-custom-font: none; font-file-url: none; fill: rgb(240,240,240); fill-rule: nonzero; opacity: 1;" transform=" translate(-335.8685, -143.643)" d="M 342.535 123.712 v -5.398 h -13.334 v 5.398 c 0 3.526 -2.859 6.385 -6.385 6.385 l 0 0 c -3.527 0 -6.385 2.859 -6.385 6.385 v 32.49 h 38.875 v -32.49 c 0 -3.527 -2.859 -6.385 -6.385 -6.385 h 0 C 345.393 130.097 342.535 127.238 342.535 123.712 z" stroke-linecap="round"/>
</g>
		<g transform="matrix(1 0 0 1 90.9125 -23.5915)" id="Background_Complete">
<rect style="stroke: none; stroke-width: 1; stroke-dasharray: none; stroke-linecap: butt; stroke-dashoffset: 0; stroke-linejoin: miter; stroke-miterlimit: 4; is-custom-font: none; font-file-url: none; fill: rgb(240,240,240); fill-rule: nonzero; opacity: 1;" x="-29.2095" y="-11.1535" rx="0" ry="0" width="58.419" height="22.307"/>
</g>
		<g transform="matrix(-1 0 0 -1 125.2064 -23.5916)" id="Background_Complete">
<rect style="stroke: none; stroke-width: 1; stroke-dasharray: none; stroke-linecap: butt; stroke-dashoffset: 0; stroke-linejoin: miter; stroke-miterlimit: 4; is-custom-font: none; font-file-url: none; fill: rgb(230,230,230); fill-rule: nonzero; opacity: 1;" x="-5.085" y="-11.1535" rx="0" ry="0" width="10.17" height="22.307"/>
</g>
		<g transform="matrix(-1 0 0 -1 125.2064 -23.5922)" id="Background_Complete">
<rect style="stroke: none; stroke-width: 1; stroke-dasharray: none; stroke-linecap: butt; stroke-dashoffset: 0; stroke-linejoin: miter; stroke-miterlimit: 4; is-custom-font: none; font-file-url: none; fill: rgb(235,235,235); fill-rule: nonzero; opacity: 1;" x="-5.085" y="-1.229" rx="0" ry="0" width="10.17" height="2.458"/>
</g>
		<g transform="matrix(1 0 0 1 90.9125 -23.591)" id="Background_Complete">
<rect style="stroke: none; stroke-width: 1; stroke-dasharray: none; stroke-linecap: butt; stroke-dashoffset: 0; stroke-linejoin: miter; stroke-miterlimit: 4; is-custom-font: none; font-file-url: none; fill: rgb(245,245,245); fill-rule: nonzero; opacity: 1;" x="-29.2095" y="-1.229" rx="0" ry="0" width="58.419" height="2.458"/>
</g>
		<g transform="matrix(1 0 0 1 81.651 105.0225)" id="Background_Complete">
<rect style="stroke: none; stroke-width: 1; stroke-dasharray: none; stroke-linecap: butt; stroke-dashoffset: 0; stroke-linejoin: miter; stroke-miterlimit: 4; is-custom-font: none; font-file-url: none; fill: rgb(240,240,240); fill-rule: nonzero; opacity: 1;" x="-22.816" y="-19.7195" rx="0" ry="0" width="45.632" height="39.439"/>
</g>
		<g transform="matrix(-1 0 0 -1 108.4385 105.0226)" id="Background_Complete">
<rect style="stroke: none; stroke-width: 1; stroke-dasharray: none; stroke-linecap: butt; stroke-dashoffset: 0; stroke-linejoin: miter; stroke-miterlimit: 4; is-custom-font: none; font-file-url: none; fill: rgb(230,230,230); fill-rule: nonzero; opacity: 1;" x="-3.972" y="-19.7195" rx="0" ry="0" width="7.944" height="39.439"/>
</g>
		<g transform="matrix(-1 0 0 -1 108.4385 105.0225)" id="Background_Complete">
<rect style="stroke: none; stroke-width: 1; stroke-dasharray: none; stroke-linecap: butt; stroke-dashoffset: 0; stroke-linejoin: miter; stroke-miterlimit: 4; is-custom-font: none; font-file-url: none; fill: rgb(235,235,235); fill-rule: nonzero; opacity: 1;" x="-3.972" y="-2.1725" rx="0" ry="0" width="7.944" height="4.345"/>
</g>
		<g transform="matrix(1 0 0 1 81.651 105.0225)" id="Background_Complete">
<rect style="stroke: none; stroke-width: 1; stroke-dasharray: none; stroke-linecap: butt; stroke-dashoffset: 0; stroke-linejoin: miter; stroke-miterlimit: 4; is-custom-font: none; font-file-url: none; fill: rgb(245,245,245); fill-rule: nonzero; opacity: 1;" x="-22.816" y="-2.1725" rx="0" ry="0" width="45.632" height="4.345"/>
</g>
		<g transform="matrix(-1 0 0 -1 108.4385 99.0256)" id="Background_Complete">
<rect style="stroke: none; stroke-width: 1; stroke-dasharray: none; stroke-linecap: butt; stroke-dashoffset: 0; stroke-linejoin: miter; stroke-miterlimit: 4; is-custom-font: none; font-file-url: none; fill: rgb(235,235,235); fill-rule: nonzero; opacity: 1;" x="-3.972" y="-0.776" rx="0" ry="0" width="7.944" height="1.552"/>
</g>
		<g transform="matrix(1 0 0 1 81.651 99.025)" id="Background_Complete">
<rect style="stroke: none; stroke-width: 1; stroke-dasharray: none; stroke-linecap: butt; stroke-dashoffset: 0; stroke-linejoin: miter; stroke-miterlimit: 4; is-custom-font: none; font-file-url: none; fill: rgb(245,245,245); fill-rule: nonzero; opacity: 1;" x="-22.816" y="-0.776" rx="0" ry="0" width="45.632" height="1.552"/>
</g>
		<g transform="matrix(1 0 0 1 65.835 36.103)" id="Background_Complete">
<rect style="stroke: none; stroke-width: 1; stroke-dasharray: none; stroke-linecap: butt; stroke-dashoffset: 0; stroke-linejoin: miter; stroke-miterlimit: 4; is-custom-font: none; font-file-url: none; fill: rgb(240,240,240); fill-rule: nonzero; opacity: 1;" x="-4.132" y="-20.049" rx="0" ry="0" width="8.264" height="40.098"/>
</g>
		<g transform="matrix(1 0 0 1 65.835 36.1025)" id="Background_Complete">
<rect style="stroke: none; stroke-width: 1; stroke-dasharray: none; stroke-linecap: butt; stroke-dashoffset: 0; stroke-linejoin: miter; stroke-miterlimit: 4; is-custom-font: none; font-file-url: none; fill: rgb(250,250,250); fill-rule: nonzero; opacity: 1;" x="-4.132" y="-5.7615" rx="0" ry="0" width="8.264" height="11.523"/>
</g>
		<g transform="matrix(-1 0 0 -1 84.0167 36.1024)" id="Background_Complete">
<rect style="stroke: none; stroke-width: 1; stroke-dasharray: none; stroke-linecap: butt; stroke-dashoffset: 0; stroke-linejoin: miter; stroke-miterlimit: 4; is-custom-font: none; font-file-url: none; fill: rgb(230,230,230); fill-rule: nonzero; opacity: 1;" x="-14.0495" y="-20.049" rx="0" ry="0" width="28.099" height="40.098"/>
</g>
		<g transform="matrix(1 0 0 1 78.0575 33.5095)" id="Background_Complete">
<rect style="stroke: none; stroke-width: 1; stroke-dasharray: none; stroke-linecap: butt; stroke-dashoffset: 0; stroke-linejoin: miter; stroke-miterlimit: 4; is-custom-font: none; font-file-url: none; fill: rgb(235,235,235); fill-rule: nonzero; opacity: 1;" x="-4.6665" y="-22.6415" rx="0" ry="0" width="9.333" height="45.283"/>
</g>
		<g transform="matrix(1 0 0 1 78.0575 28.747)" id="Background_Complete">
<rect style="stroke: none; stroke-width: 1; stroke-dasharray: none; stroke-linecap: butt; stroke-dashoffset: 0; stroke-linejoin: miter; stroke-miterlimit: 4; is-custom-font: none; font-file-url: none; fill: rgb(250,250,250); fill-rule: nonzero; opacity: 1;" x="-4.6665" y="-3.486" rx="0" ry="0" width="9.333" height="6.972"/>
</g>
		<g transform="matrix(1 0 0 1 78.0575 40.389)" id="Background_Complete">
<rect style="stroke: none; stroke-width: 1; stroke-dasharray: none; stroke-linecap: butt; stroke-dashoffset: 0; stroke-linejoin: miter; stroke-miterlimit: 4; is-custom-font: none; font-file-url: none; fill: rgb(250,250,250); fill-rule: nonzero; opacity: 1;" x="-4.6665" y="-3.486" rx="0" ry="0" width="9.333" height="6.972"/>
</g>
		<g transform="matrix(-1 0 0 -1 98.5907 33.5102)" id="Background_Complete">
<rect style="stroke: none; stroke-width: 1; stroke-dasharray: none; stroke-linecap: butt; stroke-dashoffset: 0; stroke-linejoin: miter; stroke-miterlimit: 4; is-custom-font: none; font-file-url: none; fill: rgb(224,224,224); fill-rule: nonzero; opacity: 1;" x="-15.8665" y="-22.6415" rx="0" ry="0" width="31.733" height="45.283"/>
</g>
		<g transform="matrix(1 0 0 1 90.593 36.103)" id="Background_Complete">
<rect style="stroke: none; stroke-width: 1; stroke-dasharray: none; stroke-linecap: butt; stroke-dashoffset: 0; stroke-linejoin: miter; stroke-miterlimit: 4; is-custom-font: none; font-file-url: none; fill: rgb(240,240,240); fill-rule: nonzero; opacity: 1;" x="-2.513" y="-20.049" rx="0" ry="0" width="5.026" height="40.098"/>
</g>
		<g transform="matrix(1 0 0 1 90.593 36.103)" id="Background_Complete">
<rect style="stroke: none; stroke-width: 1; stroke-dasharray: none; stroke-linecap: butt; stroke-dashoffset: 0; stroke-linejoin: miter; stroke-miterlimit: 4; is-custom-font: none; font-file-url: none; fill: rgb(250,250,250); fill-rule: nonzero; opacity: 1;" x="-1.649" y="-14.969" rx="0" ry="0" width="3.298" height="29.938"/>
</g>
		<g transform="matrix(-1 0 0 -1 101.649 36.1024)" id="Background_Complete">
<rect style="stroke: none; stroke-width: 1; stroke-dasharray: none; stroke-linecap: butt; stroke-dashoffset: 0; stroke-linejoin: miter; stroke-miterlimit: 4; is-custom-font: none; font-file-url: none; fill: rgb(230,230,230); fill-rule: nonzero; opacity: 1;" x="-8.5435" y="-20.049" rx="0" ry="0" width="17.087" height="40.098"/>
</g>
		<g transform="matrix(1 0 0 1 103.701 35.044)" id="Background_Complete">
<rect style="stroke: none; stroke-width: 1; stroke-dasharray: none; stroke-linecap: butt; stroke-dashoffset: 0; stroke-linejoin: miter; stroke-miterlimit: 4; is-custom-font: none; font-file-url: none; fill: rgb(235,235,235); fill-rule: nonzero; opacity: 1;" x="-2.838" y="-21.107" rx="0" ry="0" width="5.676" height="42.214"/>
</g>
		<g transform="matrix(1 0 0 1 103.701 30.605)" id="Background_Complete">
<rect style="stroke: none; stroke-width: 1; stroke-dasharray: none; stroke-linecap: butt; stroke-dashoffset: 0; stroke-linejoin: miter; stroke-miterlimit: 4; is-custom-font: none; font-file-url: none; fill: rgb(250,250,250); fill-rule: nonzero; opacity: 1;" x="-2.838" y="-3.25" rx="0" ry="0" width="5.676" height="6.5"/>
</g>
		<g transform="matrix(1 0 0 1 103.701 41.457)" id="Background_Complete">
<rect style="stroke: none; stroke-width: 1; stroke-dasharray: none; stroke-linecap: butt; stroke-dashoffset: 0; stroke-linejoin: miter; stroke-miterlimit: 4; is-custom-font: none; font-file-url: none; fill: rgb(250,250,250); fill-rule: nonzero; opacity: 1;" x="-2.838" y="-3.25" rx="0" ry="0" width="5.676" height="6.5"/>
</g>
		<g transform="matrix(-1 0 0 -1 116.1877 35.0448)" id="Background_Complete">
<rect style="stroke: none; stroke-width: 1; stroke-dasharray: none; stroke-linecap: butt; stroke-dashoffset: 0; stroke-linejoin: miter; stroke-miterlimit: 4; is-custom-font: none; font-file-url: none; fill: rgb(224,224,224); fill-rule: nonzero; opacity: 1;" x="-9.6485" y="-21.107" rx="0" ry="0" width="19.297" height="42.214"/>
</g>
		<g transform="matrix(0.7071 -0.7071 0.7071 0.7071 95.1556 -47.1788)" id="Background_Complete">
<ellipse style="stroke: none; stroke-width: 1; stroke-dasharray: none; stroke-linecap: butt; stroke-dashoffset: 0; stroke-linejoin: miter; stroke-miterlimit: 4; is-custom-font: none; font-file-url: none; fill: rgb(245,245,245); fill-rule: nonzero; opacity: 1;" cx="0" cy="0" rx="12.435" ry="12.435"/>
</g>
		<g transform="matrix(0.9871 -0.1602 0.1602 0.9871 108.9272 -43.3721)" id="Background_Complete">
<ellipse style="stroke: none; stroke-width: 1; stroke-dasharray: none; stroke-linecap: butt; stroke-dashoffset: 0; stroke-linejoin: miter; stroke-miterlimit: 4; is-custom-font: none; font-file-url: none; fill: rgb(235,235,235); fill-rule: nonzero; opacity: 1;" cx="0" cy="0" rx="8.623" ry="8.623"/>
</g>
		<g transform="matrix(1 0 0 1 -27.8791 3.3037)" id="Background_Simple">
<path style="stroke: none; stroke-width: 1; stroke-dasharray: none; stroke-linecap: butt; stroke-dashoffset: 0; stroke-linejoin: miter; stroke-miterlimit: 4; is-custom-font: none; font-file-url: none; fill: rgb(64,123,255); fill-rule: nonzero; opacity: 1; visibility: hidden;" transform=" translate(-222.1209, -253.3037)" d="M 219.124 183.697 c 1.736 -0.372 3.463 -0.758 5.18 -1.154 c 42.218 -9.735 90.499 -15.369 127.108 1.784 c 35.891 16.816 31.482 52.444 10.493 85.161 c -35.933 56.009 -172.032 109.144 -208.729 52.207 c -11.863 -18.406 8.589 -50.802 -6.128 -72.498 c -16.755 -24.7 -94.319 -9.081 -78.821 -63.649 c 8.593 -30.257 30.629 -28.48 54.314 -18.66 c 13.592 5.635 26.572 12.644 40.625 17.407 C 180.236 190.078 200.155 187.758 219.124 183.697 z" stroke-linecap="round"/>
</g>
		<g transform="matrix(1 0 0 1 -27.8791 3.3037)" id="Background_Simple">
<path style="stroke: none; stroke-width: 1; stroke-dasharray: none; stroke-linecap: butt; stroke-dashoffset: 0; stroke-linejoin: miter; stroke-miterlimit: 4; is-custom-font: none; font-file-url: none; fill: rgb(255,255,255); fill-rule: nonzero; opacity: 0.9; visibility: hidden;" transform=" translate(-222.1209, -253.3037)" d="M 219.124 183.697 c 1.736 -0.372 3.463 -0.758 5.18 -1.154 c 42.218 -9.735 90.499 -15.369 127.108 1.784 c 35.891 16.816 31.482 52.444 10.493 85.161 c -35.933 56.009 -172.032 109.144 -208.729 52.207 c -11.863 -18.406 8.589 -50.802 -6.128 -72.498 c -16.755 -24.7 -94.319 -9.081 -78.821 -63.649 c 8.593 -30.257 30.629 -28.48 54.314 -18.66 c 13.592 5.635 26.572 12.644 40.625 17.407 C 180.236 190.078 200.155 187.758 219.124 183.697 z" stroke-linecap="round"/>
</g>
		<g transform="matrix(1 0 0 1 0 166.238)" id="_x3C_Path_x3E__356_">
<ellipse style="stroke: none; stroke-width: 1; stroke-dasharray: none; stroke-linecap: butt; stroke-dashoffset: 0; stroke-linejoin: miter; stroke-miterlimit: 4; is-custom-font: none; font-file-url: none; fill: rgb(245,245,245); fill-rule: nonzero; opacity: 1;" cx="0" cy="0" rx="193.889" ry="11.323"/>
</g>
		<g transform="matrix(1 0 0 1 -59.6695 125.093)" id="Box">
<path style="stroke: none; stroke-width: 1; stroke-dasharray: none; stroke-linecap: butt; stroke-dashoffset: 0; stroke-linejoin: miter; stroke-miterlimit: 4; is-custom-font: none; font-file-url: none; fill: rgb(64,123,255); fill-rule: nonzero; opacity: 1;" transform=" translate(-190.3305, -375.093)" d="M 254.553 338.69 H 126.108 v 66.336 c 0 3.573 2.897 6.47 6.47 6.47 h 115.504 c 3.573 0 6.47 -2.897 6.47 -6.47 V 338.69 z" stroke-linecap="round"/>
</g>
		<g transform="matrix(1 0 0 1 -84.2965 80.1155)" id="Box">
<path style="stroke: none; stroke-width: 1; stroke-dasharray: none; stroke-linecap: butt; stroke-dashoffset: 0; stroke-linejoin: miter; stroke-miterlimit: 4; is-custom-font: none; font-file-url: none; fill: rgb(64,123,255); fill-rule: nonzero; opacity: 1;" transform=" translate(-165.7034, -330.1155)" d="M 126.108 338.69 h 90.883 l -11.182 -14.308 c -1.226 -1.569 -4.27 -2.841 -6.798 -2.841 h -81.726 c -2.529 0 -3.584 1.272 -2.358 2.841 L 126.108 338.69 z" stroke-linecap="round"/>
</g>
		<g transform="matrix(1 0 0 1 -84.2965 80.1155)" id="Box">
<path style="stroke: none; stroke-width: 1; stroke-dasharray: none; stroke-linecap: butt; stroke-dashoffset: 0; stroke-linejoin: miter; stroke-miterlimit: 4; is-custom-font: none; font-file-url: none; fill: rgb(0,0,0); fill-rule: nonzero; opacity: 0.2;" transform=" translate(-165.7034, -330.1155)" d="M 126.108 338.69 h 90.883 l -11.182 -14.308 c -1.226 -1.569 -4.27 -2.841 -6.798 -2.841 h -81.726 c -2.529 0 -3.584 1.272 -2.358 2.841 L 126.108 338.69 z" stroke-linecap="round"/>
</g>
		<g transform="matrix(1 0 0 1 -35.0425 83.101)" id="Box">
<path style="stroke: none; stroke-width: 1; stroke-dasharray: none; stroke-linecap: butt; stroke-dashoffset: 0; stroke-linejoin: miter; stroke-miterlimit: 4; is-custom-font: none; font-file-url: none; fill: rgb(64,123,255); fill-rule: nonzero; opacity: 1;" transform=" translate(-214.9575, -333.101)" d="M 254.553 338.69 H 163.67 l 11.182 -9.326 c 1.226 -1.023 4.27 -1.852 6.798 -1.852 h 81.726 c 2.528 0 3.584 0.829 2.358 1.852 L 254.553 338.69 z" stroke-linecap="round"/>
</g>
		<g transform="matrix(1 0 0 1 -40.8885 125.093)" id="Box">
<path style="stroke: none; stroke-width: 1; stroke-dasharray: none; stroke-linecap: butt; stroke-dashoffset: 0; stroke-linejoin: miter; stroke-miterlimit: 4; is-custom-font: none; font-file-url: none; fill: rgb(255,255,255); fill-rule: nonzero; opacity: 0.2;" transform=" translate(-209.1115, -375.093)" d="M 254.553 338.69 H 163.67 v 66.336 c 0 3.573 2.897 6.47 6.47 6.47 h 77.942 c 3.573 0 6.47 -2.897 6.47 -6.47 V 338.69 z" stroke-linecap="round"/>
</g>
		<g transform="matrix(1 0 0 1 -105.111 111.431)" id="Box">
<polygon style="stroke: none; stroke-width: 1; stroke-dasharray: none; stroke-linecap: butt; stroke-dashoffset: 0; stroke-linejoin: miter; stroke-miterlimit: 4; is-custom-font: none; font-file-url: none; fill: rgb(255,255,255); fill-rule: nonzero; opacity: 0.5;" points="-7.5,-22.741 -7.5,22.741 -4.359,20.262 -2.148,22.741 -0.224,19.98 1.738,22.741 4.485,20.664 7.5,22.741 7.5,-22.741 "/>
</g>
		<g transform="matrix(1 0 0 1 -100.351 -17.3)" id="Character_1_">
<line style="stroke: rgb(64,123,255); stroke-width: 1; stroke-dasharray: none; stroke-linecap: butt; stroke-dashoffset: 0; stroke-linejoin: miter; stroke-miterlimit: 10; is-custom-font: none; font-file-url: none; fill: none; fill-rule: nonzero; opacity: 1;" x1="8.075999999999993" y1="6.780000000000001" x2="-8.075999999999993" y2="-6.780000000000001"/>
</g>
		<g transform="matrix(1 0 0 1 -86.369 -5.5615)" id="Character_1_">
<line style="stroke: rgb(64,123,255); stroke-width: 1; stroke-dasharray: none; stroke-linecap: butt; stroke-dashoffset: 0; stroke-linejoin: miter; stroke-miterlimit: 10; is-custom-font: none; font-file-url: none; fill: none; fill-rule: nonzero; opacity: 1;" x1="2.462999999999994" y1="2.0674999999999955" x2="-2.462999999999994" y2="-2.0674999999999955"/>
</g>
		<g transform="matrix(1 0 0 1 -45.2037 -37.3544)" id="Character_1_">
<path style="stroke: none; stroke-width: 1; stroke-dasharray: none; stroke-linecap: butt; stroke-dashoffset: 0; stroke-linejoin: miter; stroke-miterlimit: 4; is-custom-font: none; font-file-url: none; fill: rgb(64,123,255); fill-rule: nonzero; opacity: 1;" transform=" translate(-204.7963, -212.6456)" d="M 214.474 274.889 l 53.278 -66.594 l -70.938 -59.555 l -47.036 53.929 l -6.962 13.491 c -1.463 1.678 -1.26 4.03 0.473 5.485 l 64.014 53.742 C 209.369 277.121 212.731 276.888 214.474 274.889 z" stroke-linecap="round"/>
</g>
		<g transform="matrix(1 0 0 1 -70.1115 -13.0945)" id="Character_1_">
<polygon style="stroke: none; stroke-width: 1; stroke-dasharray: none; stroke-linecap: butt; stroke-dashoffset: 0; stroke-linejoin: miter; stroke-miterlimit: 4; is-custom-font: none; font-file-url: none; fill: rgb(255,255,255); fill-rule: nonzero; opacity: 0.5;" points="-1.9555,-11.1235 -9.6255,1.2295 -6.5415,1.8925 -5.4935,4.7595 -3.4375,4.8795 -2.4925,7.3235 0.0205,8.0585 1.9565,11.1235 9.6255,-1.2305 "/>
</g>
		<g transform="matrix(1 0 0 1 -42.3945 -45.8045)" id="Character_1_">
<polygon style="stroke: none; stroke-width: 1; stroke-dasharray: none; stroke-linecap: butt; stroke-dashoffset: 0; stroke-linejoin: miter; stroke-miterlimit: 4; is-custom-font: none; font-file-url: none; fill: rgb(0,0,0); fill-rule: nonzero; opacity: 0.1;" points="57.8275,2.1515 10.0445,55.4545 -57.8275,-1.5265 -10.7915,-55.4545 "/>
</g>
		<g transform="matrix(1 0 0 1 1.06 -16.27)" id="Character_1_">
<polygon style="stroke: none; stroke-width: 1; stroke-dasharray: none; stroke-linecap: butt; stroke-dashoffset: 0; stroke-linejoin: miter; stroke-miterlimit: 4; is-custom-font: none; font-file-url: none; fill: rgb(64,123,255); fill-rule: nonzero; opacity: 1;" points="14.373,-27.383 -33.41,25.92 -13.627,27.383 33.41,-26.546 "/>
</g>
		<g transform="matrix(1 0 0 1 1.06 -16.27)" id="Character_1_">
<polygon style="stroke: none; stroke-width: 1; stroke-dasharray: none; stroke-linecap: butt; stroke-dashoffset: 0; stroke-linejoin: miter; stroke-miterlimit: 4; is-custom-font: none; font-file-url: none; fill: rgb(0,0,0); fill-rule: nonzero; opacity: 0.3;" points="14.373,-27.383 -33.41,25.92 -13.627,27.383 33.41,-26.546 "/>
</g>
		<g transform="matrix(1 0 0 1 -86.5955 -74.7135)" id="Character_1_">
<polygon style="stroke: none; stroke-width: 1; stroke-dasharray: none; stroke-linecap: butt; stroke-dashoffset: 0; stroke-linejoin: miter; stroke-miterlimit: 4; is-custom-font: none; font-file-url: none; fill: rgb(64,123,255); fill-rule: nonzero; opacity: 1;" points="14.3725,-27.3825 -33.4095,25.9195 -13.6265,27.3825 33.4095,-26.5455 "/>
</g>
		<g transform="matrix(1 0 0 1 -86.5955 -74.7135)" id="Character_1_">
<polygon style="stroke: none; stroke-width: 1; stroke-dasharray: none; stroke-linecap: butt; stroke-dashoffset: 0; stroke-linejoin: miter; stroke-miterlimit: 4; is-custom-font: none; font-file-url: none; fill: rgb(0,0,0); fill-rule: nonzero; opacity: 0.4;" points="14.3725,-27.3825 -33.4095,25.9195 -13.6265,27.3825 33.4095,-26.5455 "/>
</g>
		<g transform="matrix(1 0 0 1 -23.271 -64.2485)" id="Character_1_">
<polygon style="stroke: none; stroke-width: 1; stroke-dasharray: none; stroke-linecap: butt; stroke-dashoffset: 0; stroke-linejoin: miter; stroke-miterlimit: 4; is-custom-font: none; font-file-url: none; fill: rgb(0,0,0); fill-rule: nonzero; opacity: 0.1;" points="23.989,37.0105 38.704,20.5955 -29.915,-37.0105 -38.704,-15.8535 "/>
</g>
		<g transform="matrix(1 0 0 1 -76.704 -72.141)" id="Character_1_">
<polygon style="stroke: none; stroke-width: 1; stroke-dasharray: none; stroke-linecap: butt; stroke-dashoffset: 0; stroke-linejoin: miter; stroke-miterlimit: 4; is-custom-font: none; font-file-url: none; fill: rgb(0,0,0); fill-rule: nonzero; opacity: 0.2;" points="-23.518,24.81 23.518,-29.118 14.729,-7.961 -18.387,29.118 "/>
</g>
		<g transform="matrix(1 0 0 1 31.2498 -143.7689)" id="Character_1_">
<path style="stroke: none; stroke-width: 1; stroke-dasharray: none; stroke-linecap: butt; stroke-dashoffset: 0; stroke-linejoin: miter; stroke-miterlimit: 4; is-custom-font: none; font-file-url: none; fill: rgb(38,50,56); fill-rule: nonzero; opacity: 1;" transform=" translate(-281.2498, -106.2312)" d="M 282.014 106.007 c 0.189 0.646 0.001 1.269 -0.421 1.393 c -0.422 0.124 -0.918 -0.299 -1.107 -0.945 c -0.19 -0.646 -0.001 -1.269 0.421 -1.393 C 281.329 104.939 281.825 105.362 282.014 106.007 z" stroke-linecap="round"/>
</g>
		<g transform="matrix(1 0 0 1 32.239 -139.3987)" id="Character_1_">
<path style="stroke: none; stroke-width: 1; stroke-dasharray: none; stroke-linecap: butt; stroke-dashoffset: 0; stroke-linejoin: miter; stroke-miterlimit: 4; is-custom-font: none; font-file-url: none; fill: rgb(237,132,126); fill-rule: nonzero; opacity: 1;" transform=" translate(-282.239, -110.6013)" d="M 282.075 107.259 c 0 0 -0.375 4.156 -1.463 6.427 c 1.455 0.731 3.254 -0.326 3.254 -0.326 L 282.075 107.259 z" stroke-linecap="round"/>
</g>
		<g transform="matrix(1 0 0 1 31.5353 -148.5565)" id="Character_1_">
<path style="stroke: none; stroke-width: 1; stroke-dasharray: none; stroke-linecap: butt; stroke-dashoffset: 0; stroke-linejoin: miter; stroke-miterlimit: 4; is-custom-font: none; font-file-url: none; fill: rgb(38,50,56); fill-rule: nonzero; opacity: 1;" transform=" translate(-281.5353, -101.4435)" d="M 283.326 101.729 c 0.085 -0.045 0.154 -0.121 0.188 -0.218 c 0.072 -0.206 -0.036 -0.431 -0.242 -0.504 c -2.062 -0.727 -3.52 0.367 -3.583 0.414 c -0.173 0.133 -0.206 0.381 -0.073 0.554 c 0.133 0.173 0.383 0.203 0.553 0.074 l 0 0 c 0.048 -0.036 1.196 -0.876 2.841 -0.297 C 283.118 101.79 283.232 101.778 283.326 101.729 z" stroke-linecap="round"/>
</g>
		<g transform="matrix(1 0 0 1 49.1231 -127.4643)" id="Character_1_">
<path style="stroke: none; stroke-width: 1; stroke-dasharray: none; stroke-linecap: butt; stroke-dashoffset: 0; stroke-linejoin: miter; stroke-miterlimit: 4; is-custom-font: none; font-file-url: none; fill: rgb(255,195,189); fill-rule: nonzero; opacity: 1;" transform=" translate(-299.1232, -122.5357)" d="M 304.242 110.283 c 0.437 5.3 1.75 15.025 4.882 17.239 c 0 0 -0.746 6.368 -11.964 8.025 c -12.335 1.822 -6.799 -5.253 -6.799 -5.253 c 6.495 -2.602 5.583 -7.571 3.718 -12.089 l 4.767 -5.463 C 300.634 110.69 304.018 107.57 304.242 110.283 z" stroke-linecap="round"/>
</g>
		<g transform="matrix(1 0 0 1 51.1245 -120.7334)" id="Character_1_">
<path style="stroke: none; stroke-width: 1; stroke-dasharray: none; stroke-linecap: butt; stroke-dashoffset: 0; stroke-linejoin: miter; stroke-miterlimit: 4; is-custom-font: none; font-file-url: none; fill: rgb(255,255,255); fill-rule: nonzero; opacity: 1;" transform=" translate(-301.1244, -129.2666)" d="M 313.153 130.107 c 1.005 -0.908 -1.021 -4.546 -2.23 -5.053 c -3.221 -1.353 -16.395 -0.016 -21.348 4.243 c -1.419 2.253 -0.389 4.689 -0.389 4.689 L 313.153 130.107 z" stroke-linecap="round"/>
</g>
		<g transform="matrix(1 0 0 1 104.9571 146.6834)" id="Character_1_">
<path style="stroke: none; stroke-width: 1; stroke-dasharray: none; stroke-linecap: butt; stroke-dashoffset: 0; stroke-linejoin: miter; stroke-miterlimit: 4; is-custom-font: none; font-file-url: none; fill: rgb(64,123,255); fill-rule: nonzero; opacity: 1;" transform=" translate(-354.957, -396.6834)" d="M 355.092 397.408 c -0.818 0.251 -1.649 0.369 -2.079 0.061 c -0.181 -0.129 -0.374 -0.39 -0.268 -0.898 c 0.056 -0.267 0.209 -0.477 0.458 -0.622 c 1.077 -0.631 3.745 0.202 3.859 0.238 c 0.074 0.023 0.128 0.089 0.136 0.166 c 0.009 0.077 -0.029 0.153 -0.095 0.192 C 356.724 396.769 355.914 397.156 355.092 397.408 z M 353.627 396.194 c -0.083 0.026 -0.159 0.057 -0.225 0.096 c -0.15 0.088 -0.238 0.206 -0.271 0.362 c -0.075 0.363 0.065 0.464 0.112 0.497 c 0.479 0.342 2.109 -0.148 3.239 -0.715 C 355.665 396.221 354.352 395.972 353.627 396.194 z" stroke-linecap="round"/>
</g>
		<g transform="matrix(1 0 0 1 105.4799 144.987)" id="Character_1_">
<path style="stroke: none; stroke-width: 1; stroke-dasharray: none; stroke-linecap: butt; stroke-dashoffset: 0; stroke-linejoin: miter; stroke-miterlimit: 4; is-custom-font: none; font-file-url: none; fill: rgb(64,123,255); fill-rule: nonzero; opacity: 1;" transform=" translate(-355.4799, -394.987)" d="M 357.059 396.565 c -0.031 0.009 -0.064 0.011 -0.097 0.005 c -0.963 -0.195 -3.094 -1.453 -3.198 -2.394 c -0.019 -0.171 0.015 -0.486 0.45 -0.68 c 0.283 -0.126 0.577 -0.127 0.879 -0.004 c 1.159 0.473 2.056 2.716 2.093 2.811 c 0.026 0.068 0.015 0.144 -0.032 0.199 C 357.128 396.532 357.095 396.554 357.059 396.565 z M 354.458 393.825 c -0.028 0.009 -0.056 0.019 -0.084 0.032 c -0.236 0.105 -0.223 0.224 -0.217 0.275 c 0.061 0.556 1.483 1.564 2.494 1.936 c -0.3 -0.644 -0.965 -1.907 -1.709 -2.21 C 354.773 393.788 354.614 393.777 354.458 393.825 z" stroke-linecap="round"/>
</g>
		<g transform="matrix(1 0 0 1 46.5533 157.1431)" id="Character_1_">
<path style="stroke: none; stroke-width: 1; stroke-dasharray: none; stroke-linecap: butt; stroke-dashoffset: 0; stroke-linejoin: miter; stroke-miterlimit: 4; is-custom-font: none; font-file-url: none; fill: rgb(64,123,255); fill-rule: nonzero; opacity: 1;" transform=" translate(-296.5533, -407.1431)" d="M 296.483 408.148 c -1.071 0 -2.105 -0.147 -2.451 -0.628 c -0.121 -0.168 -0.217 -0.455 0.017 -0.864 c 0.13 -0.229 0.341 -0.385 0.626 -0.462 c 1.388 -0.378 4.304 1.284 4.427 1.355 c 0.071 0.041 0.11 0.122 0.096 0.203 c -0.013 0.081 -0.076 0.146 -0.156 0.162 C 298.509 408.021 297.48 408.148 296.483 408.148 z M 295.16 406.531 c -0.139 0 -0.268 0.014 -0.382 0.045 c -0.182 0.05 -0.309 0.14 -0.387 0.276 c -0.14 0.245 -0.089 0.367 -0.038 0.437 c 0.388 0.539 2.497 0.552 4.048 0.332 C 297.626 407.224 296.134 406.531 295.16 406.531 z" stroke-linecap="round"/>
</g>
		<g transform="matrix(1 0 0 1 47.6329 156.0295)" id="Character_1_">
<path style="stroke: none; stroke-width: 1; stroke-dasharray: none; stroke-linecap: butt; stroke-dashoffset: 0; stroke-linejoin: miter; stroke-miterlimit: 4; is-custom-font: none; font-file-url: none; fill: rgb(64,123,255); fill-rule: nonzero; opacity: 1;" transform=" translate(-297.6329, -406.0294)" d="M 299.003 407.918 c -0.028 0 -0.055 -0.006 -0.081 -0.018 c -1.007 -0.452 -3.001 -2.256 -2.849 -3.199 c 0.036 -0.222 0.193 -0.497 0.736 -0.552 c 0.405 -0.041 0.772 0.073 1.096 0.339 c 1.061 0.872 1.286 3.119 1.295 3.214 c 0.007 0.07 -0.024 0.138 -0.081 0.179 C 299.084 407.905 299.043 407.918 299.003 407.918 z M 296.967 404.536 c -0.039 0 -0.079 0.002 -0.119 0.006 c -0.355 0.036 -0.378 0.176 -0.385 0.222 c -0.091 0.566 1.264 1.984 2.291 2.601 c -0.107 -0.656 -0.404 -2.001 -1.101 -2.572 C 297.444 404.621 297.218 404.536 296.967 404.536 z" stroke-linecap="round"/>
</g>
		<g transform="matrix(1 0 0 1 53.5895 148.061)" id="Character_1_">
<polygon style="stroke: none; stroke-width: 1; stroke-dasharray: none; stroke-linecap: butt; stroke-dashoffset: 0; stroke-linejoin: miter; stroke-miterlimit: 4; is-custom-font: none; font-file-url: none; fill: rgb(255,195,189); fill-rule: nonzero; opacity: 1;" points="4.5865,9.659 -3.7555,9.659 -4.5865,-9.659 3.7555,-9.659 "/>
</g>
		<g transform="matrix(1 0 0 1 108.9955 136.749)" id="Character_1_">
<polygon style="stroke: none; stroke-width: 1; stroke-dasharray: none; stroke-linecap: butt; stroke-dashoffset: 0; stroke-linejoin: miter; stroke-miterlimit: 4; is-custom-font: none; font-file-url: none; fill: rgb(255,195,189); fill-rule: nonzero; opacity: 1;" points="7.8325,7.782 0.1455,10.432 -7.8325,-7.782 -0.1455,-10.432 "/>
</g>
		<g transform="matrix(1 0 0 1 108.3844 149.9859)" id="Character_1_">
<path style="stroke: none; stroke-width: 1; stroke-dasharray: none; stroke-linecap: butt; stroke-dashoffset: 0; stroke-linejoin: miter; stroke-miterlimit: 4; is-custom-font: none; font-file-url: none; fill: rgb(38,50,56); fill-rule: nonzero; opacity: 1;" transform=" translate(-358.3844, -399.9859)" d="M 357.313 395.27 l 8.96 -2.748 c 0.326 -0.1 0.678 0.04 0.846 0.337 l 3.75 6.606 c 0.389 0.685 0.024 1.558 -0.733 1.776 c -3.145 0.906 -4.72 1.188 -8.661 2.397 c -2.424 0.743 -8.542 3.063 -11.974 3.753 c -3.357 0.675 -4.564 -2.614 -3.22 -3.204 c 6.024 -2.646 8.463 -5.657 9.888 -8.029 C 356.426 395.729 356.836 395.416 357.313 395.27 z" stroke-linecap="round"/>
</g>
		<g transform="matrix(1 0 0 1 46.6316 161.496)" id="Character_1_">
<path style="stroke: none; stroke-width: 1; stroke-dasharray: none; stroke-linecap: butt; stroke-dashoffset: 0; stroke-linejoin: miter; stroke-miterlimit: 4; is-custom-font: none; font-file-url: none; fill: rgb(38,50,56); fill-rule: nonzero; opacity: 1;" transform=" translate(-296.6315, -411.496)" d="M 299.889 406.754 l 9.11 0 c 0.341 0 0.636 0.237 0.71 0.57 l 1.648 7.415 c 0.171 0.769 -0.413 1.497 -1.2 1.484 c -3.286 -0.056 -8.035 -0.248 -12.165 -0.248 c -4.83 0 -6.866 0.263 -12.53 0.263 c -3.425 0 -4.375 -3.462 -2.942 -3.776 c 6.526 -1.427 9.72 -1.581 15.359 -5.058 C 298.492 407.026 299.169 406.754 299.889 406.754 z" stroke-linecap="round"/>
</g>
		<g transform="matrix(1 0 0 1 77.3872 -90.072)" id="Character_1_">
<path style="stroke: none; stroke-width: 1; stroke-dasharray: none; stroke-linecap: butt; stroke-dashoffset: 0; stroke-linejoin: miter; stroke-miterlimit: 4; is-custom-font: none; font-file-url: none; fill: rgb(255,195,189); fill-rule: nonzero; opacity: 1;" transform=" translate(-327.3872, -159.928)" d="M 324.14 132.842 c 2.426 2.231 4.529 4.461 6.705 6.787 c 2.128 2.339 4.202 4.745 6.162 7.309 c 1.976 2.553 3.854 5.234 5.558 8.245 c 0.849 1.515 1.664 3.108 2.344 4.94 c 0.168 0.465 0.34 0.912 0.484 1.43 c 0.15 0.498 0.297 0.994 0.409 1.564 l 0.171 0.828 l 0.117 0.92 c 0.072 0.445 0.145 1.661 0.004 2.548 c -0.26 1.876 -0.994 3.322 -1.721 4.436 c -0.74 1.108 -1.533 1.933 -2.302 2.654 c -1.548 1.424 -3.064 2.426 -4.566 3.329 c -3.007 1.768 -5.99 3.037 -8.98 4.185 c -5.995 2.253 -11.973 3.822 -18.176 4.997 l -1.749 -6.014 c 5.43 -2.353 10.927 -4.888 16.032 -7.605 c 2.543 -1.365 5.012 -2.829 7.105 -4.377 c 1.037 -0.763 1.982 -1.576 2.595 -2.294 c 0.307 -0.351 0.514 -0.683 0.594 -0.857 c 0.073 -0.171 -0.031 -0.15 -0.109 0.211 c -0.066 0.67 -0.052 0.15 -0.218 -0.209 c -0.045 -0.175 -0.141 -0.4 -0.231 -0.623 c -0.073 -0.212 -0.202 -0.464 -0.313 -0.706 c -0.473 -0.981 -1.099 -2.076 -1.806 -3.17 c -1.437 -2.196 -3.176 -4.422 -5.001 -6.611 c -1.838 -2.184 -3.778 -4.351 -5.767 -6.485 c -1.953 -2.136 -4.085 -4.273 -6.04 -6.257 L 324.14 132.842 z" stroke-linecap="round"/>
</g>
		<g transform="matrix(1 0 0 1 58.317 -64.5755)" id="Character_1_">
<path style="stroke: none; stroke-width: 1; stroke-dasharray: none; stroke-linecap: butt; stroke-dashoffset: 0; stroke-linejoin: miter; stroke-miterlimit: 4; is-custom-font: none; font-file-url: none; fill: rgb(255,195,189); fill-rule: nonzero; opacity: 1;" transform=" translate(-308.317, -185.4245)" d="M 310.866 180.074 l -7.918 2.38 l 5.06 8.321 c 0 0 4.656 -1.925 5.678 -5.876 L 310.866 180.074 z" stroke-linecap="round"/>
</g>
		<g transform="matrix(1 0 0 1 53.915 -62.643)" id="Character_1_">
<polygon style="stroke: none; stroke-width: 1; stroke-dasharray: none; stroke-linecap: butt; stroke-dashoffset: 0; stroke-linejoin: miter; stroke-miterlimit: 4; is-custom-font: none; font-file-url: none; fill: rgb(255,195,189); fill-rule: nonzero; opacity: 1;" points="-4.093,-1.961 -0.996,4.903 4.093,3.418 -0.967,-4.903 "/>
</g>
		<g transform="matrix(1 0 0 1 71.9188 -108.6052)" id="Character_1_">
<path style="stroke: none; stroke-width: 1; stroke-dasharray: none; stroke-linecap: butt; stroke-dashoffset: 0; stroke-linejoin: miter; stroke-miterlimit: 4; is-custom-font: none; font-file-url: none; fill: rgb(64,123,255); fill-rule: nonzero; opacity: 1;" transform=" translate(-321.9188, -141.3948)" d="M 305.699 135.103 c -0.753 7.986 16.172 20.374 16.172 20.374 l 16.292 -11.149 c 0 0 -3.349 -7.177 -12.022 -12.747 C 316.82 125.595 306.637 125.162 305.699 135.103 z" stroke-linecap="round"/>
</g>
		<g transform="matrix(1 0 0 1 71.9188 -108.6052)" id="Character_1_">
<path style="stroke: none; stroke-width: 1; stroke-dasharray: none; stroke-linecap: butt; stroke-dashoffset: 0; stroke-linejoin: miter; stroke-miterlimit: 4; is-custom-font: none; font-file-url: none; fill: rgb(255,255,255); fill-rule: nonzero; opacity: 0.3;" transform=" translate(-321.9188, -141.3948)" d="M 305.699 135.103 c -0.753 7.986 16.172 20.374 16.172 20.374 l 16.292 -11.149 c 0 0 -3.349 -7.177 -12.022 -12.747 C 316.82 125.595 306.637 125.162 305.699 135.103 z" stroke-linecap="round"/>
</g>
		<g transform="matrix(1 0 0 1 54.3325 -83.4602)" id="Character_1_">
<path style="stroke: none; stroke-width: 1; stroke-dasharray: none; stroke-linecap: butt; stroke-dashoffset: 0; stroke-linejoin: miter; stroke-miterlimit: 4; is-custom-font: none; font-file-url: none; fill: rgb(64,123,255); fill-rule: nonzero; opacity: 1;" transform=" translate(-304.3326, -166.5397)" d="M 278.005 134.458 c 0 0 -7.318 11.219 10.046 71.402 l 44.14 -6.519 c -0.623 -6.103 -8.007 -32.709 -8.249 -61.805 c -0.049 -5.906 -5.009 -10.602 -10.908 -10.303 c -1.289 0.066 -2.608 0.158 -3.91 0.287 c -5.68 0.561 -13.872 1.587 -18.764 2.772 C 283.911 131.855 278.005 134.458 278.005 134.458 z" stroke-linecap="round"/>
</g>
		<g transform="matrix(1 0 0 1 54.3325 -83.4602)" id="Character_1_">
<path style="stroke: none; stroke-width: 1; stroke-dasharray: none; stroke-linecap: butt; stroke-dashoffset: 0; stroke-linejoin: miter; stroke-miterlimit: 4; is-custom-font: none; font-file-url: none; fill: rgb(255,255,255); fill-rule: nonzero; opacity: 0.3;" transform=" translate(-304.3326, -166.5397)" d="M 278.005 134.458 c 0 0 -7.318 11.219 10.046 71.402 l 44.14 -6.519 c -0.623 -6.103 -8.007 -32.709 -8.249 -61.805 c -0.049 -5.906 -5.009 -10.602 -10.908 -10.303 c -1.289 0.066 -2.608 0.158 -3.91 0.287 c -5.68 0.561 -13.872 1.587 -18.764 2.772 C 283.911 131.855 278.005 134.458 278.005 134.458 z" stroke-linecap="round"/>
</g>
		<g transform="matrix(1 0 0 1 32.3185 -85.8735)" id="Character_1_">
<path style="stroke: none; stroke-width: 1; stroke-dasharray: none; stroke-linecap: butt; stroke-dashoffset: 0; stroke-linejoin: miter; stroke-miterlimit: 4; is-custom-font: none; font-file-url: none; fill: rgb(0,0,0); fill-rule: nonzero; opacity: 0.2;" transform=" translate(-282.3185, -164.1265)" d="M 276.918 153.797 l 0.147 -0.171 l 10.387 0.922 c 1.575 6.701 -4.203 15.842 -7.25 20.079 C 278.428 166.039 277.431 159.208 276.918 153.797 z" stroke-linecap="round"/>
</g>
		<g transform="matrix(1 0 0 1 53.391 143.386)" id="Character_1_">
<polygon style="stroke: none; stroke-width: 1; stroke-dasharray: none; stroke-linecap: butt; stroke-dashoffset: 0; stroke-linejoin: miter; stroke-miterlimit: 4; is-custom-font: none; font-file-url: none; fill: rgb(0,0,0); fill-rule: nonzero; opacity: 0.2;" points="-4.386,-4.979 -3.96,4.979 4.386,4.979 3.959,-4.979 "/>
</g>
		<g transform="matrix(1 0 0 1 107.067 132.3405)" id="Character_1_">
<polygon style="stroke: none; stroke-width: 1; stroke-dasharray: none; stroke-linecap: butt; stroke-dashoffset: 0; stroke-linejoin: miter; stroke-miterlimit: 4; is-custom-font: none; font-file-url: none; fill: rgb(0,0,0); fill-rule: nonzero; opacity: 0.2;" points="1.787,-6.0195 -5.903,-3.3675 -1.787,6.0195 5.903,3.3675 "/>
</g>
		<g transform="matrix(1 0 0 1 42.96 -144.3701)" id="Character_1_">
<path style="stroke: none; stroke-width: 1; stroke-dasharray: none; stroke-linecap: butt; stroke-dashoffset: 0; stroke-linejoin: miter; stroke-miterlimit: 4; is-custom-font: none; font-file-url: none; fill: rgb(255,195,189); fill-rule: nonzero; opacity: 1;" transform=" translate(-292.96, -105.6299)" d="M 303.147 98.318 c 1.84 8.072 3.328 12.703 0.518 17.948 c -4.227 7.89 -15.08 7.132 -19.295 -0.228 c -3.794 -6.624 -6.166 -18.712 0.669 -24.145 C 291.772 86.54 301.306 90.246 303.147 98.318 z" stroke-linecap="round"/>
</g>
		<g transform="matrix(1 0 0 1 43.1714 -146.5025)" id="Character_1_">
<path style="stroke: none; stroke-width: 1; stroke-dasharray: none; stroke-linecap: butt; stroke-dashoffset: 0; stroke-linejoin: miter; stroke-miterlimit: 4; is-custom-font: none; font-file-url: none; fill: rgb(38,50,56); fill-rule: nonzero; opacity: 1;" transform=" translate(-293.1714, -103.4975)" d="M 286.937 106.232 l -3.072 1.879 l 0.294 -10.5 c 0 0 -3.222 0.222 -5.556 -1.611 c 1.111 -1.056 18.389 -7.111 23.778 -6.056 c 0.556 -0.236 1.243 -1.278 1.243 -1.278 s 0.208 1.313 -0.708 1.813 c 0.667 -0.125 2.31 0.188 2.771 1.16 c -1.448 -0.306 -2.292 0.132 -2.292 0.132 s 6.044 0.907 3.875 9.229 c -2.389 9.167 -1.596 14.444 -1.596 14.444 s -4.46 3.445 -8.348 2.806 C 293.187 113.694 287.215 108.214 286.937 106.232 z" stroke-linecap="round"/>
</g>
		<g transform="matrix(1 0 0 1 36.2242 -158.5586)" id="Character_1_">
<path style="stroke: none; stroke-width: 1; stroke-dasharray: none; stroke-linecap: butt; stroke-dashoffset: 0; stroke-linejoin: miter; stroke-miterlimit: 4; is-custom-font: none; font-file-url: none; fill: rgb(38,50,56); fill-rule: nonzero; opacity: 1;" transform=" translate(-286.2242, -91.4414)" d="M 281.061 95.167 c -4.875 0.042 -6.625 -2.375 -7.875 -4.375 c 3.5 -0.375 10.792 -2.625 16.208 -3 c 5.417 -0.375 11.333 0.625 9.542 2.958 S 281.061 95.167 281.061 95.167 z" stroke-linecap="round"/>
</g>
		<g transform="matrix(1 0 0 1 38.6709 -160.7389)" id="Character_1_">
<path style="stroke: none; stroke-width: 1; stroke-dasharray: none; stroke-linecap: butt; stroke-dashoffset: 0; stroke-linejoin: miter; stroke-miterlimit: 4; is-custom-font: none; font-file-url: none; fill: rgb(38,50,56); fill-rule: nonzero; opacity: 1;" transform=" translate(-288.6708, -89.2611)" d="M 282.133 92.998 c -3.974 -0.554 -7.905 -4.331 -4.905 -7.942 c 1.111 2.659 8.605 2.348 13.92 1.236 c 6.969 -1.458 11.85 0.897 9.369 5.666 C 299.158 94.568 282.133 92.998 282.133 92.998 z" stroke-linecap="round"/>
</g>
		<g transform="matrix(1 0 0 1 38.5885 -143.5678)" id="Character_1_">
<path style="stroke: none; stroke-width: 1; stroke-dasharray: none; stroke-linecap: butt; stroke-dashoffset: 0; stroke-linejoin: miter; stroke-miterlimit: 4; is-custom-font: none; font-file-url: none; fill: rgb(255,195,189); fill-rule: nonzero; opacity: 1;" transform=" translate(-288.5885, -106.4322)" d="M 291.262 103.844 c 0.633 2.074 0.402 4.333 -0.267 6.003 c -1.006 2.512 -3.219 2.005 -4.372 -0.17 c -1.038 -1.958 -1.765 -5.623 -0.066 -7.434 C 288.23 100.458 290.538 101.472 291.262 103.844 z" stroke-linecap="round"/>
</g>
		<g transform="matrix(1 0 0 1 83.7895 42.6025)" id="Character_1_">
<path style="stroke: none; stroke-width: 1; stroke-dasharray: none; stroke-linecap: butt; stroke-dashoffset: 0; stroke-linejoin: miter; stroke-miterlimit: 4; is-custom-font: none; font-file-url: none; fill: rgb(38,50,56); fill-rule: nonzero; opacity: 1;" transform=" translate(-333.7895, -292.6025)" d="M 303.709 203.548 c 0 0 7.162 60.951 12.36 84.835 c 5.691 26.154 33.763 97.48 33.763 97.48 l 14.038 -4.844 c 0 0 -17.998 -53.7 -22.774 -90.265 c -3.669 -28.086 -8.904 -91.412 -8.904 -91.412 L 303.709 203.548 z" stroke-linecap="round"/>
</g>
		<g transform="matrix(1 0 0 1 105.8585 132.2745)" id="Character_1_">
<path style="stroke: none; stroke-width: 1; stroke-dasharray: none; stroke-linecap: butt; stroke-dashoffset: 0; stroke-linejoin: miter; stroke-miterlimit: 4; is-custom-font: none; font-file-url: none; fill: rgb(64,123,255); fill-rule: nonzero; opacity: 1;" transform=" translate(-355.8585, -382.2745)" d="M 346.247 381.378 c -0.062 0.02 2.874 5.992 2.874 5.992 l 16.35 -5.308 l -1.917 -4.883 L 346.247 381.378 z" stroke-linecap="round"/>
</g>
		<g transform="matrix(1 0 0 1 62.6812 9.7285)" id="Character_1_">
<path style="stroke: none; stroke-width: 1; stroke-dasharray: none; stroke-linecap: butt; stroke-dashoffset: 0; stroke-linejoin: miter; stroke-miterlimit: 4; is-custom-font: none; font-file-url: none; fill: rgb(0,0,0); fill-rule: nonzero; opacity: 0.3;" transform=" translate(-312.6812, -259.7285)" d="M 307.656 234.823 c 2.241 16.933 5.11 36.957 7.638 49.811 C 318.948 264.96 319.872 240.209 307.656 234.823 z" stroke-linecap="round"/>
</g>
		<g transform="matrix(1 0 0 1 51.3574 48.805)" id="Character_1_">
<path style="stroke: none; stroke-width: 1; stroke-dasharray: none; stroke-linecap: butt; stroke-dashoffset: 0; stroke-linejoin: miter; stroke-miterlimit: 4; is-custom-font: none; font-file-url: none; fill: rgb(38,50,56); fill-rule: nonzero; opacity: 1;" transform=" translate(-301.3574, -298.805)" d="M 288.051 205.86 c 0 0 -5.94 57.258 -5.033 82.698 c 0.944 26.461 13.305 107.879 13.305 107.879 h 14.132 c 0 0 -2.6 -79.872 -1.972 -105.859 c 0.685 -28.33 11.308 -89.405 11.308 -89.405 L 288.051 205.86 z" stroke-linecap="round"/>
</g>
		<g transform="matrix(1 0 0 1 52.8272 143.7415)" id="Character_1_">
<path style="stroke: none; stroke-width: 1; stroke-dasharray: none; stroke-linecap: butt; stroke-dashoffset: 0; stroke-linejoin: miter; stroke-miterlimit: 4; is-custom-font: none; font-file-url: none; fill: rgb(64,123,255); fill-rule: nonzero; opacity: 1;" transform=" translate(-302.8273, -393.7415)" d="M 293.603 390.808 c -0.065 0 0.797 5.867 0.797 5.867 h 17.19 l 0.465 -5.236 L 293.603 390.808 z" stroke-linecap="round"/>
</g>
		<g transform="matrix(1 0 0 1 6.8245 -88.2441)" id="Character_1_">
<path style="stroke: none; stroke-width: 1; stroke-dasharray: none; stroke-linecap: butt; stroke-dashoffset: 0; stroke-linejoin: miter; stroke-miterlimit: 4; is-custom-font: none; font-file-url: none; fill: rgb(255,195,189); fill-rule: nonzero; opacity: 1;" transform=" translate(-256.8245, -161.7559)" d="M 285.315 148.519 c -1.562 2.48 -3.145 4.71 -4.789 7.005 c -1.631 2.281 -3.353 4.497 -5.105 6.7 c -3.545 4.38 -7.326 8.616 -11.569 12.618 c -1.124 0.972 -2.156 1.975 -3.361 2.908 l -0.879 0.708 l -0.439 0.353 c -0.164 0.129 -0.23 0.195 -0.563 0.435 c -1.111 0.808 -2.208 1.308 -3.228 1.67 c -2.056 0.702 -3.843 0.865 -5.527 0.944 c -1.68 0.068 -3.252 -0.037 -4.774 -0.214 c -6.067 -0.747 -11.413 -2.439 -16.747 -4.732 l 1.724 -6.021 c 5.184 0.518 10.598 0.96 15.426 0.741 c 1.2 -0.069 2.359 -0.191 3.393 -0.37 c 1.023 -0.18 1.951 -0.475 2.439 -0.764 c 0.247 -0.133 0.376 -0.26 0.343 -0.288 c -0.056 0.04 0.128 -0.126 0.223 -0.218 l 0.334 -0.315 l 0.669 -0.628 c 0.9 -0.8 1.756 -1.772 2.635 -2.646 c 1.731 -1.863 3.445 -3.772 5.082 -5.806 c 1.669 -1.991 3.279 -4.072 4.875 -6.163 c 1.602 -2.092 3.15 -4.236 4.717 -6.369 c 1.542 -2.126 3.08 -4.365 4.517 -6.436 L 285.315 148.519 z" stroke-linecap="round"/>
</g>
		<g transform="matrix(1 0 0 1 26.9011 -98.3961)" id="Character_1_">
<path style="stroke: none; stroke-width: 1; stroke-dasharray: none; stroke-linecap: butt; stroke-dashoffset: 0; stroke-linejoin: miter; stroke-miterlimit: 4; is-custom-font: none; font-file-url: none; fill: rgb(64,123,255); fill-rule: nonzero; opacity: 1;" transform=" translate(-276.9011, -151.6039)" d="M 291.117 145.868 c 3.365 10.995 -16.145 23.195 -16.145 23.195 l -12.677 -16.157 c 0 0 3.516 -7.093 10.497 -14.691 C 281.416 128.83 288.556 137.498 291.117 145.868 z" stroke-linecap="round"/>
</g>
		<g transform="matrix(1 0 0 1 26.9011 -98.3961)" id="Character_1_">
<path style="stroke: none; stroke-width: 1; stroke-dasharray: none; stroke-linecap: butt; stroke-dashoffset: 0; stroke-linejoin: miter; stroke-miterlimit: 4; is-custom-font: none; font-file-url: none; fill: rgb(255,255,255); fill-rule: nonzero; opacity: 0.3;" transform=" translate(-276.9011, -151.6039)" d="M 291.117 145.868 c 3.365 10.995 -16.145 23.195 -16.145 23.195 l -12.677 -16.157 c 0 0 3.516 -7.093 10.497 -14.691 C 281.416 128.83 288.556 137.498 291.117 145.868 z" stroke-linecap="round"/>
</g>
		<g transform="matrix(1 0 0 1 -22.1415 -75.6411)" id="Character_1_">
<path style="stroke: none; stroke-width: 1; stroke-dasharray: none; stroke-linecap: butt; stroke-dashoffset: 0; stroke-linejoin: miter; stroke-miterlimit: 4; is-custom-font: none; font-file-url: none; fill: rgb(255,195,189); fill-rule: nonzero; opacity: 1;" transform=" translate(-227.8585, -174.3589)" d="M 232.975 171.329 l -10.262 -1.883 l 1.08 8.886 c 0 0 5.333 2.987 9.211 -1.689 L 232.975 171.329 z" stroke-linecap="round"/>
</g>
		<g transform="matrix(1 0 0 1 -28.7175 -76.111)" id="Character_1_">
<polygon style="stroke: none; stroke-width: 1; stroke-dasharray: none; stroke-linecap: butt; stroke-dashoffset: 0; stroke-linejoin: miter; stroke-miterlimit: 4; is-custom-font: none; font-file-url: none; fill: rgb(255,195,189); fill-rule: nonzero; opacity: 1;" points="-2.5105,-2.439 -0.2905,3.97 2.5105,4.443 1.4305,-4.443 "/>
</g>
</g>
</g>
<g transform="matrix(1 0 0 1 470 703.4052)" style="" id="917968">
		
<path xml:space="preserve" font-family="Lato" font-size="22" font-style="normal" font-weight="normal" style="stroke: none; stroke-width: 1; stroke-dasharray: none; stroke-linecap: butt; stroke-dashoffset: 0; stroke-linejoin: miter; stroke-miterlimit: 4; is-custom-font: none; font-file-url: none; fill: rgb(153,153,153); fill-rule: nonzero; opacity: 1; white-space: pre;" d="M-231.44-8.85L-237.22 0.64L-237.22 6.91L-239.35 6.91L-239.35 0.64L-245.12-8.85L-243.25-8.85Q-242.97-8.85-242.80-8.71Q-242.64-8.57-242.51-8.36L-242.51-8.36L-238.91-2.23Q-238.69-1.84-238.54-1.50Q-238.39-1.16-238.27-0.83L-238.27-0.83Q-238.15-1.17-238.00-1.51Q-237.86-1.86-237.64-2.23L-237.64-2.23L-234.04-8.36Q-233.95-8.53-233.77-8.69Q-233.60-8.85-233.33-8.85L-233.33-8.85L-231.44-8.85ZM-227.02-4.41L-227.02-4.41Q-225.79-4.41-224.81-4.00Q-223.83-3.59-223.14-2.85Q-222.45-2.10-222.08-1.04Q-221.71 0.03-221.71 1.33L-221.71 1.33Q-221.71 2.65-222.08 3.71Q-222.45 4.77-223.14 5.51Q-223.83 6.26-224.81 6.66Q-225.79 7.07-227.02 7.07L-227.02 7.07Q-228.24 7.07-229.22 6.66Q-230.21 6.26-230.90 5.51Q-231.59 4.77-231.97 3.71Q-232.34 2.65-232.34 1.33L-232.34 1.33Q-232.34 0.03-231.97-1.04Q-231.59-2.10-230.90-2.85Q-230.21-3.59-229.22-4.00Q-228.24-4.41-227.02-4.41ZM-227.02 5.54L-227.02 5.54Q-225.37 5.54-224.55 4.43Q-223.74 3.33-223.74 1.35L-223.74 1.35Q-223.74-0.65-224.55-1.76Q-225.37-2.87-227.02-2.87L-227.02-2.87Q-227.85-2.87-228.47-2.58Q-229.08-2.30-229.50-1.76Q-229.91-1.22-230.11-0.43Q-230.32 0.36-230.32 1.35L-230.32 1.35Q-230.32 2.34-230.11 3.12Q-229.91 3.90-229.50 4.43Q-229.08 4.96-228.47 5.25Q-227.85 5.54-227.02 5.54ZM-219.56-4.23L-217.60-4.23L-217.60 2.87Q-217.60 4.14-217.02 4.83Q-216.43 5.53-215.26 5.53L-215.26 5.53Q-214.40 5.53-213.64 5.12Q-212.88 4.71-212.24 3.99L-212.24 3.99L-212.24-4.23L-210.28-4.23L-210.28 6.91L-211.45 6.91Q-211.87 6.91-211.98 6.50L-211.98 6.50L-212.13 5.31Q-212.86 6.11-213.76 6.60Q-214.66 7.09-215.83 7.09L-215.83 7.09Q-216.74 7.09-217.44 6.78Q-218.14 6.48-218.61 5.93Q-219.08 5.38-219.32 4.60Q-219.56 3.82-219.56 2.87L-219.56 2.87L-219.56-4.23ZM-205.10 6.91L-207.06 6.91L-207.06-4.23L-205.94-4.23Q-205.62-4.23-205.50-4.11Q-205.38-3.99-205.33-3.69L-205.33-3.69L-205.20-1.95Q-204.63-3.12-203.79-3.78Q-202.95-4.43-201.81-4.43L-201.81-4.43Q-201.35-4.43-200.98-4.33Q-200.60-4.22-200.29-4.03L-200.29-4.03L-200.54-2.57Q-200.62-2.30-200.88-2.30L-200.88-2.30Q-201.03-2.30-201.35-2.40Q-201.67-2.50-202.24-2.50L-202.24-2.50Q-203.27-2.50-203.95-1.91Q-204.64-1.32-205.10-0.18L-205.10-0.18L-205.10 6.91ZM-185.83-2.96L-186.35-2.25Q-186.44-2.13-186.52-2.06Q-186.61-2.00-186.78-2.00L-186.78-2.00Q-186.94-2.00-187.13-2.14Q-187.33-2.27-187.62-2.44Q-187.92-2.60-188.34-2.74Q-188.77-2.88-189.38-2.88L-189.38-2.88Q-190.20-2.88-190.83-2.59Q-191.45-2.30-191.88-1.75Q-192.30-1.20-192.51-0.41Q-192.73 0.37-192.73 1.33L-192.73 1.33Q-192.73 2.35-192.50 3.13Q-192.27 3.92-191.85 4.45Q-191.43 4.99-190.83 5.27Q-190.23 5.55-189.48 5.55L-189.48 5.55Q-188.77 5.55-188.31 5.38Q-187.84 5.21-187.54 5.00Q-187.23 4.79-187.03 4.62Q-186.83 4.45-186.63 4.45L-186.63 4.45Q-186.38 4.45-186.26 4.63L-186.26 4.63L-185.71 5.35Q-186.44 6.24-187.53 6.65Q-188.61 7.07-189.82 7.07L-189.82 7.07Q-190.87 7.07-191.77 6.68Q-192.66 6.30-193.32 5.56Q-193.98 4.83-194.36 3.77Q-194.74 2.70-194.74 1.33L-194.74 1.33Q-194.74 0.09-194.39-0.96Q-194.05-2.02-193.38-2.79Q-192.72-3.55-191.74-3.98Q-190.76-4.41-189.49-4.41L-189.49-4.41Q-188.33-4.41-187.43-4.03Q-186.52-3.65-185.83-2.96L-185.83-2.96ZM-175.49-0.22L-175.49 6.91L-176.36 6.91Q-176.65 6.91-176.82 6.82Q-177.00 6.74-177.05 6.45L-177.05 6.45L-177.27 5.42Q-177.71 5.81-178.13 6.12Q-178.55 6.44-179.01 6.65Q-179.47 6.87-180.00 6.98Q-180.52 7.09-181.16 7.09L-181.16 7.09Q-181.81 7.09-182.37 6.91Q-182.94 6.72-183.36 6.36Q-183.77 6.00-184.02 5.44Q-184.27 4.89-184.27 4.13L-184.27 4.13Q-184.27 3.47-183.91 2.86Q-183.54 2.25-182.73 1.77Q-181.93 1.30-180.62 1.00Q-179.31 0.70-177.42 0.65L-177.42 0.65L-177.42-0.22Q-177.42-1.51-177.97-2.18Q-178.53-2.85-179.62-2.85L-179.62-2.85Q-180.33-2.85-180.82-2.66Q-181.31-2.48-181.67-2.26Q-182.03-2.03-182.28-1.85Q-182.54-1.67-182.80-1.67L-182.80-1.67Q-182.99-1.67-183.14-1.77Q-183.29-1.88-183.38-2.03L-183.38-2.03L-183.73-2.66Q-182.81-3.55-181.74-3.99Q-180.67-4.43-179.37-4.43L-179.37-4.43Q-178.44-4.43-177.71-4.12Q-176.99-3.81-176.49-3.26Q-176.00-2.71-175.74-1.93Q-175.49-1.15-175.49-0.22L-175.49-0.22ZM-180.57 5.71L-180.57 5.71Q-180.06 5.71-179.63 5.61Q-179.20 5.50-178.82 5.31Q-178.44 5.12-178.09 4.84Q-177.75 4.57-177.42 4.22L-177.42 4.22L-177.42 1.90Q-178.77 1.94-179.72 2.11Q-180.66 2.28-181.26 2.56Q-181.85 2.83-182.12 3.20Q-182.39 3.58-182.39 4.04L-182.39 4.04Q-182.39 4.48-182.25 4.80Q-182.10 5.12-181.86 5.32Q-181.62 5.53-181.29 5.62Q-180.96 5.71-180.57 5.71ZM-170.56 6.91L-172.52 6.91L-172.52-4.23L-171.40-4.23Q-171.08-4.23-170.96-4.11Q-170.84-3.99-170.79-3.69L-170.79-3.69L-170.66-1.95Q-170.09-3.12-169.25-3.78Q-168.41-4.43-167.27-4.43L-167.27-4.43Q-166.81-4.43-166.44-4.33Q-166.06-4.22-165.75-4.03L-165.75-4.03L-166.00-2.57Q-166.08-2.30-166.34-2.30L-166.34-2.30Q-166.49-2.30-166.81-2.40Q-167.13-2.50-167.70-2.50L-167.70-2.50Q-168.73-2.50-169.41-1.91Q-170.10-1.32-170.56-0.18L-170.56-0.18L-170.56 6.91ZM-160.28 7.09L-160.28 7.09Q-161.60 7.09-162.31 6.35Q-163.02 5.61-163.02 4.23L-163.02 4.23L-163.02-2.59L-164.36-2.59Q-164.54-2.59-164.66-2.70Q-164.78-2.80-164.78-3.02L-164.78-3.02L-164.78-3.80L-162.95-4.03L-162.50-7.48Q-162.48-7.64-162.36-7.75Q-162.24-7.85-162.05-7.85L-162.05-7.85L-161.06-7.85L-161.06-4.01L-157.87-4.01L-157.87-2.59L-161.06-2.59L-161.06 4.10Q-161.06 4.80-160.72 5.14Q-160.38 5.48-159.84 5.48L-159.84 5.48Q-159.53 5.48-159.30 5.40Q-159.08 5.32-158.91 5.22Q-158.75 5.12-158.63 5.04Q-158.52 4.95-158.43 4.95L-158.43 4.95Q-158.28 4.95-158.16 5.14L-158.16 5.14L-157.58 6.08Q-158.09 6.55-158.80 6.82Q-159.52 7.09-160.28 7.09ZM-150.98-4.23L-149.03-4.23L-149.03 6.91L-150.98 6.91L-150.98-4.23ZM-148.59-7.73L-148.59-7.73Q-148.59-7.44-148.70-7.20Q-148.82-6.95-149.01-6.76Q-149.20-6.56-149.45-6.45Q-149.71-6.34-149.99-6.34L-149.99-6.34Q-150.28-6.34-150.53-6.45Q-150.77-6.56-150.97-6.76Q-151.16-6.95-151.27-7.20Q-151.38-7.44-151.38-7.73L-151.38-7.73Q-151.38-8.02-151.27-8.27Q-151.16-8.53-150.97-8.73Q-150.77-8.92-150.53-9.03Q-150.28-9.14-149.99-9.14L-149.99-9.14Q-149.71-9.14-149.45-9.03Q-149.20-8.92-149.01-8.73Q-148.82-8.53-148.70-8.27Q-148.59-8.02-148.59-7.73ZM-138.75-3.11L-139.19-2.39Q-139.32-2.15-139.60-2.15L-139.60-2.15Q-139.76-2.15-139.97-2.27Q-140.18-2.39-140.48-2.54Q-140.79-2.69-141.20-2.82Q-141.62-2.94-142.19-2.94L-142.19-2.94Q-142.69-2.94-143.09-2.82Q-143.48-2.69-143.76-2.47Q-144.04-2.25-144.19-1.96Q-144.34-1.67-144.34-1.33L-144.34-1.33Q-144.34-0.90-144.09-0.61Q-143.84-0.33-143.44-0.12Q-143.03 0.09-142.51 0.25Q-142.00 0.41-141.45 0.59Q-140.91 0.77-140.39 0.99Q-139.87 1.21-139.47 1.54Q-139.06 1.87-138.81 2.35Q-138.56 2.83-138.56 3.50L-138.56 3.50Q-138.56 4.27-138.84 4.93Q-139.11 5.58-139.65 6.06Q-140.19 6.54-140.97 6.81Q-141.75 7.09-142.78 7.09L-142.78 7.09Q-143.94 7.09-144.89 6.71Q-145.84 6.33-146.50 5.73L-146.50 5.73L-146.03 4.99Q-145.95 4.84-145.82 4.77Q-145.70 4.69-145.51 4.69L-145.51 4.69Q-145.31 4.69-145.09 4.84Q-144.87 5.00-144.55 5.18Q-144.24 5.37-143.79 5.53Q-143.35 5.68-142.68 5.68L-142.68 5.68Q-142.11 5.68-141.68 5.53Q-141.25 5.38-140.96 5.13Q-140.68 4.88-140.54 4.55Q-140.40 4.22-140.40 3.84L-140.40 3.84Q-140.40 3.38-140.65 3.08Q-140.90 2.78-141.30 2.56Q-141.71 2.35-142.23 2.19Q-142.76 2.03-143.30 1.85Q-143.84 1.68-144.37 1.45Q-144.89 1.22-145.30 0.88Q-145.70 0.54-145.95 0.04Q-146.20-0.46-146.20-1.17L-146.20-1.17Q-146.20-1.81-145.93-2.40Q-145.67-2.99-145.16-3.43Q-144.66-3.88-143.92-4.14Q-143.18-4.41-142.24-4.41L-142.24-4.41Q-141.14-4.41-140.26-4.06Q-139.39-3.71-138.75-3.11L-138.75-3.11ZM-127.37-4.41L-127.37-4.41Q-126.37-4.41-125.52-4.07Q-124.67-3.74-124.06-3.10Q-123.44-2.47-123.09-1.54Q-122.75-0.61-122.75 0.58L-122.75 0.58Q-122.75 1.04-122.85 1.19Q-122.94 1.35-123.22 1.35L-123.22 1.35L-130.63 1.35Q-130.61 2.40-130.35 3.18Q-130.08 3.96-129.62 4.49Q-129.16 5.01-128.52 5.27Q-127.88 5.53-127.09 5.53L-127.09 5.53Q-126.35 5.53-125.82 5.35Q-125.29 5.18-124.90 4.99Q-124.52 4.79-124.26 4.62Q-124.00 4.45-123.81 4.45L-123.81 4.45Q-123.57 4.45-123.44 4.63L-123.44 4.63L-122.89 5.35Q-123.25 5.79-123.76 6.11Q-124.26 6.44-124.84 6.65Q-125.42 6.86-126.04 6.96Q-126.65 7.07-127.26 7.07L-127.26 7.07Q-128.41 7.07-129.38 6.67Q-130.36 6.28-131.07 5.53Q-131.78 4.78-132.17 3.67Q-132.57 2.56-132.57 1.11L-132.57 1.11Q-132.57-0.05-132.21-1.06Q-131.85-2.08-131.18-2.82Q-130.51-3.56-129.54-3.98Q-128.58-4.41-127.37-4.41ZM-127.32-2.97L-127.32-2.97Q-128.74-2.97-129.56-2.15Q-130.37-1.33-130.57 0.12L-130.57 0.12L-124.51 0.12Q-124.51-0.56-124.69-1.12Q-124.88-1.69-125.24-2.10Q-125.61-2.52-126.13-2.74Q-126.65-2.97-127.32-2.97ZM-118.29 6.91L-120.25 6.91L-120.25-4.23L-119.08-4.23Q-118.67-4.23-118.56-3.82L-118.56-3.82L-118.41-2.68Q-117.80-3.44-117.03-3.92Q-116.27-4.41-115.26-4.41L-115.26-4.41Q-114.12-4.41-113.42-3.78Q-112.73-3.15-112.42-2.09L-112.42-2.09Q-112.19-2.69-111.81-3.13Q-111.43-3.57-110.95-3.86Q-110.48-4.14-109.95-4.28Q-109.41-4.41-108.86-4.41L-108.86-4.41Q-107.98-4.41-107.30-4.13Q-106.61-3.85-106.13-3.31Q-105.65-2.77-105.40-1.98Q-105.15-1.20-105.15-0.18L-105.15-0.18L-105.15 6.91L-107.10 6.91L-107.10-0.18Q-107.10-1.49-107.68-2.17Q-108.25-2.85-109.34-2.85L-109.34-2.85Q-109.82-2.85-110.26-2.68Q-110.69-2.50-111.02-2.17Q-111.35-1.84-111.54-1.34Q-111.74-0.84-111.74-0.18L-111.74-0.18L-111.74 6.91L-113.69 6.91L-113.69-0.18Q-113.69-1.53-114.23-2.19Q-114.77-2.85-115.81-2.85L-115.81-2.85Q-116.53-2.85-117.15-2.46Q-117.77-2.06-118.29-1.39L-118.29-1.39L-118.29 6.91ZM-100.23 10.68L-102.19 10.68L-102.19-4.23L-101.02-4.23Q-100.60-4.23-100.49-3.82L-100.49-3.82L-100.33-2.50Q-99.61-3.37-98.69-3.90Q-97.78-4.43-96.58-4.43L-96.58-4.43Q-95.62-4.43-94.84-4.06Q-94.06-3.69-93.51-2.97Q-92.96-2.25-92.66-1.18Q-92.36-0.12-92.36 1.27L-92.36 1.27Q-92.36 2.50-92.69 3.56Q-93.02 4.62-93.64 5.40Q-94.26 6.17-95.15 6.62Q-96.05 7.07-97.17 7.07L-97.17 7.07Q-98.21 7.07-98.94 6.72Q-99.67 6.38-100.23 5.76L-100.23 5.76L-100.23 10.68ZM-97.23-2.85L-97.23-2.85Q-98.18-2.85-98.90-2.41Q-99.62-1.97-100.23-1.16L-100.23-1.16L-100.23 4.23Q-99.69 4.95-99.05 5.25Q-98.40 5.55-97.61 5.55L-97.61 5.55Q-96.06 5.55-95.22 4.44Q-94.39 3.33-94.39 1.27L-94.39 1.27Q-94.39 0.18-94.58-0.60Q-94.77-1.38-95.14-1.88Q-95.50-2.38-96.03-2.61Q-96.56-2.85-97.23-2.85ZM-86.67 7.09L-86.67 7.09Q-87.99 7.09-88.70 6.35Q-89.41 5.61-89.41 4.23L-89.41 4.23L-89.41-2.59L-90.75-2.59Q-90.92-2.59-91.04-2.70Q-91.17-2.80-91.17-3.02L-91.17-3.02L-91.17-3.80L-89.34-4.03L-88.89-7.48Q-88.87-7.64-88.75-7.75Q-88.62-7.85-88.44-7.85L-88.44-7.85L-87.45-7.85L-87.45-4.01L-84.26-4.01L-84.26-2.59L-87.45-2.59L-87.45 4.10Q-87.45 4.80-87.11 5.14Q-86.77 5.48-86.23 5.48L-86.23 5.48Q-85.92 5.48-85.69 5.40Q-85.47 5.32-85.30 5.22Q-85.14 5.12-85.02 5.04Q-84.91 4.95-84.82 4.95L-84.82 4.95Q-84.66 4.95-84.54 5.14L-84.54 5.14L-83.97 6.08Q-84.48 6.55-85.19 6.82Q-85.91 7.09-86.67 7.09ZM-72.36-4.23L-78.57 10.20Q-78.67 10.42-78.82 10.55Q-78.97 10.68-79.27 10.68L-79.27 10.68L-80.73 10.68L-78.69 6.26L-83.29-4.23L-81.60-4.23Q-81.34-4.23-81.20-4.11Q-81.06-3.98-80.99-3.82L-80.99-3.82L-78.01 3.19Q-77.91 3.44-77.84 3.68Q-77.77 3.92-77.71 4.17L-77.71 4.17Q-77.64 3.92-77.56 3.68Q-77.48 3.44-77.38 3.18L-77.38 3.18L-74.49-3.82Q-74.42-4.00-74.26-4.12Q-74.10-4.23-73.92-4.23L-73.92-4.23L-72.36-4.23ZM-72.66 5.70L-72.66 5.70Q-72.66 5.42-72.56 5.16Q-72.45 4.91-72.27 4.72Q-72.09 4.54-71.84 4.43Q-71.59 4.32-71.30 4.32L-71.30 4.32Q-71.01 4.32-70.76 4.43Q-70.51 4.54-70.32 4.72Q-70.13 4.91-70.03 5.16Q-69.92 5.42-69.92 5.70L-69.92 5.70Q-69.92 6.00-70.03 6.25Q-70.13 6.49-70.32 6.68Q-70.51 6.87-70.76 6.97Q-71.01 7.08-71.30 7.08L-71.30 7.08Q-71.59 7.08-71.84 6.97Q-72.09 6.87-72.27 6.68Q-72.45 6.49-72.56 6.25Q-72.66 6.00-72.66 5.70ZM-60.46-8.85L-60.46-1.94L-59.66-1.94Q-59.24-1.94-59.00-2.05Q-58.75-2.15-58.53-2.41L-58.53-2.41L-53.28-8.35Q-53.04-8.62-52.81-8.74Q-52.59-8.85-52.24-8.85L-52.24-8.85L-50.42-8.85L-56.43-2.06Q-56.66-1.81-56.86-1.64Q-57.07-1.46-57.30-1.35L-57.30-1.35Q-56.99-1.25-56.76-1.05Q-56.53-0.85-56.27-0.56L-56.27-0.56L-50.00 6.91L-51.85 6.91Q-52.06 6.91-52.20 6.88Q-52.35 6.85-52.45 6.79Q-52.56 6.74-52.64 6.65Q-52.73 6.56-52.82 6.46L-52.82 6.46L-58.26 0.20Q-58.39 0.07-58.49-0.02Q-58.59-0.12-58.73-0.18Q-58.87-0.25-59.05-0.28Q-59.23-0.30-59.50-0.30L-59.50-0.30L-60.46-0.30L-60.46 6.91L-62.59 6.91L-62.59-8.85L-60.46-8.85ZM-44.12-4.41L-44.12-4.41Q-43.12-4.41-42.27-4.07Q-41.42-3.74-40.81-3.10Q-40.19-2.47-39.84-1.54Q-39.50-0.61-39.50 0.58L-39.50 0.58Q-39.50 1.04-39.60 1.19Q-39.70 1.35-39.97 1.35L-39.97 1.35L-47.39 1.35Q-47.36 2.40-47.10 3.18Q-46.84 3.96-46.37 4.49Q-45.91 5.01-45.27 5.27Q-44.64 5.53-43.84 5.53L-43.84 5.53Q-43.11 5.53-42.57 5.35Q-42.04 5.18-41.65 4.99Q-41.27 4.79-41.01 4.62Q-40.75 4.45-40.57 4.45L-40.57 4.45Q-40.32 4.45-40.19 4.63L-40.19 4.63L-39.64 5.35Q-40.00 5.79-40.51 6.11Q-41.02 6.44-41.59 6.65Q-42.17 6.86-42.79 6.96Q-43.40 7.07-44.01 7.07L-44.01 7.07Q-45.16 7.07-46.14 6.67Q-47.11 6.28-47.82 5.53Q-48.53 4.78-48.93 3.67Q-49.32 2.56-49.32 1.11L-49.32 1.11Q-49.32-0.05-48.96-1.06Q-48.61-2.08-47.94-2.82Q-47.26-3.56-46.30-3.98Q-45.33-4.41-44.12-4.41ZM-44.07-2.97L-44.07-2.97Q-45.49-2.97-46.31-2.15Q-47.12-1.33-47.32 0.12L-47.32 0.12L-41.26 0.12Q-41.26-0.56-41.45-1.12Q-41.63-1.69-42.00-2.10Q-42.36-2.52-42.88-2.74Q-43.40-2.97-44.07-2.97ZM-32.59-4.41L-32.59-4.41Q-31.59-4.41-30.74-4.07Q-29.90-3.74-29.28-3.10Q-28.66-2.47-28.32-1.54Q-27.97-0.61-27.97 0.58L-27.97 0.58Q-27.97 1.04-28.07 1.19Q-28.17 1.35-28.44 1.35L-28.44 1.35L-35.86 1.35Q-35.84 2.40-35.57 3.18Q-35.31 3.96-34.85 4.49Q-34.38 5.01-33.75 5.27Q-33.11 5.53-32.32 5.53L-32.32 5.53Q-31.58 5.53-31.04 5.35Q-30.51 5.18-30.13 4.99Q-29.74 4.79-29.48 4.62Q-29.22 4.45-29.04 4.45L-29.04 4.45Q-28.80 4.45-28.66 4.63L-28.66 4.63L-28.11 5.35Q-28.48 5.79-28.98 6.11Q-29.49 6.44-30.07 6.65Q-30.64 6.86-31.26 6.96Q-31.88 7.07-32.48 7.07L-32.48 7.07Q-33.64 7.07-34.61 6.67Q-35.58 6.28-36.29 5.53Q-37.00 4.78-37.40 3.67Q-37.79 2.56-37.79 1.11L-37.79 1.11Q-37.79-0.05-37.44-1.06Q-37.08-2.08-36.41-2.82Q-35.74-3.56-34.77-3.98Q-33.80-4.41-32.59-4.41ZM-32.55-2.97L-32.55-2.97Q-33.97-2.97-34.78-2.15Q-35.59-1.33-35.79 0.12L-35.79 0.12L-29.73 0.12Q-29.73-0.56-29.92-1.12Q-30.10-1.69-30.47-2.10Q-30.83-2.52-31.35-2.74Q-31.88-2.97-32.55-2.97ZM-23.52 10.68L-25.47 10.68L-25.47-4.23L-24.31-4.23Q-23.89-4.23-23.78-3.82L-23.78-3.82L-23.61-2.50Q-22.90-3.37-21.98-3.90Q-21.06-4.43-19.86-4.43L-19.86-4.43Q-18.91-4.43-18.13-4.06Q-17.34-3.69-16.79-2.97Q-16.24-2.25-15.95-1.18Q-15.65-0.12-15.65 1.27L-15.65 1.27Q-15.65 2.50-15.98 3.56Q-16.31 4.62-16.93 5.40Q-17.54 6.17-18.44 6.62Q-19.34 7.07-20.46 7.07L-20.46 7.07Q-21.49 7.07-22.22 6.72Q-22.95 6.38-23.52 5.76L-23.52 5.76L-23.52 10.68ZM-20.51-2.85L-20.51-2.85Q-21.47-2.85-22.19-2.41Q-22.91-1.97-23.52-1.16L-23.52-1.16L-23.52 4.23Q-22.98 4.95-22.33 5.25Q-21.69 5.55-20.90 5.55L-20.90 5.55Q-19.35 5.55-18.51 4.44Q-17.67 3.33-17.67 1.27L-17.67 1.27Q-17.67 0.18-17.87-0.60Q-18.06-1.38-18.42-1.88Q-18.79-2.38-19.31-2.61Q-19.84-2.85-20.51-2.85ZM-4.67-4.41L-4.67-4.41Q-3.67-4.41-2.82-4.07Q-1.98-3.74-1.36-3.10Q-0.75-2.47-0.40-1.54Q-0.05-0.61-0.05 0.58L-0.05 0.58Q-0.05 1.04-0.15 1.19Q-0.25 1.35-0.53 1.35L-0.53 1.35L-7.94 1.35Q-7.92 2.40-7.65 3.18Q-7.39 3.96-6.93 4.49Q-6.47 5.01-5.83 5.27Q-5.19 5.53-4.40 5.53L-4.40 5.53Q-3.66 5.53-3.13 5.35Q-2.59 5.18-2.21 4.99Q-1.82 4.79-1.56 4.62Q-1.31 4.45-1.12 4.45L-1.12 4.45Q-0.88 4.45-0.75 4.63L-0.75 4.63L-0.20 5.35Q-0.56 5.79-1.06 6.11Q-1.57 6.44-2.15 6.65Q-2.73 6.86-3.34 6.96Q-3.96 7.07-4.56 7.07L-4.56 7.07Q-5.72 7.07-6.69 6.67Q-7.66 6.28-8.37 5.53Q-9.08 4.78-9.48 3.67Q-9.88 2.56-9.88 1.11L-9.88 1.11Q-9.88-0.05-9.52-1.06Q-9.16-2.08-8.49-2.82Q-7.82-3.56-6.85-3.98Q-5.88-4.41-4.67-4.41ZM-4.63-2.97L-4.63-2.97Q-6.05-2.97-6.86-2.15Q-7.68-1.33-7.87 0.12L-7.87 0.12L-1.81 0.12Q-1.81-0.56-2.00-1.12Q-2.19-1.69-2.55-2.10Q-2.91-2.52-3.43-2.74Q-3.96-2.97-4.63-2.97ZM0.49 6.91L4.39 1.20L0.64-4.23L2.52-4.23Q2.76-4.23 2.87-4.15Q2.98-4.08 3.07-3.93L3.07-3.93L5.80 0.25Q5.90-0.06 6.09-0.37L6.09-0.37L8.48-3.89Q8.59-4.04 8.70-4.14Q8.81-4.23 8.98-4.23L8.98-4.23L10.78-4.23L7.03 1.09L10.94 6.91L9.06 6.91Q8.81 6.91 8.68 6.78Q8.54 6.66 8.45 6.50L8.45 6.50L5.65 2.14Q5.57 2.46 5.41 2.71L5.41 2.71L2.82 6.50Q2.71 6.66 2.58 6.78Q2.46 6.91 2.24 6.91L2.24 6.91L0.49 6.91ZM14.83 10.68L12.87 10.68L12.87-4.23L14.04-4.23Q14.46-4.23 14.57-3.82L14.57-3.82L14.73-2.50Q15.45-3.37 16.37-3.90Q17.28-4.43 18.48-4.43L18.48-4.43Q19.44-4.43 20.22-4.06Q21.00-3.69 21.55-2.97Q22.10-2.25 22.40-1.18Q22.70-0.12 22.70 1.27L22.70 1.27Q22.70 2.50 22.37 3.56Q22.04 4.62 21.42 5.40Q20.80 6.17 19.91 6.62Q19.01 7.07 17.89 7.07L17.89 7.07Q16.85 7.07 16.12 6.72Q15.39 6.38 14.83 5.76L14.83 5.76L14.83 10.68ZM17.83-2.85L17.83-2.85Q16.88-2.85 16.16-2.41Q15.44-1.97 14.83-1.16L14.83-1.16L14.83 4.23Q15.37 4.95 16.01 5.25Q16.66 5.55 17.45 5.55L17.45 5.55Q19.00 5.55 19.84 4.44Q20.67 3.33 20.67 1.27L20.67 1.27Q20.67 0.18 20.48-0.60Q20.29-1.38 19.92-1.88Q19.56-2.38 19.03-2.61Q18.50-2.85 17.83-2.85ZM25.24-9.29L27.19-9.29L27.19 6.91L25.24 6.91L25.24-9.29ZM35.16-4.41L35.16-4.41Q36.38-4.41 37.36-4.00Q38.35-3.59 39.04-2.85Q39.72-2.10 40.09-1.04Q40.46 0.03 40.46 1.33L40.46 1.33Q40.46 2.65 40.09 3.71Q39.72 4.77 39.04 5.51Q38.35 6.26 37.36 6.66Q36.38 7.07 35.16 7.07L35.16 7.07Q33.94 7.07 32.95 6.66Q31.97 6.26 31.28 5.51Q30.58 4.77 30.21 3.71Q29.83 2.65 29.83 1.33L29.83 1.33Q29.83 0.03 30.21-1.04Q30.58-2.10 31.28-2.85Q31.97-3.59 32.95-4.00Q33.94-4.41 35.16-4.41ZM35.16 5.54L35.16 5.54Q36.81 5.54 37.62 4.43Q38.44 3.33 38.44 1.35L38.44 1.35Q38.44-0.65 37.62-1.76Q36.81-2.87 35.16-2.87L35.16-2.87Q34.32-2.87 33.71-2.58Q33.09-2.30 32.68-1.76Q32.27-1.22 32.06-0.43Q31.86 0.36 31.86 1.35L31.86 1.35Q31.86 2.34 32.06 3.12Q32.27 3.90 32.68 4.43Q33.09 4.96 33.71 5.25Q34.32 5.54 35.16 5.54ZM44.84 6.91L42.88 6.91L42.88-4.23L44.00-4.23Q44.32-4.23 44.44-4.11Q44.56-3.99 44.61-3.69L44.61-3.69L44.74-1.95Q45.31-3.12 46.15-3.78Q46.99-4.43 48.13-4.43L48.13-4.43Q48.59-4.43 48.96-4.33Q49.34-4.22 49.66-4.03L49.66-4.03L49.40-2.57Q49.33-2.30 49.06-2.30L49.06-2.30Q48.91-2.30 48.59-2.40Q48.27-2.50 47.70-2.50L47.70-2.50Q46.68-2.50 45.99-1.91Q45.30-1.32 44.84-0.18L44.84-0.18L44.84 6.91ZM51.97-4.23L53.92-4.23L53.92 6.91L51.97 6.91L51.97-4.23ZM54.36-7.73L54.36-7.73Q54.36-7.44 54.25-7.20Q54.13-6.95 53.94-6.76Q53.75-6.56 53.50-6.45Q53.24-6.34 52.96-6.34L52.96-6.34Q52.67-6.34 52.42-6.45Q52.18-6.56 51.98-6.76Q51.79-6.95 51.68-7.20Q51.57-7.44 51.57-7.73L51.57-7.73Q51.57-8.02 51.68-8.27Q51.79-8.53 51.98-8.73Q52.18-8.92 52.42-9.03Q52.67-9.14 52.96-9.14L52.96-9.14Q53.24-9.14 53.50-9.03Q53.75-8.92 53.94-8.73Q54.13-8.53 54.25-8.27Q54.36-8.02 54.36-7.73ZM59.34 6.91L57.38 6.91L57.38-4.23L58.54-4.23Q58.96-4.23 59.07-3.82L59.07-3.82L59.23-2.61Q59.95-3.42 60.85-3.91Q61.75-4.41 62.92-4.41L62.92-4.41Q63.84-4.41 64.53-4.11Q65.23-3.80 65.70-3.25Q66.17-2.69 66.41-1.91Q66.65-1.13 66.65-0.18L66.65-0.18L66.65 6.91L64.69 6.91L64.69-0.18Q64.69-1.45 64.12-2.15Q63.54-2.85 62.35-2.85L62.35-2.85Q61.48-2.85 60.73-2.43Q59.97-2.01 59.34-1.29L59.34-1.29L59.34 6.91ZM73.36-4.42L73.36-4.42Q74.09-4.42 74.72-4.26Q75.35-4.10 75.87-3.79L75.87-3.79L78.89-3.79L78.89-3.07Q78.89-2.70 78.43-2.60L78.43-2.60L77.17-2.43Q77.54-1.71 77.54-0.83L77.54-0.83Q77.54-0.02 77.23 0.65Q76.91 1.31 76.36 1.79Q75.80 2.26 75.04 2.51Q74.27 2.76 73.36 2.76L73.36 2.76Q72.58 2.76 71.89 2.58L71.89 2.58Q71.54 2.80 71.35 3.05Q71.17 3.30 71.17 3.55L71.17 3.55Q71.17 3.94 71.49 4.14Q71.81 4.35 72.34 4.44Q72.87 4.52 73.54 4.55Q74.21 4.57 74.91 4.62Q75.61 4.67 76.28 4.79Q76.95 4.91 77.48 5.18Q78.00 5.46 78.32 5.94Q78.64 6.43 78.64 7.20L78.64 7.20Q78.64 7.91 78.28 8.58Q77.93 9.25 77.26 9.78Q76.58 10.30 75.62 10.61Q74.65 10.93 73.43 10.93L73.43 10.93Q72.21 10.93 71.29 10.68Q70.37 10.44 69.76 10.04Q69.16 9.63 68.86 9.09Q68.55 8.56 68.55 7.98L68.55 7.98Q68.55 7.15 69.08 6.58Q69.60 6.00 70.51 5.66L70.51 5.66Q70.04 5.44 69.76 5.07Q69.48 4.70 69.48 4.08L69.48 4.08Q69.48 3.84 69.57 3.58Q69.65 3.33 69.84 3.07Q70.02 2.82 70.28 2.59Q70.55 2.36 70.90 2.18L70.90 2.18Q70.07 1.72 69.61 0.95Q69.14 0.19 69.14-0.83L69.14-0.83Q69.14-1.65 69.45-2.31Q69.76-2.98 70.33-3.45Q70.89-3.91 71.66-4.17Q72.44-4.42 73.36-4.42ZM76.84 7.52L76.84 7.52Q76.84 7.10 76.61 6.85Q76.38 6.59 75.98 6.45Q75.58 6.32 75.07 6.25Q74.55 6.19 73.98 6.16Q73.41 6.13 72.81 6.10Q72.22 6.06 71.68 5.98L71.68 5.98Q71.05 6.27 70.66 6.70Q70.27 7.13 70.27 7.73L70.27 7.73Q70.27 8.10 70.46 8.42Q70.66 8.75 71.05 8.98Q71.45 9.22 72.05 9.36Q72.65 9.50 73.46 9.50L73.46 9.50Q74.25 9.50 74.88 9.35Q75.51 9.21 75.94 8.95Q76.38 8.68 76.61 8.32Q76.84 7.96 76.84 7.52ZM73.36 1.47L73.36 1.47Q73.96 1.47 74.41 1.30Q74.87 1.14 75.18 0.84Q75.48 0.54 75.64 0.13Q75.79-0.28 75.79-0.78L75.79-0.78Q75.79-1.80 75.17-2.41Q74.55-3.01 73.36-3.01L73.36-3.01Q72.18-3.01 71.56-2.41Q70.94-1.80 70.94-0.78L70.94-0.78Q70.94-0.28 71.10 0.13Q71.26 0.54 71.57 0.84Q71.88 1.14 72.33 1.30Q72.78 1.47 73.36 1.47ZM88.48 7.09L88.48 7.09Q87.16 7.09 86.45 6.35Q85.74 5.61 85.74 4.23L85.74 4.23L85.74-2.59L84.39-2.59Q84.22-2.59 84.10-2.70Q83.98-2.80 83.98-3.02L83.98-3.02L83.98-3.80L85.80-4.03L86.25-7.48Q86.28-7.64 86.40-7.75Q86.52-7.85 86.70-7.85L86.70-7.85L87.69-7.85L87.69-4.01L90.88-4.01L90.88-2.59L87.69-2.59L87.69 4.10Q87.69 4.80 88.04 5.14Q88.38 5.48 88.92 5.48L88.92 5.48Q89.22 5.48 89.45 5.40Q89.67 5.32 89.84 5.22Q90.00 5.12 90.12 5.04Q90.24 4.95 90.32 4.95L90.32 4.95Q90.48 4.95 90.60 5.14L90.60 5.14L91.17 6.08Q90.66 6.55 89.95 6.82Q89.23 7.09 88.48 7.09ZM97.81-4.41L97.81-4.41Q99.04-4.41 100.02-4.00Q101.00-3.59 101.69-2.85Q102.38-2.10 102.75-1.04Q103.12 0.03 103.12 1.33L103.12 1.33Q103.12 2.65 102.75 3.71Q102.38 4.77 101.69 5.51Q101.00 6.26 100.02 6.66Q99.04 7.07 97.81 7.07L97.81 7.07Q96.59 7.07 95.61 6.66Q94.62 6.26 93.93 5.51Q93.24 4.77 92.86 3.71Q92.49 2.65 92.49 1.33L92.49 1.33Q92.49 0.03 92.86-1.04Q93.24-2.10 93.93-2.85Q94.62-3.59 95.61-4.00Q96.59-4.41 97.81-4.41ZM97.81 5.54L97.81 5.54Q99.46 5.54 100.28 4.43Q101.09 3.33 101.09 1.35L101.09 1.35Q101.09-0.65 100.28-1.76Q99.46-2.87 97.81-2.87L97.81-2.87Q96.98-2.87 96.36-2.58Q95.75-2.30 95.33-1.76Q94.92-1.22 94.72-0.43Q94.51 0.36 94.51 1.35L94.51 1.35Q94.51 2.34 94.72 3.12Q94.92 3.90 95.33 4.43Q95.75 4.96 96.36 5.25Q96.98 5.54 97.81 5.54ZM112.19 6.91L110.22 6.91L110.22-2.56L108.99-2.70Q108.76-2.76 108.61-2.87Q108.46-2.99 108.46-3.21L108.46-3.21L108.46-4.01L110.22-4.01L110.22-5.09Q110.22-6.05 110.49-6.79Q110.76-7.53 111.26-8.04Q111.76-8.55 112.47-8.82Q113.17-9.08 114.05-9.08L114.05-9.08Q114.80-9.08 115.44-8.86L115.44-8.86L115.39-7.88Q115.38-7.66 115.21-7.62Q115.03-7.58 114.71-7.58L114.71-7.58L114.37-7.58Q113.86-7.58 113.45-7.44Q113.04-7.31 112.74-7.01Q112.44-6.72 112.29-6.23Q112.13-5.75 112.13-5.03L112.13-5.03L112.13-4.01L115.35-4.01L115.35-2.59L112.19-2.59L112.19 6.91ZM117.42-4.23L119.37-4.23L119.37 6.91L117.42 6.91L117.42-4.23ZM119.81-7.73L119.81-7.73Q119.81-7.44 119.70-7.20Q119.58-6.95 119.39-6.76Q119.20-6.56 118.95-6.45Q118.69-6.34 118.41-6.34L118.41-6.34Q118.12-6.34 117.87-6.45Q117.63-6.56 117.43-6.76Q117.24-6.95 117.13-7.20Q117.02-7.44 117.02-7.73L117.02-7.73Q117.02-8.02 117.13-8.27Q117.24-8.53 117.43-8.73Q117.63-8.92 117.87-9.03Q118.12-9.14 118.41-9.14L118.41-9.14Q118.69-9.14 118.95-9.03Q119.20-8.92 119.39-8.73Q119.58-8.53 119.70-8.27Q119.81-8.02 119.81-7.73ZM124.79 6.91L122.83 6.91L122.83-4.23L123.99-4.23Q124.41-4.23 124.52-3.82L124.52-3.82L124.68-2.61Q125.40-3.42 126.30-3.91Q127.20-4.41 128.37-4.41L128.37-4.41Q129.29-4.41 129.98-4.11Q130.68-3.80 131.15-3.25Q131.62-2.69 131.86-1.91Q132.10-1.13 132.10-0.18L132.10-0.18L132.10 6.91L130.14 6.91L130.14-0.18Q130.14-1.45 129.57-2.15Q128.99-2.85 127.80-2.85L127.80-2.85Q126.93-2.85 126.18-2.43Q125.42-2.01 124.79-1.29L124.79-1.29L124.79 6.91ZM144.07 6.91L142.90 6.91Q142.49 6.91 142.38 6.50L142.38 6.50L142.20 5.15Q141.48 6.02 140.57 6.54Q139.65 7.07 138.46 7.07L138.46 7.07Q137.50 7.07 136.72 6.70Q135.94 6.33 135.39 5.61Q134.84 4.90 134.54 3.83Q134.25 2.76 134.25 1.38L134.25 1.38Q134.25 0.15 134.58-0.92Q134.91-1.98 135.53-2.76Q136.15-3.54 137.04-3.98Q137.93-4.43 139.06-4.43L139.06-4.43Q140.09-4.43 140.81-4.08Q141.54-3.74 142.11-3.11L142.11-3.11L142.11-9.29L144.07-9.29L144.07 6.91ZM139.11 5.48L139.11 5.48Q140.07 5.48 140.79 5.04Q141.51 4.60 142.11 3.80L142.11 3.80L142.11-1.59Q141.57-2.32 140.93-2.61Q140.29-2.90 139.50-2.90L139.50-2.90Q137.94-2.90 137.11-1.79Q136.27-0.68 136.27 1.38L136.27 1.38Q136.27 2.47 136.46 3.24Q136.64 4.02 137.01 4.52Q137.37 5.02 137.90 5.25Q138.43 5.48 139.11 5.48ZM159.79-0.22L159.79 6.91L158.92 6.91Q158.63 6.91 158.46 6.82Q158.28 6.74 158.23 6.45L158.23 6.45L158.01 5.42Q157.57 5.81 157.15 6.12Q156.73 6.44 156.27 6.65Q155.81 6.87 155.28 6.98Q154.76 7.09 154.12 7.09L154.12 7.09Q153.47 7.09 152.91 6.91Q152.34 6.72 151.92 6.36Q151.51 6.00 151.26 5.44Q151.01 4.89 151.01 4.13L151.01 4.13Q151.01 3.47 151.37 2.86Q151.74 2.25 152.55 1.77Q153.35 1.30 154.66 1.00Q155.97 0.70 157.86 0.65L157.86 0.65L157.86-0.22Q157.86-1.51 157.31-2.18Q156.75-2.85 155.66-2.85L155.66-2.85Q154.95-2.85 154.46-2.66Q153.97-2.48 153.61-2.26Q153.25-2.03 153.00-1.85Q152.74-1.67 152.48-1.67L152.48-1.67Q152.29-1.67 152.14-1.77Q151.99-1.88 151.90-2.03L151.90-2.03L151.55-2.66Q152.47-3.55 153.54-3.99Q154.61-4.43 155.91-4.43L155.91-4.43Q156.84-4.43 157.57-4.12Q158.29-3.81 158.79-3.26Q159.28-2.71 159.54-1.93Q159.79-1.15 159.79-0.22L159.79-0.22ZM154.71 5.71L154.71 5.71Q155.22 5.71 155.65 5.61Q156.08 5.50 156.46 5.31Q156.84 5.12 157.19 4.84Q157.53 4.57 157.86 4.22L157.86 4.22L157.86 1.90Q156.51 1.94 155.56 2.11Q154.62 2.28 154.02 2.56Q153.43 2.83 153.16 3.20Q152.89 3.58 152.89 4.04L152.89 4.04Q152.89 4.48 153.03 4.80Q153.18 5.12 153.42 5.32Q153.66 5.53 153.99 5.62Q154.32 5.71 154.71 5.71ZM175.12-2.96L174.61-2.25Q174.52-2.13 174.43-2.06Q174.34-2.00 174.18-2.00L174.18-2.00Q174.01-2.00 173.82-2.14Q173.63-2.27 173.33-2.44Q173.03-2.60 172.61-2.74Q172.19-2.88 171.57-2.88L171.57-2.88Q170.76-2.88 170.13-2.59Q169.50-2.30 169.08-1.75Q168.65-1.20 168.44-0.41Q168.23 0.37 168.23 1.33L168.23 1.33Q168.23 2.35 168.46 3.13Q168.69 3.92 169.11 4.45Q169.52 4.99 170.12 5.27Q170.72 5.55 171.47 5.55L171.47 5.55Q172.19 5.55 172.65 5.38Q173.11 5.21 173.42 5.00Q173.73 4.79 173.92 4.62Q174.12 4.45 174.32 4.45L174.32 4.45Q174.57 4.45 174.69 4.63L174.69 4.63L175.24 5.35Q174.52 6.24 173.43 6.65Q172.34 7.07 171.13 7.07L171.13 7.07Q170.08 7.07 169.19 6.68Q168.29 6.30 167.63 5.56Q166.97 4.83 166.59 3.77Q166.21 2.70 166.21 1.33L166.21 1.33Q166.21 0.09 166.56-0.96Q166.91-2.02 167.57-2.79Q168.24-3.55 169.22-3.98Q170.19-4.41 171.46-4.41L171.46-4.41Q172.63-4.41 173.53-4.03Q174.43-3.65 175.12-2.96L175.12-2.96ZM181.79-4.41L181.79-4.41Q183.01-4.41 183.99-4.00Q184.98-3.59 185.67-2.85Q186.35-2.10 186.72-1.04Q187.09 0.03 187.09 1.33L187.09 1.33Q187.09 2.65 186.72 3.71Q186.35 4.77 185.67 5.51Q184.98 6.26 183.99 6.66Q183.01 7.07 181.79 7.07L181.79 7.07Q180.57 7.07 179.58 6.66Q178.60 6.26 177.91 5.51Q177.21 4.77 176.84 3.71Q176.46 2.65 176.46 1.33L176.46 1.33Q176.46 0.03 176.84-1.04Q177.21-2.10 177.91-2.85Q178.60-3.59 179.58-4.00Q180.57-4.41 181.79-4.41ZM181.79 5.54L181.79 5.54Q183.44 5.54 184.25 4.43Q185.07 3.33 185.07 1.35L185.07 1.35Q185.07-0.65 184.25-1.76Q183.44-2.87 181.79-2.87L181.79-2.87Q180.95-2.87 180.34-2.58Q179.72-2.30 179.31-1.76Q178.90-1.22 178.69-0.43Q178.49 0.36 178.49 1.35L178.49 1.35Q178.49 2.34 178.69 3.12Q178.90 3.90 179.31 4.43Q179.72 4.96 180.34 5.25Q180.95 5.54 181.79 5.54ZM189.25-4.23L191.20-4.23L191.20 2.87Q191.20 4.14 191.79 4.83Q192.37 5.53 193.55 5.53L193.55 5.53Q194.41 5.53 195.16 5.12Q195.92 4.71 196.56 3.99L196.56 3.99L196.56-4.23L198.52-4.23L198.52 6.91L197.35 6.91Q196.94 6.91 196.83 6.50L196.83 6.50L196.67 5.31Q195.95 6.11 195.04 6.60Q194.14 7.09 192.98 7.09L192.98 7.09Q192.06 7.09 191.36 6.78Q190.67 6.48 190.19 5.93Q189.72 5.38 189.48 4.60Q189.25 3.82 189.25 2.87L189.25 2.87L189.25-4.23ZM203.70 6.91L201.74 6.91L201.74-4.23L202.86-4.23Q203.18-4.23 203.30-4.11Q203.43-3.99 203.47-3.69L203.47-3.69L203.60-1.95Q204.17-3.12 205.02-3.78Q205.86-4.43 206.99-4.43L206.99-4.43Q207.45-4.43 207.83-4.33Q208.20-4.22 208.52-4.03L208.52-4.03L208.27-2.57Q208.19-2.30 207.92-2.30L207.92-2.30Q207.77-2.30 207.45-2.40Q207.13-2.50 206.56-2.50L206.56-2.50Q205.54-2.50 204.85-1.91Q204.16-1.32 203.70-0.18L203.70-0.18L203.70 6.91ZM217.43-3.11L216.99-2.39Q216.86-2.15 216.58-2.15L216.58-2.15Q216.42-2.15 216.21-2.27Q216.00-2.39 215.70-2.54Q215.39-2.69 214.98-2.82Q214.56-2.94 213.99-2.94L213.99-2.94Q213.49-2.94 213.09-2.82Q212.70-2.69 212.42-2.47Q212.14-2.25 211.99-1.96Q211.84-1.67 211.84-1.33L211.84-1.33Q211.84-0.90 212.09-0.61Q212.34-0.33 212.74-0.12Q213.15 0.09 213.67 0.25Q214.18 0.41 214.73 0.59Q215.27 0.77 215.79 0.99Q216.31 1.21 216.71 1.54Q217.12 1.87 217.37 2.35Q217.62 2.83 217.62 3.50L217.62 3.50Q217.62 4.27 217.34 4.93Q217.07 5.58 216.53 6.06Q215.99 6.54 215.21 6.81Q214.43 7.09 213.40 7.09L213.40 7.09Q212.24 7.09 211.29 6.71Q210.34 6.33 209.68 5.73L209.68 5.73L210.15 4.99Q210.23 4.84 210.36 4.77Q210.48 4.69 210.67 4.69L210.67 4.69Q210.87 4.69 211.09 4.84Q211.31 5.00 211.63 5.18Q211.94 5.37 212.39 5.53Q212.83 5.68 213.50 5.68L213.50 5.68Q214.07 5.68 214.50 5.53Q214.93 5.38 215.22 5.13Q215.50 4.88 215.64 4.55Q215.78 4.22 215.78 3.84L215.78 3.84Q215.78 3.38 215.53 3.08Q215.28 2.78 214.88 2.56Q214.47 2.35 213.95 2.19Q213.42 2.03 212.88 1.85Q212.34 1.68 211.81 1.45Q211.29 1.22 210.88 0.88Q210.48 0.54 210.23 0.04Q209.98-0.46 209.98-1.17L209.98-1.17Q209.98-1.81 210.25-2.40Q210.51-2.99 211.02-3.43Q211.52-3.88 212.26-4.14Q213.00-4.41 213.94-4.41L213.94-4.41Q215.04-4.41 215.92-4.06Q216.79-3.71 217.43-3.11L217.43-3.11ZM224.57-4.41L224.57-4.41Q225.57-4.41 226.42-4.07Q227.26-3.74 227.88-3.10Q228.49-2.47 228.84-1.54Q229.19-0.61 229.19 0.58L229.19 0.58Q229.19 1.04 229.09 1.19Q228.99 1.35 228.71 1.35L228.71 1.35L221.30 1.35Q221.32 2.40 221.59 3.18Q221.85 3.96 222.31 4.49Q222.77 5.01 223.41 5.27Q224.05 5.53 224.84 5.53L224.84 5.53Q225.58 5.53 226.11 5.35Q226.65 5.18 227.03 4.99Q227.42 4.79 227.68 4.62Q227.93 4.45 228.12 4.45L228.12 4.45Q228.36 4.45 228.49 4.63L228.49 4.63L229.04 5.35Q228.68 5.79 228.18 6.11Q227.67 6.44 227.09 6.65Q226.51 6.86 225.90 6.96Q225.28 7.07 224.68 7.07L224.68 7.07Q223.52 7.07 222.55 6.67Q221.58 6.28 220.87 5.53Q220.16 4.78 219.76 3.67Q219.36 2.56 219.36 1.11L219.36 1.11Q219.36-0.05 219.72-1.06Q220.08-2.08 220.75-2.82Q221.42-3.56 222.39-3.98Q223.36-4.41 224.57-4.41ZM224.61-2.97L224.61-2.97Q223.19-2.97 222.38-2.15Q221.56-1.33 221.37 0.12L221.37 0.12L227.43 0.12Q227.43-0.56 227.24-1.12Q227.05-1.69 226.69-2.10Q226.33-2.52 225.81-2.74Q225.28-2.97 224.61-2.97ZM231.05 5.70L231.05 5.70Q231.05 5.42 231.15 5.16Q231.26 4.91 231.44 4.72Q231.62 4.54 231.87 4.43Q232.12 4.32 232.41 4.32L232.41 4.32Q232.70 4.32 232.95 4.43Q233.20 4.54 233.39 4.72Q233.58 4.91 233.68 5.16Q233.79 5.42 233.79 5.70L233.79 5.70Q233.79 6.00 233.68 6.25Q233.58 6.49 233.39 6.68Q233.20 6.87 232.95 6.97Q232.70 7.08 232.41 7.08L232.41 7.08Q232.12 7.08 231.87 6.97Q231.62 6.87 231.44 6.68Q231.26 6.49 231.15 6.25Q231.05 6.00 231.05 5.70Z"/></g>
</svg>