<svg xmlns="http://www.w3.org/2000/svg" xmlns:xlink="http://www.w3.org/1999/xlink" version="1.1" width="940" height="788" viewBox="0 0 940 788" xml:space="preserve">
<desc>Created with Fabric.js 3.5.0</desc>
<defs>
</defs>
<rect x="0" y="0" width="100%" height="100%" fill="#ffffff"/>
<g transform="matrix(1.7084 0 0 1.7084 469.9998 393.9998)" id="769297">
<g style="" vector-effect="non-scaling-stroke">
		<g transform="matrix(1 0 0 1 0 132.525)" id="Background_complete">
<rect style="stroke: none; stroke-width: 1; stroke-dasharray: none; stroke-linecap: butt; stroke-dashoffset: 0; stroke-linejoin: miter; stroke-miterlimit: 4; is-custom-font: none; font-file-url: none; fill: rgb(235,235,235); fill-rule: nonzero; opacity: 1;" x="-250" y="-0.125" rx="0" ry="0" width="500" height="0.25"/>
</g>
		<g transform="matrix(1 0 0 1 -88.37 138.905)" id="Background_complete">
<rect style="stroke: none; stroke-width: 1; stroke-dasharray: none; stroke-linecap: butt; stroke-dashoffset: 0; stroke-linejoin: miter; stroke-miterlimit: 4; is-custom-font: none; font-file-url: none; fill: rgb(235,235,235); fill-rule: nonzero; opacity: 1;" x="-11.59" y="-0.125" rx="0" ry="0" width="23.18" height="0.25"/>
</g>
		<g transform="matrix(1 0 0 1 180.435 144.265)" id="Background_complete">
<rect style="stroke: none; stroke-width: 1; stroke-dasharray: none; stroke-linecap: butt; stroke-dashoffset: 0; stroke-linejoin: miter; stroke-miterlimit: 4; is-custom-font: none; font-file-url: none; fill: rgb(235,235,235); fill-rule: nonzero; opacity: 1;" x="-28.335" y="-0.125" rx="0" ry="0" width="56.67" height="0.25"/>
</g>
		<g transform="matrix(1 0 0 1 -178.945 144.265)" id="Background_complete">
<rect style="stroke: none; stroke-width: 1; stroke-dasharray: none; stroke-linecap: butt; stroke-dashoffset: 0; stroke-linejoin: miter; stroke-miterlimit: 4; is-custom-font: none; font-file-url: none; fill: rgb(235,235,235); fill-rule: nonzero; opacity: 1;" x="-28.335" y="-0.125" rx="0" ry="0" width="56.67" height="0.25"/>
</g>
		<g transform="matrix(1 0 0 1 -109.54 -53.6)" id="Background_complete">
<path style="stroke: none; stroke-width: 1; stroke-dasharray: none; stroke-linecap: butt; stroke-dashoffset: 0; stroke-linejoin: miter; stroke-miterlimit: 4; is-custom-font: none; font-file-url: none; fill: rgb(235,235,235); fill-rule: nonzero; opacity: 1;" transform=" translate(-140.46, -196.4)" d="M 237 337.8 H 43.91 c -3.15 -0.005 -5.7 -2.56 -5.7 -5.71 V 60.66 c 0.027 -3.13 2.57 -5.655 5.7 -5.66 H 237 c 3.153 0 5.71 2.556 5.71 5.71 l 0 0 v 271.38 C 242.71 335.243 240.153 337.8 237 337.8 z M 43.91 55.2 c -3.012 0.006 -5.45 2.448 -5.45 5.46 v 271.43 c 0 3.012 2.438 5.454 5.45 5.46 H 237 c 3.013 -0.005 5.454 -2.447 5.46 -5.46 V 60.66 c -0.006 -3.013 -2.447 -5.454 -5.46 -5.46 H 43.91 z" stroke-linecap="round"/>
</g>
		<g transform="matrix(1 0 0 1 106.75 -53.6)" id="Background_complete">
<path style="stroke: none; stroke-width: 1; stroke-dasharray: none; stroke-linecap: butt; stroke-dashoffset: 0; stroke-linejoin: miter; stroke-miterlimit: 4; is-custom-font: none; font-file-url: none; fill: rgb(235,235,235); fill-rule: nonzero; opacity: 1;" transform=" translate(-356.75, -196.4)" d="M 453.31 337.8 h -193.1 c -3.151 -0.005 -5.704 -2.559 -5.71 -5.71 V 60.66 c 0.033 -3.132 2.578 -5.655 5.71 -5.66 h 193.1 c 3.126 0.011 5.663 2.534 5.69 5.66 v 271.43 C 459 335.236 456.456 337.789 453.31 337.8 z M 260.21 55.2 c -3.013 0.006 -5.454 2.447 -5.46 5.46 v 271.43 c 0.005 3.013 2.447 5.454 5.46 5.46 h 193.1 c 3.013 -0.005 5.454 -2.447 5.46 -5.46 V 60.66 c -0.005 -3.013 -2.447 -5.454 -5.46 -5.46 H 260.21 z" stroke-linecap="round"/>
</g>
		<g transform="matrix(1 0 0 1 -121.3909 81.8173)" id="Background_complete">
<path style="stroke: none; stroke-width: 1; stroke-dasharray: none; stroke-linecap: butt; stroke-dashoffset: 0; stroke-linejoin: miter; stroke-miterlimit: 4; is-custom-font: none; font-file-url: none; fill: rgb(230,230,230); fill-rule: nonzero; opacity: 1;" transform=" translate(-128.609, -331.8174)" d="M 151.781 406.293 c 0 0 19.629 -10.992 20.938 -26.696 c 1.309 -15.703 -14.133 -18.844 -20.938 -24.34 c -6.805 -5.496 -7.066 -10.469 -7.328 -19.629 s -3.141 -18.844 -13.348 -28.004 c -10.207 -9.16 -11.254 -12.563 -9.945 -24.864 c 1.309 -12.301 -7.066 -27.743 -17.535 -25.125 c -10.469 2.617 -11.254 19.106 -9.16 29.575 c 2.094 10.469 -0.523 21.723 -5.496 29.575 c -4.973 7.852 -7.066 21.723 0 30.621 c 7.066 8.898 11.777 16.75 8.375 26.172 c -3.402 9.422 -13.871 13.086 -1.832 32.715 H 151.781 z" stroke-linecap="round"/>
</g>
		<g transform="matrix(1 0 0 1 91.4367 102.4457)" id="Background_complete">
<path style="stroke: none; stroke-width: 1; stroke-dasharray: none; stroke-linecap: butt; stroke-dashoffset: 0; stroke-linejoin: miter; stroke-miterlimit: 4; is-custom-font: none; font-file-url: none; fill: rgb(245,245,245); fill-rule: nonzero; opacity: 1;" transform=" translate(-341.4367, -352.4457)" d="M 324.751 406.11 h 33.762 c 0 0 3.141 -27.742 2.617 -50.251 c -0.523 -22.508 -1.832 -58.102 -15.965 -57.055 C 331.032 299.85 314.805 336.23 324.751 406.11 z" stroke-linecap="round"/>
</g>
		<g transform="matrix(1 0 0 1 125.9153 125.9133)" id="Background_complete">
<path style="stroke: none; stroke-width: 1; stroke-dasharray: none; stroke-linecap: butt; stroke-dashoffset: 0; stroke-linejoin: miter; stroke-miterlimit: 4; is-custom-font: none; font-file-url: none; fill: rgb(240,240,240); fill-rule: nonzero; opacity: 1;" transform=" translate(-375.9153, -375.9132)" d="M 342.667 406.11 c 0 0 32.858 -73.282 59.291 -58.887 c 26.434 14.395 -28.368 59.254 -28.368 59.254 L 342.667 406.11 z" stroke-linecap="round"/>
</g>
		<g transform="matrix(1 0 0 1 64.8696 114.7793)" id="Background_complete">
<path style="stroke: none; stroke-width: 1; stroke-dasharray: none; stroke-linecap: butt; stroke-dashoffset: 0; stroke-linejoin: miter; stroke-miterlimit: 4; is-custom-font: none; font-file-url: none; fill: rgb(230,230,230); fill-rule: nonzero; opacity: 1;" transform=" translate(-314.8696, -364.7794)" d="M 338.725 406.477 c 0 0 2.153 -23.843 -6.816 -48.239 c -8.969 -24.396 -20.091 -38.954 -32.647 -34.29 c -12.557 4.664 -11.48 36.397 5.382 82.162 L 338.725 406.477 z" stroke-linecap="round"/>
</g>
		<g transform="matrix(1 0 0 1 113.2223 113.9149)" id="Background_complete">
<path style="stroke: none; stroke-width: 1; stroke-dasharray: none; stroke-linecap: butt; stroke-dashoffset: 0; stroke-linejoin: miter; stroke-miterlimit: 4; is-custom-font: none; font-file-url: none; fill: rgb(230,230,230); fill-rule: nonzero; opacity: 1;" transform=" translate(-363.2223, -363.9149)" d="M 358.513 406.11 c 0 0 14.294 -22.4 22.187 -43.567 c 7.893 -21.167 9.687 -36.953 2.511 -40.899 c -7.175 -3.946 -40.899 32.618 -44.487 84.833 L 358.513 406.11 z" stroke-linecap="round"/>
</g>
		<g transform="matrix(1 0 0 1 35.8624 125.3637)" id="Background_complete">
<path style="stroke: none; stroke-width: 1; stroke-dasharray: none; stroke-linecap: butt; stroke-dashoffset: 0; stroke-linejoin: miter; stroke-miterlimit: 4; is-custom-font: none; font-file-url: none; fill: rgb(240,240,240); fill-rule: nonzero; opacity: 1;" transform=" translate(-285.8625, -375.3638)" d="M 314.869 406.11 c 0 0 -18.478 -71.497 -50.049 -60.761 c -31.571 10.736 25.025 61.128 25.025 61.128 h 26.637" stroke-linecap="round"/>
</g>
		<g transform="matrix(1 0 0 1 163.5359 81.6526)" id="Background_complete">
<path style="stroke: rgb(235,235,235); stroke-width: 1; stroke-dasharray: none; stroke-linecap: butt; stroke-dashoffset: 0; stroke-linejoin: miter; stroke-miterlimit: 10; is-custom-font: none; font-file-url: none; fill: rgb(235,235,235); fill-rule: nonzero; opacity: 1;" transform=" translate(-413.5359, -331.6526)" d="M 373.789 386.603 c 0 0 3.839 -23.504 33.895 -52.718 c 30.056 -29.214 39.111 -50.868 33.745 -80.302 c 0 0 27.421 38.493 9.678 85.829 c -17.744 47.336 -45.262 63.185 -67.861 69.418 C 360.646 415.062 373.789 386.603 373.789 386.603 z" stroke-linecap="round"/>
</g>
		<g transform="matrix(1 0 0 1 161.6603 80.167)" id="Background_complete">
<path style="stroke: rgb(224,224,224); stroke-width: 2; stroke-dasharray: none; stroke-linecap: butt; stroke-dashoffset: 0; stroke-linejoin: miter; stroke-miterlimit: 10; is-custom-font: none; font-file-url: none; fill: none; fill-rule: nonzero; opacity: 1;" transform=" translate(-411.6603, -330.167)" d="M 374.169 409.17 c 6.089 -15.882 15.371 -25.219 25.777 -34.689 c 3.813 -3.467 7.784 -6.956 11.804 -10.79 c 2.743 -2.611 5.51 -5.388 8.265 -8.428 c 0 0 0 0 0.008 -0.007 c 2.861 -3.152 5.71 -6.583 8.517 -10.422 l 0 -0.007 c 2.807 -3.823 5.565 -8.053 8.237 -12.797 c 0 0 0 0 0.008 -0.007 c 0.513 -0.907 1.026 -1.836 1.532 -2.788 c 0.659 -1.229 1.28 -2.451 1.864 -3.666 c 15.463 -31.99 7.187 -59.174 2.719 -69.714 c -1.283 -3.032 -2.254 -4.691 -2.254 -4.691" stroke-linecap="round"/>
</g>
		<g transform="matrix(1 0 0 1 185.3275 66.4845)" id="Background_complete">
<path style="stroke: rgb(224,224,224); stroke-width: 2; stroke-dasharray: none; stroke-linecap: butt; stroke-dashoffset: 0; stroke-linejoin: miter; stroke-miterlimit: 10; is-custom-font: none; font-file-url: none; fill: none; fill-rule: nonzero; opacity: 1;" transform=" translate(-435.3275, -316.4845)" d="M 430.477 307.394 c 0 0 8.277 6.688 9.701 18.181" stroke-linecap="round"/>
</g>
		<g transform="matrix(1 0 0 1 173.571 83.7005)" id="Background_complete">
<path style="stroke: rgb(224,224,224); stroke-width: 2; stroke-dasharray: none; stroke-linecap: butt; stroke-dashoffset: 0; stroke-linejoin: miter; stroke-miterlimit: 10; is-custom-font: none; font-file-url: none; fill: none; fill-rule: nonzero; opacity: 1;" transform=" translate(-423.571, -333.7005)" d="M 428.538 344.833 l 0 -0.007 c -0.283 -6.895 -6.375 -16.945 -9.934 -22.258" stroke-linecap="round"/>
</g>
		<g transform="matrix(1 0 0 1 156.775 101.785)" id="Background_complete">
<path style="stroke: rgb(224,224,224); stroke-width: 2; stroke-dasharray: none; stroke-linecap: butt; stroke-dashoffset: 0; stroke-linejoin: miter; stroke-miterlimit: 10; is-custom-font: none; font-file-url: none; fill: none; fill-rule: nonzero; opacity: 1;" transform=" translate(-406.775, -351.785)" d="M 401.8 339.88 c 2.792 4.409 8.597 14.458 9.95 23.81" stroke-linecap="round"/>
</g>
		<g transform="matrix(1 0 0 1 165.57 125.0248)" id="Background_complete">
<path style="stroke: rgb(224,224,224); stroke-width: 2; stroke-dasharray: none; stroke-linecap: butt; stroke-dashoffset: 0; stroke-linejoin: miter; stroke-miterlimit: 10; is-custom-font: none; font-file-url: none; fill: none; fill-rule: nonzero; opacity: 1;" transform=" translate(-415.57, -375.0249)" d="M 399.946 374.48 c 0 0 17.318 -2.688 31.248 1.876" stroke-linecap="round"/>
</g>
		<g transform="matrix(1 0 0 1 183.312 102.6887)" id="Background_complete">
<path style="stroke: rgb(224,224,224); stroke-width: 2; stroke-dasharray: none; stroke-linecap: butt; stroke-dashoffset: 0; stroke-linejoin: miter; stroke-miterlimit: 10; is-custom-font: none; font-file-url: none; fill: none; fill-rule: nonzero; opacity: 1;" transform=" translate(-433.312, -352.6888)" d="M 446.61 350.309 c -11.76 -1.343 -26.18 4.776 -26.588 4.945 c -0.008 0.007 -0.008 0.007 -0.008 0.007" stroke-linecap="round"/>
</g>
		<g transform="matrix(1 0 0 1 196.138 77.867)" id="Background_complete">
<path style="stroke: rgb(224,224,224); stroke-width: 2; stroke-dasharray: none; stroke-linecap: butt; stroke-dashoffset: 0; stroke-linejoin: miter; stroke-miterlimit: 10; is-custom-font: none; font-file-url: none; fill: none; fill-rule: nonzero; opacity: 1;" transform=" translate(-446.138, -327.867)" d="M 455.501 323.705 c -9.543 1.615 -18.4 8.086 -18.718 8.317 c -0.008 0.007 -0.008 0.007 -0.008 0.007" stroke-linecap="round"/>
</g>
		<g transform="matrix(1 0 0 1 -7.7522 -23.1638)" id="Background_Simple">
<path style="stroke: none; stroke-width: 1; stroke-dasharray: none; stroke-linecap: butt; stroke-dashoffset: 0; stroke-linejoin: miter; stroke-miterlimit: 4; is-custom-font: none; font-file-url: none; fill: rgb(64,123,255); fill-rule: nonzero; opacity: 0.9; visibility: hidden;" transform=" translate(-242.2479, -226.8362)" d="M 405.952 158.235 c 50.844 80.768 -49.257 152.708 -114.556 155.405 c -25.934 1.069 -37.63 -4.894 -60.684 9.337 c -16.751 10.395 -21.837 33.341 -40.911 41.907 c -41.82 18.784 -95.968 -12.794 -113.726 -47.886 c -18.432 -36.407 -15.619 -78.339 15.988 -99.025 c 23.133 -15.133 51.32 -6.993 64.782 -16.177 c 27.682 -18.872 22.339 -39.185 35.913 -64.579 C 242.595 44.016 359.768 84.862 405.952 158.235 z" stroke-linecap="round"/>
</g>
		<g transform="matrix(1 0 0 1 -7.7522 -23.1638)" id="Background_Simple">
<path style="stroke: none; stroke-width: 1; stroke-dasharray: none; stroke-linecap: butt; stroke-dashoffset: 0; stroke-linejoin: miter; stroke-miterlimit: 4; is-custom-font: none; font-file-url: none; fill: rgb(255,255,255); fill-rule: nonzero; opacity: 0.9; visibility: hidden;" transform=" translate(-242.2479, -226.8362)" d="M 405.952 158.235 c 50.844 80.768 -49.257 152.708 -114.556 155.405 c -25.934 1.069 -37.63 -4.894 -60.684 9.337 c -16.751 10.395 -21.837 33.341 -40.911 41.907 c -41.82 18.784 -95.968 -12.794 -113.726 -47.886 c -18.432 -36.407 -15.619 -78.339 15.988 -99.025 c 23.133 -15.133 51.32 -6.993 64.782 -16.177 c 27.682 -18.872 22.339 -39.185 35.913 -64.579 C 242.595 44.016 359.768 84.862 405.952 158.235 z" stroke-linecap="round"/>
</g>
		<g transform="matrix(1 0 0 1 0 199.41)" id="path--inject-58">
<ellipse style="stroke: none; stroke-width: 1; stroke-dasharray: none; stroke-linecap: butt; stroke-dashoffset: 0; stroke-linejoin: miter; stroke-miterlimit: 4; is-custom-font: none; font-file-url: none; fill: rgb(245,245,245); fill-rule: nonzero; opacity: 1;" cx="0" cy="0" rx="193.89" ry="11.32"/>
</g>
		<g transform="matrix(1 0 0 1 -17.7435 -72.5405)" id="Character">
<path style="stroke: none; stroke-width: 1; stroke-dasharray: none; stroke-linecap: butt; stroke-dashoffset: 0; stroke-linejoin: miter; stroke-miterlimit: 4; is-custom-font: none; font-file-url: none; fill: rgb(0,0,0); fill-rule: nonzero; opacity: 0.12;" transform=" translate(-232.2565, -177.4595)" d="M 233.615 179.539 c -2.662 -0.729 -2.717 -4.159 -2.717 -4.159 l 2.559 0.515 C 233.457 175.895 233.211 177.582 233.615 179.539 z" stroke-linecap="round"/>
</g>
		<g transform="matrix(1 0 0 1 7.28 -91.8725)" id="Character">
<path style="stroke: none; stroke-width: 1; stroke-dasharray: none; stroke-linecap: butt; stroke-dashoffset: 0; stroke-linejoin: miter; stroke-miterlimit: 4; is-custom-font: none; font-file-url: none; fill: rgb(64,123,255); fill-rule: nonzero; opacity: 1;" transform=" translate(-257.28, -158.1275)" d="M 374.262 86.048 v 144.159 c 0 4.449 -3.61 8.059 -8.059 8.059 H 148.35 c -4.449 0 -8.052 -3.61 -8.052 -8.059 V 86.048 c 0 -4.449 3.603 -8.059 8.052 -8.059 h 217.852 C 370.651 77.989 374.262 81.599 374.262 86.048 z" stroke-linecap="round"/>
</g>
		<g transform="matrix(1 0 0 1 7.28 -91.8725)" id="Character">
<path style="stroke: rgb(255,255,255); stroke-width: 1; stroke-dasharray: none; stroke-linecap: butt; stroke-dashoffset: 0; stroke-linejoin: miter; stroke-miterlimit: 10; is-custom-font: none; font-file-url: none; fill: rgb(255,255,255); fill-rule: nonzero; opacity: 0.7;" transform=" translate(-257.28, -158.1275)" d="M 374.262 86.048 v 144.159 c 0 4.449 -3.61 8.059 -8.059 8.059 H 148.35 c -4.449 0 -8.052 -3.61 -8.052 -8.059 V 86.048 c 0 -4.449 3.603 -8.059 8.052 -8.059 h 217.852 C 370.651 77.989 374.262 81.599 374.262 86.048 z" stroke-linecap="round"/>
</g>
		<g transform="matrix(1 0 0 1 110.701 -162.067)" id="Character">
<circle style="stroke: none; stroke-width: 1; stroke-dasharray: none; stroke-linecap: butt; stroke-dashoffset: 0; stroke-linejoin: miter; stroke-miterlimit: 4; is-custom-font: none; font-file-url: none; fill: rgb(64,123,255); fill-rule: nonzero; opacity: 1;" cx="0" cy="0" r="2.173"/>
</g>
		<g transform="matrix(1 0 0 1 98.152 -162.067)" id="Character">
<path style="stroke: none; stroke-width: 1; stroke-dasharray: none; stroke-linecap: butt; stroke-dashoffset: 0; stroke-linejoin: miter; stroke-miterlimit: 4; is-custom-font: none; font-file-url: none; fill: rgb(64,123,255); fill-rule: nonzero; opacity: 1;" transform=" translate(-348.152, -87.933)" d="M 350.325 87.933 c 0 1.2 -0.973 2.173 -2.173 2.173 c -1.2 0 -2.173 -0.973 -2.173 -2.173 c 0 -1.2 0.973 -2.173 2.173 -2.173 C 349.352 85.76 350.325 86.733 350.325 87.933 z" stroke-linecap="round"/>
</g>
		<g transform="matrix(1 0 0 1 85.603 -162.067)" id="Character">
<path style="stroke: none; stroke-width: 1; stroke-dasharray: none; stroke-linecap: butt; stroke-dashoffset: 0; stroke-linejoin: miter; stroke-miterlimit: 4; is-custom-font: none; font-file-url: none; fill: rgb(64,123,255); fill-rule: nonzero; opacity: 1;" transform=" translate(-335.603, -87.933)" d="M 337.776 87.933 c 0 1.2 -0.973 2.173 -2.173 2.173 c -1.2 0 -2.173 -0.973 -2.173 -2.173 c 0 -1.2 0.973 -2.173 2.173 -2.173 C 336.803 85.76 337.776 86.733 337.776 87.933 z" stroke-linecap="round"/>
</g>
		<g transform="matrix(1 0 0 1 -9.858 -62.61)" id="Character">
<path style="stroke: none; stroke-width: 1; stroke-dasharray: none; stroke-linecap: butt; stroke-dashoffset: 0; stroke-linejoin: miter; stroke-miterlimit: 4; is-custom-font: none; font-file-url: none; fill: rgb(64,123,255); fill-rule: nonzero; opacity: 1;" transform=" translate(-240.142, -187.39)" d="M 357.121 115.307 v 144.166 c 0 4.443 -3.61 8.052 -8.052 8.052 H 131.209 c -4.442 0 -8.046 -3.61 -8.046 -8.052 V 115.307 c 0 -4.443 3.603 -8.052 8.046 -8.052 h 217.859 C 353.511 107.254 357.121 110.864 357.121 115.307 z" stroke-linecap="round"/>
</g>
		<g transform="matrix(1 0 0 1 -9.858 -62.61)" id="Character">
<path style="stroke: none; stroke-width: 1; stroke-dasharray: none; stroke-linecap: butt; stroke-dashoffset: 0; stroke-linejoin: miter; stroke-miterlimit: 4; is-custom-font: none; font-file-url: none; fill: rgb(255,255,255); fill-rule: nonzero; opacity: 0.8;" transform=" translate(-240.142, -187.39)" d="M 357.121 115.307 v 144.166 c 0 4.443 -3.61 8.052 -8.052 8.052 H 131.209 c -4.442 0 -8.046 -3.61 -8.046 -8.052 V 115.307 c 0 -4.443 3.603 -8.052 8.046 -8.052 h 217.859 C 353.511 107.254 357.121 110.864 357.121 115.307 z" stroke-linecap="round"/>
</g>
		<g transform="matrix(1 0 0 1 81.0295 -59.891)" id="Character">
<rect style="stroke: none; stroke-width: 1; stroke-dasharray: none; stroke-linecap: butt; stroke-dashoffset: 0; stroke-linejoin: miter; stroke-miterlimit: 4; is-custom-font: none; font-file-url: none; fill: rgb(64,123,255); fill-rule: nonzero; opacity: 1;" x="-26.0935" y="-65.938" rx="0" ry="0" width="52.187" height="131.876"/>
</g>
		<g transform="matrix(1 0 0 1 81.0295 -59.891)" id="Character">
<rect style="stroke: none; stroke-width: 1; stroke-dasharray: none; stroke-linecap: butt; stroke-dashoffset: 0; stroke-linejoin: miter; stroke-miterlimit: 4; is-custom-font: none; font-file-url: none; fill: rgb(0,0,0); fill-rule: nonzero; opacity: 0.2;" x="-26.0935" y="-65.938" rx="0" ry="0" width="52.187" height="131.876"/>
</g>
		<g transform="matrix(1 0 0 1 81.0295 -85.381)" id="Character">
<rect style="stroke: none; stroke-width: 1; stroke-dasharray: none; stroke-linecap: butt; stroke-dashoffset: 0; stroke-linejoin: miter; stroke-miterlimit: 4; is-custom-font: none; font-file-url: none; fill: rgb(250,250,250); fill-rule: nonzero; opacity: 1;" x="-26.0935" y="-0.838" rx="0" ry="0" width="52.187" height="1.676"/>
</g>
		<g transform="matrix(1 0 0 1 81.0295 -43.99)" id="Character">
<rect style="stroke: none; stroke-width: 1; stroke-dasharray: none; stroke-linecap: butt; stroke-dashoffset: 0; stroke-linejoin: miter; stroke-miterlimit: 4; is-custom-font: none; font-file-url: none; fill: rgb(250,250,250); fill-rule: nonzero; opacity: 1;" x="-26.0935" y="-0.838" rx="0" ry="0" width="52.187" height="1.676"/>
</g>
		<g transform="matrix(1 0 0 1 81.0295 -3.214)" id="Character">
<rect style="stroke: none; stroke-width: 1; stroke-dasharray: none; stroke-linecap: butt; stroke-dashoffset: 0; stroke-linejoin: miter; stroke-miterlimit: 4; is-custom-font: none; font-file-url: none; fill: rgb(250,250,250); fill-rule: nonzero; opacity: 1;" x="-26.0935" y="-0.838" rx="0" ry="0" width="52.187" height="1.676"/>
</g>
		<g transform="matrix(1 0 0 1 85.1405 -64.8315)" id="Character">
<polygon style="stroke: none; stroke-width: 1; stroke-dasharray: none; stroke-linecap: butt; stroke-dashoffset: 0; stroke-linejoin: miter; stroke-miterlimit: 4; is-custom-font: none; font-file-url: none; fill: rgb(250,250,250); fill-rule: nonzero; opacity: 1;" points="-7.4395,-9.8525 -7.4395,9.8525 7.4395,0.0005 "/>
</g>
		<g transform="matrix(1 0 0 1 85.1405 -23.6025)" id="Character">
<polygon style="stroke: none; stroke-width: 1; stroke-dasharray: none; stroke-linecap: butt; stroke-dashoffset: 0; stroke-linejoin: miter; stroke-miterlimit: 4; is-custom-font: none; font-file-url: none; fill: rgb(250,250,250); fill-rule: nonzero; opacity: 1;" points="-7.4395,-9.8525 -7.4395,9.8525 7.4395,0.0005 "/>
</g>
		<g transform="matrix(1 0 0 1 85.1405 -106.7765)" id="Character">
<polygon style="stroke: none; stroke-width: 1; stroke-dasharray: none; stroke-linecap: butt; stroke-dashoffset: 0; stroke-linejoin: miter; stroke-miterlimit: 4; is-custom-font: none; font-file-url: none; fill: rgb(250,250,250); fill-rule: nonzero; opacity: 1;" points="-7.4395,-9.8525 -7.4395,9.8525 7.4395,-0.0005 "/>
</g>
		<g transform="matrix(1 0 0 1 -71.379 -27.4292)" id="Character">
<path style="stroke: none; stroke-width: 1; stroke-dasharray: none; stroke-linecap: butt; stroke-dashoffset: 0; stroke-linejoin: miter; stroke-miterlimit: 4; is-custom-font: none; font-file-url: none; fill: rgb(181,91,82); fill-rule: nonzero; opacity: 1;" transform=" translate(-178.621, -222.5708)" d="M 199.682 205.172 c 0 0 -13.347 19.884 -17.497 23.841 c 0 0 -22.361 2.025 -31.563 -4.296 l -2.329 5.717 c 0 0 21.233 12.016 35.626 9.071 c 14.392 -2.945 25.03 -30.714 25.03 -30.714 L 199.682 205.172 z" stroke-linecap="round"/>
</g>
		<g transform="matrix(1 0 0 1 27.3957 -60.6212)" id="Character">
<path style="stroke: none; stroke-width: 1; stroke-dasharray: none; stroke-linecap: butt; stroke-dashoffset: 0; stroke-linejoin: miter; stroke-miterlimit: 4; is-custom-font: none; font-file-url: none; fill: rgb(181,91,82); fill-rule: nonzero; opacity: 1;" transform=" translate(-277.3957, -189.3788)" d="M 264.514 193.336 c 0 0 12.751 3.495 20.7 4.16 c 0 0 5.951 -13.925 6.992 -26.578 l 4.525 0.254 c 0 0 4.164 24.633 -6.746 34.622 c -7.545 6.908 -32.705 -5.896 -32.705 -5.896 L 264.514 193.336 z" stroke-linecap="round"/>
</g>
		<g transform="matrix(1 0 0 1 -15.7209 -79.0555)" id="Character">
<path style="stroke: none; stroke-width: 1; stroke-dasharray: none; stroke-linecap: butt; stroke-dashoffset: 0; stroke-linejoin: miter; stroke-miterlimit: 4; is-custom-font: none; font-file-url: none; fill: rgb(38,50,56); fill-rule: nonzero; opacity: 1;" transform=" translate(-234.2791, -170.9445)" d="M 228.626 138.972 c 0 0 -17.274 -1.668 -19.063 15.941 c -1.79 17.609 5.135 31.947 5.135 31.947 s 10.452 21.268 23.123 18.312 c 12.671 -2.957 23.41 -9.818 21.173 -21.302 c -2.237 -11.484 -6.413 -11.038 -6.264 -26.996 C 252.878 140.915 237.873 131.664 228.626 138.972 z" stroke-linecap="round"/>
</g>
		<g transform="matrix(1 0 0 1 -16.9539 -78.9425)" id="Character">
<path style="stroke: none; stroke-width: 1; stroke-dasharray: none; stroke-linecap: butt; stroke-dashoffset: 0; stroke-linejoin: miter; stroke-miterlimit: 4; is-custom-font: none; font-file-url: none; fill: rgb(181,91,82); fill-rule: nonzero; opacity: 1;" transform=" translate(-233.0461, -171.0575)" d="M 247.487 164.217 c -1.806 8.833 -5.839 12.351 -14.03 11.677 c 0 0 -0.246 1.687 0.158 3.644 c 0.483 2.329 1.878 5.038 5.704 5.696 c 7.043 1.204 3.169 10.212 3.169 10.212 l -6.979 3.446 l -9.214 -5.308 l -6.948 -7.471 l 2.456 0.016 c 0 0 4.738 -7.17 -0.04 -19.235 c 0 0 -3.446 -1.838 -3.652 -5.854 c -0.206 -4.017 3.929 -4.238 5.49 -2.741 c 0 0 7.106 -3.098 6.045 -15.076 c 0 0 7.019 5.252 15.995 3.723 C 245.641 146.947 249.293 155.376 247.487 164.217 z" stroke-linecap="round"/>
</g>
		<g transform="matrix(1 0 0 1 -7.353 -89.9161)" id="Character">
<path style="stroke: none; stroke-width: 1; stroke-dasharray: none; stroke-linecap: butt; stroke-dashoffset: 0; stroke-linejoin: miter; stroke-miterlimit: 4; is-custom-font: none; font-file-url: none; fill: rgb(160,39,36); fill-rule: nonzero; opacity: 1;" transform=" translate(-242.647, -160.0839)" d="M 241.061 156.873 l 0.088 6.178 c 0 0 1.324 0.654 3.084 -0.18 L 241.061 156.873 z" stroke-linecap="round"/>
</g>
		<g transform="matrix(1 0 0 1 -16.3918 -101.1751)" id="Character">
<path style="stroke: none; stroke-width: 1; stroke-dasharray: none; stroke-linecap: butt; stroke-dashoffset: 0; stroke-linejoin: miter; stroke-miterlimit: 4; is-custom-font: none; font-file-url: none; fill: rgb(38,50,56); fill-rule: nonzero; opacity: 1;" transform=" translate(-233.6082, -148.8249)" d="M 231.587 149.919 c -0.06 0 -0.121 -0.016 -0.176 -0.049 c -0.161 -0.097 -0.213 -0.307 -0.116 -0.468 c 0.015 -0.025 1.518 -2.448 4.447 -1.415 c 0.178 0.063 0.271 0.258 0.209 0.436 c -0.063 0.178 -0.258 0.269 -0.435 0.208 c -2.411 -0.851 -3.588 1.043 -3.636 1.124 C 231.815 149.861 231.703 149.919 231.587 149.919 z" stroke-linecap="round"/>
</g>
		<g transform="matrix(1 0 0 1 -4.4928 -98.7958)" id="Character">
<path style="stroke: none; stroke-width: 1; stroke-dasharray: none; stroke-linecap: butt; stroke-dashoffset: 0; stroke-linejoin: miter; stroke-miterlimit: 4; is-custom-font: none; font-file-url: none; fill: rgb(38,50,56); fill-rule: nonzero; opacity: 1;" transform=" translate(-245.5071, -151.2042)" d="M 247.067 151.83 c -0.084 0 -0.168 -0.031 -0.234 -0.093 c -0.965 -0.908 -2.744 -0.239 -2.762 -0.232 c -0.175 0.069 -0.373 -0.02 -0.441 -0.195 c -0.068 -0.176 0.019 -0.373 0.195 -0.441 c 0.089 -0.034 2.194 -0.832 3.475 0.372 c 0.137 0.129 0.144 0.345 0.015 0.482 C 247.248 151.794 247.158 151.83 247.067 151.83 z" stroke-linecap="round"/>
</g>
		<g transform="matrix(1 0 0 1 -14.3954 -85.707)" id="Character">
<path style="stroke: none; stroke-width: 1; stroke-dasharray: none; stroke-linecap: butt; stroke-dashoffset: 0; stroke-linejoin: miter; stroke-miterlimit: 4; is-custom-font: none; font-file-url: none; fill: rgb(38,50,56); fill-rule: nonzero; opacity: 1;" transform=" translate(-235.6046, -164.2931)" d="M 238.432 166.017 c -0.001 0 -0.002 0 -0.003 0 c -4.226 -0.056 -5.813 -2.949 -5.878 -3.072 c -0.066 -0.125 -0.019 -0.279 0.105 -0.346 c 0.125 -0.066 0.28 -0.019 0.346 0.105 c 0.06 0.112 1.521 2.75 5.433 2.802 c 0.141 0.002 0.255 0.118 0.253 0.259 C 238.686 165.905 238.572 166.017 238.432 166.017 z" stroke-linecap="round"/>
</g>
		<g transform="matrix(1 0 0 1 -14.2665 -94.1644)" id="Character">
<path style="stroke: none; stroke-width: 1; stroke-dasharray: none; stroke-linecap: butt; stroke-dashoffset: 0; stroke-linejoin: miter; stroke-miterlimit: 4; is-custom-font: none; font-file-url: none; fill: rgb(38,50,56); fill-rule: nonzero; opacity: 1;" transform=" translate(-235.7335, -155.8355)" d="M 236.64 155.809 c 0.021 0.737 -0.367 1.345 -0.868 1.36 c -0.501 0.015 -0.924 -0.571 -0.945 -1.307 c -0.021 -0.736 0.367 -1.345 0.868 -1.36 C 236.195 154.488 236.618 155.073 236.64 155.809 z" stroke-linecap="round"/>
</g>
		<g transform="matrix(1 0 0 1 -5.3785 -94.0855)" id="Character">
<path style="stroke: none; stroke-width: 1; stroke-dasharray: none; stroke-linecap: butt; stroke-dashoffset: 0; stroke-linejoin: miter; stroke-miterlimit: 4; is-custom-font: none; font-file-url: none; fill: rgb(38,50,56); fill-rule: nonzero; opacity: 1;" transform=" translate(-244.6215, -155.9145)" d="M 245.528 155.888 c 0.021 0.736 -0.367 1.345 -0.868 1.36 c -0.501 0.014 -0.924 -0.571 -0.945 -1.307 c -0.021 -0.736 0.367 -1.345 0.868 -1.36 C 245.083 154.566 245.507 155.152 245.528 155.888 z" stroke-linecap="round"/>
</g>
		<g transform="matrix(1 0 0 1 -13.316 -95.7171)" id="Character">
<path style="stroke: none; stroke-width: 1; stroke-dasharray: none; stroke-linecap: butt; stroke-dashoffset: 0; stroke-linejoin: miter; stroke-miterlimit: 4; is-custom-font: none; font-file-url: none; fill: rgb(38,50,56); fill-rule: nonzero; opacity: 1;" transform=" translate(-236.684, -154.2829)" d="M 235.547 154.528 l 2.274 -0.644 C 237.821 153.884 237.409 155.102 235.547 154.528 z" stroke-linecap="round"/>
</g>
		<g transform="matrix(1 0 0 1 -4.584 -95.3731)" id="Character">
<path style="stroke: none; stroke-width: 1; stroke-dasharray: none; stroke-linecap: butt; stroke-dashoffset: 0; stroke-linejoin: miter; stroke-miterlimit: 4; is-custom-font: none; font-file-url: none; fill: rgb(38,50,56); fill-rule: nonzero; opacity: 1;" transform=" translate(-245.416, -154.6269)" d="M 244.582 154.581 l 1.668 -0.241 C 246.25 154.34 245.619 155.451 244.582 154.581 z" stroke-linecap="round"/>
</g>
		<g transform="matrix(1 0 0 1 -18.7765 -29.3908)" id="Character">
<path style="stroke: none; stroke-width: 1; stroke-dasharray: none; stroke-linecap: butt; stroke-dashoffset: 0; stroke-linejoin: miter; stroke-miterlimit: 4; is-custom-font: none; font-file-url: none; fill: rgb(64,123,255); fill-rule: nonzero; opacity: 1;" transform=" translate(-231.2235, -220.6092)" d="M 268.829 192.938 l -7.807 17.238 l -4.163 -1.508 c 0 0 0.42 31.303 -2.978 47.38 h -40.742 l -2.343 -42.712 l -2.131 4.457 l -15.047 -8.424 c 0 0 4.151 -17.004 10.627 -20.013 c 3.091 -1.44 9.683 -2.532 16.46 -3.241 c 7.438 -0.778 15.109 -1.092 18.616 -0.88 c 0 0 0.635 -0.02 1.767 0.014 C 245.49 185.39 257.412 186.4 268.829 192.938 z" stroke-linecap="round"/>
</g>
		<g transform="matrix(1 0 0 1 44.0534 -87.021)" id="Character">
<path style="stroke: none; stroke-width: 1; stroke-dasharray: none; stroke-linecap: butt; stroke-dashoffset: 0; stroke-linejoin: miter; stroke-miterlimit: 4; is-custom-font: none; font-file-url: none; fill: rgb(181,91,82); fill-rule: nonzero; opacity: 1;" transform=" translate(-294.0534, -162.979)" d="M 292.206 170.918 c 0 0 -2.272 -2.905 -3.029 -7.356 c -0.756 -4.451 0.775 -8.489 0.775 -8.489 l 8.08 -0.287 l 1.007 7.077 c 0 0 0.835 4.978 -2.309 9.309 L 292.206 170.918 z" stroke-linecap="round"/>
</g>
		<g transform="matrix(1 0 0 1 -105.8635 -27.068)" id="Character">
<path style="stroke: none; stroke-width: 1; stroke-dasharray: none; stroke-linecap: butt; stroke-dashoffset: 0; stroke-linejoin: miter; stroke-miterlimit: 4; is-custom-font: none; font-file-url: none; fill: rgb(181,91,82); fill-rule: nonzero; opacity: 1;" transform=" translate(-144.1365, -222.932)" d="M 150.622 224.717 l -4.209 -7.503 l -5.122 -1.784 l -3.64 6.799 l 3.252 4.458 c 0 0 4.288 3.646 7.39 3.747 L 150.622 224.717 z" stroke-linecap="round"/>
</g>
		<g transform="matrix(1 0 0 1 -19.1025 -53.4943)" id="Character">
<path style="stroke: none; stroke-width: 1; stroke-dasharray: none; stroke-linecap: butt; stroke-dashoffset: 0; stroke-linejoin: miter; stroke-miterlimit: 4; is-custom-font: none; font-file-url: none; fill: rgb(181,91,82); fill-rule: nonzero; opacity: 1;" transform=" translate(-230.8975, -196.5057)" d="M 241.089 185.247 c -0.068 10.782 -6.81 22.595 -6.81 22.595 c -6.005 -5.794 -11.956 -18.207 -13.573 -21.728 c 7.438 -0.778 15.109 -1.092 18.616 -0.88 C 239.321 185.233 239.956 185.213 241.089 185.247 z" stroke-linecap="round"/>
</g>
		<g transform="matrix(1 0 0 1 -40.2695 -37.9945)" id="Character">
<polygon style="stroke: none; stroke-width: 1; stroke-dasharray: none; stroke-linecap: butt; stroke-dashoffset: 0; stroke-linejoin: miter; stroke-miterlimit: 4; is-custom-font: none; font-file-url: none; fill: rgb(0,0,0); fill-rule: nonzero; opacity: 0.12;" points="-1.0655,5.7865 1.0295,-5.7865 1.0655,1.3295 "/>
</g>
		<g transform="matrix(1 0 0 1 7.6615 -42.3265)" id="Character">
<polygon style="stroke: none; stroke-width: 1; stroke-dasharray: none; stroke-linecap: butt; stroke-dashoffset: 0; stroke-linejoin: miter; stroke-miterlimit: 4; is-custom-font: none; font-file-url: none; fill: rgb(0,0,0); fill-rule: nonzero; opacity: 0.12;" points="3.3605,2.5015 -3.3605,-2.5015 -0.8025,0.9935 "/>
</g>
		<g transform="matrix(1 0 0 1 -38.77 162.162)" id="Character">
<polygon style="stroke: none; stroke-width: 1; stroke-dasharray: none; stroke-linecap: butt; stroke-dashoffset: 0; stroke-linejoin: miter; stroke-miterlimit: 4; is-custom-font: none; font-file-url: none; fill: rgb(181,91,82); fill-rule: nonzero; opacity: 1;" points="5.524,-15.821 15.143,-5.409 -7.183,15.821 -15.143,10.156 "/>
</g>
		<g transform="matrix(1 0 0 1 -49.2842 180.7027)" id="Character">
<path style="stroke: none; stroke-width: 1; stroke-dasharray: none; stroke-linecap: butt; stroke-dashoffset: 0; stroke-linejoin: miter; stroke-miterlimit: 4; is-custom-font: none; font-file-url: none; fill: rgb(38,50,56); fill-rule: nonzero; opacity: 1;" transform=" translate(-200.7158, -430.7027)" d="M 205.977 427.482 c 0.542 3.234 1.335 6.844 5.936 13.187 c 1.022 1.408 -1.659 4.048 -4.674 1.262 c -3.015 -2.785 -7.334 -7.167 -9.514 -9.181 c -3.547 -3.286 -5.039 -4.382 -7.887 -6.938 c -0.043 -0.036 -0.084 -0.074 -0.122 -0.115 c -0.577 -0.604 -0.555 -1.562 0.049 -2.139 l 6.333 -5.133 c 0.31 -0.261 0.772 -0.229 1.043 0.073 l 8.064 7.459 C 205.618 426.372 205.889 426.905 205.977 427.482 z" stroke-linecap="round"/>
</g>
		<g transform="matrix(1 0 0 1 -42.5686 178.8842)" id="Character">
<path style="stroke: none; stroke-width: 1; stroke-dasharray: none; stroke-linecap: butt; stroke-dashoffset: 0; stroke-linejoin: miter; stroke-miterlimit: 4; is-custom-font: none; font-file-url: none; fill: rgb(64,123,255); fill-rule: nonzero; opacity: 1;" transform=" translate(-207.4314, -428.8842)" d="M 204.788 427.294 c -0.051 -0.079 -0.051 -0.181 0 -0.261 c 0.056 -0.074 0.15 -0.107 0.24 -0.083 c 0.459 0.146 4.57 1.419 5.039 2.681 c 0.088 0.236 0.048 0.5 -0.104 0.699 c -0.23 0.344 -0.632 0.533 -1.043 0.49 c -0.806 -0.167 -1.537 -0.588 -2.087 -1.2 C 206.086 428.905 205.402 428.127 204.788 427.294 z M 205.56 427.587 c 1.367 1.742 2.608 2.785 3.37 2.785 c 0.264 0.018 0.516 -0.11 0.657 -0.334 c 0.068 -0.073 0.088 -0.178 0.052 -0.271 c -0.062 -0.138 -0.154 -0.259 -0.271 -0.355 C 208.205 428.603 206.919 427.987 205.56 427.587 z" stroke-linecap="round"/>
</g>
		<g transform="matrix(1 0 0 1 -42.7755 176.5401)" id="Character">
<path style="stroke: none; stroke-width: 1; stroke-dasharray: none; stroke-linecap: butt; stroke-dashoffset: 0; stroke-linejoin: miter; stroke-miterlimit: 4; is-custom-font: none; font-file-url: none; fill: rgb(64,123,255); fill-rule: nonzero; opacity: 1;" transform=" translate(-207.2245, -426.5401)" d="M 204.725 427.201 c -0.018 -0.076 0.006 -0.155 0.063 -0.209 c 0.073 -0.073 1.878 -1.732 3.422 -1.607 c 0.46 0.04 0.886 0.257 1.189 0.605 c 0.428 0.49 0.365 0.835 0.23 1.043 c -0.574 0.887 -3.557 0.772 -4.747 0.344 l -0.083 -0.052 C 204.767 427.289 204.743 427.246 204.725 427.201 z M 208.2 425.844 c -1.042 0.093 -2.024 0.526 -2.796 1.231 c 1.314 0.313 3.495 0.229 3.839 -0.303 c 0.021 -0.042 0.104 -0.177 -0.177 -0.49 l -0.094 -0.104 C 208.758 425.985 208.487 425.867 208.2 425.844 z" stroke-linecap="round"/>
</g>
		<g transform="matrix(1 0 0 1 -31.0655 181.634)" id="Character">
<polygon style="stroke: none; stroke-width: 1; stroke-dasharray: none; stroke-linecap: butt; stroke-dashoffset: 0; stroke-linejoin: miter; stroke-miterlimit: 4; is-custom-font: none; font-file-url: none; fill: rgb(181,91,82); fill-rule: nonzero; opacity: 1;" points="-6.5515,-16.285 6.5515,-16.473 4.7365,16.473 -4.6945,16.15 "/>
</g>
		<g transform="matrix(1 0 0 1 -24.5878 200.4502)" id="Character">
<path style="stroke: none; stroke-width: 1; stroke-dasharray: none; stroke-linecap: butt; stroke-dashoffset: 0; stroke-linejoin: miter; stroke-miterlimit: 4; is-custom-font: none; font-file-url: none; fill: rgb(38,50,56); fill-rule: nonzero; opacity: 1;" transform=" translate(-225.4122, -450.4502)" d="M 225.893 445.677 c 2.671 2.107 3.985 4.309 11.476 5.947 c 1.669 0.365 1.721 4.277 -2.233 4.246 c -3.954 -0.031 -8.158 -0.376 -11.027 -0.376 c -4.653 -0.031 -6.416 0.209 -10.099 0.209 c 0 0 0 0 -0.001 0 c -0.916 -0.017 -1.644 -0.774 -1.627 -1.69 l 0.636 -8.346 c 0.023 -0.371 0.339 -0.654 0.709 -0.636 l 10.589 0.073 C 224.891 445.118 225.444 445.32 225.893 445.677 z" stroke-linecap="round"/>
</g>
		<g transform="matrix(1 0 0 1 -8.0961 76.458)" id="Character">
<path style="stroke: none; stroke-width: 1; stroke-dasharray: none; stroke-linecap: butt; stroke-dashoffset: 0; stroke-linejoin: miter; stroke-miterlimit: 4; is-custom-font: none; font-file-url: none; fill: rgb(64,123,255); fill-rule: nonzero; opacity: 1;" transform=" translate(-241.9039, -326.458)" d="M 219.748 244.234 c -1.137 20.448 25.737 81.572 28.742 103.032 c -9.264 21.47 -33.541 48.897 -33.541 48.897 l 11.476 12.519 c 0 0 40.207 -35.836 42.294 -60.801 c 1.742 -21.355 -13.362 -101.603 -13.362 -101.603 L 219.748 244.234 z" stroke-linecap="round"/>
</g>
		<g transform="matrix(1 0 0 1 -8.0961 76.458)" id="Character">
<path style="stroke: none; stroke-width: 1; stroke-dasharray: none; stroke-linecap: butt; stroke-dashoffset: 0; stroke-linejoin: miter; stroke-miterlimit: 4; is-custom-font: none; font-file-url: none; fill: rgb(38,50,56); fill-rule: nonzero; opacity: 1;" transform=" translate(-241.9039, -326.458)" d="M 219.748 244.234 c -1.137 20.448 25.737 81.572 28.742 103.032 c -9.264 21.47 -33.541 48.897 -33.541 48.897 l 11.476 12.519 c 0 0 40.207 -35.836 42.294 -60.801 c 1.742 -21.355 -13.362 -101.603 -13.362 -101.603 L 219.748 244.234 z" stroke-linecap="round"/>
</g>
		<g transform="matrix(1 0 0 1 -28.577 151.641)" id="Character">
<polygon style="stroke: none; stroke-width: 1; stroke-dasharray: none; stroke-linecap: butt; stroke-dashoffset: 0; stroke-linejoin: miter; stroke-miterlimit: 4; is-custom-font: none; font-file-url: none; fill: rgb(64,123,255); fill-rule: nonzero; opacity: 1;" points="-6.119,-8.398 8.894,5.863 4.846,8.398 -8.894,-3.965 "/>
</g>
		<g transform="matrix(1 0 0 1 -12.4215 56.7167)" id="Character">
<path style="stroke: none; stroke-width: 1; stroke-dasharray: none; stroke-linecap: butt; stroke-dashoffset: 0; stroke-linejoin: miter; stroke-miterlimit: 4; is-custom-font: none; font-file-url: none; fill: rgb(0,0,0); fill-rule: nonzero; opacity: 0.3;" transform=" translate(-237.5785, -306.7167)" d="M 228.397 283.054 c 6.301 19.457 14.386 40.645 18.163 55.115 c 0.689 -15.743 0.157 -43.775 -10.85 -59.017 C 230.567 271.985 228.543 275.574 228.397 283.054 z" stroke-linecap="round"/>
</g>
		<g transform="matrix(1 0 0 1 -23.0936 80.214)" id="Character">
<path style="stroke: none; stroke-width: 1; stroke-dasharray: none; stroke-linecap: butt; stroke-dashoffset: 0; stroke-linejoin: miter; stroke-miterlimit: 4; is-custom-font: none; font-file-url: none; fill: rgb(64,123,255); fill-rule: nonzero; opacity: 1;" transform=" translate(-226.9064, -330.214)" d="M 212.905 244.474 c -7.814 21.501 -1.732 70.065 -1.314 104.868 c -2.337 26.227 0.793 66.028 0.793 66.028 l 14.094 0.584 c 0 0 4.256 -46.947 7.157 -76.231 c 2.452 -24.663 11.235 -94.047 11.235 -94.047 L 212.905 244.474 z" stroke-linecap="round"/>
</g>
		<g transform="matrix(1 0 0 1 -23.2442 79.8375)" id="Character">
<path style="stroke: none; stroke-width: 1; stroke-dasharray: none; stroke-linecap: butt; stroke-dashoffset: 0; stroke-linejoin: miter; stroke-miterlimit: 4; is-custom-font: none; font-file-url: none; fill: rgb(38,50,56); fill-rule: nonzero; opacity: 1;" transform=" translate(-226.7557, -329.8375)" d="M 212.463 243.721 c -7.814 21.501 -1.29 70.818 -0.873 105.621 c -2.337 26.227 0.793 66.028 0.793 66.028 l 14.094 0.584 c 0 0 4.256 -46.947 7.157 -76.231 c 2.452 -24.663 11.235 -94.047 11.235 -94.047 L 212.463 243.721 z" stroke-linecap="round"/>
</g>
		<g transform="matrix(1 0 0 1 -30.533 164.9005)" id="Character">
<polygon style="stroke: none; stroke-width: 1; stroke-dasharray: none; stroke-linecap: butt; stroke-dashoffset: 0; stroke-linejoin: miter; stroke-miterlimit: 4; is-custom-font: none; font-file-url: none; fill: rgb(64,123,255); fill-rule: nonzero; opacity: 1;" points="-9.139,-3.0255 9.139,-2.5145 8.012,2.5665 -8.148,3.0255 "/>
</g>
		<g transform="matrix(1 0 0 1 -22.648 195.6325)" id="Character">
<path style="stroke: none; stroke-width: 1; stroke-dasharray: none; stroke-linecap: butt; stroke-dashoffset: 0; stroke-linejoin: miter; stroke-miterlimit: 4; is-custom-font: none; font-file-url: none; fill: rgb(64,123,255); fill-rule: nonzero; opacity: 1;" transform=" translate(-227.3521, -445.6325)" d="M 229.419 446.344 c -0.835 0.803 -3.036 0.417 -4.277 0.125 c -0.089 -0.025 -0.158 -0.097 -0.177 -0.188 c -0.02 -0.083 0.013 -0.17 0.083 -0.219 c 0.303 -0.209 3.036 -2.034 4.173 -1.533 c 0.259 0.115 0.44 0.356 0.48 0.636 c 0.1 0.36 0.027 0.745 -0.198 1.043 C 229.484 446.259 229.456 446.305 229.419 446.344 z M 225.758 446.104 c 1.659 0.334 2.89 0.282 3.338 -0.125 c 0.197 -0.214 0.261 -0.518 0.167 -0.793 c -0.006 -0.124 -0.083 -0.234 -0.198 -0.282 c -0.595 -0.261 -2.191 0.522 -3.307 1.221 V 446.104 z" stroke-linecap="round"/>
</g>
		<g transform="matrix(1 0 0 1 -23.8023 194.2893)" id="Character">
<path style="stroke: none; stroke-width: 1; stroke-dasharray: none; stroke-linecap: butt; stroke-dashoffset: 0; stroke-linejoin: miter; stroke-miterlimit: 4; is-custom-font: none; font-file-url: none; fill: rgb(64,123,255); fill-rule: nonzero; opacity: 1;" transform=" translate(-226.1977, -444.2893)" d="M 225.298 446.386 c -0.068 0.037 -0.151 0.037 -0.219 0 c -0.068 -0.04 -0.114 -0.109 -0.125 -0.188 c -0.01 -0.115 -0.167 -2.827 0.782 -3.724 c 0.242 -0.245 0.59 -0.354 0.928 -0.292 c 0.374 0.01 0.696 0.265 0.793 0.626 c 0.003 0.953 -0.372 1.869 -1.043 2.546 C 226.101 445.755 225.724 446.104 225.298 446.386 z M 225.382 445.771 c 0.855 -0.709 1.815 -2.233 1.648 -2.879 c -0.031 -0.104 -0.104 -0.271 -0.386 -0.271 c -0.214 -0.036 -0.432 0.034 -0.584 0.188 l -0.094 0.104 C 225.515 443.794 225.313 444.782 225.382 445.771 z" stroke-linecap="round"/>
</g>
		<g transform="matrix(1 0 0 1 -29.893 -56.071)" id="Character">
<rect style="stroke: none; stroke-width: 1; stroke-dasharray: none; stroke-linecap: butt; stroke-dashoffset: 0; stroke-linejoin: miter; stroke-miterlimit: 4; is-custom-font: none; font-file-url: none; fill: rgb(250,250,250); fill-rule: nonzero; opacity: 1;" x="-1.725" y="-10.162" rx="0" ry="0" width="3.45" height="20.324"/>
</g>
		<g transform="matrix(1 0 0 1 -37.974 -56.071)" id="Character">
<rect style="stroke: none; stroke-width: 1; stroke-dasharray: none; stroke-linecap: butt; stroke-dashoffset: 0; stroke-linejoin: miter; stroke-miterlimit: 4; is-custom-font: none; font-file-url: none; fill: rgb(250,250,250); fill-rule: nonzero; opacity: 1;" x="-1.725" y="-10.162" rx="0" ry="0" width="3.45" height="20.324"/>
</g>
		<g transform="matrix(0.2281 -0.9736 0.9736 0.2281 -34.2852 -56.3535)" id="Character">
<ellipse style="stroke: rgb(250,250,250); stroke-width: 1; stroke-dasharray: none; stroke-linecap: butt; stroke-dashoffset: 0; stroke-linejoin: miter; stroke-miterlimit: 10; is-custom-font: none; font-file-url: none; fill: none; fill-rule: nonzero; opacity: 1;" cx="0" cy="0" rx="16.528" ry="16.528"/>
</g>
		<g transform="matrix(1 0 0 1 -9.856 -134.288)" id="Character">
<path style="stroke: none; stroke-width: 1; stroke-dasharray: none; stroke-linecap: butt; stroke-dashoffset: 0; stroke-linejoin: miter; stroke-miterlimit: 4; is-custom-font: none; font-file-url: none; fill: rgb(64,123,255); fill-rule: nonzero; opacity: 1;" transform=" translate(-240.144, -115.712)" d="M 357.124 115.309 v 8.862 h -233.96 v -8.862 c 0 -4.447 3.602 -8.056 8.049 -8.056 h 217.855 C 353.514 107.252 357.124 110.862 357.124 115.309 z" stroke-linecap="round"/>
</g>
		<g transform="matrix(1 0 0 1 -9.858 11.786)" id="Character">
<path style="stroke: none; stroke-width: 1; stroke-dasharray: none; stroke-linecap: butt; stroke-dashoffset: 0; stroke-linejoin: miter; stroke-miterlimit: 4; is-custom-font: none; font-file-url: none; fill: rgb(64,123,255); fill-rule: nonzero; opacity: 1;" transform=" translate(-240.142, -261.786)" d="M 357.121 256.047 v 3.426 c 0 4.443 -3.61 8.052 -8.052 8.052 H 131.209 c -4.442 0 -8.046 -3.61 -8.046 -8.052 v -3.426 H 357.121 z" stroke-linecap="round"/>
</g>
		<g transform="matrix(1 0 0 1 -97.726 -133.605)" id="Character">
<path style="stroke: rgb(255,255,255); stroke-width: 0.5; stroke-dasharray: none; stroke-linecap: butt; stroke-dashoffset: 0; stroke-linejoin: miter; stroke-miterlimit: 10; is-custom-font: none; font-file-url: none; fill: none; fill-rule: nonzero; opacity: 1;" transform=" translate(-152.274, -116.395)" d="M 169.365 120.102 h -34.182 c -2.048 0 -3.707 -1.66 -3.707 -3.707 l 0 0 c 0 -2.047 1.66 -3.707 3.707 -3.707 h 34.182 c 2.048 0 3.707 1.66 3.707 3.707 l 0 0 C 173.072 118.442 171.412 120.102 169.365 120.102 z" stroke-linecap="round"/>
</g>
		<g transform="matrix(1 0 0 1 -64.5935 -133.605)" id="Character">
<path style="stroke: rgb(255,255,255); stroke-width: 0.5; stroke-dasharray: none; stroke-linecap: butt; stroke-dashoffset: 0; stroke-linejoin: miter; stroke-miterlimit: 10; is-custom-font: none; font-file-url: none; fill: none; fill-rule: nonzero; opacity: 1;" transform=" translate(-185.4065, -116.395)" d="M 187.92 120.102 h -5.027 c -2.048 0 -3.707 -1.66 -3.707 -3.707 l 0 0 c 0 -2.047 1.66 -3.707 3.707 -3.707 h 5.027 c 2.047 0 3.707 1.66 3.707 3.707 l 0 0 C 191.628 118.442 189.968 120.102 187.92 120.102 z" stroke-linecap="round"/>
</g>
		<g transform="matrix(1 0 0 1 -35.6835 -59.5145)" id="Character">
<path style="stroke: rgb(255,255,255); stroke-width: 0.5; stroke-dasharray: none; stroke-linecap: butt; stroke-dashoffset: 0; stroke-linejoin: miter; stroke-miterlimit: 10; is-custom-font: none; font-file-url: none; fill: none; fill-rule: nonzero; opacity: 1;" transform=" translate(-214.3165, -190.4855)" d="M 284.983 252.248 H 143.651 c -8.308 0 -15.043 -6.735 -15.043 -15.043 v -93.439 c 0 -8.308 6.735 -15.043 15.043 -15.043 h 141.331 c 8.308 0 15.043 6.735 15.043 15.043 v 93.439 C 300.026 245.513 293.291 252.248 284.983 252.248 z" stroke-linecap="round"/>
</g>
		<g transform="matrix(1 0 0 1 -98.9375 -91.6075)" id="Character">
<path style="stroke: none; stroke-width: 1; stroke-dasharray: none; stroke-linecap: butt; stroke-dashoffset: 0; stroke-linejoin: miter; stroke-miterlimit: 4; is-custom-font: none; font-file-url: none; fill: rgb(64,123,255); fill-rule: nonzero; opacity: 1;" transform=" translate(-151.0625, -158.3925)" d="M 181.269 177.404 h -60.413 c -4.556 0 -8.249 -3.693 -8.249 -8.249 v -21.526 c 0 -4.555 3.693 -8.248 8.249 -8.248 h 60.413 c 4.556 0 8.249 3.693 8.249 8.249 v 21.526 C 189.517 173.711 185.824 177.404 181.269 177.404 z" stroke-linecap="round"/>
</g>
		<g transform="matrix(1 0 0 1 -95.9915 -85.381)" id="Character">
<path style="stroke: none; stroke-width: 1; stroke-dasharray: none; stroke-linecap: butt; stroke-dashoffset: 0; stroke-linejoin: miter; stroke-miterlimit: 4; is-custom-font: none; font-file-url: none; fill: rgb(64,123,255); fill-rule: nonzero; opacity: 1;" transform=" translate(-154.0085, -164.619)" d="M 192.463 145.868 v 25.046 c 0 3.586 -2.902 6.488 -6.488 6.488 h -23.143 c -7.022 2.414 -2.627 12.11 -2.469 12.456 c -1.494 -0.527 -2.705 -1.219 -3.696 -2.005 c -5.048 -4.003 -4.294 -10.451 -4.294 -10.451 h -30.331 c -3.586 0 -6.488 -2.902 -6.488 -6.488 v -25.046 c 0 -3.586 2.902 -6.488 6.488 -6.488 h 63.933 C 189.561 139.38 192.463 142.282 192.463 145.868 z" stroke-linecap="round"/>
</g>
		<g transform="matrix(1 0 0 1 -98.9405 -86.3835)" id="Character">
<path style="stroke: none; stroke-width: 1; stroke-dasharray: none; stroke-linecap: butt; stroke-dashoffset: 0; stroke-linejoin: miter; stroke-miterlimit: 4; is-custom-font: none; font-file-url: none; fill: rgb(255,255,255); fill-rule: nonzero; opacity: 0.2;" transform=" translate(-151.0595, -163.6165)" d="M 189.514 145.868 v 25.046 c 0 3.586 -2.902 6.488 -6.48 6.488 h -23.151 c -5.119 1.762 -4.168 7.4 -3.216 10.451 c -5.048 -4.003 -4.294 -10.451 -4.294 -10.451 h -33.28 c -3.586 0 -6.488 -2.902 -6.488 -6.488 v -25.046 c 0 -3.586 2.902 -6.488 6.488 -6.488 h 63.941 C 186.612 139.38 189.514 142.282 189.514 145.868 z" stroke-linecap="round"/>
</g>
		<g transform="matrix(1 0 0 1 -99.138 -102.8505)" id="Character">
<rect style="stroke: none; stroke-width: 1; stroke-dasharray: none; stroke-linecap: butt; stroke-dashoffset: 0; stroke-linejoin: miter; stroke-miterlimit: 4; is-custom-font: none; font-file-url: none; fill: rgb(64,123,255); fill-rule: nonzero; opacity: 1;" x="-32.662" y="-1.7315" rx="0" ry="0" width="65.324" height="3.463"/>
</g>
		<g transform="matrix(1 0 0 1 -99.138 -96.4955)" id="Character">
<rect style="stroke: none; stroke-width: 1; stroke-dasharray: none; stroke-linecap: butt; stroke-dashoffset: 0; stroke-linejoin: miter; stroke-miterlimit: 4; is-custom-font: none; font-file-url: none; fill: rgb(64,123,255); fill-rule: nonzero; opacity: 1;" x="-32.662" y="-1.7315" rx="0" ry="0" width="65.324" height="3.463"/>
</g>
		<g transform="matrix(1 0 0 1 -99.138 -90.1405)" id="Character">
<rect style="stroke: none; stroke-width: 1; stroke-dasharray: none; stroke-linecap: butt; stroke-dashoffset: 0; stroke-linejoin: miter; stroke-miterlimit: 4; is-custom-font: none; font-file-url: none; fill: rgb(64,123,255); fill-rule: nonzero; opacity: 1;" x="-32.662" y="-1.7315" rx="0" ry="0" width="65.324" height="3.463"/>
</g>
		<g transform="matrix(1 0 0 1 -99.138 -102.8505)" id="Character">
<rect style="stroke: none; stroke-width: 1; stroke-dasharray: none; stroke-linecap: butt; stroke-dashoffset: 0; stroke-linejoin: miter; stroke-miterlimit: 4; is-custom-font: none; font-file-url: none; fill: rgb(0,0,0); fill-rule: nonzero; opacity: 0.1;" x="-32.662" y="-1.7315" rx="0" ry="0" width="65.324" height="3.463"/>
</g>
		<g transform="matrix(1 0 0 1 -99.138 -96.4955)" id="Character">
<rect style="stroke: none; stroke-width: 1; stroke-dasharray: none; stroke-linecap: butt; stroke-dashoffset: 0; stroke-linejoin: miter; stroke-miterlimit: 4; is-custom-font: none; font-file-url: none; fill: rgb(0,0,0); fill-rule: nonzero; opacity: 0.1;" x="-32.662" y="-1.7315" rx="0" ry="0" width="65.324" height="3.463"/>
</g>
		<g transform="matrix(1 0 0 1 -99.138 -90.1405)" id="Character">
<rect style="stroke: none; stroke-width: 1; stroke-dasharray: none; stroke-linecap: butt; stroke-dashoffset: 0; stroke-linejoin: miter; stroke-miterlimit: 4; is-custom-font: none; font-file-url: none; fill: rgb(0,0,0); fill-rule: nonzero; opacity: 0.1;" x="-32.662" y="-1.7315" rx="0" ry="0" width="65.324" height="3.463"/>
</g>
</g>
</g>
<g transform="matrix(1 0 0 1 643.5315 459.1398)" style="" id="746152">
		
<path xml:space="preserve" font-family="Lato" font-size="23" font-style="normal" font-weight="normal" style="stroke: none; stroke-width: 1; stroke-dasharray: none; stroke-linecap: butt; stroke-dashoffset: 0; stroke-linejoin: miter; stroke-miterlimit: 4; is-custom-font: none; font-file-url: none; fill: rgb(153,153,153); fill-rule: nonzero; opacity: 1; white-space: pre;" d="M-112.63-9.25L-118.68 0.67L-118.68 7.23L-120.90 7.23L-120.90 0.67L-126.93-9.25L-124.98-9.25Q-124.68-9.25-124.51-9.10Q-124.33-8.96-124.21-8.74L-124.21-8.74L-120.44-2.33Q-120.21-1.93-120.05-1.57Q-119.90-1.22-119.77-0.87L-119.77-0.87Q-119.64-1.23-119.49-1.58Q-119.34-1.94-119.11-2.33L-119.11-2.33L-115.35-8.74Q-115.25-8.92-115.07-9.09Q-114.89-9.25-114.61-9.25L-114.61-9.25L-112.63-9.25ZM-108.00-4.61L-108.00-4.61Q-106.73-4.61-105.70-4.18Q-104.67-3.76-103.95-2.98Q-103.23-2.19-102.85-1.08Q-102.46 0.03-102.46 1.39L-102.46 1.39Q-102.46 2.77-102.85 3.88Q-103.23 4.98-103.95 5.76Q-104.67 6.55-105.70 6.97Q-106.73 7.39-108.00 7.39L-108.00 7.39Q-109.28 7.39-110.31 6.97Q-111.34 6.55-112.06 5.76Q-112.79 4.98-113.18 3.88Q-113.57 2.77-113.57 1.39L-113.57 1.39Q-113.57 0.03-113.18-1.08Q-112.79-2.19-112.06-2.98Q-111.34-3.76-110.31-4.18Q-109.28-4.61-108.00-4.61ZM-108.00 5.79L-108.00 5.79Q-106.28 5.79-105.43 4.63Q-104.58 3.48-104.58 1.41L-104.58 1.41Q-104.58-0.68-105.43-1.84Q-106.28-3.00-108.00-3.00L-108.00-3.00Q-108.88-3.00-109.52-2.70Q-110.17-2.40-110.60-1.84Q-111.03-1.27-111.24-0.45Q-111.45 0.37-111.45 1.41L-111.45 1.41Q-111.45 2.44-111.24 3.26Q-111.03 4.07-110.60 4.63Q-110.17 5.19-109.52 5.49Q-108.88 5.79-108.00 5.79ZM-100.21-4.42L-98.16-4.42L-98.16 3.00Q-98.16 4.33-97.55 5.05Q-96.94 5.78-95.71 5.78L-95.71 5.78Q-94.81 5.78-94.02 5.35Q-93.23 4.93-92.56 4.17L-92.56 4.17L-92.56-4.42L-90.51-4.42L-90.51 7.23L-91.73 7.23Q-92.17 7.23-92.28 6.80L-92.28 6.80L-92.44 5.55Q-93.20 6.39-94.15 6.90Q-95.09 7.41-96.31 7.41L-96.31 7.41Q-97.26 7.41-97.99 7.09Q-98.72 6.78-99.22 6.20Q-99.71 5.63-99.96 4.81Q-100.21 3.99-100.21 3.00L-100.21 3.00L-100.21-4.42ZM-85.10 7.23L-87.14 7.23L-87.14-4.42L-85.97-4.42Q-85.64-4.42-85.51-4.30Q-85.38-4.17-85.34-3.86L-85.34-3.86L-85.20-2.04Q-84.60-3.26-83.72-3.95Q-82.84-4.63-81.66-4.63L-81.66-4.63Q-81.17-4.63-80.78-4.52Q-80.39-4.41-80.06-4.22L-80.06-4.22L-80.32-2.69Q-80.40-2.40-80.68-2.40L-80.68-2.40Q-80.84-2.40-81.17-2.51Q-81.51-2.62-82.11-2.62L-82.11-2.62Q-83.18-2.62-83.89-2.00Q-84.61-1.38-85.10-0.19L-85.10-0.19L-85.10 7.23ZM-61.50 3.82L-61.50 3.82Q-61.31 3.82-61.16 3.97L-61.16 3.97L-60.29 4.93Q-61.30 6.10-62.75 6.75Q-64.19 7.41-66.22 7.41L-66.22 7.41Q-68.01 7.41-69.46 6.79Q-70.91 6.18-71.93 5.07Q-72.95 3.96-73.52 2.41Q-74.08 0.85-74.08-1.01L-74.08-1.01Q-74.08-2.87-73.48-4.42Q-72.87-5.98-71.78-7.09Q-70.69-8.21-69.16-8.82Q-67.64-9.44-65.80-9.44L-65.80-9.44Q-63.98-9.44-62.67-8.87Q-61.35-8.31-60.33-7.35L-60.33-7.35L-61.05-6.32Q-61.13-6.21-61.23-6.13Q-61.34-6.06-61.53-6.06L-61.53-6.06Q-61.68-6.06-61.85-6.17Q-62.02-6.28-62.25-6.44Q-62.48-6.60-62.79-6.78Q-63.10-6.97-63.52-7.13Q-63.95-7.29-64.51-7.40Q-65.07-7.51-65.81-7.51L-65.81-7.51Q-67.13-7.51-68.23-7.05Q-69.33-6.60-70.12-5.76Q-70.92-4.92-71.36-3.71Q-71.80-2.50-71.80-1.01L-71.80-1.01Q-71.80 0.53-71.36 1.74Q-70.92 2.95-70.15 3.78Q-69.39 4.61-68.34 5.05Q-67.29 5.49-66.09 5.49L-66.09 5.49Q-65.35 5.49-64.76 5.40Q-64.18 5.32-63.68 5.13Q-63.18 4.95-62.75 4.67Q-62.31 4.38-61.88 3.99L-61.88 3.99Q-61.68 3.82-61.50 3.82ZM-57.96-4.42L-55.91-4.42L-55.91 3.00Q-55.91 4.33-55.30 5.05Q-54.69 5.78-53.46 5.78L-53.46 5.78Q-52.56 5.78-51.77 5.35Q-50.98 4.93-50.31 4.17L-50.31 4.17L-50.31-4.42L-48.26-4.42L-48.26 7.23L-49.48 7.23Q-49.92 7.23-50.03 6.80L-50.03 6.80L-50.19 5.55Q-50.95 6.39-51.90 6.90Q-52.84 7.41-54.06 7.41L-54.06 7.41Q-55.01 7.41-55.74 7.09Q-56.47 6.78-56.97 6.20Q-57.46 5.63-57.71 4.81Q-57.96 3.99-57.96 3.00L-57.96 3.00L-57.96-4.42ZM-42.85 7.23L-44.89 7.23L-44.89-4.42L-43.72-4.42Q-43.39-4.42-43.26-4.30Q-43.13-4.17-43.09-3.86L-43.09-3.86L-42.95-2.04Q-42.35-3.26-41.47-3.95Q-40.59-4.63-39.41-4.63L-39.41-4.63Q-38.92-4.63-38.53-4.52Q-38.14-4.41-37.81-4.22L-37.81-4.22L-38.07-2.69Q-38.15-2.40-38.43-2.40L-38.43-2.40Q-38.59-2.40-38.92-2.51Q-39.26-2.62-39.86-2.62L-39.86-2.62Q-40.92-2.62-41.64-2.00Q-42.36-1.38-42.85-0.19L-42.85-0.19L-42.85 7.23ZM-33.58 7.23L-35.62 7.23L-35.62-4.42L-34.45-4.42Q-34.12-4.42-33.99-4.30Q-33.86-4.17-33.82-3.86L-33.82-3.86L-33.68-2.04Q-33.08-3.26-32.20-3.95Q-31.32-4.63-30.14-4.63L-30.14-4.63Q-29.65-4.63-29.26-4.52Q-28.87-4.41-28.54-4.22L-28.54-4.22L-28.80-2.69Q-28.88-2.40-29.16-2.40L-29.16-2.40Q-29.32-2.40-29.65-2.51Q-29.99-2.62-30.59-2.62L-30.59-2.62Q-31.66-2.62-32.37-2.00Q-33.09-1.38-33.58-0.19L-33.58-0.19L-33.58 7.23ZM-26.12-4.42L-24.08-4.42L-24.08 7.23L-26.12 7.23L-26.12-4.42ZM-23.62-8.08L-23.62-8.08Q-23.62-7.78-23.74-7.52Q-23.86-7.26-24.06-7.06Q-24.26-6.86-24.53-6.75Q-24.79-6.63-25.09-6.63L-25.09-6.63Q-25.39-6.63-25.65-6.75Q-25.91-6.86-26.11-7.06Q-26.31-7.26-26.42-7.52Q-26.54-7.78-26.54-8.08L-26.54-8.08Q-26.54-8.38-26.42-8.65Q-26.31-8.92-26.11-9.12Q-25.91-9.32-25.65-9.44Q-25.39-9.55-25.09-9.55L-25.09-9.55Q-24.79-9.55-24.53-9.44Q-24.26-9.32-24.06-9.12Q-23.86-8.92-23.74-8.65Q-23.62-8.38-23.62-8.08ZM-11.98-3.09L-12.52-2.35Q-12.61-2.23-12.70-2.16Q-12.80-2.09-12.97-2.09L-12.97-2.09Q-13.14-2.09-13.34-2.23Q-13.54-2.38-13.85-2.55Q-14.16-2.72-14.61-2.87Q-15.05-3.01-15.69-3.01L-15.69-3.01Q-16.54-3.01-17.20-2.71Q-17.86-2.40-18.30-1.83Q-18.74-1.25-18.97-0.43Q-19.19 0.38-19.19 1.39L-19.19 1.39Q-19.19 2.45-18.95 3.27Q-18.71 4.10-18.27 4.65Q-17.83 5.21-17.21 5.51Q-16.58 5.80-15.80 5.80L-15.80 5.80Q-15.05 5.80-14.57 5.62Q-14.08 5.44-13.76 5.22Q-13.44 5.01-13.23 4.83Q-13.03 4.65-12.82 4.65L-12.82 4.65Q-12.55 4.65-12.43 4.84L-12.43 4.84L-11.85 5.59Q-12.61 6.52-13.75 6.95Q-14.89 7.39-16.15 7.39L-16.15 7.39Q-17.25 7.39-18.18 6.98Q-19.12 6.58-19.81 5.82Q-20.50 5.05-20.90 3.94Q-21.29 2.82-21.29 1.39L-21.29 1.39Q-21.29 0.10-20.93-1.01Q-20.57-2.11-19.87-2.91Q-19.18-3.71-18.15-4.16Q-17.13-4.61-15.81-4.61L-15.81-4.61Q-14.59-4.61-13.65-4.21Q-12.70-3.81-11.98-3.09L-11.98-3.09ZM-10.00-4.42L-7.95-4.42L-7.95 3.00Q-7.95 4.33-7.34 5.05Q-6.74 5.78-5.50 5.78L-5.50 5.78Q-4.61 5.78-3.81 5.35Q-3.02 4.93-2.35 4.17L-2.35 4.17L-2.35-4.42L-0.31-4.42L-0.31 7.23L-1.53 7.23Q-1.96 7.23-2.08 6.80L-2.08 6.80L-2.24 5.55Q-3.00 6.39-3.94 6.90Q-4.88 7.41-6.10 7.41L-6.10 7.41Q-7.06 7.41-7.79 7.09Q-8.52 6.78-9.01 6.20Q-9.51 5.63-9.75 4.81Q-10.00 3.99-10.00 3.00L-10.00 3.00L-10.00-4.42ZM3.29-9.71L5.34-9.71L5.34 7.23L3.29 7.23L3.29-9.71ZM8.67-4.42L10.72-4.42L10.72 3.00Q10.72 4.33 11.33 5.05Q11.94 5.78 13.17 5.78L13.17 5.78Q14.07 5.78 14.86 5.35Q15.66 4.93 16.32 4.17L16.32 4.17L16.32-4.42L18.37-4.42L18.37 7.23L17.15 7.23Q16.71 7.23 16.60 6.80L16.60 6.80L16.44 5.55Q15.68 6.39 14.74 6.90Q13.79 7.41 12.57 7.41L12.57 7.41Q11.62 7.41 10.89 7.09Q10.16 6.78 9.66 6.20Q9.17 5.63 8.92 4.81Q8.67 3.99 8.67 3.00L8.67 3.00L8.67-4.42ZM23.79 7.23L21.74 7.23L21.74-4.42L22.96-4.42Q23.39-4.42 23.51-4.00L23.51-4.00L23.66-2.80Q24.30-3.60 25.10-4.10Q25.90-4.61 26.96-4.61L26.96-4.61Q28.14-4.61 28.87-3.95Q29.60-3.30 29.93-2.18L29.93-2.18Q30.17-2.81 30.57-3.27Q30.96-3.73 31.46-4.03Q31.95-4.33 32.51-4.47Q33.07-4.61 33.64-4.61L33.64-4.61Q34.56-4.61 35.28-4.32Q36.00-4.02 36.50-3.46Q37.00-2.89 37.26-2.07Q37.53-1.25 37.53-0.19L37.53-0.19L37.53 7.23L35.48 7.23L35.48-0.19Q35.48-1.56 34.88-2.27Q34.29-2.98 33.15-2.98L33.15-2.98Q32.64-2.98 32.19-2.80Q31.73-2.62 31.39-2.27Q31.04-1.93 30.84-1.41Q30.64-0.88 30.64-0.19L30.64-0.19L30.64 7.23L28.59 7.23L28.59-0.19Q28.59-1.60 28.03-2.29Q27.47-2.98 26.38-2.98L26.38-2.98Q25.63-2.98 24.98-2.57Q24.33-2.16 23.79-1.46L23.79-1.46L23.79 7.23ZM45.29-4.42L47.34-4.42L47.34 7.23L45.29 7.23L45.29-4.42ZM47.80-8.08L47.80-8.08Q47.80-7.78 47.68-7.52Q47.56-7.26 47.36-7.06Q47.15-6.86 46.89-6.75Q46.62-6.63 46.33-6.63L46.33-6.63Q46.03-6.63 45.77-6.75Q45.51-6.86 45.31-7.06Q45.11-7.26 44.99-7.52Q44.88-7.78 44.88-8.08L44.88-8.08Q44.88-8.38 44.99-8.65Q45.11-8.92 45.31-9.12Q45.51-9.32 45.77-9.44Q46.03-9.55 46.33-9.55L46.33-9.55Q46.62-9.55 46.89-9.44Q47.15-9.32 47.36-9.12Q47.56-8.92 47.68-8.65Q47.80-8.38 47.80-8.08ZM58.08-3.25L57.62-2.50Q57.48-2.25 57.19-2.25L57.19-2.25Q57.02-2.25 56.80-2.38Q56.58-2.50 56.27-2.66Q55.95-2.81 55.51-2.95Q55.08-3.08 54.48-3.08L54.48-3.08Q53.96-3.08 53.55-2.95Q53.13-2.81 52.84-2.58Q52.55-2.35 52.39-2.05Q52.24-1.74 52.24-1.39L52.24-1.39Q52.24-0.94 52.50-0.64Q52.75-0.34 53.18-0.12Q53.61 0.10 54.15 0.26Q54.69 0.43 55.26 0.62Q55.82 0.81 56.37 1.04Q56.91 1.27 57.33 1.61Q57.76 1.96 58.02 2.46Q58.27 2.96 58.27 3.66L58.27 3.66Q58.27 4.47 57.99 5.15Q57.70 5.83 57.14 6.33Q56.57 6.83 55.76 7.12Q54.94 7.41 53.87 7.41L53.87 7.41Q52.65 7.41 51.66 7.01Q50.67 6.62 49.98 5.99L49.98 5.99L50.47 5.21Q50.56 5.06 50.68 4.98Q50.81 4.90 51.02 4.90L51.02 4.90Q51.22 4.90 51.45 5.06Q51.68 5.22 52.01 5.42Q52.34 5.62 52.81 5.78Q53.27 5.94 53.97 5.94L53.97 5.94Q54.57 5.94 55.02 5.78Q55.47 5.63 55.77 5.36Q56.07 5.10 56.21 4.75Q56.35 4.41 56.35 4.02L56.35 4.02Q56.35 3.53 56.10 3.22Q55.84 2.90 55.41 2.68Q54.99 2.45 54.44 2.29Q53.89 2.12 53.32 1.94Q52.75 1.75 52.21 1.52Q51.66 1.28 51.24 0.92Q50.81 0.57 50.55 0.04Q50.29-0.48 50.29-1.23L50.29-1.23Q50.29-1.89 50.57-2.51Q50.85-3.12 51.37-3.59Q51.90-4.06 52.67-4.33Q53.44-4.61 54.43-4.61L54.43-4.61Q55.58-4.61 56.50-4.25Q57.41-3.88 58.08-3.25L58.08-3.25ZM65.69-9.25L75.85-9.25L75.85-7.44L67.93-7.44L67.93-1.96L74.34-1.96L74.34-0.22L67.93-0.22L67.93 5.41L75.85 5.41L75.85 7.23L65.69 7.23L65.69-9.25ZM80.78 7.23L78.73 7.23L78.73-4.42L79.95-4.42Q80.39-4.42 80.50-4.00L80.50-4.00L80.65-2.80Q81.30-3.60 82.10-4.10Q82.90-4.61 83.95-4.61L83.95-4.61Q85.14-4.61 85.87-3.95Q86.60-3.30 86.92-2.18L86.92-2.18Q87.16-2.81 87.56-3.27Q87.96-3.73 88.45-4.03Q88.94-4.33 89.50-4.47Q90.06-4.61 90.64-4.61L90.64-4.61Q91.56-4.61 92.27-4.32Q92.99-4.02 93.49-3.46Q93.99-2.89 94.26-2.07Q94.52-1.25 94.52-0.19L94.52-0.19L94.52 7.23L92.48 7.23L92.48-0.19Q92.48-1.56 91.88-2.27Q91.28-2.98 90.14-2.98L90.14-2.98Q89.63-2.98 89.18-2.80Q88.73-2.62 88.38-2.27Q88.04-1.93 87.84-1.41Q87.63-0.88 87.63-0.19L87.63-0.19L87.63 7.23L85.59 7.23L85.59-0.19Q85.59-1.60 85.02-2.29Q84.46-2.98 83.38-2.98L83.38-2.98Q82.62-2.98 81.97-2.57Q81.32-2.16 80.78-1.46L80.78-1.46L80.78 7.23ZM99.66 11.17L97.62 11.17L97.62-4.42L98.83-4.42Q99.27-4.42 99.39-4.00L99.39-4.00L99.56-2.62Q100.31-3.53 101.27-4.08Q102.23-4.63 103.48-4.63L103.48-4.63Q104.48-4.63 105.30-4.25Q106.11-3.86 106.69-3.11Q107.26-2.35 107.57-1.24Q107.89-0.12 107.89 1.33L107.89 1.33Q107.89 2.61 107.54 3.72Q107.20 4.83 106.55 5.64Q105.91 6.45 104.97 6.92Q104.03 7.39 102.86 7.39L102.86 7.39Q101.78 7.39 101.01 7.03Q100.25 6.67 99.66 6.02L99.66 6.02L99.66 11.17ZM102.80-2.98L102.80-2.98Q101.80-2.98 101.05-2.52Q100.30-2.06 99.66-1.22L99.66-1.22L99.66 4.42Q100.23 5.18 100.90 5.49Q101.57 5.80 102.40 5.80L102.40 5.80Q104.02 5.80 104.90 4.64Q105.77 3.48 105.77 1.33L105.77 1.33Q105.77 0.19 105.57-0.63Q105.37-1.45 104.99-1.97Q104.61-2.49 104.06-2.73Q103.50-2.98 102.80-2.98ZM113.84 7.41L113.84 7.41Q112.46 7.41 111.72 6.64Q110.98 5.87 110.98 4.42L110.98 4.42L110.98-2.71L109.58-2.71Q109.39-2.71 109.27-2.82Q109.14-2.93 109.14-3.16L109.14-3.16L109.14-3.98L111.05-4.22L111.52-7.82Q111.54-7.99 111.67-8.10Q111.80-8.21 111.99-8.21L111.99-8.21L113.03-8.21L113.03-4.19L116.36-4.19L116.36-2.71L113.03-2.71L113.03 4.28Q113.03 5.02 113.38 5.37Q113.74 5.73 114.30 5.73L114.30 5.73Q114.62 5.73 114.86 5.64Q115.10 5.56 115.27 5.45Q115.44 5.35 115.56 5.26Q115.68 5.18 115.77 5.18L115.77 5.18Q115.94 5.18 116.06 5.37L116.06 5.37L116.66 6.35Q116.13 6.85 115.38 7.13Q114.64 7.41 113.84 7.41ZM128.80-4.42L122.31 10.66Q122.20 10.89 122.05 11.03Q121.89 11.17 121.57 11.17L121.57 11.17L120.05 11.17L122.18 6.55L117.37-4.42L119.14-4.42Q119.41-4.42 119.56-4.29Q119.71-4.16 119.78-4.00L119.78-4.00L122.89 3.34Q123.00 3.59 123.07 3.84Q123.15 4.10 123.20 4.36L123.20 4.36Q123.28 4.10 123.36 3.84Q123.44 3.59 123.55 3.33L123.55 3.33L126.57-4.00Q126.64-4.18 126.81-4.30Q126.98-4.42 127.17-4.42L127.17-4.42L128.80-4.42Z"/></g>
</svg>