<svg xmlns="http://www.w3.org/2000/svg" xmlns:xlink="http://www.w3.org/1999/xlink" version="1.1" width="940" height="788" viewBox="0 0 940 788" xml:space="preserve">
<desc>Created with Fabric.js 3.5.0</desc>
<defs>
</defs>
<rect x="0" y="0" width="100%" height="100%" fill="#ffffff"/>
<g transform="matrix(1.5676 0 0 1.5676 470.0071 391.9)" id="763955">
<g style="" vector-effect="non-scaling-stroke">
		<g transform="matrix(1 0 0 1 0 132.523)" id="Background_Complete">
<rect style="stroke: none; stroke-width: 1; stroke-dasharray: none; stroke-linecap: butt; stroke-dashoffset: 0; stroke-linejoin: miter; stroke-miterlimit: 4; is-custom-font: none; font-file-url: none; fill: rgb(235,235,235); fill-rule: nonzero; opacity: 1;" x="-250" y="-0.125" rx="0" ry="0" width="500" height="0.25"/>
</g>
		<g transform="matrix(1 0 0 1 183.34 148.619)" id="Background_Complete">
<rect style="stroke: none; stroke-width: 1; stroke-dasharray: none; stroke-linecap: butt; stroke-dashoffset: 0; stroke-linejoin: miter; stroke-miterlimit: 4; is-custom-font: none; font-file-url: none; fill: rgb(235,235,235); fill-rule: nonzero; opacity: 1;" x="-16.561" y="-0.125" rx="0" ry="0" width="33.122" height="0.25"/>
</g>
		<g transform="matrix(1 0 0 1 76.8735 151.333)" id="Background_Complete">
<rect style="stroke: none; stroke-width: 1; stroke-dasharray: none; stroke-linecap: butt; stroke-dashoffset: 0; stroke-linejoin: miter; stroke-miterlimit: 4; is-custom-font: none; font-file-url: none; fill: rgb(235,235,235); fill-rule: nonzero; opacity: 1;" x="-4.3465" y="-0.125" rx="0" ry="0" width="8.693" height="0.25"/>
</g>
		<g transform="matrix(1 0 0 1 156.182 139.333)" id="Background_Complete">
<rect style="stroke: none; stroke-width: 1; stroke-dasharray: none; stroke-linecap: butt; stroke-dashoffset: 0; stroke-linejoin: miter; stroke-miterlimit: 4; is-custom-font: none; font-file-url: none; fill: rgb(235,235,235); fill-rule: nonzero; opacity: 1;" x="-9.596" y="-0.125" rx="0" ry="0" width="19.192" height="0.25"/>
</g>
		<g transform="matrix(1 0 0 1 -175.9445 141.013)" id="Background_Complete">
<rect style="stroke: none; stroke-width: 1; stroke-dasharray: none; stroke-linecap: butt; stroke-dashoffset: 0; stroke-linejoin: miter; stroke-miterlimit: 4; is-custom-font: none; font-file-url: none; fill: rgb(235,235,235); fill-rule: nonzero; opacity: 1;" x="-21.5965" y="-0.125" rx="0" ry="0" width="43.193" height="0.25"/>
</g>
		<g transform="matrix(1 0 0 1 -142.2775 141.013)" id="Background_Complete">
<rect style="stroke: none; stroke-width: 1; stroke-dasharray: none; stroke-linecap: butt; stroke-dashoffset: 0; stroke-linejoin: miter; stroke-miterlimit: 4; is-custom-font: none; font-file-url: none; fill: rgb(235,235,235); fill-rule: nonzero; opacity: 1;" x="-3.1665" y="-0.125" rx="0" ry="0" width="6.333" height="0.25"/>
</g>
		<g transform="matrix(1 0 0 1 -71.691 145.236)" id="Background_Complete">
<rect style="stroke: none; stroke-width: 1; stroke-dasharray: none; stroke-linecap: butt; stroke-dashoffset: 0; stroke-linejoin: miter; stroke-miterlimit: 4; is-custom-font: none; font-file-url: none; fill: rgb(235,235,235); fill-rule: nonzero; opacity: 1;" x="-46.838" y="-0.125" rx="0" ry="0" width="93.676" height="0.25"/>
</g>
		<g transform="matrix(1 0 0 1 -109.536 -53.624)" id="Background_Complete">
<path style="stroke: none; stroke-width: 1; stroke-dasharray: none; stroke-linecap: butt; stroke-dashoffset: 0; stroke-linejoin: miter; stroke-miterlimit: 4; is-custom-font: none; font-file-url: none; fill: rgb(235,235,235); fill-rule: nonzero; opacity: 1;" transform=" translate(-140.464, -196.376)" d="M 237.014 337.8 H 43.915 c -3.147 0 -5.708 -2.561 -5.708 -5.708 V 60.66 c 0 -3.147 2.561 -5.708 5.708 -5.708 h 193.099 c 3.146 0 5.707 2.561 5.707 5.708 v 271.432 C 242.721 335.239 240.16 337.8 237.014 337.8 z M 43.915 55.203 c -3.01 0 -5.458 2.448 -5.458 5.458 v 271.432 c 0 3.01 2.448 5.458 5.458 5.458 h 193.099 c 3.009 0 5.457 -2.448 5.457 -5.458 V 60.66 c 0 -3.009 -2.448 -5.458 -5.457 -5.458 H 43.915 z" stroke-linecap="round"/>
</g>
		<g transform="matrix(1 0 0 1 106.7615 -53.624)" id="Background_Complete">
<path style="stroke: none; stroke-width: 1; stroke-dasharray: none; stroke-linecap: butt; stroke-dashoffset: 0; stroke-linejoin: miter; stroke-miterlimit: 4; is-custom-font: none; font-file-url: none; fill: rgb(235,235,235); fill-rule: nonzero; opacity: 1;" transform=" translate(-356.7615, -196.376)" d="M 453.31 337.8 H 260.212 c -3.147 0 -5.707 -2.561 -5.707 -5.708 V 60.66 c 0 -3.147 2.561 -5.708 5.707 -5.708 H 453.31 c 3.148 0 5.708 2.561 5.708 5.708 v 271.432 C 459.019 335.239 456.458 337.8 453.31 337.8 z M 260.212 55.203 c -3.009 0 -5.457 2.448 -5.457 5.458 v 271.432 c 0 3.01 2.448 5.458 5.457 5.458 H 453.31 c 3.01 0 5.458 -2.448 5.458 -5.458 V 60.66 c 0 -3.009 -2.448 -5.458 -5.458 -5.458 H 260.212 z" stroke-linecap="round"/>
</g>
		<g transform="matrix(-1 0 0 -1 -152.4819 -113.731)" id="Background_Complete">
<rect style="stroke: none; stroke-width: 1; stroke-dasharray: none; stroke-linecap: butt; stroke-dashoffset: 0; stroke-linejoin: miter; stroke-miterlimit: 4; is-custom-font: none; font-file-url: none; fill: rgb(245,245,245); fill-rule: nonzero; opacity: 1;" x="-36.6595" y="-60.6145" rx="0" ry="0" width="73.319" height="121.229"/>
</g>
		<g transform="matrix(1 0 0 1 -189.869 -113.7305)" id="Background_Complete">
<rect style="stroke: none; stroke-width: 1; stroke-dasharray: none; stroke-linecap: butt; stroke-dashoffset: 0; stroke-linejoin: miter; stroke-miterlimit: 4; is-custom-font: none; font-file-url: none; fill: rgb(224,224,224); fill-rule: nonzero; opacity: 1;" x="-0.727" y="-60.6145" rx="0" ry="0" width="1.454" height="121.229"/>
</g>
		<g transform="matrix(-1 0 0 -1 -152.4823 -113.7315)" id="Background_Complete">
<rect style="stroke: none; stroke-width: 1; stroke-dasharray: none; stroke-linecap: butt; stroke-dashoffset: 0; stroke-linejoin: miter; stroke-miterlimit: 4; is-custom-font: none; font-file-url: none; fill: rgb(250,250,250); fill-rule: nonzero; opacity: 1;" x="-29.223" y="-55.28" rx="0" ry="0" width="58.446" height="110.56"/>
</g>
		<g transform="matrix(-1 0 0 -1 -61.8555 -71.1702)" id="Background_Complete">
<rect style="stroke: none; stroke-width: 1; stroke-dasharray: none; stroke-linecap: butt; stroke-dashoffset: 0; stroke-linejoin: miter; stroke-miterlimit: 4; is-custom-font: none; font-file-url: none; fill: rgb(245,245,245); fill-rule: nonzero; opacity: 1;" x="-36.6595" y="-60.6145" rx="0" ry="0" width="73.319" height="121.229"/>
</g>
		<g transform="matrix(1 0 0 1 -99.242 -71.1695)" id="Background_Complete">
<rect style="stroke: none; stroke-width: 1; stroke-dasharray: none; stroke-linecap: butt; stroke-dashoffset: 0; stroke-linejoin: miter; stroke-miterlimit: 4; is-custom-font: none; font-file-url: none; fill: rgb(224,224,224); fill-rule: nonzero; opacity: 1;" x="-0.727" y="-60.6145" rx="0" ry="0" width="1.454" height="121.229"/>
</g>
		<g transform="matrix(-1 0 0 -1 -61.855 -71.1697)" id="Background_Complete">
<rect style="stroke: none; stroke-width: 1; stroke-dasharray: none; stroke-linecap: butt; stroke-dashoffset: 0; stroke-linejoin: miter; stroke-miterlimit: 4; is-custom-font: none; font-file-url: none; fill: rgb(250,250,250); fill-rule: nonzero; opacity: 1;" x="-29.223" y="-55.28" rx="0" ry="0" width="58.446" height="110.56"/>
</g>
		<g transform="matrix(1 0 0 1 -153.3307 45.9965)" id="Background_Complete">
<path style="stroke: none; stroke-width: 1; stroke-dasharray: none; stroke-linecap: butt; stroke-dashoffset: 0; stroke-linejoin: miter; stroke-miterlimit: 4; is-custom-font: none; font-file-url: none; fill: rgb(230,230,230); fill-rule: nonzero; opacity: 1;" transform=" translate(-96.6694, -295.9965)" d="M 104.197 351.065 c 1.819 -32.974 -2.99 -86.031 -8.204 -104.381 c -0.692 -2.434 -1.478 -5.255 -2.66 -5.628 l 0 0 c -3.408 -1.076 -4.937 4.257 -4.515 6.091 c 2.044 8.868 3.868 30.855 5.697 69.104 c 0.91 19.039 -0.02 32.082 2.44 34.828 L 104.197 351.065 z" stroke-linecap="round"/>
</g>
		<g transform="matrix(1 0 0 1 -126.2119 38.6475)" id="Background_Complete">
<path style="stroke: none; stroke-width: 1; stroke-dasharray: none; stroke-linecap: butt; stroke-dashoffset: 0; stroke-linejoin: miter; stroke-miterlimit: 4; is-custom-font: none; font-file-url: none; fill: rgb(230,230,230); fill-rule: nonzero; opacity: 1;" transform=" translate(-123.7881, -288.6475)" d="M 98.783 277.518 c 4.775 -15.449 65.972 -31.317 48.347 -14.697 c -4.394 4.143 -24.826 15.049 -33.222 26.521 c -6.522 8.911 -13.107 23.895 -14.846 32.207 C 98.302 304.066 95.599 287.82 98.783 277.518 z" stroke-linecap="round"/>
</g>
		<g transform="matrix(1 0 0 1 -128.0384 55.4365)" id="Background_Complete">
<path style="stroke: none; stroke-width: 1; stroke-dasharray: none; stroke-linecap: butt; stroke-dashoffset: 0; stroke-linejoin: miter; stroke-miterlimit: 4; is-custom-font: none; font-file-url: none; fill: rgb(230,230,230); fill-rule: nonzero; opacity: 1;" transform=" translate(-121.9616, -305.4366)" d="M 105.748 297.112 c 10.66 -23.514 44.755 -27.729 35.591 -15.32 c -3.598 4.872 -16.802 10.424 -25.198 21.896 c -6.522 8.911 -13.107 23.895 -14.846 32.207 C 100.535 318.412 101.296 306.932 105.748 297.112 z" stroke-linecap="round"/>
</g>
		<g transform="matrix(1 0 0 1 -176.4282 53.7349)" id="Background_Complete">
<path style="stroke: none; stroke-width: 1; stroke-dasharray: none; stroke-linecap: butt; stroke-dashoffset: 0; stroke-linejoin: miter; stroke-miterlimit: 4; is-custom-font: none; font-file-url: none; fill: rgb(230,230,230); fill-rule: nonzero; opacity: 1;" transform=" translate(-73.5717, -303.735)" d="M 92.348 295.112 c -12.617 -30.247 -58.212 -32.651 -46.079 -18.599 c 4.613 5.342 20.717 15.139 32.892 27.755 c 9.458 9.801 20.121 26.045 23.747 34.955 C 100.564 320.721 97.438 307.314 92.348 295.112 z" stroke-linecap="round"/>
</g>
		<g transform="matrix(1 0 0 1 -135.9481 20.8898)" id="Background_Complete">
<path style="stroke: none; stroke-width: 1; stroke-dasharray: none; stroke-linecap: butt; stroke-dashoffset: 0; stroke-linejoin: miter; stroke-miterlimit: 4; is-custom-font: none; font-file-url: none; fill: rgb(230,230,230); fill-rule: nonzero; opacity: 1;" transform=" translate(-114.0519, -270.8898)" d="M 97.649 261.274 c 11.297 -20.716 45.5 -22.934 35.735 -11.599 c -3.834 4.45 -16.296 10.11 -24.438 21.236 c -6.326 8.643 -13.93 19.915 -15.615 27.978 C 92.593 281.932 92.643 270.455 97.649 261.274 z" stroke-linecap="round"/>
</g>
		<g transform="matrix(1 0 0 1 -176.9642 19.3383)" id="Background_Complete">
<path style="stroke: none; stroke-width: 1; stroke-dasharray: none; stroke-linecap: butt; stroke-dashoffset: 0; stroke-linejoin: miter; stroke-miterlimit: 4; is-custom-font: none; font-file-url: none; fill: rgb(230,230,230); fill-rule: nonzero; opacity: 1;" transform=" translate(-73.0358, -269.3382)" d="M 87.813 261.678 c -8.917 -12.874 -48.866 -27.042 -38.456 -15.374 c 10.913 12.231 18.658 10.125 28.967 20.808 c 8.009 8.299 17.038 22.054 20.108 29.599 C 96.449 281.043 94.188 270.881 87.813 261.678 z" stroke-linecap="round"/>
</g>
		<g transform="matrix(1 0 0 1 -141.1887 2.7783)" id="Background_Complete">
<path style="stroke: none; stroke-width: 1; stroke-dasharray: none; stroke-linecap: butt; stroke-dashoffset: 0; stroke-linejoin: miter; stroke-miterlimit: 4; is-custom-font: none; font-file-url: none; fill: rgb(230,230,230); fill-rule: nonzero; opacity: 1;" transform=" translate(-108.8113, -252.7783)" d="M 98.403 246.85 c 5.655 -10.178 29.028 -17.671 22.903 -9.858 c -4.248 5.419 -9.35 9.139 -14.753 16.521 c -4.197 5.735 -9.897 12.945 -11.015 18.295 C 95.048 260.557 95.033 252.916 98.403 246.85 z" stroke-linecap="round"/>
</g>
		<g transform="matrix(1 0 0 1 -171.8987 5.8259)" id="Background_Complete">
<path style="stroke: none; stroke-width: 1; stroke-dasharray: none; stroke-linecap: butt; stroke-dashoffset: 0; stroke-linejoin: miter; stroke-miterlimit: 4; is-custom-font: none; font-file-url: none; fill: rgb(230,230,230); fill-rule: nonzero; opacity: 1;" transform=" translate(-78.1013, -255.826)" d="M 89.192 249.928 c -5.703 -6.314 -36.182 -21.318 -29.225 -11.684 c 2.731 3.783 14.362 13.014 22.197 21.133 c 6.087 6.307 12.766 11.441 15.098 17.174 C 95.755 264.645 94.895 256.241 89.192 249.928 z" stroke-linecap="round"/>
</g>
		<g transform="matrix(1 0 0 1 -177.1012 36.3317)" id="Background_Complete">
<path style="stroke: none; stroke-width: 1; stroke-dasharray: none; stroke-linecap: butt; stroke-dashoffset: 0; stroke-linejoin: miter; stroke-miterlimit: 4; is-custom-font: none; font-file-url: none; fill: rgb(230,230,230); fill-rule: nonzero; opacity: 1;" transform=" translate(-72.8989, -286.3317)" d="M 97.003 272.114 c -8.332 -9.225 -69.06 -21.1 -53.454 -10.927 c 5.346 3.485 28.824 9.467 40.271 21.329 c 8.893 9.215 12.089 24.488 15.497 32.865 C 108.299 300.669 105.335 281.339 97.003 272.114 z" stroke-linecap="round"/>
</g>
		<g transform="matrix(1 0 0 1 -150.027 110.8308)" id="Background_Complete">
<path style="stroke: none; stroke-width: 1; stroke-dasharray: none; stroke-linecap: butt; stroke-dashoffset: 0; stroke-linejoin: miter; stroke-miterlimit: 4; is-custom-font: none; font-file-url: none; fill: rgb(245,245,245); fill-rule: nonzero; opacity: 1;" transform=" translate(-99.973, -360.8308)" d="M 86.6 349.728 l 0.78 27.592 c 0.085 5.234 1.304 5.077 2.78 5.077 h 19.627 c 1.476 0 2.695 0.157 2.78 -5.077 l 0.779 -27.592 c 0.092 -5.679 -1.179 -10.464 -2.78 -10.464 H 89.38 C 87.779 339.264 86.508 344.049 86.6 349.728 z" stroke-linecap="round"/>
</g>
		<g transform="matrix(1 0 0 1 -150.0285 90.9395)" id="Background_Complete">
<path style="stroke: none; stroke-width: 1; stroke-dasharray: none; stroke-linecap: butt; stroke-dashoffset: 0; stroke-linejoin: miter; stroke-miterlimit: 4; is-custom-font: none; font-file-url: none; fill: rgb(245,245,245); fill-rule: nonzero; opacity: 1;" transform=" translate(-99.9715, -340.9395)" d="M 85.425 344.287 h 29.093 c 0.427 0 0.786 -0.271 0.833 -0.629 l 0.691 -5.282 c 0.055 -0.419 -0.334 -0.784 -0.833 -0.784 H 84.734 c -0.499 0 -0.888 0.366 -0.833 0.784 l 0.691 5.282 C 84.639 344.016 84.998 344.287 85.425 344.287 z" stroke-linecap="round"/>
</g>
		<g transform="matrix(1 0 0 1 29.86 51.6385)" id="Background_Complete">
<rect style="stroke: none; stroke-width: 1; stroke-dasharray: none; stroke-linecap: butt; stroke-dashoffset: 0; stroke-linejoin: miter; stroke-miterlimit: 4; is-custom-font: none; font-file-url: none; fill: rgb(240,240,240); fill-rule: nonzero; opacity: 1;" x="-11.01" y="-74.0815" rx="0" ry="0" width="22.02" height="148.163"/>
</g>
		<g transform="matrix(1 0 0 1 106.5395 129.0595)" id="Background_Complete">
<rect style="stroke: none; stroke-width: 1; stroke-dasharray: none; stroke-linecap: butt; stroke-dashoffset: 0; stroke-linejoin: miter; stroke-miterlimit: 4; is-custom-font: none; font-file-url: none; fill: rgb(240,240,240); fill-rule: nonzero; opacity: 1;" x="-83.4615" y="-3.3395" rx="0" ry="0" width="166.923" height="6.679"/>
</g>
		<g transform="matrix(-1 0 0 -1 117.5501 51.638)" id="Background_Complete">
<rect style="stroke: none; stroke-width: 1; stroke-dasharray: none; stroke-linecap: butt; stroke-dashoffset: 0; stroke-linejoin: miter; stroke-miterlimit: 4; is-custom-font: none; font-file-url: none; fill: rgb(245,245,245); fill-rule: nonzero; opacity: 1;" x="-76.6795" y="-74.0815" rx="0" ry="0" width="153.359" height="148.163"/>
</g>
		<g transform="matrix(1 0 0 1 27.333 -25.357)" id="Background_Complete">
<rect style="stroke: none; stroke-width: 1; stroke-dasharray: none; stroke-linecap: butt; stroke-dashoffset: 0; stroke-linejoin: miter; stroke-miterlimit: 4; is-custom-font: none; font-file-url: none; fill: rgb(240,240,240); fill-rule: nonzero; opacity: 1;" x="-11.253" y="-2.914" rx="0" ry="0" width="22.506" height="5.828"/>
</g>
		<g transform="matrix(-1 0 0 -1 117.7926 -25.3575)" id="Background_Complete">
<rect style="stroke: none; stroke-width: 1; stroke-dasharray: none; stroke-linecap: butt; stroke-dashoffset: 0; stroke-linejoin: miter; stroke-miterlimit: 4; is-custom-font: none; font-file-url: none; fill: rgb(250,250,250); fill-rule: nonzero; opacity: 1;" x="-79.207" y="-2.914" rx="0" ry="0" width="158.414" height="5.828"/>
</g>
		<g transform="matrix(1 0 0 1 117.5495 18.706)" id="Background_Complete">
<path style="stroke: none; stroke-width: 1; stroke-dasharray: none; stroke-linecap: butt; stroke-dashoffset: 0; stroke-linejoin: miter; stroke-miterlimit: 4; is-custom-font: none; font-file-url: none; fill: rgb(224,224,224); fill-rule: nonzero; opacity: 1;" transform=" translate(-367.5495, -268.706)" d="M 436.202 297.512 H 298.897 V 239.9 h 137.305 V 297.512 z M 300.157 296.252 h 134.785 V 241.16 H 300.157 V 296.252 z" stroke-linecap="round"/>
</g>
		<g transform="matrix(1 0 0 1 117.5495 84.9725)" id="Background_Complete">
<path style="stroke: none; stroke-width: 1; stroke-dasharray: none; stroke-linecap: butt; stroke-dashoffset: 0; stroke-linejoin: miter; stroke-miterlimit: 4; is-custom-font: none; font-file-url: none; fill: rgb(224,224,224); fill-rule: nonzero; opacity: 1;" transform=" translate(-367.5495, -334.9725)" d="M 436.202 363.375 H 298.897 V 306.57 h 137.305 V 363.375 z M 300.157 362.115 h 134.785 V 307.83 H 300.157 V 362.115 z" stroke-linecap="round"/>
</g>
		<g transform="matrix(1 0 0 1 117.5495 -1.139)" id="Background_Complete">
<path style="stroke: none; stroke-width: 1; stroke-dasharray: none; stroke-linecap: butt; stroke-dashoffset: 0; stroke-linejoin: miter; stroke-miterlimit: 4; is-custom-font: none; font-file-url: none; fill: rgb(224,224,224); fill-rule: nonzero; opacity: 1;" transform=" translate(-367.5495, -248.861)" d="M 394.283 251.231 h -53.467 c -1.304 0 -2.37 -1.067 -2.37 -2.37 l 0 0 c 0 -1.304 1.067 -2.37 2.37 -2.37 h 53.467 c 1.304 0 2.37 1.067 2.37 2.37 l 0 0 C 396.654 250.165 395.587 251.231 394.283 251.231 z" stroke-linecap="round"/>
</g>
		<g transform="matrix(1 0 0 1 117.5495 65.531)" id="Background_Complete">
<path style="stroke: none; stroke-width: 1; stroke-dasharray: none; stroke-linecap: butt; stroke-dashoffset: 0; stroke-linejoin: miter; stroke-miterlimit: 4; is-custom-font: none; font-file-url: none; fill: rgb(224,224,224); fill-rule: nonzero; opacity: 1;" transform=" translate(-367.5495, -315.531)" d="M 394.283 317.901 h -53.467 c -1.304 0 -2.37 -1.067 -2.37 -2.37 v 0 c 0 -1.304 1.067 -2.37 2.37 -2.37 h 53.467 c 1.304 0 2.37 1.067 2.37 2.37 v 0 C 396.654 316.835 395.587 317.901 394.283 317.901 z" stroke-linecap="round"/>
</g>
		<g transform="matrix(1 0 0 1 144.791 -56.6835)" id="Background_Complete">
<polygon style="stroke: none; stroke-width: 1; stroke-dasharray: none; stroke-linecap: butt; stroke-dashoffset: 0; stroke-linejoin: miter; stroke-miterlimit: 4; is-custom-font: none; font-file-url: none; fill: rgb(230,230,230); fill-rule: nonzero; opacity: 1;" points="-34.381,28.3535 29.22,28.3535 34.381,-28.3535 -29.219,-28.3535 "/>
</g>
		<g transform="matrix(1 0 0 1 142.629 -56.6835)" id="Background_Complete">
<polygon style="stroke: none; stroke-width: 1; stroke-dasharray: none; stroke-linecap: butt; stroke-dashoffset: 0; stroke-linejoin: miter; stroke-miterlimit: 4; is-custom-font: none; font-file-url: none; fill: rgb(240,240,240); fill-rule: nonzero; opacity: 1;" points="-34.381,28.3535 29.22,28.3535 34.381,-28.3535 -29.22,-28.3535 "/>
</g>
		<g transform="matrix(1 0 0 1 142.63 -56.684)" id="Background_Complete">
<polygon style="stroke: none; stroke-width: 1; stroke-dasharray: none; stroke-linecap: butt; stroke-dashoffset: 0; stroke-linejoin: miter; stroke-miterlimit: 4; is-custom-font: none; font-file-url: none; fill: rgb(255,255,255); fill-rule: nonzero; opacity: 1;" points="23.513,22.076 27.532,-22.076 -23.514,-22.076 -27.532,22.076 "/>
</g>
		<g transform="matrix(1 0 0 1 109.038 -49.0345)" id="Background_Complete">
<polygon style="stroke: none; stroke-width: 1; stroke-dasharray: none; stroke-linecap: butt; stroke-dashoffset: 0; stroke-linejoin: miter; stroke-miterlimit: 4; is-custom-font: none; font-file-url: none; fill: rgb(230,230,230); fill-rule: nonzero; opacity: 1;" points="-13.357,-20.7045 -17.125,20.7045 13.356,20.7045 17.125,-20.7045 "/>
</g>
		<g transform="matrix(1 0 0 1 107.4585 -49.0345)" id="Background_Complete">
<polygon style="stroke: none; stroke-width: 1; stroke-dasharray: none; stroke-linecap: butt; stroke-dashoffset: 0; stroke-linejoin: miter; stroke-miterlimit: 4; is-custom-font: none; font-file-url: none; fill: rgb(240,240,240); fill-rule: nonzero; opacity: 1;" points="-13.3565,-20.7045 -17.1255,20.7045 13.3565,20.7045 17.1255,-20.7045 "/>
</g>
		<g transform="matrix(1 0 0 1 107.459 -49.0345)" id="Background_Complete">
<polygon style="stroke: none; stroke-width: 1; stroke-dasharray: none; stroke-linecap: butt; stroke-dashoffset: 0; stroke-linejoin: miter; stroke-miterlimit: 4; is-custom-font: none; font-file-url: none; fill: rgb(255,255,255); fill-rule: nonzero; opacity: 1;" points="-9.189,-16.1205 -12.124,16.1205 9.19,16.1205 12.124,-16.1205 "/>
</g>
		<g transform="matrix(1 0 0 1 -4.6545 -25.612)" id="Background_Simple">
<path style="stroke: none; stroke-width: 1; stroke-dasharray: none; stroke-linecap: butt; stroke-dashoffset: 0; stroke-linejoin: miter; stroke-miterlimit: 4; is-custom-font: none; font-file-url: none; fill: rgb(64,123,255); fill-rule: nonzero; opacity: 1; visibility: hidden;" transform=" translate(-245.3455, -224.3879)" d="M 189.586 179.028 c 68.101 15.122 164.032 -158.321 222.72 -44.618 c 47.878 92.758 -48.784 169.376 -125.267 165.638 c -77.747 -3.8 -149.843 118.909 -205.732 3.809 c -17.098 -35.214 -24.766 -89.86 0.829 -125.751 C 122.868 120.99 148.067 169.809 189.586 179.028 z" stroke-linecap="round"/>
</g>
		<g transform="matrix(1 0 0 1 -4.6545 -25.612)" id="Background_Simple">
<path style="stroke: none; stroke-width: 1; stroke-dasharray: none; stroke-linecap: butt; stroke-dashoffset: 0; stroke-linejoin: miter; stroke-miterlimit: 4; is-custom-font: none; font-file-url: none; fill: rgb(255,255,255); fill-rule: nonzero; opacity: 0.9; visibility: hidden;" transform=" translate(-245.3455, -224.3879)" d="M 189.586 179.028 c 68.101 15.122 164.032 -158.321 222.72 -44.618 c 47.878 92.758 -48.784 169.376 -125.267 165.638 c -77.747 -3.8 -149.843 118.909 -205.732 3.809 c -17.098 -35.214 -24.766 -89.86 0.829 -125.751 C 122.868 120.99 148.067 169.809 189.586 179.028 z" stroke-linecap="round"/>
</g>
		<g transform="matrix(1 0 0 1 0 166.238)" id="_x3C_Path_x3E__240_">
<ellipse style="stroke: none; stroke-width: 1; stroke-dasharray: none; stroke-linecap: butt; stroke-dashoffset: 0; stroke-linejoin: miter; stroke-miterlimit: 4; is-custom-font: none; font-file-url: none; fill: rgb(245,245,245); fill-rule: nonzero; opacity: 1;" cx="0" cy="0" rx="193.889" ry="11.323"/>
</g>
		<g transform="matrix(1 0 0 1 29.0807 -124.834)" id="Bubble">
<path style="stroke: none; stroke-width: 1; stroke-dasharray: none; stroke-linecap: butt; stroke-dashoffset: 0; stroke-linejoin: miter; stroke-miterlimit: 4; is-custom-font: none; font-file-url: none; fill: rgb(64,123,255); fill-rule: nonzero; opacity: 1;" transform=" translate(-279.0807, -125.166)" d="M 296.323 113.718 c -3.866 -9.791 -15.114 -14.472 -24.837 -10.176 c -8.511 3.76 -13.138 14.687 -9.926 23.42 c 1.694 4.604 5.002 8.119 9.035 10.166 c 1.723 0.875 3.235 2.114 4.258 3.754 l 2.635 4.223 c 1.783 2.856 5.351 4.033 8.483 2.796 l 6.659 -2.629 c 3.132 -1.236 4.934 -4.533 4.285 -7.837 l -0.996 -5.066 c -0.352 -1.79 -0.107 -3.621 0.53 -5.33 C 297.998 122.884 298.079 118.167 296.323 113.718 z" stroke-linecap="round"/>
</g>
		<g transform="matrix(1 0 0 1 41.227 -98.5341)" id="Bubble">
<path style="stroke: none; stroke-width: 1; stroke-dasharray: none; stroke-linecap: butt; stroke-dashoffset: 0; stroke-linejoin: miter; stroke-miterlimit: 4; is-custom-font: none; font-file-url: none; fill: rgb(38,50,56); fill-rule: nonzero; opacity: 1;" transform=" translate(-291.227, -151.4659)" d="M 286.817 156.318 c -0.421 0 -0.843 -0.087 -1.241 -0.26 c -0.765 -0.332 -1.352 -0.938 -1.656 -1.708 c -0.629 -1.595 0.156 -3.404 1.751 -4.034 l 8.828 -3.485 c 0.77 -0.304 1.615 -0.288 2.378 0.042 c 0.765 0.332 1.353 0.938 1.656 1.708 c 0.305 0.77 0.289 1.614 -0.042 2.378 c -0.332 0.765 -0.938 1.352 -1.708 1.656 l -8.829 3.485 C 287.587 156.246 287.202 156.318 286.817 156.318 z M 295.636 147.614 c -0.261 0 -0.52 0.049 -0.77 0.146 l -8.828 3.485 c -1.082 0.428 -1.615 1.655 -1.188 2.737 c 0.206 0.521 0.605 0.933 1.124 1.157 c 0.518 0.226 1.091 0.235 1.613 0.03 l 8.829 -3.485 c 0.522 -0.206 0.933 -0.605 1.157 -1.124 c 0.226 -0.518 0.236 -1.092 0.03 -1.613 c -0.206 -0.521 -0.605 -0.933 -1.124 -1.157 C 296.208 147.673 295.922 147.614 295.636 147.614 z" stroke-linecap="round"/>
</g>
		<g transform="matrix(1 0 0 1 43.994 -91.5241)" id="Bubble">
<path style="stroke: none; stroke-width: 1; stroke-dasharray: none; stroke-linecap: butt; stroke-dashoffset: 0; stroke-linejoin: miter; stroke-miterlimit: 4; is-custom-font: none; font-file-url: none; fill: rgb(38,50,56); fill-rule: nonzero; opacity: 1;" transform=" translate(-293.9941, -158.476)" d="M 291.315 161.696 c -0.262 0 -0.524 -0.054 -0.773 -0.161 c -0.476 -0.207 -0.842 -0.585 -1.031 -1.064 l -0.154 -0.389 c -0.392 -0.993 0.098 -2.121 1.091 -2.514 l 5.516 -2.178 c 0.994 -0.389 2.121 0.097 2.513 1.09 l 0.153 0.391 c 0.19 0.479 0.181 1.005 -0.025 1.48 c -0.206 0.476 -0.584 0.842 -1.064 1.031 l -5.516 2.178 C 291.795 161.651 291.556 161.696 291.315 161.696 z M 296.674 156.255 c -0.114 0 -0.23 0.021 -0.343 0.065 l -5.516 2.178 c -0.48 0.191 -0.718 0.735 -0.528 1.216 l 0.154 0.389 c 0.092 0.233 0.268 0.415 0.499 0.515 c 0.231 0.101 0.485 0.104 0.717 0.014 l 5.516 -2.178 c 0.232 -0.092 0.414 -0.268 0.515 -0.5 c 0.1 -0.23 0.104 -0.484 0.013 -0.716 l -0.153 -0.391 C 297.401 156.48 297.048 156.255 296.674 156.255 z" stroke-linecap="round"/>
</g>
		<g transform="matrix(1 0 0 1 25.4639 -122.2934)" id="Bubble">
<path style="stroke: none; stroke-width: 1; stroke-dasharray: none; stroke-linecap: butt; stroke-dashoffset: 0; stroke-linejoin: miter; stroke-miterlimit: 4; is-custom-font: none; font-file-url: none; fill: rgb(255,255,255); fill-rule: nonzero; opacity: 1;" transform=" translate(-275.4638, -127.7066)" d="M 274.911 131.457 c -1.495 0 -2.912 -0.9 -3.493 -2.374 c -0.76 -1.924 0.188 -4.106 2.111 -4.865 c 1.926 -0.759 4.106 0.189 4.865 2.111 l 1.378 3.488 l -3.488 1.377 C 275.834 131.372 275.368 131.457 274.911 131.457 z M 274.903 124.955 c -0.336 0 -0.677 0.063 -1.007 0.192 c -1.411 0.557 -2.105 2.158 -1.549 3.568 c 0.558 1.41 2.159 2.105 3.569 1.549 l 2.559 -1.01 l -1.011 -2.559 C 277.038 125.616 276 124.955 274.903 124.955 z" stroke-linecap="round"/>
</g>
		<g transform="matrix(1 0 0 1 35.668 -112.613)" id="Bubble">
<polygon style="stroke: none; stroke-width: 1; stroke-dasharray: none; stroke-linecap: butt; stroke-dashoffset: 0; stroke-linejoin: miter; stroke-miterlimit: 4; is-custom-font: none; font-file-url: none; fill: rgb(255,255,255); fill-rule: nonzero; opacity: 1;" points="0.303,10.853 -7.193,-8.132 -0.302,-10.853 7.193,8.133 6.263,8.5 -0.864,-9.556 -5.896,-7.57 1.232,10.486 "/>
</g>
		<g transform="matrix(1 0 0 1 36.9145 -126.4778)" id="Bubble">
<path style="stroke: none; stroke-width: 1; stroke-dasharray: none; stroke-linecap: butt; stroke-dashoffset: 0; stroke-linejoin: miter; stroke-miterlimit: 4; is-custom-font: none; font-file-url: none; fill: rgb(255,255,255); fill-rule: nonzero; opacity: 1;" transform=" translate(-286.9145, -123.5221)" d="M 284.804 127.831 l -1.378 -3.488 c -0.76 -1.924 0.188 -4.107 2.111 -4.866 c 1.922 -0.763 4.106 0.187 4.866 2.111 c 0.76 1.924 -0.188 4.107 -2.111 4.866 L 284.804 127.831 z M 286.911 120.214 c -0.335 0 -0.677 0.063 -1.007 0.192 c -1.411 0.558 -2.105 2.158 -1.549 3.569 l 1.011 2.559 l 2.559 -1.01 c 1.411 -0.558 2.105 -2.158 1.549 -3.569 C 289.047 120.875 288.008 120.214 286.911 120.214 z" stroke-linecap="round"/>
</g>
		<g transform="matrix(1 0 0 1 44.729 -75.4565)" id="Bubble">
<path style="stroke: none; stroke-width: 1; stroke-dasharray: none; stroke-linecap: butt; stroke-dashoffset: 0; stroke-linejoin: miter; stroke-miterlimit: 4; is-custom-font: none; font-file-url: none; fill: rgb(64,123,255); fill-rule: nonzero; opacity: 1;" transform=" translate(-294.729, -174.5435)" d="M 300.334 175.492 c -3.783 0 -7.555 -0.307 -11.21 -0.911 l 0.164 -0.986 c 3.601 0.596 7.317 0.898 11.046 0.898 V 175.492 z" stroke-linecap="round"/>
</g>
		<g transform="matrix(1 0 0 1 50.3325 -103.6385)" id="Bubble">
<path style="stroke: none; stroke-width: 1; stroke-dasharray: none; stroke-linecap: butt; stroke-dashoffset: 0; stroke-linejoin: miter; stroke-miterlimit: 4; is-custom-font: none; font-file-url: none; fill: rgb(64,123,255); fill-rule: nonzero; opacity: 1;" transform=" translate(-300.3325, -146.3615)" d="M 321.022 185.846 l 0.529 -1.079 c 2.191 -4.463 1.959 -9.699 1.051 -13.063 c -3.791 1.374 -7.817 2.389 -11.977 3.02 l -0.15 -0.988 c 4.277 -0.648 8.41 -1.71 12.284 -3.154 l 0.497 -0.185 l 0.155 0.506 c 0.999 3.246 1.41 8.508 -0.475 13.208 c 12.288 -4.886 25.119 -22.246 25.119 -42.926 c 0 -18.366 -21.408 -33.308 -47.723 -33.308 c -26.313 0 -47.722 14.941 -47.722 33.308 c 0 13.348 11.369 25.372 28.965 30.633 l -0.287 0.959 c -18.028 -5.391 -29.678 -17.791 -29.678 -31.592 c 0 -18.917 21.856 -34.308 48.722 -34.308 c 26.866 0 48.723 15.391 48.723 34.308 c 0 21.738 -13.961 39.908 -26.895 44.276 L 321.022 185.846 z" stroke-linecap="round"/>
</g>
		<g transform="matrix(1 0 0 1 84.6475 -117.42)" id="Bubble">
<path style="stroke: none; stroke-width: 1; stroke-dasharray: none; stroke-linecap: butt; stroke-dashoffset: 0; stroke-linejoin: miter; stroke-miterlimit: 4; is-custom-font: none; font-file-url: none; fill: rgb(64,123,255); fill-rule: nonzero; opacity: 1;" transform=" translate(-334.6475, -132.58)" d="M 353.854 143.857 l -33.322 5.951 c -2.38 0.425 -4.674 -1.174 -5.099 -3.554 l -3.546 -19.852 c -0.425 -2.38 1.174 -4.674 3.554 -5.099 l 33.322 -5.951 c 2.38 -0.425 4.674 1.174 5.099 3.554 l 3.546 19.852 C 357.833 141.137 356.234 143.432 353.854 143.857 z" stroke-linecap="round"/>
</g>
		<g transform="matrix(1 0 0 1 84.8605 -116.6015)" id="Bubble">
<polygon style="stroke: none; stroke-width: 1; stroke-dasharray: none; stroke-linecap: butt; stroke-dashoffset: 0; stroke-linejoin: miter; stroke-miterlimit: 4; is-custom-font: none; font-file-url: none; fill: rgb(255,255,255); fill-rule: nonzero; opacity: 1;" points="5.8955,-1.9095 -5.8955,-6.1715 -3.6915,6.1715 "/>
</g>
		<g transform="matrix(1 0 0 1 -77.218 52.1225)" id="Character_1_">
<path style="stroke: none; stroke-width: 1; stroke-dasharray: none; stroke-linecap: butt; stroke-dashoffset: 0; stroke-linejoin: miter; stroke-miterlimit: 4; is-custom-font: none; font-file-url: none; fill: rgb(64,123,255); fill-rule: nonzero; opacity: 1;" transform=" translate(-172.782, -302.1225)" d="M 215.266 307.578 h -84.968 c -1.752 0 -3.186 -1.434 -3.186 -3.186 v -4.539 c 0 -1.752 1.434 -3.186 3.186 -3.186 h 84.968 c 1.752 0 3.186 1.434 3.186 3.186 v 4.539 C 218.453 306.145 217.019 307.578 215.266 307.578 z" stroke-linecap="round"/>
</g>
		<g transform="matrix(1 0 0 1 -36.378 108.9095)" id="Character_1_">
<polygon style="stroke: none; stroke-width: 1; stroke-dasharray: none; stroke-linecap: butt; stroke-dashoffset: 0; stroke-linejoin: miter; stroke-miterlimit: 4; is-custom-font: none; font-file-url: none; fill: rgb(64,123,255); fill-rule: nonzero; opacity: 1;" points="0.677,51.3315 3.211,51.3315 0.294,-51.3315 -3.211,-51.3315 "/>
</g>
		<g transform="matrix(1 0 0 1 -36.378 108.9095)" id="Character_1_">
<polygon style="stroke: none; stroke-width: 1; stroke-dasharray: none; stroke-linecap: butt; stroke-dashoffset: 0; stroke-linejoin: miter; stroke-miterlimit: 4; is-custom-font: none; font-file-url: none; fill: rgb(255,255,255); fill-rule: nonzero; opacity: 0.3;" points="0.677,51.3315 3.211,51.3315 0.294,-51.3315 -3.211,-51.3315 "/>
</g>
		<g transform="matrix(1 0 0 1 -58.3485 108.9095)" id="Character_1_">
<polygon style="stroke: none; stroke-width: 1; stroke-dasharray: none; stroke-linecap: butt; stroke-dashoffset: 0; stroke-linejoin: miter; stroke-miterlimit: 4; is-custom-font: none; font-file-url: none; fill: rgb(64,123,255); fill-rule: nonzero; opacity: 1;" points="-0.6775,51.3315 -3.2115,51.3315 -0.2945,-51.3315 3.2115,-51.3315 "/>
</g>
		<g transform="matrix(1 0 0 1 -58.3485 108.9095)" id="Character_1_">
<polygon style="stroke: none; stroke-width: 1; stroke-dasharray: none; stroke-linecap: butt; stroke-dashoffset: 0; stroke-linejoin: miter; stroke-miterlimit: 4; is-custom-font: none; font-file-url: none; fill: rgb(255,255,255); fill-rule: nonzero; opacity: 0.3;" points="-0.6775,51.3315 -3.2115,51.3315 -0.2945,-51.3315 3.2115,-51.3315 "/>
</g>
		<g transform="matrix(1 0 0 1 -96.0865 108.9095)" id="Character_1_">
<polygon style="stroke: none; stroke-width: 1; stroke-dasharray: none; stroke-linecap: butt; stroke-dashoffset: 0; stroke-linejoin: miter; stroke-miterlimit: 4; is-custom-font: none; font-file-url: none; fill: rgb(64,123,255); fill-rule: nonzero; opacity: 1;" points="0.6775,51.3315 3.2115,51.3315 0.2945,-51.3315 -3.2115,-51.3315 "/>
</g>
		<g transform="matrix(1 0 0 1 -96.0865 108.9095)" id="Character_1_">
<polygon style="stroke: none; stroke-width: 1; stroke-dasharray: none; stroke-linecap: butt; stroke-dashoffset: 0; stroke-linejoin: miter; stroke-miterlimit: 4; is-custom-font: none; font-file-url: none; fill: rgb(255,255,255); fill-rule: nonzero; opacity: 0.3;" points="0.6775,51.3315 3.2115,51.3315 0.2945,-51.3315 -3.2115,-51.3315 "/>
</g>
		<g transform="matrix(1 0 0 1 -118.057 108.9095)" id="Character_1_">
<polygon style="stroke: none; stroke-width: 1; stroke-dasharray: none; stroke-linecap: butt; stroke-dashoffset: 0; stroke-linejoin: miter; stroke-miterlimit: 4; is-custom-font: none; font-file-url: none; fill: rgb(64,123,255); fill-rule: nonzero; opacity: 1;" points="-0.677,51.3315 -3.211,51.3315 -0.295,-51.3315 3.211,-51.3315 "/>
</g>
		<g transform="matrix(1 0 0 1 -118.057 108.9095)" id="Character_1_">
<polygon style="stroke: none; stroke-width: 1; stroke-dasharray: none; stroke-linecap: butt; stroke-dashoffset: 0; stroke-linejoin: miter; stroke-miterlimit: 4; is-custom-font: none; font-file-url: none; fill: rgb(255,255,255); fill-rule: nonzero; opacity: 0.3;" points="-0.677,51.3315 -3.211,51.3315 -0.295,-51.3315 3.211,-51.3315 "/>
</g>
		<g transform="matrix(1 0 0 1 -7.885 122.095)" id="Character_1_">
<polygon style="stroke: none; stroke-width: 1; stroke-dasharray: none; stroke-linecap: butt; stroke-dashoffset: 0; stroke-linejoin: miter; stroke-miterlimit: 4; is-custom-font: none; font-file-url: none; fill: rgb(255,195,189); fill-rule: nonzero; opacity: 1;" points="-0.8,12.059 8.213,9.001 0.8,-12.059 -8.213,-9 "/>
</g>
		<g transform="matrix(1 0 0 1 3.6225 134.0584)" id="Character_1_">
<path style="stroke: none; stroke-width: 1; stroke-dasharray: none; stroke-linecap: butt; stroke-dashoffset: 0; stroke-linejoin: miter; stroke-miterlimit: 4; is-custom-font: none; font-file-url: none; fill: rgb(38,50,56); fill-rule: nonzero; opacity: 1;" transform=" translate(-253.6224, -384.0584)" d="M 249.664 377.619 l -9.888 4.337 c -0.36 0.158 -0.496 0.514 -0.328 0.856 l 3.751 7.622 c 0.389 0.79 1.566 1.184 2.387 0.807 c 3.411 -1.566 4.946 -2.479 9.294 -4.386 c 2.675 -1.173 8.071 -3.266 11.408 -5.413 c 3.264 -2.1 0.719 -5.255 -0.922 -4.63 c -3.887 1.479 -10.352 1.415 -13.892 0.656 C 250.834 377.33 250.191 377.388 249.664 377.619 z" stroke-linecap="round"/>
</g>
		<g transform="matrix(1 0 0 1 -9.4725 117.3745)" id="Character_1_">
<polygon style="stroke: none; stroke-width: 1; stroke-dasharray: none; stroke-linecap: butt; stroke-dashoffset: 0; stroke-linejoin: miter; stroke-miterlimit: 4; is-custom-font: none; font-file-url: none; fill: rgb(0,0,0); fill-rule: nonzero; opacity: 0.2;" points="-6.6255,-4.2735 2.3915,-7.3335 6.6255,4.7115 -2.5455,7.3335 "/>
</g>
		<g transform="matrix(1 0 0 1 -54.3191 69.5775)" id="Character_1_">
<path style="stroke: none; stroke-width: 1; stroke-dasharray: none; stroke-linecap: butt; stroke-dashoffset: 0; stroke-linejoin: miter; stroke-miterlimit: 4; is-custom-font: none; font-file-url: none; fill: rgb(38,50,56); fill-rule: nonzero; opacity: 1;" transform=" translate(-195.6808, -319.5775)" d="M 177.425 268.191 c 0 0 45.023 8.121 48.627 22.898 c 7.127 29.225 23.206 74.921 23.206 74.921 l -17.123 4.955 c 0 0 -24.474 -52.402 -27.558 -70.043 c -25.243 -0.025 -56.024 2.04 -59.998 -8.686 c -3.511 -9.475 -2.258 -24.046 -2.258 -24.046 H 177.425 z" stroke-linecap="round"/>
</g>
		<g transform="matrix(1 0 0 1 -10.5615 116.1895)" id="Character_1_">
<polygon style="stroke: none; stroke-width: 1; stroke-dasharray: none; stroke-linecap: butt; stroke-dashoffset: 0; stroke-linejoin: miter; stroke-miterlimit: 4; is-custom-font: none; font-file-url: none; fill: rgb(64,123,255); fill-rule: nonzero; opacity: 1;" points="-8.2425,7.8155 11.7625,1.2135 10.0555,-7.8155 -11.7625,-0.1415 "/>
</g>
		<g transform="matrix(1 0 0 1 -45.498 125.822)" id="Character_1_">
<polygon style="stroke: none; stroke-width: 1; stroke-dasharray: none; stroke-linecap: butt; stroke-dashoffset: 0; stroke-linejoin: miter; stroke-miterlimit: 4; is-custom-font: none; font-file-url: none; fill: rgb(255,195,189); fill-rule: nonzero; opacity: 1;" points="-2.394,11.531 7.57,12.289 1.714,-12.289 -7.57,-10.188 "/>
</g>
		<g transform="matrix(1 0 0 1 -36.5039 140.935)" id="Character_1_">
<path style="stroke: none; stroke-width: 1; stroke-dasharray: none; stroke-linecap: butt; stroke-dashoffset: 0; stroke-linejoin: miter; stroke-miterlimit: 4; is-custom-font: none; font-file-url: none; fill: rgb(38,50,56); fill-rule: nonzero; opacity: 1;" transform=" translate(-213.4961, -390.935)" d="M 211.818 385.708 l -10.732 -1.186 c -0.391 -0.043 -0.686 0.197 -0.711 0.577 l -0.561 8.476 c -0.058 0.879 0.764 1.808 1.664 1.892 c 3.737 0.348 5.523 0.324 10.242 0.846 c 2.904 0.321 8.623 1.205 12.586 1.013 c 3.876 -0.188 3.25 -4.193 1.515 -4.472 c -4.106 -0.661 -9.674 -3.948 -12.361 -6.375 C 212.975 386.043 212.389 385.772 211.818 385.708 z" stroke-linecap="round"/>
</g>
		<g transform="matrix(1 0 0 1 -46.9475 120.5745)" id="Character_1_">
<polygon style="stroke: none; stroke-width: 1; stroke-dasharray: none; stroke-linecap: butt; stroke-dashoffset: 0; stroke-linejoin: miter; stroke-miterlimit: 4; is-custom-font: none; font-file-url: none; fill: rgb(0,0,0); fill-rule: nonzero; opacity: 0.2;" points="-6.1205,-4.9335 3.1665,-7.0355 6.1205,5.3845 -3.2735,7.0355 "/>
</g>
		<g transform="matrix(1 0 0 1 -81.0611 70.7345)" id="Character_1_">
<path style="stroke: none; stroke-width: 1; stroke-dasharray: none; stroke-linecap: butt; stroke-dashoffset: 0; stroke-linejoin: miter; stroke-miterlimit: 4; is-custom-font: none; font-file-url: none; fill: rgb(38,50,56); fill-rule: nonzero; opacity: 1;" transform=" translate(-168.9388, -320.7345)" d="M 154.039 268.191 c 0 0 54.709 8.193 52.204 28.898 c -3.613 29.863 5.658 73.047 5.658 73.047 l -17.546 3.142 c 0 0 -12.908 -53.682 -13.023 -71.589 c -17.801 0 -48.906 1.274 -52.88 -9.452 c -3.511 -9.475 -2.258 -24.046 -2.258 -24.046 H 154.039 z" stroke-linecap="round"/>
</g>
		<g transform="matrix(1 0 0 1 -47.94 119.385)" id="Character_1_">
<polygon style="stroke: none; stroke-width: 1; stroke-dasharray: none; stroke-linecap: butt; stroke-dashoffset: 0; stroke-linejoin: miter; stroke-miterlimit: 4; is-custom-font: none; font-file-url: none; fill: rgb(64,123,255); fill-rule: nonzero; opacity: 1;" points="-8.957,6.818 11.628,2.339 10.872,-6.818 -11.628,-1.463 "/>
</g>
		<g transform="matrix(1 0 0 1 -57.7515 -11.9316)" id="Character_1_">
<path style="stroke: none; stroke-width: 1; stroke-dasharray: none; stroke-linecap: butt; stroke-dashoffset: 0; stroke-linejoin: miter; stroke-miterlimit: 4; is-custom-font: none; font-file-url: none; fill: rgb(255,195,189); fill-rule: nonzero; opacity: 1;" transform=" translate(-192.2485, -238.0684)" d="M 182.862 210.64 c 1.462 5.717 2.888 11.489 4.289 17.236 c 1.403 5.747 2.772 11.511 4.217 17.19 l 1.09 4.235 l 0.563 2.083 l 0.286 1.035 l 0.036 0.129 l 0.018 0.065 c 0.008 0.026 -0.03 -0.093 -0.046 -0.131 c -0.087 -0.234 -0.208 -0.456 -0.286 -0.595 c -0.044 -0.077 -0.102 -0.161 -0.147 -0.224 c -0.035 -0.053 -0.073 -0.104 -0.113 -0.154 c -0.096 -0.112 -0.138 -0.162 -0.197 -0.219 c -0.215 -0.202 -0.243 -0.17 -0.194 -0.117 c 0.045 0.059 0.2 0.171 0.363 0.29 c 0.353 0.243 0.839 0.519 1.378 0.782 c 1.082 0.535 2.344 1.022 3.627 1.521 c 5.206 1.929 10.947 3.568 16.527 5.345 l -0.878 6.379 c -3.115 0.04 -6.135 -0.097 -9.206 -0.363 c -3.065 -0.271 -6.129 -0.659 -9.273 -1.295 c -1.581 -0.309 -3.165 -0.71 -4.856 -1.26 c -0.847 -0.279 -1.725 -0.605 -2.687 -1.059 c -0.491 -0.236 -0.984 -0.492 -1.549 -0.861 c -0.561 -0.372 -1.175 -0.806 -1.891 -1.559 c -0.182 -0.197 -0.352 -0.382 -0.551 -0.649 l -0.277 -0.38 c -0.095 -0.141 -0.196 -0.308 -0.287 -0.465 c -0.179 -0.296 -0.367 -0.692 -0.522 -1.099 l -0.168 -0.466 l -0.384 -1.095 l -0.751 -2.184 c -0.486 -1.451 -0.97 -2.893 -1.411 -4.337 c -1.814 -5.774 -3.455 -11.532 -5.019 -17.316 c -1.555 -5.788 -3.002 -11.572 -4.339 -17.428 L 182.862 210.64 z" stroke-linecap="round"/>
</g>
		<g transform="matrix(1 0 0 1 -73.7994 -33.7249)" id="Character_1_">
<path style="stroke: none; stroke-width: 1; stroke-dasharray: none; stroke-linecap: butt; stroke-dashoffset: 0; stroke-linejoin: miter; stroke-miterlimit: 4; is-custom-font: none; font-file-url: none; fill: rgb(64,123,255); fill-rule: nonzero; opacity: 1;" transform=" translate(-176.2006, -216.2751)" d="M 168.798 203.724 c 5.489 -6.123 14.196 -1.844 17.861 11.852 c 1.783 6.664 1.223 10.146 1.223 10.146 l -18.945 5.833 C 164.87 222.559 161.328 212.057 168.798 203.724 z" stroke-linecap="round"/>
</g>
		<g transform="matrix(1 0 0 1 -73.7994 -33.7249)" id="Character_1_">
<path style="stroke: none; stroke-width: 1; stroke-dasharray: none; stroke-linecap: butt; stroke-dashoffset: 0; stroke-linejoin: miter; stroke-miterlimit: 4; is-custom-font: none; font-file-url: none; fill: rgb(0,0,0); fill-rule: nonzero; opacity: 0.2;" transform=" translate(-176.2006, -216.2751)" d="M 168.798 203.724 c 5.489 -6.123 14.196 -1.844 17.861 11.852 c 1.783 6.664 1.223 10.146 1.223 10.146 l -18.945 5.833 C 164.87 222.559 161.328 212.057 168.798 203.724 z" stroke-linecap="round"/>
</g>
		<g transform="matrix(1 0 0 1 -32.106 10.8483)" id="Character_1_">
<path style="stroke: none; stroke-width: 1; stroke-dasharray: none; stroke-linecap: butt; stroke-dashoffset: 0; stroke-linejoin: miter; stroke-miterlimit: 4; is-custom-font: none; font-file-url: none; fill: rgb(255,195,189); fill-rule: nonzero; opacity: 1;" transform=" translate(-217.894, -260.8483)" d="M 224.154 256.503 l -1.701 -0.522 c -1.028 -0.316 -2.111 -0.414 -3.18 -0.288 l -3.654 0.43 c -2.449 0.621 -4.506 2.197 -5.569 4.268 l -1.24 2.415 c 0.622 4.467 9.664 3.031 9.664 3.031 h 8.504 l -0.281 -6.056 C 226.626 258.261 225.609 256.949 224.154 256.503 z" stroke-linecap="round"/>
</g>
		<g transform="matrix(1 0 0 1 -25.9271 4.5028)" id="Character_1_">
<path style="stroke: none; stroke-width: 1; stroke-dasharray: none; stroke-linecap: butt; stroke-dashoffset: 0; stroke-linejoin: miter; stroke-miterlimit: 4; is-custom-font: none; font-file-url: none; fill: rgb(38,50,56); fill-rule: nonzero; opacity: 1;" transform=" translate(-224.0729, -254.5028)" d="M 230.018 246.744 c -0.172 1.834 -1.136 3.131 -2.067 4.452 c -0.91 1.334 -1.846 2.65 -2.797 3.957 c -1.915 2.604 -3.865 5.183 -6.012 7.629 c -0.212 0.241 -0.579 0.265 -0.82 0.053 c -0.204 -0.179 -0.252 -0.469 -0.134 -0.7 c 1.478 -2.9 3.153 -5.666 4.864 -8.408 c 0.862 -1.366 1.738 -2.723 2.641 -4.062 c 0.882 -1.353 1.731 -2.729 3.371 -3.567 c 0.324 -0.165 0.72 -0.037 0.885 0.286 C 230.008 246.499 230.03 246.623 230.018 246.744 z" stroke-linecap="round"/>
</g>
		<g transform="matrix(1 0 0 1 -94.8744 -18.8629)" id="Character_1_">
<path style="stroke: none; stroke-width: 1; stroke-dasharray: none; stroke-linecap: butt; stroke-dashoffset: 0; stroke-linejoin: miter; stroke-miterlimit: 4; is-custom-font: none; font-file-url: none; fill: rgb(64,123,255); fill-rule: nonzero; opacity: 1;" transform=" translate(-155.1256, -231.1372)" d="M 170.07 197.788 l -10.674 -3.045 l -13.728 -0.648 c -4.283 -0.202 -8.153 2.487 -9.49 6.56 c -2.618 7.975 -5.025 19.529 -6.779 29.499 c -1.967 11.18 -2.991 22.764 -3.207 38.036 h 51.232 c 1.044 -28.456 4.392 -42.354 6.375 -52.424 c 1.211 -6.149 -1.888 -12.337 -7.547 -15.033 L 170.07 197.788 z" stroke-linecap="round"/>
</g>
		<g transform="matrix(1 0 0 1 -85.9315 -43.576)" id="Character_1_">
<path style="stroke: none; stroke-width: 1; stroke-dasharray: none; stroke-linecap: butt; stroke-dashoffset: 0; stroke-linejoin: miter; stroke-miterlimit: 4; is-custom-font: none; font-file-url: none; fill: rgb(255,255,255); fill-rule: nonzero; opacity: 1;" transform=" translate(-164.0685, -206.424)" d="M 155.755 199.792 c 1.302 3.343 6.337 10.474 12.189 13.264 c 3.248 -2.346 3.944 -7.472 4.438 -9.875 L 155.755 199.792 z" stroke-linecap="round"/>
</g>
		<g transform="matrix(1 0 0 1 -85.0787 -56.006)" id="Character_1_">
<path style="stroke: none; stroke-width: 1; stroke-dasharray: none; stroke-linecap: butt; stroke-dashoffset: 0; stroke-linejoin: miter; stroke-miterlimit: 4; is-custom-font: none; font-file-url: none; fill: rgb(255,195,189); fill-rule: nonzero; opacity: 1;" transform=" translate(-164.9213, -193.994)" d="M 172.383 203.181 c 0.281 -1.369 0.303 -2.773 -0.442 -3.938 c -0.831 -1.3 -0.622 -2.79 0.208 -4.321 c 0.541 -0.999 2.027 -3.13 2.449 -3.332 l -6.711 -7.853 l -5.472 -6.333 c -0.468 5.926 -0.927 13.274 -5.603 17.878 c -1.651 1.625 -1.988 2.119 -1.057 4.51 c 1.302 3.343 5.952 8.002 11.805 10.792 C 170.808 208.238 171.889 205.583 172.383 203.181 z" stroke-linecap="round"/>
</g>
		<g transform="matrix(1 0 0 1 -78.9204 -60.227)" id="Character_1_">
<path style="stroke: none; stroke-width: 1; stroke-dasharray: none; stroke-linecap: butt; stroke-dashoffset: 0; stroke-linejoin: miter; stroke-miterlimit: 4; is-custom-font: none; font-file-url: none; fill: rgb(0,0,0); fill-rule: nonzero; opacity: 0.2;" transform=" translate(-171.0795, -189.773)" d="M 172.537 190.245 l -3.784 -6.151 c -0.077 0.153 -0.167 0.33 -0.257 0.507 c -0.296 0.66 -0.592 1.485 -0.811 2.356 c -0.695 2.733 1.622 6.633 4.17 8.495 c 0.103 -0.177 0.193 -0.354 0.296 -0.53 c 0.476 -0.896 1.83 -2.851 2.294 -3.228 c 0.051 -0.047 0.103 -0.083 0.154 -0.106 L 172.537 190.245 z" stroke-linecap="round"/>
</g>
		<g transform="matrix(1 0 0 1 -61.7134 -80.5193)" id="Character_1_">
<path style="stroke: none; stroke-width: 1; stroke-dasharray: none; stroke-linecap: butt; stroke-dashoffset: 0; stroke-linejoin: miter; stroke-miterlimit: 4; is-custom-font: none; font-file-url: none; fill: rgb(38,50,56); fill-rule: nonzero; opacity: 1;" transform=" translate(-188.2866, -169.4807)" d="M 185.784 175.542 c 0.876 5.671 8.991 -8.921 4.458 -12.125 C 184.701 159.5 184.118 164.75 185.784 175.542 z" stroke-linecap="round"/>
</g>
		<g transform="matrix(1 0 0 1 -74.1447 -75.4406)" id="Character_1_">
<path style="stroke: none; stroke-width: 1; stroke-dasharray: none; stroke-linecap: butt; stroke-dashoffset: 0; stroke-linejoin: miter; stroke-miterlimit: 4; is-custom-font: none; font-file-url: none; fill: rgb(255,195,189); fill-rule: nonzero; opacity: 1;" transform=" translate(-175.8553, -174.5594)" d="M 162.673 168.143 c -0.519 9.208 -1.309 14.562 2.917 19.88 c 6.357 7.999 18.572 5.361 21.936 -3.455 c 3.028 -7.935 3.368 -21.66 -5.48 -26.517 C 173.33 153.265 163.193 158.935 162.673 168.143 z" stroke-linecap="round"/>
</g>
		<g transform="matrix(1 0 0 1 -76.4633 -85.4595)" id="Character_1_">
<path style="stroke: none; stroke-width: 1; stroke-dasharray: none; stroke-linecap: butt; stroke-dashoffset: 0; stroke-linejoin: miter; stroke-miterlimit: 4; is-custom-font: none; font-file-url: none; fill: rgb(38,50,56); fill-rule: nonzero; opacity: 1;" transform=" translate(-173.5367, -164.5404)" d="M 180.819 162.611 c 0 0 5.893 5.778 10.088 3.389 c 4.188 -2.386 5.056 -8.576 0 -14 c -2.43 -2.607 -6.109 -5.159 -13.331 -4.958 c 0.528 0.694 2.042 1.25 2.042 1.25 s -9.153 -1.532 -15.542 1.097 c 0 0 0.833 1.278 2.042 1.861 c -6.208 -0.472 -12.244 1.958 -7.955 7.833 c -5.628 0.542 -6.892 7.75 -3.892 12.5 s 3.528 8.306 7.542 10.467 c 0.041 -6.467 1.486 -7.995 1.486 -7.995 c 2.889 -1.222 6.222 -7.389 5.556 -10.5 C 174.909 166 181.499 166.819 180.819 162.611 z" stroke-linecap="round"/>
</g>
		<g transform="matrix(1 0 0 1 -92.7276 -93.2775)" id="Character_1_">
<path style="stroke: none; stroke-width: 1; stroke-dasharray: none; stroke-linecap: butt; stroke-dashoffset: 0; stroke-linejoin: miter; stroke-miterlimit: 4; is-custom-font: none; font-file-url: none; fill: rgb(38,50,56); fill-rule: nonzero; opacity: 1;" transform=" translate(-157.2725, -156.7225)" d="M 159.52 158.833 c -1.76 -1.452 -3.278 -2.771 -4.394 -5.555 c -0.717 3.222 2.616 6.889 2.616 6.889 L 159.52 158.833 z" stroke-linecap="round"/>
</g>
		<g transform="matrix(1 0 0 1 -88.2374 -75.4354)" id="Character_1_">
<path style="stroke: none; stroke-width: 1; stroke-dasharray: none; stroke-linecap: butt; stroke-dashoffset: 0; stroke-linejoin: miter; stroke-miterlimit: 4; is-custom-font: none; font-file-url: none; fill: rgb(255,195,189); fill-rule: nonzero; opacity: 1;" transform=" translate(-161.7626, -174.5647)" d="M 158.07 173.174 c 0.053 2.258 1.068 4.338 2.335 5.669 c 1.905 2.003 4.51 0.302 4.962 -2.269 c 0.407 -2.314 -0.574 -5.845 -2.959 -6.887 C 160.058 168.662 158.01 170.591 158.07 173.174 z" stroke-linecap="round"/>
</g>
		<g transform="matrix(1 0 0 1 -71.358 -76.894)" id="Character_1_">
<path style="stroke: none; stroke-width: 1; stroke-dasharray: none; stroke-linecap: butt; stroke-dashoffset: 0; stroke-linejoin: miter; stroke-miterlimit: 4; is-custom-font: none; font-file-url: none; fill: rgb(38,50,56); fill-rule: nonzero; opacity: 1;" transform=" translate(-178.642, -173.106)" d="M 177.752 172.894 c -0.153 0.758 0.121 1.467 0.613 1.584 c 0.491 0.117 1.014 -0.402 1.167 -1.16 c 0.153 -0.758 -0.121 -1.467 -0.613 -1.584 C 178.427 171.617 177.905 172.136 177.752 172.894 z" stroke-linecap="round"/>
</g>
		<g transform="matrix(1 0 0 1 -62.863 -74.8709)" id="Character_1_">
<path style="stroke: none; stroke-width: 1; stroke-dasharray: none; stroke-linecap: butt; stroke-dashoffset: 0; stroke-linejoin: miter; stroke-miterlimit: 4; is-custom-font: none; font-file-url: none; fill: rgb(38,50,56); fill-rule: nonzero; opacity: 1;" transform=" translate(-187.137, -175.129)" d="M 186.247 174.917 c -0.153 0.758 0.121 1.467 0.613 1.584 c 0.491 0.117 1.014 -0.402 1.167 -1.16 c 0.153 -0.758 -0.121 -1.467 -0.613 -1.584 C 186.922 173.64 186.4 174.16 186.247 174.917 z" stroke-linecap="round"/>
</g>
		<g transform="matrix(1 0 0 1 -66.6415 -71.8373)" id="Character_1_">
<path style="stroke: none; stroke-width: 1; stroke-dasharray: none; stroke-linecap: butt; stroke-dashoffset: 0; stroke-linejoin: miter; stroke-miterlimit: 4; is-custom-font: none; font-file-url: none; fill: rgb(237,132,126); fill-rule: nonzero; opacity: 1;" transform=" translate(-183.3585, -178.1627)" d="M 183.417 174.861 c 0 0 0.43 4.107 1.52 6.363 c -1.397 0.704 -3.157 -0.362 -3.157 -0.362 L 183.417 174.861 z" stroke-linecap="round"/>
</g>
		<g transform="matrix(1 0 0 1 -71.3813 -66.4748)" id="Character_1_">
<path style="stroke: none; stroke-width: 1; stroke-dasharray: none; stroke-linecap: butt; stroke-dashoffset: 0; stroke-linejoin: miter; stroke-miterlimit: 4; is-custom-font: none; font-file-url: none; fill: rgb(38,50,56); fill-rule: nonzero; opacity: 1;" transform=" translate(-178.6188, -183.5253)" d="M 180.207 185.108 c -2.974 -0.65 -4.231 -2.868 -4.287 -2.97 c -0.061 -0.109 -0.021 -0.247 0.089 -0.308 c 0.11 -0.061 0.247 -0.021 0.308 0.089 c 0.014 0.025 1.443 2.552 4.824 2.877 c 0.126 0.011 0.216 0.123 0.204 0.248 c -0.012 0.125 -0.123 0.216 -0.248 0.204 C 180.784 185.217 180.488 185.169 180.207 185.108 z" stroke-linecap="round"/>
</g>
		<g transform="matrix(1 0 0 1 -71.4184 -81.0675)" id="Character_1_">
<path style="stroke: none; stroke-width: 1; stroke-dasharray: none; stroke-linecap: butt; stroke-dashoffset: 0; stroke-linejoin: miter; stroke-miterlimit: 4; is-custom-font: none; font-file-url: none; fill: rgb(38,50,56); fill-rule: nonzero; opacity: 1;" transform=" translate(-178.5816, -168.9325)" d="M 176.633 169.829 c -0.069 -0.027 -0.133 -0.072 -0.184 -0.133 c -0.159 -0.194 -0.132 -0.48 0.062 -0.639 c 1.915 -1.577 3.916 -0.923 3.999 -0.895 c 0.231 0.054 0.365 0.337 0.284 0.575 c -0.081 0.237 -0.337 0.364 -0.575 0.284 c -0.083 -0.027 -1.629 -0.503 -3.132 0.736 C 176.956 169.866 176.782 169.888 176.633 169.829 z" stroke-linecap="round"/>
</g>
		<g transform="matrix(1 0 0 1 -60.9012 -78.8569)" id="Character_1_">
<path style="stroke: none; stroke-width: 1; stroke-dasharray: none; stroke-linecap: butt; stroke-dashoffset: 0; stroke-linejoin: miter; stroke-miterlimit: 4; is-custom-font: none; font-file-url: none; fill: rgb(38,50,56); fill-rule: nonzero; opacity: 1;" transform=" translate(-189.0988, -171.1431)" d="M 187.303 170.014 c -0.017 -0.072 -0.016 -0.15 0.005 -0.227 c 0.068 -0.241 0.319 -0.382 0.56 -0.313 c 2.387 0.675 2.99 2.692 3.014 2.777 c 0.087 0.221 -0.069 0.492 -0.311 0.561 c -0.241 0.069 -0.492 -0.07 -0.561 -0.31 c -0.025 -0.083 -0.515 -1.625 -2.389 -2.155 C 187.457 170.301 187.34 170.169 187.303 170.014 z" stroke-linecap="round"/>
</g>
		<g transform="matrix(1 0 0 1 -106.713 -15.872)" id="Character_1_">
<path style="stroke: none; stroke-width: 1; stroke-dasharray: none; stroke-linecap: butt; stroke-dashoffset: 0; stroke-linejoin: miter; stroke-miterlimit: 4; is-custom-font: none; font-file-url: none; fill: rgb(255,195,189); fill-rule: nonzero; opacity: 1;" transform=" translate(-143.2871, -234.128)" d="M 147.814 207.876 c -1.926 5.481 -3.844 11.196 -5.559 16.789 c -0.866 2.806 -1.653 5.616 -2.368 8.39 c -0.69 2.766 -1.282 5.545 -1.594 8.071 c -0.03 0.306 -0.079 0.633 -0.095 0.923 l -0.032 0.442 c -0.011 0.138 -0.024 0.352 -0.026 0.283 c -0.029 -0.016 -0.077 0.052 -0.023 0.262 c 0.087 0.41 0.515 1.238 1.209 2.06 c 1.401 1.677 3.532 3.441 5.799 5.022 c 4.565 3.211 9.875 6.07 15.054 8.745 l -2.055 6.103 c -3.176 -0.675 -6.141 -1.544 -9.158 -2.579 c -3.001 -1.035 -5.965 -2.248 -8.913 -3.729 c -2.929 -1.538 -5.874 -3.218 -8.708 -5.913 c -1.397 -1.367 -2.853 -2.992 -3.92 -5.402 c -0.525 -1.193 -0.913 -2.629 -0.999 -4.162 c -0.028 -0.448 -0.021 -0.613 -0.025 -0.855 l -0.005 -0.697 c -0.006 -0.469 0.021 -0.898 0.031 -1.351 c 0.141 -3.533 0.657 -6.743 1.256 -9.908 c 0.596 -3.157 1.348 -6.225 2.152 -9.258 c 1.643 -6.08 3.537 -11.907 5.813 -17.822 L 147.814 207.876 z" stroke-linecap="round"/>
</g>
		<g transform="matrix(1 0 0 1 -109.0159 -39.9554)" id="Character_1_">
<path style="stroke: none; stroke-width: 1; stroke-dasharray: none; stroke-linecap: butt; stroke-dashoffset: 0; stroke-linejoin: miter; stroke-miterlimit: 4; is-custom-font: none; font-file-url: none; fill: rgb(64,123,255); fill-rule: nonzero; opacity: 1;" transform=" translate(-140.9841, -210.0446)" d="M 145.02 194.089 c 9.779 -0.088 11.63 7.518 6.309 19.585 c -2.783 6.312 -7.44 12.327 -7.44 12.327 l -16.173 -8.592 C 129.884 207.776 133.829 194.189 145.02 194.089 z" stroke-linecap="round"/>
</g>
		<g transform="matrix(1 0 0 1 -85.5402 10.9648)" id="Character_1_">
<path style="stroke: none; stroke-width: 1; stroke-dasharray: none; stroke-linecap: butt; stroke-dashoffset: 0; stroke-linejoin: miter; stroke-miterlimit: 4; is-custom-font: none; font-file-url: none; fill: rgb(255,195,189); fill-rule: nonzero; opacity: 1;" transform=" translate(-164.4597, -260.9648)" d="M 171.997 257.876 l -3.578 -1.96 c -0.585 -0.32 -1.257 -0.444 -1.917 -0.353 l -4.298 0.594 c -2.891 0.303 -4.994 2.514 -6.569 4.435 l -1.837 2.24 c -0.088 4.517 11.333 3.455 11.333 3.455 l 9.991 -0.126 l -0.313 -3.94 C 174.663 260.392 173.606 258.758 171.997 257.876 z" stroke-linecap="round"/>
</g>
		<g transform="matrix(1 0 0 1 0 20.2225)" id="Desk">
<rect style="stroke: none; stroke-width: 1; stroke-dasharray: none; stroke-linecap: butt; stroke-dashoffset: 0; stroke-linejoin: miter; stroke-miterlimit: 4; is-custom-font: none; font-file-url: none; fill: rgb(64,123,255); fill-rule: nonzero; opacity: 1;" x="-135.346" y="-6.3335" rx="0" ry="0" width="270.692" height="12.667"/>
</g>
		<g transform="matrix(1 0 0 1 -91.445 20.2225)" id="Desk">
<rect style="stroke: none; stroke-width: 1; stroke-dasharray: none; stroke-linecap: butt; stroke-dashoffset: 0; stroke-linejoin: miter; stroke-miterlimit: 4; is-custom-font: none; font-file-url: none; fill: rgb(255,255,255); fill-rule: nonzero; opacity: 0.3;" x="-43.901" y="-6.3335" rx="0" ry="0" width="87.802" height="12.667"/>
</g>
		<g transform="matrix(1 0 0 1 -130.1675 96.397)" id="Desk">
<rect style="stroke: none; stroke-width: 1; stroke-dasharray: none; stroke-linecap: butt; stroke-dashoffset: 0; stroke-linejoin: miter; stroke-miterlimit: 4; is-custom-font: none; font-file-url: none; fill: rgb(64,123,255); fill-rule: nonzero; opacity: 1;" x="-2.0715" y="-69.841" rx="0" ry="0" width="4.143" height="139.682"/>
</g>
		<g transform="matrix(1 0 0 1 -130.1675 96.397)" id="Desk">
<rect style="stroke: none; stroke-width: 1; stroke-dasharray: none; stroke-linecap: butt; stroke-dashoffset: 0; stroke-linejoin: miter; stroke-miterlimit: 4; is-custom-font: none; font-file-url: none; fill: rgb(255,255,255); fill-rule: nonzero; opacity: 0.7;" x="-2.0715" y="-69.841" rx="0" ry="0" width="4.143" height="139.682"/>
</g>
		<g transform="matrix(1 0 0 1 -52.7225 96.397)" id="Desk">
<rect style="stroke: none; stroke-width: 1; stroke-dasharray: none; stroke-linecap: butt; stroke-dashoffset: 0; stroke-linejoin: miter; stroke-miterlimit: 4; is-custom-font: none; font-file-url: none; fill: rgb(64,123,255); fill-rule: nonzero; opacity: 1;" x="-2.0715" y="-69.841" rx="0" ry="0" width="4.143" height="139.682"/>
</g>
		<g transform="matrix(1 0 0 1 -52.7225 96.397)" id="Desk">
<rect style="stroke: none; stroke-width: 1; stroke-dasharray: none; stroke-linecap: butt; stroke-dashoffset: 0; stroke-linejoin: miter; stroke-miterlimit: 4; is-custom-font: none; font-file-url: none; fill: rgb(255,255,255); fill-rule: nonzero; opacity: 0.7;" x="-2.0715" y="-69.841" rx="0" ry="0" width="4.143" height="139.682"/>
</g>
		<g transform="matrix(1 0 0 1 52.7225 96.397)" id="Desk">
<rect style="stroke: none; stroke-width: 1; stroke-dasharray: none; stroke-linecap: butt; stroke-dashoffset: 0; stroke-linejoin: miter; stroke-miterlimit: 4; is-custom-font: none; font-file-url: none; fill: rgb(64,123,255); fill-rule: nonzero; opacity: 1;" x="-2.0715" y="-69.841" rx="0" ry="0" width="4.143" height="139.682"/>
</g>
		<g transform="matrix(1 0 0 1 52.7225 96.397)" id="Desk">
<rect style="stroke: none; stroke-width: 1; stroke-dasharray: none; stroke-linecap: butt; stroke-dashoffset: 0; stroke-linejoin: miter; stroke-miterlimit: 4; is-custom-font: none; font-file-url: none; fill: rgb(255,255,255); fill-rule: nonzero; opacity: 0.7;" x="-2.0715" y="-69.841" rx="0" ry="0" width="4.143" height="139.682"/>
</g>
		<g transform="matrix(1 0 0 1 130.1675 96.397)" id="Desk">
<rect style="stroke: none; stroke-width: 1; stroke-dasharray: none; stroke-linecap: butt; stroke-dashoffset: 0; stroke-linejoin: miter; stroke-miterlimit: 4; is-custom-font: none; font-file-url: none; fill: rgb(64,123,255); fill-rule: nonzero; opacity: 1;" x="-2.0715" y="-69.841" rx="0" ry="0" width="4.143" height="139.682"/>
</g>
		<g transform="matrix(1 0 0 1 130.1675 96.397)" id="Desk">
<rect style="stroke: none; stroke-width: 1; stroke-dasharray: none; stroke-linecap: butt; stroke-dashoffset: 0; stroke-linejoin: miter; stroke-miterlimit: 4; is-custom-font: none; font-file-url: none; fill: rgb(255,255,255); fill-rule: nonzero; opacity: 0.7;" x="-2.0715" y="-69.841" rx="0" ry="0" width="4.143" height="139.682"/>
</g>
		<g transform="matrix(1 0 0 1 64.3447 -14.111)" id="Desk">
<path style="stroke: none; stroke-width: 1; stroke-dasharray: none; stroke-linecap: butt; stroke-dashoffset: 0; stroke-linejoin: miter; stroke-miterlimit: 4; is-custom-font: none; font-file-url: none; fill: rgb(38,50,56); fill-rule: nonzero; opacity: 1;" transform=" translate(-314.3447, -235.889)" d="M 355.954 207.889 h -74 c -2.506 0 -4.893 2.05 -5.306 4.555 l -7.719 46.889 c -0.413 2.506 1.3 4.556 3.806 4.556 h 74 c 2.506 0 4.893 -2.05 5.306 -4.556 l 7.72 -46.889 C 360.172 209.939 358.46 207.889 355.954 207.889 z" stroke-linecap="round"/>
</g>
		<g transform="matrix(1 0 0 1 24.1775 12.3605)" id="Desk">
<path style="stroke: none; stroke-width: 1; stroke-dasharray: none; stroke-linecap: butt; stroke-dashoffset: 0; stroke-linejoin: miter; stroke-miterlimit: 4; is-custom-font: none; font-file-url: none; fill: rgb(38,50,56); fill-rule: nonzero; opacity: 1;" transform=" translate(-274.1775, -262.3605)" d="M 309.011 260.833 h -69.667 c -0.458 0 -0.833 0.375 -0.833 0.833 v 1.389 c 0 0.458 0.375 0.833 0.833 0.833 h 69.667 c 0.458 0 0.833 -0.375 0.833 -0.833 v -1.389 C 309.845 261.208 309.47 260.833 309.011 260.833 z" stroke-linecap="round"/>
</g>
		<g transform="matrix(1 0 0 1 65.1782 -14.111)" id="Desk">
<path style="stroke: none; stroke-width: 1; stroke-dasharray: none; stroke-linecap: butt; stroke-dashoffset: 0; stroke-linejoin: miter; stroke-miterlimit: 4; is-custom-font: none; font-file-url: none; fill: rgb(255,255,255); fill-rule: nonzero; opacity: 0.2;" transform=" translate(-315.1782, -235.889)" d="M 355.954 207.889 h -72.333 c -2.505 0 -4.893 2.05 -5.305 4.555 l -7.72 46.889 c -0.413 2.506 1.3 4.556 3.806 4.556 h 72.333 c 2.506 0 4.893 -2.05 5.306 -4.556 l 7.72 -46.889 C 360.172 209.939 358.46 207.889 355.954 207.889 z" stroke-linecap="round"/>
</g>
		<g transform="matrix(1 0 0 1 -52.2705 11.789)" id="Desk">
<path style="stroke: none; stroke-width: 1; stroke-dasharray: none; stroke-linecap: butt; stroke-dashoffset: 0; stroke-linejoin: miter; stroke-miterlimit: 4; is-custom-font: none; font-file-url: none; fill: rgb(64,123,255); fill-rule: nonzero; opacity: 1;" transform=" translate(-197.7295, -261.789)" d="M 164.459 260.833 c 0 0 23.834 3.546 35.327 -1.144 c 5.381 2.588 24.548 3.866 31.214 1.144 c -2.056 2.389 -6.897 3.056 -6.897 3.056 s -45.437 0 -50.27 0 C 169 263.889 165.307 261.778 164.459 260.833 z" stroke-linecap="round"/>
</g>
		<g transform="matrix(1 0 0 1 -52.2705 11.789)" id="Desk">
<path style="stroke: none; stroke-width: 1; stroke-dasharray: none; stroke-linecap: butt; stroke-dashoffset: 0; stroke-linejoin: miter; stroke-miterlimit: 4; is-custom-font: none; font-file-url: none; fill: rgb(255,255,255); fill-rule: nonzero; opacity: 0.7;" transform=" translate(-197.7295, -261.789)" d="M 164.459 260.833 c 0 0 23.834 3.546 35.327 -1.144 c 5.381 2.588 24.548 3.866 31.214 1.144 c -2.056 2.389 -6.897 3.056 -6.897 3.056 s -45.437 0 -50.27 0 C 169 263.889 165.307 261.778 164.459 260.833 z" stroke-linecap="round"/>
</g>
</g>
</g>
<g transform="matrix(1 0 0 1 470 706.526)" style="" id="917968">
		
<path xml:space="preserve" font-family="Lato" font-size="22" font-style="normal" font-weight="normal" style="stroke: none; stroke-width: 1; stroke-dasharray: none; stroke-linecap: butt; stroke-dashoffset: 0; stroke-linejoin: miter; stroke-miterlimit: 4; is-custom-font: none; font-file-url: none; fill: rgb(153,153,153); fill-rule: nonzero; opacity: 1; white-space: pre;" d="M-179.48-8.85L-185.27 0.64L-185.27 6.91L-187.39 6.91L-187.39 0.64L-193.17-8.85L-191.30-8.85Q-191.01-8.85-190.85-8.71Q-190.68-8.57-190.56-8.36L-190.56-8.36L-186.95-2.23Q-186.73-1.84-186.58-1.50Q-186.44-1.16-186.32-0.83L-186.32-0.83Q-186.19-1.17-186.05-1.51Q-185.91-1.86-185.69-2.23L-185.69-2.23L-182.09-8.36Q-181.99-8.53-181.82-8.69Q-181.65-8.85-181.38-8.85L-181.38-8.85L-179.48-8.85ZM-175.06-4.41L-175.06-4.41Q-173.84-4.41-172.86-4.00Q-171.87-3.59-171.18-2.85Q-170.50-2.10-170.13-1.04Q-169.76 0.03-169.76 1.33L-169.76 1.33Q-169.76 2.65-170.13 3.71Q-170.50 4.77-171.18 5.51Q-171.87 6.26-172.86 6.66Q-173.84 7.07-175.06 7.07L-175.06 7.07Q-176.28 7.07-177.27 6.66Q-178.25 6.26-178.95 5.51Q-179.64 4.77-180.01 3.71Q-180.39 2.65-180.39 1.33L-180.39 1.33Q-180.39 0.03-180.01-1.04Q-179.64-2.10-178.95-2.85Q-178.25-3.59-177.27-4.00Q-176.28-4.41-175.06-4.41ZM-175.06 5.54L-175.06 5.54Q-173.41 5.54-172.60 4.43Q-171.78 3.33-171.78 1.35L-171.78 1.35Q-171.78-0.65-172.60-1.76Q-173.41-2.87-175.06-2.87L-175.06-2.87Q-175.90-2.87-176.51-2.58Q-177.13-2.30-177.54-1.76Q-177.96-1.22-178.16-0.43Q-178.36 0.36-178.36 1.35L-178.36 1.35Q-178.36 2.34-178.16 3.12Q-177.96 3.90-177.54 4.43Q-177.13 4.96-176.51 5.25Q-175.90 5.54-175.06 5.54ZM-167.60-4.23L-165.65-4.23L-165.65 2.87Q-165.65 4.14-165.06 4.83Q-164.48 5.53-163.30 5.53L-163.30 5.53Q-162.45 5.53-161.69 5.12Q-160.93 4.71-160.29 3.99L-160.29 3.99L-160.29-4.23L-158.33-4.23L-158.33 6.91L-159.50 6.91Q-159.92 6.91-160.03 6.50L-160.03 6.50L-160.18 5.31Q-160.91 6.11-161.81 6.60Q-162.71 7.09-163.88 7.09L-163.88 7.09Q-164.79 7.09-165.49 6.78Q-166.19 6.48-166.66 5.93Q-167.13 5.38-167.37 4.60Q-167.60 3.82-167.60 2.87L-167.60 2.87L-167.60-4.23ZM-153.15 6.91L-155.11 6.91L-155.11-4.23L-153.99-4.23Q-153.67-4.23-153.55-4.11Q-153.43-3.99-153.38-3.69L-153.38-3.69L-153.25-1.95Q-152.68-3.12-151.84-3.78Q-150.99-4.43-149.86-4.43L-149.86-4.43Q-149.40-4.43-149.03-4.33Q-148.65-4.22-148.33-4.03L-148.33-4.03L-148.59-2.57Q-148.66-2.30-148.93-2.30L-148.93-2.30Q-149.08-2.30-149.40-2.40Q-149.72-2.50-150.29-2.50L-150.29-2.50Q-151.31-2.50-152.00-1.91Q-152.69-1.32-153.15-0.18L-153.15-0.18L-153.15 6.91ZM-140.04 6.91L-142.00 6.91L-142.00-9.29L-140.04-9.29L-140.04-2.74Q-139.32-3.49-138.45-3.95Q-137.59-4.41-136.45-4.41L-136.45-4.41Q-135.54-4.41-134.84-4.11Q-134.14-3.80-133.67-3.25Q-133.21-2.69-132.97-1.91Q-132.72-1.13-132.72-0.18L-132.72-0.18L-132.72 6.91L-134.68 6.91L-134.68-0.18Q-134.68-1.45-135.26-2.15Q-135.84-2.85-137.02-2.85L-137.02-2.85Q-137.89-2.85-138.65-2.43Q-139.40-2.01-140.04-1.29L-140.04-1.29L-140.04 6.91ZM-121.58-0.22L-121.58 6.91L-122.45 6.91Q-122.74 6.91-122.91 6.82Q-123.09 6.74-123.14 6.45L-123.14 6.45L-123.36 5.42Q-123.80 5.81-124.22 6.12Q-124.64 6.44-125.10 6.65Q-125.56 6.87-126.08 6.98Q-126.61 7.09-127.25 7.09L-127.25 7.09Q-127.89 7.09-128.46 6.91Q-129.03 6.72-129.45 6.36Q-129.86 6.00-130.11 5.44Q-130.36 4.89-130.36 4.13L-130.36 4.13Q-130.36 3.47-130.00 2.86Q-129.63 2.25-128.82 1.77Q-128.02 1.30-126.71 1.00Q-125.40 0.70-123.51 0.65L-123.51 0.65L-123.51-0.22Q-123.51-1.51-124.06-2.18Q-124.62-2.85-125.71-2.85L-125.71-2.85Q-126.42-2.85-126.91-2.66Q-127.40-2.48-127.76-2.26Q-128.11-2.03-128.37-1.85Q-128.63-1.67-128.88-1.67L-128.88-1.67Q-129.08-1.67-129.23-1.77Q-129.38-1.88-129.47-2.03L-129.47-2.03L-129.82-2.66Q-128.90-3.55-127.83-3.99Q-126.76-4.43-125.46-4.43L-125.46-4.43Q-124.53-4.43-123.80-4.12Q-123.08-3.81-122.58-3.26Q-122.09-2.71-121.83-1.93Q-121.58-1.15-121.58-0.22L-121.58-0.22ZM-126.66 5.71L-126.66 5.71Q-126.15 5.71-125.72 5.61Q-125.29 5.50-124.91 5.31Q-124.53 5.12-124.18 4.84Q-123.84 4.57-123.51 4.22L-123.51 4.22L-123.51 1.90Q-124.86 1.94-125.80 2.11Q-126.75 2.28-127.34 2.56Q-127.94 2.83-128.21 3.20Q-128.48 3.58-128.48 4.04L-128.48 4.04Q-128.48 4.48-128.33 4.80Q-128.19 5.12-127.95 5.32Q-127.71 5.53-127.38 5.62Q-127.05 5.71-126.66 5.71ZM-115.83 6.91L-120.37-4.23L-118.76-4.23Q-118.53-4.23-118.38-4.11Q-118.23-3.99-118.16-3.82L-118.16-3.82L-115.33 3.35Q-115.18 3.74-115.09 4.14Q-115.00 4.54-114.93 4.92L-114.93 4.92Q-114.84 4.54-114.74 4.14Q-114.64 3.74-114.49 3.35L-114.49 3.35L-111.63-3.82Q-111.56-4.00-111.41-4.12Q-111.26-4.23-111.04-4.23L-111.04-4.23L-109.51-4.23L-114.06 6.91L-115.83 6.91ZM-103.57-4.41L-103.57-4.41Q-102.57-4.41-101.73-4.07Q-100.88-3.74-100.26-3.10Q-99.65-2.47-99.30-1.54Q-98.95-0.61-98.95 0.58L-98.95 0.58Q-98.95 1.04-99.05 1.19Q-99.15 1.35-99.43 1.35L-99.43 1.35L-106.84 1.35Q-106.82 2.40-106.55 3.18Q-106.29 3.96-105.83 4.49Q-105.37 5.01-104.73 5.27Q-104.09 5.53-103.30 5.53L-103.30 5.53Q-102.56 5.53-102.03 5.35Q-101.49 5.18-101.11 4.99Q-100.72 4.79-100.47 4.62Q-100.21 4.45-100.02 4.45L-100.02 4.45Q-99.78 4.45-99.65 4.63L-99.65 4.63L-99.10 5.35Q-99.46 5.79-99.97 6.11Q-100.47 6.44-101.05 6.65Q-101.63 6.86-102.24 6.96Q-102.86 7.07-103.46 7.07L-103.46 7.07Q-104.62 7.07-105.59 6.67Q-106.57 6.28-107.27 5.53Q-107.98 4.78-108.38 3.67Q-108.78 2.56-108.78 1.11L-108.78 1.11Q-108.78-0.05-108.42-1.06Q-108.06-2.08-107.39-2.82Q-106.72-3.56-105.75-3.98Q-104.78-4.41-103.57-4.41ZM-103.53-2.97L-103.53-2.97Q-104.95-2.97-105.76-2.15Q-106.58-1.33-106.77 0.12L-106.77 0.12L-100.71 0.12Q-100.71-0.56-100.90-1.12Q-101.09-1.69-101.45-2.10Q-101.81-2.52-102.34-2.74Q-102.86-2.97-103.53-2.97ZM-94.50 6.91L-96.46 6.91L-96.46-4.23L-95.29-4.23Q-94.87-4.23-94.76-3.82L-94.76-3.82L-94.61-2.61Q-93.88-3.42-92.99-3.91Q-92.09-4.41-90.91-4.41L-90.91-4.41Q-90.00-4.41-89.30-4.11Q-88.60-3.80-88.13-3.25Q-87.67-2.69-87.43-1.91Q-87.18-1.13-87.18-0.18L-87.18-0.18L-87.18 6.91L-89.14 6.91L-89.14-0.18Q-89.14-1.45-89.72-2.15Q-90.30-2.85-91.48-2.85L-91.48-2.85Q-92.35-2.85-93.11-2.43Q-93.86-2.01-94.50-1.29L-94.50-1.29L-94.50 6.91ZM-84.95-8.85L-83.25-8.85L-83.25-5.66L-83.42-3.96Q-83.45-3.60-83.61-3.41Q-83.76-3.22-84.10-3.22L-84.10-3.22Q-84.39-3.22-84.55-3.41Q-84.71-3.60-84.77-3.96L-84.77-3.96L-84.95-5.66L-84.95-8.85ZM-76.58 7.09L-76.58 7.09Q-77.90 7.09-78.61 6.35Q-79.32 5.61-79.32 4.23L-79.32 4.23L-79.32-2.59L-80.66-2.59Q-80.84-2.59-80.96-2.70Q-81.08-2.80-81.08-3.02L-81.08-3.02L-81.08-3.80L-79.25-4.03L-78.80-7.48Q-78.78-7.64-78.66-7.75Q-78.54-7.85-78.35-7.85L-78.35-7.85L-77.36-7.85L-77.36-4.01L-74.17-4.01L-74.17-2.59L-77.36-2.59L-77.36 4.10Q-77.36 4.80-77.02 5.14Q-76.68 5.48-76.14 5.48L-76.14 5.48Q-75.83 5.48-75.61 5.40Q-75.38 5.32-75.22 5.22Q-75.05 5.12-74.93 5.04Q-74.82 4.95-74.73 4.95L-74.73 4.95Q-74.58 4.95-74.46 5.14L-74.46 5.14L-73.88 6.08Q-74.39 6.55-75.11 6.82Q-75.82 7.09-76.58 7.09ZM-63.09-4.41L-63.09-4.41Q-62.09-4.41-61.25-4.07Q-60.40-3.74-59.78-3.10Q-59.17-2.47-58.82-1.54Q-58.47-0.61-58.47 0.58L-58.47 0.58Q-58.47 1.04-58.57 1.19Q-58.67 1.35-58.95 1.35L-58.95 1.35L-66.36 1.35Q-66.34 2.40-66.07 3.18Q-65.81 3.96-65.35 4.49Q-64.89 5.01-64.25 5.27Q-63.61 5.53-62.82 5.53L-62.82 5.53Q-62.08 5.53-61.55 5.35Q-61.01 5.18-60.63 4.99Q-60.24 4.79-59.99 4.62Q-59.73 4.45-59.54 4.45L-59.54 4.45Q-59.30 4.45-59.17 4.63L-59.17 4.63L-58.62 5.35Q-58.98 5.79-59.49 6.11Q-59.99 6.44-60.57 6.65Q-61.15 6.86-61.76 6.96Q-62.38 7.07-62.98 7.07L-62.98 7.07Q-64.14 7.07-65.11 6.67Q-66.09 6.28-66.79 5.53Q-67.50 4.78-67.90 3.67Q-68.30 2.56-68.30 1.11L-68.30 1.11Q-68.30-0.05-67.94-1.06Q-67.58-2.08-66.91-2.82Q-66.24-3.56-65.27-3.98Q-64.30-4.41-63.09-4.41ZM-63.05-2.97L-63.05-2.97Q-64.47-2.97-65.28-2.15Q-66.10-1.33-66.29 0.12L-66.29 0.12L-60.23 0.12Q-60.23-0.56-60.42-1.12Q-60.61-1.69-60.97-2.10Q-61.33-2.52-61.86-2.74Q-62.38-2.97-63.05-2.97ZM-54.02 6.91L-55.98 6.91L-55.98-4.23L-54.81-4.23Q-54.39-4.23-54.28-3.82L-54.28-3.82L-54.13-2.61Q-53.40-3.42-52.51-3.91Q-51.61-4.41-50.43-4.41L-50.43-4.41Q-49.52-4.41-48.82-4.11Q-48.12-3.80-47.65-3.25Q-47.19-2.69-46.95-1.91Q-46.70-1.13-46.70-0.18L-46.70-0.18L-46.70 6.91L-48.66 6.91L-48.66-0.18Q-48.66-1.45-49.24-2.15Q-49.82-2.85-51.00-2.85L-51.00-2.85Q-51.87-2.85-52.63-2.43Q-53.38-2.01-54.02-1.29L-54.02-1.29L-54.02 6.91ZM-41.79 6.91L-43.74 6.91L-43.74-4.23L-42.62-4.23Q-42.30-4.23-42.18-4.11Q-42.06-3.99-42.02-3.69L-42.02-3.69L-41.89-1.95Q-41.31-3.12-40.47-3.78Q-39.63-4.43-38.50-4.43L-38.50-4.43Q-38.04-4.43-37.66-4.33Q-37.29-4.22-36.97-4.03L-36.97-4.03L-37.22-2.57Q-37.30-2.30-37.56-2.30L-37.56-2.30Q-37.72-2.30-38.04-2.40Q-38.35-2.50-38.93-2.50L-38.93-2.50Q-39.95-2.50-40.64-1.91Q-41.32-1.32-41.79-0.18L-41.79-0.18L-41.79 6.91ZM-30.37-4.41L-30.37-4.41Q-29.15-4.41-28.16-4.00Q-27.18-3.59-26.49-2.85Q-25.80-2.10-25.43-1.04Q-25.07 0.03-25.07 1.33L-25.07 1.33Q-25.07 2.65-25.43 3.71Q-25.80 4.77-26.49 5.51Q-27.18 6.26-28.16 6.66Q-29.15 7.07-30.37 7.07L-30.37 7.07Q-31.59 7.07-32.57 6.66Q-33.56 6.26-34.25 5.51Q-34.94 4.77-35.32 3.71Q-35.69 2.65-35.69 1.33L-35.69 1.33Q-35.69 0.03-35.32-1.04Q-34.94-2.10-34.25-2.85Q-33.56-3.59-32.57-4.00Q-31.59-4.41-30.37-4.41ZM-30.37 5.54L-30.37 5.54Q-28.72 5.54-27.90 4.43Q-27.09 3.33-27.09 1.35L-27.09 1.35Q-27.09-0.65-27.90-1.76Q-28.72-2.87-30.37-2.87L-30.37-2.87Q-31.20-2.87-31.82-2.58Q-32.44-2.30-32.85-1.76Q-33.26-1.22-33.46-0.43Q-33.67 0.36-33.67 1.35L-33.67 1.35Q-33.67 2.34-33.46 3.12Q-33.26 3.90-32.85 4.43Q-32.44 4.96-31.82 5.25Q-31.20 5.54-30.37 5.54ZM-22.43-9.29L-20.47-9.29L-20.47 6.91L-22.43 6.91L-22.43-9.29ZM-16.79-9.29L-14.84-9.29L-14.84 6.91L-16.79 6.91L-16.79-9.29ZM-6.97-4.41L-6.97-4.41Q-5.97-4.41-5.12-4.07Q-4.28-3.74-3.66-3.10Q-3.04-2.47-2.70-1.54Q-2.35-0.61-2.35 0.58L-2.35 0.58Q-2.35 1.04-2.45 1.19Q-2.55 1.35-2.82 1.35L-2.82 1.35L-10.24 1.35Q-10.22 2.40-9.95 3.18Q-9.69 3.96-9.23 4.49Q-8.76 5.01-8.13 5.27Q-7.49 5.53-6.70 5.53L-6.70 5.53Q-5.96 5.53-5.43 5.35Q-4.89 5.18-4.51 4.99Q-4.12 4.79-3.86 4.62Q-3.61 4.45-3.42 4.45L-3.42 4.45Q-3.18 4.45-3.04 4.63L-3.04 4.63L-2.49 5.35Q-2.86 5.79-3.36 6.11Q-3.87 6.44-4.45 6.65Q-5.02 6.86-5.64 6.96Q-6.26 7.07-6.86 7.07L-6.86 7.07Q-8.02 7.07-8.99 6.67Q-9.96 6.28-10.67 5.53Q-11.38 4.78-11.78 3.67Q-12.17 2.56-12.17 1.11L-12.17 1.11Q-12.17-0.05-11.82-1.06Q-11.46-2.08-10.79-2.82Q-10.12-3.56-9.15-3.98Q-8.18-4.41-6.97-4.41ZM-6.93-2.97L-6.93-2.97Q-8.35-2.97-9.16-2.15Q-9.97-1.33-10.17 0.12L-10.17 0.12L-4.11 0.12Q-4.11-0.56-4.30-1.12Q-4.49-1.69-4.85-2.10Q-5.21-2.52-5.73-2.74Q-6.26-2.97-6.93-2.97ZM9.15 6.91L7.99 6.91Q7.57 6.91 7.46 6.50L7.46 6.50L7.28 5.15Q6.57 6.02 5.65 6.54Q4.73 7.07 3.54 7.07L3.54 7.07Q2.59 7.07 1.81 6.70Q1.03 6.33 0.48 5.61Q-0.07 4.90-0.37 3.83Q-0.67 2.76-0.67 1.38L-0.67 1.38Q-0.67 0.15-0.34-0.92Q-0.01-1.98 0.61-2.76Q1.23-3.54 2.13-3.98Q3.02-4.43 4.15-4.43L4.15-4.43Q5.17-4.43 5.90-4.08Q6.62-3.74 7.20-3.11L7.20-3.11L7.20-9.29L9.15-9.29L9.15 6.91ZM4.19 5.48L4.19 5.48Q5.15 5.48 5.87 5.04Q6.59 4.60 7.20 3.80L7.20 3.80L7.20-1.59Q6.66-2.32 6.01-2.61Q5.37-2.90 4.59-2.90L4.59-2.90Q3.03-2.90 2.19-1.79Q1.36-0.68 1.36 1.38L1.36 1.38Q1.36 2.47 1.54 3.24Q1.73 4.02 2.09 4.52Q2.46 5.02 2.98 5.25Q3.51 5.48 4.19 5.48ZM16.91-4.23L18.87-4.23L18.87 6.91L16.91 6.91L16.91-4.23ZM19.31-7.73L19.31-7.73Q19.31-7.44 19.19-7.20Q19.08-6.95 18.88-6.76Q18.69-6.56 18.44-6.45Q18.19-6.34 17.90-6.34L17.90-6.34Q17.61-6.34 17.37-6.45Q17.12-6.56 16.93-6.76Q16.73-6.95 16.62-7.20Q16.51-7.44 16.51-7.73L16.51-7.73Q16.51-8.02 16.62-8.27Q16.73-8.53 16.93-8.73Q17.12-8.92 17.37-9.03Q17.61-9.14 17.90-9.14L17.90-9.14Q18.19-9.14 18.44-9.03Q18.69-8.92 18.88-8.73Q19.08-8.53 19.19-8.27Q19.31-8.02 19.31-7.73ZM24.28 6.91L22.32 6.91L22.32-4.23L23.49-4.23Q23.91-4.23 24.02-3.82L24.02-3.82L24.17-2.61Q24.90-3.42 25.79-3.91Q26.69-4.41 27.87-4.41L27.87-4.41Q28.78-4.41 29.48-4.11Q30.18-3.80 30.64-3.25Q31.11-2.69 31.35-1.91Q31.59-1.13 31.59-0.18L31.59-0.18L31.59 6.91L29.64 6.91L29.64-0.18Q29.64-1.45 29.06-2.15Q28.48-2.85 27.29-2.85L27.29-2.85Q26.42-2.85 25.67-2.43Q24.92-2.01 24.28-1.29L24.28-1.29L24.28 6.91ZM46.98-0.22L46.98 6.91L46.11 6.91Q45.83 6.91 45.65 6.82Q45.48 6.74 45.42 6.45L45.42 6.45L45.20 5.42Q44.76 5.81 44.34 6.12Q43.93 6.44 43.46 6.65Q43.00 6.87 42.48 6.98Q41.96 7.09 41.32 7.09L41.32 7.09Q40.67 7.09 40.10 6.91Q39.54 6.72 39.12 6.36Q38.70 6.00 38.45 5.44Q38.21 4.89 38.21 4.13L38.21 4.13Q38.21 3.47 38.57 2.86Q38.93 2.25 39.74 1.77Q40.55 1.30 41.86 1.00Q43.17 0.70 45.06 0.65L45.06 0.65L45.06-0.22Q45.06-1.51 44.50-2.18Q43.95-2.85 42.86-2.85L42.86-2.85Q42.14-2.85 41.65-2.66Q41.16-2.48 40.81-2.26Q40.45-2.03 40.19-1.85Q39.93-1.67 39.68-1.67L39.68-1.67Q39.48-1.67 39.33-1.77Q39.18-1.88 39.10-2.03L39.10-2.03L38.74-2.66Q39.67-3.55 40.74-3.99Q41.80-4.43 43.10-4.43L43.10-4.43Q44.04-4.43 44.76-4.12Q45.49-3.81 45.98-3.26Q46.48-2.71 46.73-1.93Q46.98-1.15 46.98-0.22L46.98-0.22ZM41.90 5.71L41.90 5.71Q42.42 5.71 42.85 5.61Q43.28 5.50 43.66 5.31Q44.04 5.12 44.38 4.84Q44.73 4.57 45.06 4.22L45.06 4.22L45.06 1.90Q43.71 1.94 42.76 2.11Q41.81 2.28 41.22 2.56Q40.63 2.83 40.36 3.20Q40.09 3.58 40.09 4.04L40.09 4.04Q40.09 4.48 40.23 4.80Q40.37 5.12 40.61 5.32Q40.86 5.53 41.19 5.62Q41.52 5.71 41.90 5.71ZM51.91 6.91L49.95 6.91L49.95-4.23L51.12-4.23Q51.54-4.23 51.65-3.82L51.65-3.82L51.80-2.61Q52.53-3.42 53.42-3.91Q54.32-4.41 55.50-4.41L55.50-4.41Q56.41-4.41 57.11-4.11Q57.81-3.80 58.28-3.25Q58.74-2.69 58.98-1.91Q59.23-1.13 59.23-0.18L59.23-0.18L59.23 6.91L57.27 6.91L57.27-0.18Q57.27-1.45 56.69-2.15Q56.11-2.85 54.93-2.85L54.93-2.85Q54.06-2.85 53.30-2.43Q52.55-2.01 51.91-1.29L51.91-1.29L51.91 6.91ZM71.32-4.23L65.10 10.20Q65.00 10.42 64.85 10.55Q64.70 10.68 64.40 10.68L64.40 10.68L62.94 10.68L64.98 6.26L60.38-4.23L62.08-4.23Q62.33-4.23 62.47-4.11Q62.61-3.98 62.68-3.82L62.68-3.82L65.66 3.19Q65.76 3.44 65.83 3.68Q65.90 3.92 65.96 4.17L65.96 4.17Q66.04 3.92 66.11 3.68Q66.19 3.44 66.29 3.18L66.29 3.18L69.18-3.82Q69.25-4.00 69.41-4.12Q69.57-4.23 69.75-4.23L69.75-4.23L71.32-4.23ZM85.46-2.96L84.94-2.25Q84.86-2.13 84.77-2.06Q84.68-2.00 84.52-2.00L84.52-2.00Q84.35-2.00 84.16-2.14Q83.97-2.27 83.67-2.44Q83.37-2.60 82.95-2.74Q82.52-2.88 81.91-2.88L81.91-2.88Q81.09-2.88 80.47-2.59Q79.84-2.30 79.42-1.75Q78.99-1.20 78.78-0.41Q78.56 0.37 78.56 1.33L78.56 1.33Q78.56 2.35 78.80 3.13Q79.03 3.92 79.44 4.45Q79.86 4.99 80.46 5.27Q81.06 5.55 81.81 5.55L81.81 5.55Q82.52 5.55 82.99 5.38Q83.45 5.21 83.76 5.00Q84.06 4.79 84.26 4.62Q84.46 4.45 84.66 4.45L84.66 4.45Q84.91 4.45 85.03 4.63L85.03 4.63L85.58 5.35Q84.86 6.24 83.77 6.65Q82.68 7.07 81.47 7.07L81.47 7.07Q80.42 7.07 79.53 6.68Q78.63 6.30 77.97 5.56Q77.31 4.83 76.93 3.77Q76.55 2.70 76.55 1.33L76.55 1.33Q76.55 0.09 76.90-0.96Q77.24-2.02 77.91-2.79Q78.58-3.55 79.55-3.98Q80.53-4.41 81.80-4.41L81.80-4.41Q82.96-4.41 83.87-4.03Q84.77-3.65 85.46-2.96L85.46-2.96ZM92.13-4.41L92.13-4.41Q93.35-4.41 94.33-4.00Q95.32-3.59 96.01-2.85Q96.69-2.10 97.06-1.04Q97.43 0.03 97.43 1.33L97.43 1.33Q97.43 2.65 97.06 3.71Q96.69 4.77 96.01 5.51Q95.32 6.26 94.33 6.66Q93.35 7.07 92.13 7.07L92.13 7.07Q90.91 7.07 89.92 6.66Q88.94 6.26 88.24 5.51Q87.55 4.77 87.18 3.71Q86.80 2.65 86.80 1.33L86.80 1.33Q86.80 0.03 87.18-1.04Q87.55-2.10 88.24-2.85Q88.94-3.59 89.92-4.00Q90.91-4.41 92.13-4.41ZM92.13 5.54L92.13 5.54Q93.78 5.54 94.59 4.43Q95.41 3.33 95.41 1.35L95.41 1.35Q95.41-0.65 94.59-1.76Q93.78-2.87 92.13-2.87L92.13-2.87Q91.29-2.87 90.68-2.58Q90.06-2.30 89.65-1.76Q89.23-1.22 89.03-0.43Q88.83 0.36 88.83 1.35L88.83 1.35Q88.83 2.34 89.03 3.12Q89.23 3.90 89.65 4.43Q90.06 4.96 90.68 5.25Q91.29 5.54 92.13 5.54ZM99.59-4.23L101.54-4.23L101.54 2.87Q101.54 4.14 102.13 4.83Q102.71 5.53 103.89 5.53L103.89 5.53Q104.74 5.53 105.50 5.12Q106.26 4.71 106.90 3.99L106.90 3.99L106.90-4.23L108.86-4.23L108.86 6.91L107.69 6.91Q107.27 6.91 107.16 6.50L107.16 6.50L107.01 5.31Q106.28 6.11 105.38 6.60Q104.48 7.09 103.31 7.09L103.31 7.09Q102.40 7.09 101.70 6.78Q101.00 6.48 100.53 5.93Q100.06 5.38 99.82 4.60Q99.59 3.82 99.59 2.87L99.59 2.87L99.59-4.23ZM114.04 6.91L112.08 6.91L112.08-4.23L113.20-4.23Q113.52-4.23 113.64-4.11Q113.76-3.99 113.81-3.69L113.81-3.69L113.94-1.95Q114.51-3.12 115.35-3.78Q116.20-4.43 117.33-4.43L117.33-4.43Q117.79-4.43 118.16-4.33Q118.54-4.22 118.86-4.03L118.86-4.03L118.60-2.57Q118.53-2.30 118.26-2.30L118.26-2.30Q118.11-2.30 117.79-2.40Q117.47-2.50 116.90-2.50L116.90-2.50Q115.88-2.50 115.19-1.91Q114.50-1.32 114.04-0.18L114.04-0.18L114.04 6.91ZM127.77-3.11L127.33-2.39Q127.20-2.15 126.92-2.15L126.92-2.15Q126.76-2.15 126.55-2.27Q126.34-2.39 126.04-2.54Q125.73-2.69 125.31-2.82Q124.90-2.94 124.32-2.94L124.32-2.94Q123.83-2.94 123.43-2.82Q123.04-2.69 122.76-2.47Q122.48-2.25 122.33-1.96Q122.18-1.67 122.18-1.33L122.18-1.33Q122.18-0.90 122.43-0.61Q122.67-0.33 123.08-0.12Q123.49 0.09 124.01 0.25Q124.52 0.41 125.07 0.59Q125.61 0.77 126.13 0.99Q126.65 1.21 127.05 1.54Q127.46 1.87 127.71 2.35Q127.95 2.83 127.95 3.50L127.95 3.50Q127.95 4.27 127.68 4.93Q127.40 5.58 126.87 6.06Q126.33 6.54 125.55 6.81Q124.76 7.09 123.74 7.09L123.74 7.09Q122.58 7.09 121.63 6.71Q120.68 6.33 120.02 5.73L120.02 5.73L120.49 4.99Q120.57 4.84 120.69 4.77Q120.82 4.69 121.01 4.69L121.01 4.69Q121.21 4.69 121.43 4.84Q121.65 5.00 121.97 5.18Q122.28 5.37 122.72 5.53Q123.17 5.68 123.84 5.68L123.84 5.68Q124.41 5.68 124.84 5.53Q125.27 5.38 125.56 5.13Q125.84 4.88 125.98 4.55Q126.12 4.22 126.12 3.84L126.12 3.84Q126.12 3.38 125.87 3.08Q125.62 2.78 125.22 2.56Q124.81 2.35 124.29 2.19Q123.76 2.03 123.22 1.85Q122.67 1.68 122.15 1.45Q121.63 1.22 121.22 0.88Q120.82 0.54 120.57 0.04Q120.32-0.46 120.32-1.17L120.32-1.17Q120.32-1.81 120.58-2.40Q120.85-2.99 121.35-3.43Q121.86-3.88 122.60-4.14Q123.33-4.41 124.28-4.41L124.28-4.41Q125.38-4.41 126.26-4.06Q127.13-3.71 127.77-3.11L127.77-3.11ZM134.91-4.41L134.91-4.41Q135.91-4.41 136.75-4.07Q137.60-3.74 138.22-3.10Q138.83-2.47 139.18-1.54Q139.53-0.61 139.53 0.58L139.53 0.58Q139.53 1.04 139.43 1.19Q139.33 1.35 139.05 1.35L139.05 1.35L131.64 1.35Q131.66 2.40 131.93 3.18Q132.19 3.96 132.65 4.49Q133.11 5.01 133.75 5.27Q134.39 5.53 135.18 5.53L135.18 5.53Q135.92 5.53 136.45 5.35Q136.99 5.18 137.37 4.99Q137.76 4.79 138.01 4.62Q138.27 4.45 138.46 4.45L138.46 4.45Q138.70 4.45 138.83 4.63L138.83 4.63L139.38 5.35Q139.02 5.79 138.51 6.11Q138.01 6.44 137.43 6.65Q136.85 6.86 136.24 6.96Q135.62 7.07 135.02 7.07L135.02 7.07Q133.86 7.07 132.89 6.67Q131.91 6.28 131.21 5.53Q130.50 4.78 130.10 3.67Q129.70 2.56 129.70 1.11L129.70 1.11Q129.70-0.05 130.06-1.06Q130.42-2.08 131.09-2.82Q131.76-3.56 132.73-3.98Q133.70-4.41 134.91-4.41ZM134.95-2.97L134.95-2.97Q133.53-2.97 132.72-2.15Q131.90-1.33 131.71 0.12L131.71 0.12L137.77 0.12Q137.77-0.56 137.58-1.12Q137.39-1.69 137.03-2.10Q136.67-2.52 136.14-2.74Q135.62-2.97 134.95-2.97ZM155.75-4.23L149.54 10.20Q149.44 10.42 149.29 10.55Q149.14 10.68 148.83 10.68L148.83 10.68L147.38 10.68L149.42 6.26L144.82-4.23L146.51-4.23Q146.76-4.23 146.91-4.11Q147.05-3.98 147.12-3.82L147.12-3.82L150.10 3.19Q150.20 3.44 150.27 3.68Q150.34 3.92 150.39 4.17L150.39 4.17Q150.47 3.92 150.55 3.68Q150.63 3.44 150.72 3.18L150.72 3.18L153.62-3.82Q153.68-4.00 153.84-4.12Q154.00-4.23 154.19-4.23L154.19-4.23L155.75-4.23ZM161.66-4.41L161.66-4.41Q162.66-4.41 163.51-4.07Q164.35-3.74 164.97-3.10Q165.59-2.47 165.93-1.54Q166.28-0.61 166.28 0.58L166.28 0.58Q166.28 1.04 166.18 1.19Q166.08 1.35 165.81 1.35L165.81 1.35L158.39 1.35Q158.41 2.40 158.68 3.18Q158.94 3.96 159.40 4.49Q159.87 5.01 160.50 5.27Q161.14 5.53 161.93 5.53L161.93 5.53Q162.67 5.53 163.20 5.35Q163.74 5.18 164.12 4.99Q164.51 4.79 164.77 4.62Q165.02 4.45 165.21 4.45L165.21 4.45Q165.45 4.45 165.59 4.63L165.59 4.63L166.14 5.35Q165.77 5.79 165.27 6.11Q164.76 6.44 164.18 6.65Q163.61 6.86 162.99 6.96Q162.37 7.07 161.77 7.07L161.77 7.07Q160.61 7.07 159.64 6.67Q158.67 6.28 157.96 5.53Q157.25 4.78 156.85 3.67Q156.46 2.56 156.46 1.11L156.46 1.11Q156.46-0.05 156.81-1.06Q157.17-2.08 157.84-2.82Q158.51-3.56 159.48-3.98Q160.45-4.41 161.66-4.41ZM161.70-2.97L161.70-2.97Q160.28-2.97 159.47-2.15Q158.66-1.33 158.46 0.12L158.46 0.12L164.52 0.12Q164.52-0.56 164.33-1.12Q164.14-1.69 163.78-2.10Q163.42-2.52 162.90-2.74Q162.37-2.97 161.70-2.97ZM172.15 7.09L172.15 7.09Q170.83 7.09 170.12 6.35Q169.41 5.61 169.41 4.23L169.41 4.23L169.41-2.59L168.07-2.59Q167.90-2.59 167.77-2.70Q167.65-2.80 167.65-3.02L167.65-3.02L167.65-3.80L169.48-4.03L169.93-7.48Q169.95-7.64 170.07-7.75Q170.19-7.85 170.38-7.85L170.38-7.85L171.37-7.85L171.37-4.01L174.56-4.01L174.56-2.59L171.37-2.59L171.37 4.10Q171.37 4.80 171.71 5.14Q172.05 5.48 172.59 5.48L172.59 5.48Q172.90 5.48 173.13 5.40Q173.35 5.32 173.52 5.22Q173.68 5.12 173.80 5.04Q173.91 4.95 174.00 4.95L174.00 4.95Q174.15 4.95 174.28 5.14L174.28 5.14L174.85 6.08Q174.34 6.55 173.63 6.82Q172.91 7.09 172.15 7.09ZM176.34 5.70L176.34 5.70Q176.34 5.42 176.45 5.16Q176.55 4.91 176.73 4.72Q176.92 4.54 177.17 4.43Q177.42 4.32 177.71 4.32L177.71 4.32Q177.99 4.32 178.25 4.43Q178.50 4.54 178.69 4.72Q178.87 4.91 178.98 5.16Q179.08 5.42 179.08 5.70L179.08 5.70Q179.08 6.00 178.98 6.25Q178.87 6.49 178.69 6.68Q178.50 6.87 178.25 6.97Q177.99 7.08 177.71 7.08L177.71 7.08Q177.42 7.08 177.17 6.97Q176.92 6.87 176.73 6.68Q176.55 6.49 176.45 6.25Q176.34 6.00 176.34 5.70Z"/></g>
</svg>