<svg xmlns="http://www.w3.org/2000/svg" xmlns:xlink="http://www.w3.org/1999/xlink" version="1.1" width="940" height="788" viewBox="0 0 940 788" xml:space="preserve">
<desc>Created with Fabric.js 3.5.0</desc>
<defs>
</defs>
<rect x="0" y="0" width="100%" height="100%" fill="#ffffff"/>
<g transform="matrix(1.5728 0 0 1.5728 469.9879 393.2)" id="889140">
<g style="" vector-effect="non-scaling-stroke">
		<g transform="matrix(1 0 0 1 0 132.523)" id="Background_Complete">
<rect style="stroke: none; stroke-width: 1; stroke-dasharray: none; stroke-linecap: butt; stroke-dashoffset: 0; stroke-linejoin: miter; stroke-miterlimit: 4; is-custom-font: none; font-file-url: none; fill: rgb(235,235,235); fill-rule: nonzero; opacity: 1;" x="-250" y="-0.125" rx="0" ry="0" width="500" height="0.25"/>
</g>
		<g transform="matrix(1 0 0 1 183.34 148.619)" id="Background_Complete">
<rect style="stroke: none; stroke-width: 1; stroke-dasharray: none; stroke-linecap: butt; stroke-dashoffset: 0; stroke-linejoin: miter; stroke-miterlimit: 4; is-custom-font: none; font-file-url: none; fill: rgb(235,235,235); fill-rule: nonzero; opacity: 1;" x="-16.561" y="-0.125" rx="0" ry="0" width="33.122" height="0.25"/>
</g>
		<g transform="matrix(1 0 0 1 76.8735 151.333)" id="Background_Complete">
<rect style="stroke: none; stroke-width: 1; stroke-dasharray: none; stroke-linecap: butt; stroke-dashoffset: 0; stroke-linejoin: miter; stroke-miterlimit: 4; is-custom-font: none; font-file-url: none; fill: rgb(235,235,235); fill-rule: nonzero; opacity: 1;" x="-4.3465" y="-0.125" rx="0" ry="0" width="8.693" height="0.25"/>
</g>
		<g transform="matrix(1 0 0 1 156.182 139.333)" id="Background_Complete">
<rect style="stroke: none; stroke-width: 1; stroke-dasharray: none; stroke-linecap: butt; stroke-dashoffset: 0; stroke-linejoin: miter; stroke-miterlimit: 4; is-custom-font: none; font-file-url: none; fill: rgb(235,235,235); fill-rule: nonzero; opacity: 1;" x="-9.596" y="-0.125" rx="0" ry="0" width="19.192" height="0.25"/>
</g>
		<g transform="matrix(1 0 0 1 -175.9445 141.013)" id="Background_Complete">
<rect style="stroke: none; stroke-width: 1; stroke-dasharray: none; stroke-linecap: butt; stroke-dashoffset: 0; stroke-linejoin: miter; stroke-miterlimit: 4; is-custom-font: none; font-file-url: none; fill: rgb(235,235,235); fill-rule: nonzero; opacity: 1;" x="-21.5965" y="-0.125" rx="0" ry="0" width="43.193" height="0.25"/>
</g>
		<g transform="matrix(1 0 0 1 -142.2775 141.013)" id="Background_Complete">
<rect style="stroke: none; stroke-width: 1; stroke-dasharray: none; stroke-linecap: butt; stroke-dashoffset: 0; stroke-linejoin: miter; stroke-miterlimit: 4; is-custom-font: none; font-file-url: none; fill: rgb(235,235,235); fill-rule: nonzero; opacity: 1;" x="-3.1665" y="-0.125" rx="0" ry="0" width="6.333" height="0.25"/>
</g>
		<g transform="matrix(1 0 0 1 -71.691 145.236)" id="Background_Complete">
<rect style="stroke: none; stroke-width: 1; stroke-dasharray: none; stroke-linecap: butt; stroke-dashoffset: 0; stroke-linejoin: miter; stroke-miterlimit: 4; is-custom-font: none; font-file-url: none; fill: rgb(235,235,235); fill-rule: nonzero; opacity: 1;" x="-46.838" y="-0.125" rx="0" ry="0" width="93.676" height="0.25"/>
</g>
		<g transform="matrix(1 0 0 1 -109.536 -53.624)" id="Background_Complete">
<path style="stroke: none; stroke-width: 1; stroke-dasharray: none; stroke-linecap: butt; stroke-dashoffset: 0; stroke-linejoin: miter; stroke-miterlimit: 4; is-custom-font: none; font-file-url: none; fill: rgb(235,235,235); fill-rule: nonzero; opacity: 1;" transform=" translate(-140.464, -196.376)" d="M 237.014 337.8 H 43.915 c -3.147 0 -5.708 -2.561 -5.708 -5.708 V 60.66 c 0 -3.147 2.561 -5.708 5.708 -5.708 h 193.099 c 3.146 0 5.707 2.561 5.707 5.708 v 271.432 C 242.721 335.239 240.16 337.8 237.014 337.8 z M 43.915 55.203 c -3.01 0 -5.458 2.448 -5.458 5.458 v 271.432 c 0 3.01 2.448 5.458 5.458 5.458 h 193.099 c 3.009 0 5.457 -2.448 5.457 -5.458 V 60.66 c 0 -3.009 -2.448 -5.458 -5.457 -5.458 H 43.915 z" stroke-linecap="round"/>
</g>
		<g transform="matrix(1 0 0 1 106.7615 -53.624)" id="Background_Complete">
<path style="stroke: none; stroke-width: 1; stroke-dasharray: none; stroke-linecap: butt; stroke-dashoffset: 0; stroke-linejoin: miter; stroke-miterlimit: 4; is-custom-font: none; font-file-url: none; fill: rgb(235,235,235); fill-rule: nonzero; opacity: 1;" transform=" translate(-356.7615, -196.376)" d="M 453.31 337.8 H 260.212 c -3.147 0 -5.707 -2.561 -5.707 -5.708 V 60.66 c 0 -3.147 2.561 -5.708 5.707 -5.708 H 453.31 c 3.148 0 5.708 2.561 5.708 5.708 v 271.432 C 459.019 335.239 456.458 337.8 453.31 337.8 z M 260.212 55.203 c -3.009 0 -5.457 2.448 -5.457 5.458 v 271.432 c 0 3.01 2.448 5.458 5.457 5.458 H 453.31 c 3.01 0 5.458 -2.448 5.458 -5.458 V 60.66 c 0 -3.009 -2.448 -5.458 -5.458 -5.458 H 260.212 z" stroke-linecap="round"/>
</g>
		<g transform="matrix(-1 0 0 -1 108.5808 -121.0553)" id="Background_Complete">
<rect style="stroke: none; stroke-width: 1; stroke-dasharray: none; stroke-linecap: butt; stroke-dashoffset: 0; stroke-linejoin: miter; stroke-miterlimit: 4; is-custom-font: none; font-file-url: none; fill: rgb(230,230,230); fill-rule: nonzero; opacity: 1;" x="-68.8905" y="-45.1135" rx="0" ry="0" width="137.781" height="90.227"/>
</g>
		<g transform="matrix(-1 0 0 -1 105.4969 -121.0553)" id="Background_Complete">
<rect style="stroke: none; stroke-width: 1; stroke-dasharray: none; stroke-linecap: butt; stroke-dashoffset: 0; stroke-linejoin: miter; stroke-miterlimit: 4; is-custom-font: none; font-file-url: none; fill: rgb(240,240,240); fill-rule: nonzero; opacity: 1;" x="-70.01" y="-45.1135" rx="0" ry="0" width="140.02" height="90.227"/>
</g>
		<g transform="matrix(-1 0 0 -1 108.5808 -67.0884)" id="Background_Complete">
<rect style="stroke: none; stroke-width: 1; stroke-dasharray: none; stroke-linecap: butt; stroke-dashoffset: 0; stroke-linejoin: miter; stroke-miterlimit: 4; is-custom-font: none; font-file-url: none; fill: rgb(230,230,230); fill-rule: nonzero; opacity: 1;" x="-68.8905" y="-8.854" rx="0" ry="0" width="137.781" height="17.708"/>
</g>
		<g transform="matrix(-1 0 0 -1 98.4937 -67.0884)" id="Background_Complete">
<rect style="stroke: none; stroke-width: 1; stroke-dasharray: none; stroke-linecap: butt; stroke-dashoffset: 0; stroke-linejoin: miter; stroke-miterlimit: 4; is-custom-font: none; font-file-url: none; fill: rgb(240,240,240); fill-rule: nonzero; opacity: 1;" x="-70.01" y="-8.854" rx="0" ry="0" width="140.02" height="17.708"/>
</g>
		<g transform="matrix(0 1 -1 0 105.4976 -121.0549)" id="Background_Complete">
<rect style="stroke: none; stroke-width: 1; stroke-dasharray: none; stroke-linecap: butt; stroke-dashoffset: 0; stroke-linejoin: miter; stroke-miterlimit: 4; is-custom-font: none; font-file-url: none; fill: rgb(250,250,250); fill-rule: nonzero; opacity: 1;" x="-39.228" y="-64.1245" rx="0" ry="0" width="78.456" height="128.249"/>
</g>
		<g transform="matrix(1 0 0 1 119.7315 -121.054)" id="Background_Complete">
<polygon style="stroke: none; stroke-width: 1; stroke-dasharray: none; stroke-linecap: butt; stroke-dashoffset: 0; stroke-linejoin: miter; stroke-miterlimit: 4; is-custom-font: none; font-file-url: none; fill: rgb(255,255,255); fill-rule: nonzero; opacity: 1;" points="20.9705,39.228 4.5905,-39.228 -20.9705,-39.228 -4.5905,39.228 "/>
</g>
		<g transform="matrix(1 0 0 1 166.897 -122.279)" id="Background_Complete">
<path style="stroke: none; stroke-width: 1; stroke-dasharray: none; stroke-linecap: butt; stroke-dashoffset: 0; stroke-linejoin: miter; stroke-miterlimit: 4; is-custom-font: none; font-file-url: none; fill: rgb(240,240,240); fill-rule: nonzero; opacity: 1;" transform=" translate(-416.897, -127.721)" d="M 416.897 162.315 c 0.232 0 0.421 -0.188 0.421 -0.42 V 93.547 c 0 -0.232 -0.188 -0.42 -0.421 -0.42 c -0.232 0 -0.421 0.188 -0.421 0.42 v 68.348 C 416.476 162.127 416.665 162.315 416.897 162.315 z" stroke-linecap="round"/>
</g>
		<g transform="matrix(1 0 0 1 96.477 -121.054)" id="Background_Complete">
<polygon style="stroke: none; stroke-width: 1; stroke-dasharray: none; stroke-linecap: butt; stroke-dashoffset: 0; stroke-linejoin: miter; stroke-miterlimit: 4; is-custom-font: none; font-file-url: none; fill: rgb(255,255,255); fill-rule: nonzero; opacity: 1;" points="13.173,39.228 -3.207,-39.228 -13.173,-39.228 3.208,39.228 "/>
</g>
		<g transform="matrix(0 1 -1 0 41.7466 -121.0549)" id="Background_Complete">
<rect style="stroke: none; stroke-width: 1; stroke-dasharray: none; stroke-linecap: butt; stroke-dashoffset: 0; stroke-linejoin: miter; stroke-miterlimit: 4; is-custom-font: none; font-file-url: none; fill: rgb(230,230,230); fill-rule: nonzero; opacity: 1;" x="-39.228" y="-0.3735" rx="0" ry="0" width="78.456" height="0.747"/>
</g>
		<g transform="matrix(1 0 0 1 103.256 -154.702)" id="Background_Complete">
<polygon style="stroke: none; stroke-width: 1; stroke-dasharray: none; stroke-linecap: butt; stroke-dashoffset: 0; stroke-linejoin: miter; stroke-miterlimit: 4; is-custom-font: none; font-file-url: none; fill: rgb(235,235,235); fill-rule: nonzero; opacity: 0.6;" points="-69.161,3.293 68.62,3.293 69.161,-3.293 -68.62,-3.293 "/>
</g>
		<g transform="matrix(1 0 0 1 103.256 -143.9)" id="Background_Complete">
<polygon style="stroke: none; stroke-width: 1; stroke-dasharray: none; stroke-linecap: butt; stroke-dashoffset: 0; stroke-linejoin: miter; stroke-miterlimit: 4; is-custom-font: none; font-file-url: none; fill: rgb(235,235,235); fill-rule: nonzero; opacity: 0.6;" points="-69.161,3.293 68.62,3.293 69.161,-3.293 -68.62,-3.293 "/>
</g>
		<g transform="matrix(1 0 0 1 103.256 -133.098)" id="Background_Complete">
<polygon style="stroke: none; stroke-width: 1; stroke-dasharray: none; stroke-linecap: butt; stroke-dashoffset: 0; stroke-linejoin: miter; stroke-miterlimit: 4; is-custom-font: none; font-file-url: none; fill: rgb(235,235,235); fill-rule: nonzero; opacity: 0.6;" points="-69.161,3.293 68.62,3.293 69.161,-3.293 -68.62,-3.293 "/>
</g>
		<g transform="matrix(1 0 0 1 103.256 -122.296)" id="Background_Complete">
<polygon style="stroke: none; stroke-width: 1; stroke-dasharray: none; stroke-linecap: butt; stroke-dashoffset: 0; stroke-linejoin: miter; stroke-miterlimit: 4; is-custom-font: none; font-file-url: none; fill: rgb(235,235,235); fill-rule: nonzero; opacity: 0.6;" points="-69.161,3.293 68.62,3.293 69.161,-3.293 -68.62,-3.293 "/>
</g>
		<g transform="matrix(1 0 0 1 103.256 -111.494)" id="Background_Complete">
<polygon style="stroke: none; stroke-width: 1; stroke-dasharray: none; stroke-linecap: butt; stroke-dashoffset: 0; stroke-linejoin: miter; stroke-miterlimit: 4; is-custom-font: none; font-file-url: none; fill: rgb(235,235,235); fill-rule: nonzero; opacity: 0.6;" points="-69.161,3.293 68.62,3.293 69.161,-3.293 -68.62,-3.293 "/>
</g>
		<g transform="matrix(1 0 0 1 103.256 -100.692)" id="Background_Complete">
<polygon style="stroke: none; stroke-width: 1; stroke-dasharray: none; stroke-linecap: butt; stroke-dashoffset: 0; stroke-linejoin: miter; stroke-miterlimit: 4; is-custom-font: none; font-file-url: none; fill: rgb(235,235,235); fill-rule: nonzero; opacity: 0.6;" points="-69.161,3.293 68.62,3.293 69.161,-3.293 -68.62,-3.293 "/>
</g>
		<g transform="matrix(1 0 0 1 143.2435 69.629)" id="Background_Complete">
<rect style="stroke: none; stroke-width: 1; stroke-dasharray: none; stroke-linecap: butt; stroke-dashoffset: 0; stroke-linejoin: miter; stroke-miterlimit: 4; is-custom-font: none; font-file-url: none; fill: rgb(230,230,230); fill-rule: nonzero; opacity: 1;" x="-14.4445" y="-2.848" rx="0" ry="0" width="28.889" height="5.696"/>
</g>
		<g transform="matrix(-1 0 0 -1 76.9749 66.8662)" id="Background_Complete">
<rect style="stroke: none; stroke-width: 1; stroke-dasharray: none; stroke-linecap: butt; stroke-dashoffset: 0; stroke-linejoin: miter; stroke-miterlimit: 4; is-custom-font: none; font-file-url: none; fill: rgb(230,230,230); fill-rule: nonzero; opacity: 1;" x="-2.6665" y="-65.5325" rx="0" ry="0" width="5.333" height="131.065"/>
</g>
		<g transform="matrix(-1 0 0 -1 92.3171 69.6293)" id="Background_Complete">
<rect style="stroke: none; stroke-width: 1; stroke-dasharray: none; stroke-linecap: butt; stroke-dashoffset: 0; stroke-linejoin: miter; stroke-miterlimit: 4; is-custom-font: none; font-file-url: none; fill: rgb(245,245,245); fill-rule: nonzero; opacity: 1;" x="-36.4815" y="-2.848" rx="0" ry="0" width="72.963" height="5.696"/>
</g>
		<g transform="matrix(1 0 0 1 143.2435 100.796)" id="Background_Complete">
<rect style="stroke: none; stroke-width: 1; stroke-dasharray: none; stroke-linecap: butt; stroke-dashoffset: 0; stroke-linejoin: miter; stroke-miterlimit: 4; is-custom-font: none; font-file-url: none; fill: rgb(230,230,230); fill-rule: nonzero; opacity: 1;" x="-14.4445" y="-2.848" rx="0" ry="0" width="28.889" height="5.696"/>
</g>
		<g transform="matrix(-1 0 0 -1 92.3171 100.7955)" id="Background_Complete">
<rect style="stroke: none; stroke-width: 1; stroke-dasharray: none; stroke-linecap: butt; stroke-dashoffset: 0; stroke-linejoin: miter; stroke-miterlimit: 4; is-custom-font: none; font-file-url: none; fill: rgb(245,245,245); fill-rule: nonzero; opacity: 1;" x="-36.4815" y="-2.848" rx="0" ry="0" width="72.963" height="5.696"/>
</g>
		<g transform="matrix(1 0 0 1 143.2435 7.296)" id="Background_Complete">
<rect style="stroke: none; stroke-width: 1; stroke-dasharray: none; stroke-linecap: butt; stroke-dashoffset: 0; stroke-linejoin: miter; stroke-miterlimit: 4; is-custom-font: none; font-file-url: none; fill: rgb(230,230,230); fill-rule: nonzero; opacity: 1;" x="-14.4445" y="-2.848" rx="0" ry="0" width="28.889" height="5.696"/>
</g>
		<g transform="matrix(-1 0 0 -1 92.3171 7.2955)" id="Background_Complete">
<rect style="stroke: none; stroke-width: 1; stroke-dasharray: none; stroke-linecap: butt; stroke-dashoffset: 0; stroke-linejoin: miter; stroke-miterlimit: 4; is-custom-font: none; font-file-url: none; fill: rgb(245,245,245); fill-rule: nonzero; opacity: 1;" x="-36.4815" y="-2.848" rx="0" ry="0" width="72.963" height="5.696"/>
</g>
		<g transform="matrix(1 0 0 1 143.2435 38.463)" id="Background_Complete">
<rect style="stroke: none; stroke-width: 1; stroke-dasharray: none; stroke-linecap: butt; stroke-dashoffset: 0; stroke-linejoin: miter; stroke-miterlimit: 4; is-custom-font: none; font-file-url: none; fill: rgb(230,230,230); fill-rule: nonzero; opacity: 1;" x="-14.4445" y="-2.848" rx="0" ry="0" width="28.889" height="5.696"/>
</g>
		<g transform="matrix(-1 0 0 -1 92.3171 38.4619)" id="Background_Complete">
<rect style="stroke: none; stroke-width: 1; stroke-dasharray: none; stroke-linecap: butt; stroke-dashoffset: 0; stroke-linejoin: miter; stroke-miterlimit: 4; is-custom-font: none; font-file-url: none; fill: rgb(245,245,245); fill-rule: nonzero; opacity: 1;" x="-36.4815" y="-2.848" rx="0" ry="0" width="72.963" height="5.696"/>
</g>
		<g transform="matrix(-1 0 0 -1 149.9376 66.8662)" id="Background_Complete">
<rect style="stroke: none; stroke-width: 1; stroke-dasharray: none; stroke-linecap: butt; stroke-dashoffset: 0; stroke-linejoin: miter; stroke-miterlimit: 4; is-custom-font: none; font-file-url: none; fill: rgb(230,230,230); fill-rule: nonzero; opacity: 1;" x="-2.6665" y="-65.5325" rx="0" ry="0" width="5.333" height="131.065"/>
</g>
		<g transform="matrix(-1 0 0 -1 126.1321 66.8662)" id="Background_Complete">
<rect style="stroke: none; stroke-width: 1; stroke-dasharray: none; stroke-linecap: butt; stroke-dashoffset: 0; stroke-linejoin: miter; stroke-miterlimit: 4; is-custom-font: none; font-file-url: none; fill: rgb(245,245,245); fill-rule: nonzero; opacity: 1;" x="-2.6665" y="-65.5325" rx="0" ry="0" width="5.333" height="131.065"/>
</g>
		<g transform="matrix(-1 0 0 -1 58.502 66.8662)" id="Background_Complete">
<rect style="stroke: none; stroke-width: 1; stroke-dasharray: none; stroke-linecap: butt; stroke-dashoffset: 0; stroke-linejoin: miter; stroke-miterlimit: 4; is-custom-font: none; font-file-url: none; fill: rgb(245,245,245); fill-rule: nonzero; opacity: 1;" x="-2.6665" y="-65.5325" rx="0" ry="0" width="5.333" height="131.065"/>
</g>
		<g transform="matrix(-1 0 0 -1 -157.3376 79.4531)" id="Background_Complete">
<rect style="stroke: none; stroke-width: 1; stroke-dasharray: none; stroke-linecap: butt; stroke-dashoffset: 0; stroke-linejoin: miter; stroke-miterlimit: 4; is-custom-font: none; font-file-url: none; fill: rgb(230,230,230); fill-rule: nonzero; opacity: 1;" x="-27.289" y="-52.946" rx="0" ry="0" width="54.578" height="105.892"/>
</g>
		<g transform="matrix(1 0 0 1 -169.699 125.09)" id="Background_Complete">
<polygon style="stroke: none; stroke-width: 1; stroke-dasharray: none; stroke-linecap: butt; stroke-dashoffset: 0; stroke-linejoin: miter; stroke-miterlimit: 4; is-custom-font: none; font-file-url: none; fill: rgb(250,250,250); fill-rule: nonzero; opacity: 1;" points="-0.353,7.309 -14.927,7.309 -14.927,-7.309 14.927,-7.309 "/>
</g>
		<g transform="matrix(-1 0 0 -1 -8.5282 79.4531)" id="Background_Complete">
<rect style="stroke: none; stroke-width: 1; stroke-dasharray: none; stroke-linecap: butt; stroke-dashoffset: 0; stroke-linejoin: miter; stroke-miterlimit: 4; is-custom-font: none; font-file-url: none; fill: rgb(230,230,230); fill-rule: nonzero; opacity: 1;" x="-27.289" y="-52.946" rx="0" ry="0" width="54.578" height="105.892"/>
</g>
		<g transform="matrix(-1 0 0 -1 -103.8621 76.9371)" id="Background_Complete">
<rect style="stroke: none; stroke-width: 1; stroke-dasharray: none; stroke-linecap: butt; stroke-dashoffset: 0; stroke-linejoin: miter; stroke-miterlimit: 4; is-custom-font: none; font-file-url: none; fill: rgb(250,250,250); fill-rule: nonzero; opacity: 1;" x="-80.7645" y="-50.4305" rx="0" ry="0" width="161.529" height="100.861"/>
</g>
		<g transform="matrix(1 0 0 1 -38.0245 125.09)" id="Background_Complete">
<polygon style="stroke: none; stroke-width: 1; stroke-dasharray: none; stroke-linecap: butt; stroke-dashoffset: 0; stroke-linejoin: miter; stroke-miterlimit: 4; is-custom-font: none; font-file-url: none; fill: rgb(250,250,250); fill-rule: nonzero; opacity: 1;" points="0.3535,7.309 14.9275,7.309 14.9275,-7.309 -14.9275,-7.309 "/>
</g>
		<g transform="matrix(-1 0 0 -1 -103.8621 76.711)" id="Background_Complete">
<rect style="stroke: none; stroke-width: 1; stroke-dasharray: none; stroke-linecap: butt; stroke-dashoffset: 0; stroke-linejoin: miter; stroke-miterlimit: 4; is-custom-font: none; font-file-url: none; fill: rgb(240,240,240); fill-rule: nonzero; opacity: 1;" x="-69.4585" y="-12.6205" rx="0" ry="0" width="138.917" height="25.241"/>
</g>
		<g transform="matrix(-1 0 0 -1 -103.8621 107.3463)" id="Background_Complete">
<rect style="stroke: none; stroke-width: 1; stroke-dasharray: none; stroke-linecap: butt; stroke-dashoffset: 0; stroke-linejoin: miter; stroke-miterlimit: 4; is-custom-font: none; font-file-url: none; fill: rgb(240,240,240); fill-rule: nonzero; opacity: 1;" x="-69.4585" y="-12.6205" rx="0" ry="0" width="138.917" height="25.241"/>
</g>
		<g transform="matrix(1 0 0 1 -103.862 64.3475)" id="Background_Complete">
<path style="stroke: none; stroke-width: 1; stroke-dasharray: none; stroke-linecap: butt; stroke-dashoffset: 0; stroke-linejoin: miter; stroke-miterlimit: 4; is-custom-font: none; font-file-url: none; fill: rgb(250,250,250); fill-rule: nonzero; opacity: 1;" transform=" translate(-146.138, -314.3475)" d="M 103.084 316.79 h 86.108 c 2.527 0 4.576 -2.049 4.576 -4.577 v -0.308 H 98.508 v 0.308 C 98.508 314.741 100.557 316.79 103.084 316.79 z" stroke-linecap="round"/>
</g>
		<g transform="matrix(-1 0 0 -1 -103.8621 46.0756)" id="Background_Complete">
<rect style="stroke: none; stroke-width: 1; stroke-dasharray: none; stroke-linecap: butt; stroke-dashoffset: 0; stroke-linejoin: miter; stroke-miterlimit: 4; is-custom-font: none; font-file-url: none; fill: rgb(240,240,240); fill-rule: nonzero; opacity: 1;" x="-69.4585" y="-12.6205" rx="0" ry="0" width="138.917" height="25.241"/>
</g>
		<g transform="matrix(1 0 0 1 -103.862 33.7115)" id="Background_Complete">
<path style="stroke: none; stroke-width: 1; stroke-dasharray: none; stroke-linecap: butt; stroke-dashoffset: 0; stroke-linejoin: miter; stroke-miterlimit: 4; is-custom-font: none; font-file-url: none; fill: rgb(250,250,250); fill-rule: nonzero; opacity: 1;" transform=" translate(-146.138, -283.7115)" d="M 103.084 286.154 h 86.108 c 2.527 0 4.576 -2.049 4.576 -4.577 v -0.308 H 98.508 v 0.308 C 98.508 284.105 100.557 286.154 103.084 286.154 z" stroke-linecap="round"/>
</g>
		<g transform="matrix(1 0 0 1 -103.862 94.983)" id="Background_Complete">
<path style="stroke: none; stroke-width: 1; stroke-dasharray: none; stroke-linecap: butt; stroke-dashoffset: 0; stroke-linejoin: miter; stroke-miterlimit: 4; is-custom-font: none; font-file-url: none; fill: rgb(250,250,250); fill-rule: nonzero; opacity: 1;" transform=" translate(-146.138, -344.983)" d="M 103.084 347.425 h 86.108 c 2.527 0 4.576 -2.049 4.576 -4.576 v -0.308 H 98.508 v 0.308 C 98.508 345.376 100.557 347.425 103.084 347.425 z" stroke-linecap="round"/>
</g>
		<g transform="matrix(-1 0 0 -1 -107.0413 -121.0553)" id="Background_Complete">
<rect style="stroke: none; stroke-width: 1; stroke-dasharray: none; stroke-linecap: butt; stroke-dashoffset: 0; stroke-linejoin: miter; stroke-miterlimit: 4; is-custom-font: none; font-file-url: none; fill: rgb(230,230,230); fill-rule: nonzero; opacity: 1;" x="-68.8905" y="-45.1135" rx="0" ry="0" width="137.781" height="90.227"/>
</g>
		<g transform="matrix(-1 0 0 -1 -110.1251 -121.0553)" id="Background_Complete">
<rect style="stroke: none; stroke-width: 1; stroke-dasharray: none; stroke-linecap: butt; stroke-dashoffset: 0; stroke-linejoin: miter; stroke-miterlimit: 4; is-custom-font: none; font-file-url: none; fill: rgb(240,240,240); fill-rule: nonzero; opacity: 1;" x="-70.01" y="-45.1135" rx="0" ry="0" width="140.02" height="90.227"/>
</g>
		<g transform="matrix(-1 0 0 -1 -107.0413 -67.0884)" id="Background_Complete">
<rect style="stroke: none; stroke-width: 1; stroke-dasharray: none; stroke-linecap: butt; stroke-dashoffset: 0; stroke-linejoin: miter; stroke-miterlimit: 4; is-custom-font: none; font-file-url: none; fill: rgb(230,230,230); fill-rule: nonzero; opacity: 1;" x="-68.8905" y="-8.854" rx="0" ry="0" width="137.781" height="17.708"/>
</g>
		<g transform="matrix(-1 0 0 -1 -117.1295 -67.0884)" id="Background_Complete">
<rect style="stroke: none; stroke-width: 1; stroke-dasharray: none; stroke-linecap: butt; stroke-dashoffset: 0; stroke-linejoin: miter; stroke-miterlimit: 4; is-custom-font: none; font-file-url: none; fill: rgb(240,240,240); fill-rule: nonzero; opacity: 1;" x="-70.01" y="-8.854" rx="0" ry="0" width="140.02" height="17.708"/>
</g>
		<g transform="matrix(0 1 -1 0 -110.125 -121.0543)" id="Background_Complete">
<rect style="stroke: none; stroke-width: 1; stroke-dasharray: none; stroke-linecap: butt; stroke-dashoffset: 0; stroke-linejoin: miter; stroke-miterlimit: 4; is-custom-font: none; font-file-url: none; fill: rgb(250,250,250); fill-rule: nonzero; opacity: 1;" x="-39.228" y="-64.1245" rx="0" ry="0" width="78.456" height="128.249"/>
</g>
		<g transform="matrix(1 0 0 1 -95.891 -121.054)" id="Background_Complete">
<polygon style="stroke: none; stroke-width: 1; stroke-dasharray: none; stroke-linecap: butt; stroke-dashoffset: 0; stroke-linejoin: miter; stroke-miterlimit: 4; is-custom-font: none; font-file-url: none; fill: rgb(255,255,255); fill-rule: nonzero; opacity: 1;" points="20.971,39.228 4.59,-39.228 -20.971,-39.228 -4.59,39.228 "/>
</g>
		<g transform="matrix(1 0 0 1 -48.7265 -122.279)" id="Background_Complete">
<path style="stroke: none; stroke-width: 1; stroke-dasharray: none; stroke-linecap: butt; stroke-dashoffset: 0; stroke-linejoin: miter; stroke-miterlimit: 4; is-custom-font: none; font-file-url: none; fill: rgb(240,240,240); fill-rule: nonzero; opacity: 1;" transform=" translate(-201.2735, -127.721)" d="M 201.274 162.315 c 0.232 0 0.42 -0.188 0.42 -0.42 V 93.547 c 0 -0.232 -0.188 -0.42 -0.42 -0.42 c -0.232 0 -0.421 0.188 -0.421 0.42 v 68.348 C 200.854 162.127 201.042 162.315 201.274 162.315 z" stroke-linecap="round"/>
</g>
		<g transform="matrix(1 0 0 1 -119.145 -121.054)" id="Background_Complete">
<polygon style="stroke: none; stroke-width: 1; stroke-dasharray: none; stroke-linecap: butt; stroke-dashoffset: 0; stroke-linejoin: miter; stroke-miterlimit: 4; is-custom-font: none; font-file-url: none; fill: rgb(255,255,255); fill-rule: nonzero; opacity: 1;" points="13.173,39.228 -3.208,-39.228 -13.173,-39.228 3.208,39.228 "/>
</g>
		<g transform="matrix(0 1 -1 0 -173.876 -121.0543)" id="Background_Complete">
<rect style="stroke: none; stroke-width: 1; stroke-dasharray: none; stroke-linecap: butt; stroke-dashoffset: 0; stroke-linejoin: miter; stroke-miterlimit: 4; is-custom-font: none; font-file-url: none; fill: rgb(230,230,230); fill-rule: nonzero; opacity: 1;" x="-39.228" y="-0.3735" rx="0" ry="0" width="78.456" height="0.747"/>
</g>
		<g transform="matrix(1 0 0 1 -112.3665 -154.702)" id="Background_Complete">
<polygon style="stroke: none; stroke-width: 1; stroke-dasharray: none; stroke-linecap: butt; stroke-dashoffset: 0; stroke-linejoin: miter; stroke-miterlimit: 4; is-custom-font: none; font-file-url: none; fill: rgb(235,235,235); fill-rule: nonzero; opacity: 0.6;" points="-69.1615,3.293 68.6195,3.293 69.1615,-3.293 -68.6195,-3.293 "/>
</g>
		<g transform="matrix(1 0 0 1 -112.3665 -150.9865)" id="Background_Complete">
<polygon style="stroke: none; stroke-width: 1; stroke-dasharray: none; stroke-linecap: butt; stroke-dashoffset: 0; stroke-linejoin: miter; stroke-miterlimit: 4; is-custom-font: none; font-file-url: none; fill: rgb(235,235,235); fill-rule: nonzero; opacity: 0.6;" points="-69.1615,3.2935 68.6195,3.2935 69.1615,-3.2935 -68.6195,-3.2935 "/>
</g>
		<g transform="matrix(1 0 0 1 -112.3665 -147.271)" id="Background_Complete">
<polygon style="stroke: none; stroke-width: 1; stroke-dasharray: none; stroke-linecap: butt; stroke-dashoffset: 0; stroke-linejoin: miter; stroke-miterlimit: 4; is-custom-font: none; font-file-url: none; fill: rgb(235,235,235); fill-rule: nonzero; opacity: 0.6;" points="-69.1615,3.293 68.6195,3.293 69.1615,-3.293 -68.6195,-3.293 "/>
</g>
		<g transform="matrix(1 0 0 1 -112.3665 -143.5555)" id="Background_Complete">
<polygon style="stroke: none; stroke-width: 1; stroke-dasharray: none; stroke-linecap: butt; stroke-dashoffset: 0; stroke-linejoin: miter; stroke-miterlimit: 4; is-custom-font: none; font-file-url: none; fill: rgb(235,235,235); fill-rule: nonzero; opacity: 0.6;" points="-69.1615,3.2935 68.6195,3.2935 69.1615,-3.2935 -68.6195,-3.2935 "/>
</g>
		<g transform="matrix(1 0 0 1 -112.3665 -139.84)" id="Background_Complete">
<polygon style="stroke: none; stroke-width: 1; stroke-dasharray: none; stroke-linecap: butt; stroke-dashoffset: 0; stroke-linejoin: miter; stroke-miterlimit: 4; is-custom-font: none; font-file-url: none; fill: rgb(235,235,235); fill-rule: nonzero; opacity: 0.6;" points="-69.1615,3.293 68.6195,3.293 69.1615,-3.293 -68.6195,-3.293 "/>
</g>
		<g transform="matrix(1 0 0 1 -112.3665 -136.125)" id="Background_Complete">
<polygon style="stroke: none; stroke-width: 1; stroke-dasharray: none; stroke-linecap: butt; stroke-dashoffset: 0; stroke-linejoin: miter; stroke-miterlimit: 4; is-custom-font: none; font-file-url: none; fill: rgb(235,235,235); fill-rule: nonzero; opacity: 0.6;" points="-69.1615,3.293 68.6195,3.293 69.1615,-3.293 -68.6195,-3.293 "/>
</g>
		<g transform="matrix(-1 0 0 -1 -151.6047 -3.275)" id="Background_Complete">
<rect style="stroke: none; stroke-width: 1; stroke-dasharray: none; stroke-linecap: butt; stroke-dashoffset: 0; stroke-linejoin: miter; stroke-miterlimit: 4; is-custom-font: none; font-file-url: none; fill: rgb(245,245,245); fill-rule: nonzero; opacity: 1;" x="-2.3815" y="-26.546" rx="0" ry="0" width="4.763" height="53.092"/>
</g>
		<g transform="matrix(-1 0 0 -1 -152.7006 -3.3116)" id="Background_Complete">
<rect style="stroke: none; stroke-width: 1; stroke-dasharray: none; stroke-linecap: butt; stroke-dashoffset: 0; stroke-linejoin: miter; stroke-miterlimit: 4; is-custom-font: none; font-file-url: none; fill: rgb(250,250,250); fill-rule: nonzero; opacity: 1;" x="-0.6725" y="-26.546" rx="0" ry="0" width="1.345" height="53.092"/>
</g>
		<g transform="matrix(-1 0 0 -1 -151.2009 -3.3114)" id="Background_Complete">
<rect style="stroke: none; stroke-width: 1; stroke-dasharray: none; stroke-linecap: butt; stroke-dashoffset: 0; stroke-linejoin: miter; stroke-miterlimit: 4; is-custom-font: none; font-file-url: none; fill: rgb(250,250,250); fill-rule: nonzero; opacity: 1;" x="-0.2635" y="-26.546" rx="0" ry="0" width="0.527" height="53.092"/>
</g>
		<g transform="matrix(1 0 0 1 -151.605 24.2855)" id="Background_Complete">
<path style="stroke: none; stroke-width: 1; stroke-dasharray: none; stroke-linecap: butt; stroke-dashoffset: 0; stroke-linejoin: miter; stroke-miterlimit: 4; is-custom-font: none; font-file-url: none; fill: rgb(240,240,240); fill-rule: nonzero; opacity: 1;" transform=" translate(-98.395, -274.2855)" d="M 80.763 276.507 h 35.264 v 0 c 0 -2.454 -1.989 -4.443 -4.443 -4.443 H 85.206 C 82.752 272.064 80.763 274.053 80.763 276.507 L 80.763 276.507 z" stroke-linecap="round"/>
</g>
		<g transform="matrix(1 0 0 1 -160.165 -15.637)" id="Background_Complete">
<path style="stroke: none; stroke-width: 1; stroke-dasharray: none; stroke-linecap: butt; stroke-dashoffset: 0; stroke-linejoin: miter; stroke-miterlimit: 4; is-custom-font: none; font-file-url: none; fill: rgb(240,240,240); fill-rule: nonzero; opacity: 1;" transform=" translate(-89.835, -234.363)" d="M 89.835 253.138 L 89.835 253.138 c 0.754 0 1.37 -0.617 1.37 -1.37 v -34.81 c 0 -0.753 -0.617 -1.37 -1.37 -1.37 l 0 0 c -0.754 0 -1.37 0.617 -1.37 1.37 v 34.81 C 88.465 252.522 89.081 253.138 89.835 253.138 z" stroke-linecap="round"/>
</g>
		<g transform="matrix(1 0 0 1 -151.605 -32.1005)" id="Background_Complete">
<polygon style="stroke: none; stroke-width: 1; stroke-dasharray: none; stroke-linecap: butt; stroke-dashoffset: 0; stroke-linejoin: miter; stroke-miterlimit: 4; is-custom-font: none; font-file-url: none; fill: rgb(224,224,224); fill-rule: nonzero; opacity: 1;" points="-21.321,14.8995 21.321,14.8995 16.416,-14.8995 -16.416,-14.8995 "/>
</g>
		<g transform="matrix(1 0 0 1 25.7161 -33.3993)" id="Background_Simple">
<path style="stroke: none; stroke-width: 1; stroke-dasharray: none; stroke-linecap: butt; stroke-dashoffset: 0; stroke-linejoin: miter; stroke-miterlimit: 4; is-custom-font: none; font-file-url: none; fill: rgb(64,123,255); fill-rule: nonzero; opacity: 1; visibility: hidden;" transform=" translate(-275.7161, -216.6007)" d="M 240.468 127.098 c 48.1 5.378 69.216 -36.321 116.882 -30.86 c 42.544 4.874 71.876 35.185 61.948 76.006 c -8.813 36.236 -50.805 47.61 -65.736 81.557 c -15.827 35.985 -28.104 74.793 -75.902 87.32 c -93.855 24.597 -139.441 -90.884 -145.828 -157.21 c -2.451 -25.461 -6.729 -86.327 26.505 -94.215 C 191.787 81.756 210.963 123.799 240.468 127.098 z" stroke-linecap="round"/>
</g>
		<g transform="matrix(1 0 0 1 25.7161 -33.3993)" id="Background_Simple">
<path style="stroke: none; stroke-width: 1; stroke-dasharray: none; stroke-linecap: butt; stroke-dashoffset: 0; stroke-linejoin: miter; stroke-miterlimit: 4; is-custom-font: none; font-file-url: none; fill: rgb(255,255,255); fill-rule: nonzero; opacity: 0.9; visibility: hidden;" transform=" translate(-275.7161, -216.6007)" d="M 240.468 127.098 c 48.1 5.378 69.216 -36.321 116.882 -30.86 c 42.544 4.874 71.876 35.185 61.948 76.006 c -8.813 36.236 -50.805 47.61 -65.736 81.557 c -15.827 35.985 -28.104 74.793 -75.902 87.32 c -93.855 24.597 -139.441 -90.884 -145.828 -157.21 c -2.451 -25.461 -6.729 -86.327 26.505 -94.215 C 191.787 81.756 210.963 123.799 240.468 127.098 z" stroke-linecap="round"/>
</g>
		<g transform="matrix(1 0 0 1 0 166.238)" id="_x3C_Path_x3E__130_">
<ellipse style="stroke: none; stroke-width: 1; stroke-dasharray: none; stroke-linecap: butt; stroke-dashoffset: 0; stroke-linejoin: miter; stroke-miterlimit: 4; is-custom-font: none; font-file-url: none; fill: rgb(245,245,245); fill-rule: nonzero; opacity: 1;" cx="0" cy="0" rx="193.889" ry="11.323"/>
</g>
		<g transform="matrix(0.9974 -0.0718 0.0718 0.9974 -145.7272 -38.3831)" id="Window_No_Data">
<rect style="stroke: none; stroke-width: 1; stroke-dasharray: none; stroke-linecap: butt; stroke-dashoffset: 0; stroke-linejoin: miter; stroke-miterlimit: 4; is-custom-font: none; font-file-url: none; fill: rgb(64,123,255); fill-rule: nonzero; opacity: 1;" x="-0.5" y="-9.2445" rx="0" ry="0" width="1" height="18.489"/>
</g>
		<g transform="matrix(0.9974 -0.0719 0.0719 0.9974 -144.1095 -16.1795)" id="Window_No_Data">
<rect style="stroke: none; stroke-width: 1; stroke-dasharray: none; stroke-linecap: butt; stroke-dashoffset: 0; stroke-linejoin: miter; stroke-miterlimit: 4; is-custom-font: none; font-file-url: none; fill: rgb(64,123,255); fill-rule: nonzero; opacity: 1;" x="-0.5" y="-3.4775" rx="0" ry="0" width="1" height="6.955"/>
</g>
		<g transform="matrix(1 0 0 1 -25.2635 -16.711)" id="Window_No_Data">
<path style="stroke: none; stroke-width: 1; stroke-dasharray: none; stroke-linecap: butt; stroke-dashoffset: 0; stroke-linejoin: miter; stroke-miterlimit: 4; is-custom-font: none; font-file-url: none; fill: rgb(64,123,255); fill-rule: nonzero; opacity: 1;" transform=" translate(-224.7364, -233.289)" d="M 337.711 315.161 H 123.553 c -4.844 0 -9.092 -3.963 -9.441 -8.807 l -10.523 -146.13 c -0.349 -4.844 3.329 -8.807 8.173 -8.807 H 325.92 c 4.844 0 9.092 3.963 9.441 8.807 l 10.523 146.13 C 346.232 311.198 342.555 315.161 337.711 315.161 z" stroke-linecap="round"/>
</g>
		<g transform="matrix(1 0 0 1 -24.4425 -16.711)" id="Window_No_Data">
<path style="stroke: none; stroke-width: 1; stroke-dasharray: none; stroke-linecap: butt; stroke-dashoffset: 0; stroke-linejoin: miter; stroke-miterlimit: 4; is-custom-font: none; font-file-url: none; fill: rgb(64,123,255); fill-rule: nonzero; opacity: 1;" transform=" translate(-225.5574, -233.289)" d="M 338.532 315.161 H 124.374 c -4.844 0 -9.092 -3.963 -9.441 -8.807 l -10.523 -146.13 c -0.349 -4.844 3.329 -8.807 8.173 -8.807 h 214.158 c 4.844 0 9.092 3.963 9.441 8.807 l 10.523 146.13 C 347.053 311.198 343.376 315.161 338.532 315.161 z" stroke-linecap="round"/>
</g>
		<g transform="matrix(1 0 0 1 -24.4425 -16.711)" id="Window_No_Data">
<path style="stroke: none; stroke-width: 1; stroke-dasharray: none; stroke-linecap: butt; stroke-dashoffset: 0; stroke-linejoin: miter; stroke-miterlimit: 4; is-custom-font: none; font-file-url: none; fill: rgb(255,255,255); fill-rule: nonzero; opacity: 0.5;" transform=" translate(-225.5574, -233.289)" d="M 338.532 315.161 H 124.374 c -4.844 0 -9.092 -3.963 -9.441 -8.807 l -10.523 -146.13 c -0.349 -4.844 3.329 -8.807 8.173 -8.807 h 214.158 c 4.844 0 9.092 3.963 9.441 8.807 l 10.523 146.13 C 347.053 311.198 343.376 315.161 338.532 315.161 z" stroke-linecap="round"/>
</g>
		<g transform="matrix(1 0 0 1 -29.7123 -89.7755)" id="Window_No_Data">
<path style="stroke: none; stroke-width: 1; stroke-dasharray: none; stroke-linecap: butt; stroke-dashoffset: 0; stroke-linejoin: miter; stroke-miterlimit: 4; is-custom-font: none; font-file-url: none; fill: rgb(64,123,255); fill-rule: nonzero; opacity: 1;" transform=" translate(-220.2877, -160.2245)" d="M 327.058 155.821 H 112.9 c -0.242 0 -0.481 0.01 -0.717 0.029 c -5.474 0.451 -4.356 8.778 1.169 8.778 h 214.523 c 5.525 0 5.444 -8.327 -0.095 -8.778 C 327.541 155.831 327.3 155.821 327.058 155.821 z" stroke-linecap="round"/>
</g>
		<g transform="matrix(1 0 0 1 -133.541 -89.775)" id="Window_No_Data">
<path style="stroke: none; stroke-width: 1; stroke-dasharray: none; stroke-linecap: butt; stroke-dashoffset: 0; stroke-linejoin: miter; stroke-miterlimit: 4; is-custom-font: none; font-file-url: none; fill: rgb(250,250,250); fill-rule: nonzero; opacity: 1;" transform=" translate(-116.459, -160.225)" d="M 118.478 160.225 c 0.08 1.115 -0.758 2.019 -1.874 2.019 c -1.115 0 -2.084 -0.904 -2.164 -2.019 c -0.08 -1.115 0.758 -2.019 1.874 -2.019 S 118.398 159.109 118.478 160.225 z" stroke-linecap="round"/>
</g>
		<g transform="matrix(1 0 0 1 -126.673 -89.775)" id="Window_No_Data">
<path style="stroke: none; stroke-width: 1; stroke-dasharray: none; stroke-linecap: butt; stroke-dashoffset: 0; stroke-linejoin: miter; stroke-miterlimit: 4; is-custom-font: none; font-file-url: none; fill: rgb(250,250,250); fill-rule: nonzero; opacity: 1;" transform=" translate(-123.327, -160.225)" d="M 125.346 160.225 c 0.08 1.115 -0.758 2.019 -1.874 2.019 c -1.115 0 -2.084 -0.904 -2.164 -2.019 c -0.08 -1.115 0.758 -2.019 1.874 -2.019 C 124.297 158.206 125.266 159.109 125.346 160.225 z" stroke-linecap="round"/>
</g>
		<g transform="matrix(1 0 0 1 -119.8055 -89.775)" id="Window_No_Data">
<path style="stroke: none; stroke-width: 1; stroke-dasharray: none; stroke-linecap: butt; stroke-dashoffset: 0; stroke-linejoin: miter; stroke-miterlimit: 4; is-custom-font: none; font-file-url: none; fill: rgb(250,250,250); fill-rule: nonzero; opacity: 1;" transform=" translate(-130.1945, -160.225)" d="M 132.214 160.225 c 0.08 1.115 -0.759 2.019 -1.874 2.019 c -1.115 0 -2.084 -0.904 -2.165 -2.019 c -0.08 -1.115 0.759 -2.019 1.874 -2.019 S 132.133 159.109 132.214 160.225 z" stroke-linecap="round"/>
</g>
		<g transform="matrix(1 0 0 1 -24.1545 -12.7025)" id="Window_No_Data">
<path style="stroke: none; stroke-width: 1; stroke-dasharray: none; stroke-linecap: butt; stroke-dashoffset: 0; stroke-linejoin: miter; stroke-miterlimit: 4; is-custom-font: none; font-file-url: none; fill: rgb(255,255,255); fill-rule: nonzero; opacity: 1;" transform=" translate(-225.8455, -237.2975)" d="M 332.854 300.577 H 127.951 c -1.763 0 -3.296 -1.43 -3.423 -3.193 l -8.654 -120.173 c -0.127 -1.763 1.2 -3.193 2.963 -3.193 h 204.903 c 1.763 0 3.296 1.429 3.423 3.193 l 8.654 120.173 C 335.944 299.147 334.617 300.577 332.854 300.577 z" stroke-linecap="round"/>
</g>
		<g transform="matrix(1 0 0 1 -24.0935 -21.4035)" id="Window_No_Data">
<polygon style="stroke: none; stroke-width: 1; stroke-dasharray: none; stroke-linecap: butt; stroke-dashoffset: 0; stroke-linejoin: miter; stroke-miterlimit: 4; is-custom-font: none; font-file-url: none; fill: rgb(255,255,255); fill-rule: nonzero; opacity: 1;" points="20.6235,26.2015 17.2885,-20.1175 7.1805,-26.2015 -20.6235,-26.2015 -16.8495,26.2015 "/>
</g>
		<g transform="matrix(1 0 0 1 -24.0935 -21.403)" id="Window_No_Data">
<path style="stroke: none; stroke-width: 1; stroke-dasharray: none; stroke-linecap: butt; stroke-dashoffset: 0; stroke-linejoin: miter; stroke-miterlimit: 4; is-custom-font: none; font-file-url: none; fill: rgb(64,123,255); fill-rule: nonzero; opacity: 1;" transform=" translate(-225.9065, -228.597)" d="M 246.53 255.283 h -37.473 c -0.254 0 -0.465 -0.196 -0.483 -0.45 L 204.8 202.43 c -0.01 -0.134 0.037 -0.267 0.129 -0.365 c 0.092 -0.099 0.22 -0.154 0.355 -0.154 h 27.804 c 0.088 0 0.175 0.024 0.25 0.07 l 10.107 6.083 c 0.135 0.081 0.222 0.223 0.233 0.38 l 3.335 46.319 c 0.01 0.134 -0.037 0.267 -0.129 0.365 C 246.793 255.227 246.664 255.283 246.53 255.283 z M 209.508 254.314 h 36.501 l -3.28 -45.549 l -9.776 -5.885 h -27.149 L 209.508 254.314 z" stroke-linecap="round"/>
</g>
		<g transform="matrix(1 0 0 1 -11.859 -43.575)" id="Window_No_Data">
<polygon style="stroke: none; stroke-width: 1; stroke-dasharray: none; stroke-linecap: butt; stroke-dashoffset: 0; stroke-linejoin: miter; stroke-miterlimit: 4; is-custom-font: none; font-file-url: none; fill: rgb(235,235,235); fill-rule: nonzero; opacity: 1;" points="5.054,2.054 -5.054,-4.03 -1.343,4.03 "/>
</g>
		<g transform="matrix(1 0 0 1 -11.8595 -43.5751)" id="Window_No_Data">
<path style="stroke: none; stroke-width: 1; stroke-dasharray: none; stroke-linecap: butt; stroke-dashoffset: 0; stroke-linejoin: miter; stroke-miterlimit: 4; is-custom-font: none; font-file-url: none; fill: rgb(64,123,255); fill-rule: nonzero; opacity: 1;" transform=" translate(-238.1405, -206.4249)" d="M 236.798 210.939 c -0.185 0 -0.359 -0.107 -0.44 -0.282 l -3.711 -8.059 c -0.089 -0.193 -0.042 -0.422 0.117 -0.564 c 0.158 -0.142 0.391 -0.163 0.573 -0.054 l 10.107 6.084 c 0.164 0.098 0.254 0.284 0.231 0.474 c -0.023 0.19 -0.155 0.348 -0.338 0.404 l -6.396 1.976 C 236.894 210.932 236.846 210.939 236.798 210.939 z M 234.186 203.622 l 2.875 6.244 l 4.956 -1.531 L 234.186 203.622 z" stroke-linecap="round"/>
</g>
		<g transform="matrix(1 0 0 1 -31.148 -23.995)" id="Window_No_Data">
<path style="stroke: none; stroke-width: 1; stroke-dasharray: none; stroke-linecap: butt; stroke-dashoffset: 0; stroke-linejoin: miter; stroke-miterlimit: 4; is-custom-font: none; font-file-url: none; fill: rgb(64,123,255); fill-rule: nonzero; opacity: 1;" transform=" translate(-218.852, -226.005)" d="M 220.969 226.005 c 0.084 1.169 -0.795 2.117 -1.965 2.117 s -2.185 -0.948 -2.269 -2.117 c -0.084 -1.169 0.795 -2.117 1.964 -2.117 S 220.885 224.836 220.969 226.005 z" stroke-linecap="round"/>
</g>
		<g transform="matrix(1 0 0 1 -17.4125 -23.995)" id="Window_No_Data">
<path style="stroke: none; stroke-width: 1; stroke-dasharray: none; stroke-linecap: butt; stroke-dashoffset: 0; stroke-linejoin: miter; stroke-miterlimit: 4; is-custom-font: none; font-file-url: none; fill: rgb(64,123,255); fill-rule: nonzero; opacity: 1;" transform=" translate(-232.5875, -226.005)" d="M 234.705 226.005 c 0.084 1.169 -0.795 2.117 -1.965 2.117 c -1.169 0 -2.185 -0.948 -2.27 -2.117 c -0.084 -1.169 0.795 -2.117 1.965 -2.117 C 233.605 223.889 234.621 224.836 234.705 226.005 z" stroke-linecap="round"/>
</g>
		<g transform="matrix(1 0 0 1 -23.3308 -14.0615)" id="Window_No_Data">
<path style="stroke: none; stroke-width: 1; stroke-dasharray: none; stroke-linecap: butt; stroke-dashoffset: 0; stroke-linejoin: miter; stroke-miterlimit: 4; is-custom-font: none; font-file-url: none; fill: rgb(64,123,255); fill-rule: nonzero; opacity: 1;" transform=" translate(-226.6692, -235.9385)" d="M 238.58 239.735 c -0.252 0 -0.464 -0.195 -0.483 -0.45 c -0.245 -3.404 -5.583 -6.173 -11.9 -6.173 c -4.185 0 -7.942 1.244 -9.806 3.247 c -0.829 0.891 -1.212 1.851 -1.14 2.856 c 0.019 0.267 -0.182 0.499 -0.449 0.518 c -0.268 0.017 -0.499 -0.182 -0.518 -0.449 c -0.091 -1.266 0.392 -2.506 1.397 -3.586 c 2.041 -2.194 6.07 -3.556 10.516 -3.556 c 6.929 0 12.581 3.107 12.867 7.072 c 0.019 0.267 -0.182 0.499 -0.449 0.518 C 238.603 239.735 238.591 239.735 238.58 239.735 z" stroke-linecap="round"/>
</g>
		<g transform="matrix(1 0 0 1 -35.7717 -29.9116)" id="Window_No_Data">
<path style="stroke: none; stroke-width: 1; stroke-dasharray: none; stroke-linecap: butt; stroke-dashoffset: 0; stroke-linejoin: miter; stroke-miterlimit: 4; is-custom-font: none; font-file-url: none; fill: rgb(64,123,255); fill-rule: nonzero; opacity: 1;" transform=" translate(-214.2283, -220.0885)" d="M 213.167 221.717 c -0.118 0 -0.236 -0.043 -0.33 -0.129 c -0.196 -0.182 -0.208 -0.489 -0.026 -0.685 l 2.124 -2.288 c 0.182 -0.197 0.489 -0.207 0.685 -0.026 c 0.196 0.182 0.207 0.489 0.026 0.685 l -2.123 2.288 C 213.427 221.665 213.297 221.717 213.167 221.717 z" stroke-linecap="round"/>
</g>
		<g transform="matrix(1 0 0 1 -13.643 -29.9115)" id="Window_No_Data">
<path style="stroke: none; stroke-width: 1; stroke-dasharray: none; stroke-linecap: butt; stroke-dashoffset: 0; stroke-linejoin: miter; stroke-miterlimit: 4; is-custom-font: none; font-file-url: none; fill: rgb(64,123,255); fill-rule: nonzero; opacity: 1;" transform=" translate(-236.357, -220.0885)" d="M 237.584 221.717 c -0.118 0 -0.237 -0.043 -0.331 -0.13 l -2.453 -2.288 c -0.196 -0.182 -0.206 -0.489 -0.024 -0.685 c 0.182 -0.196 0.489 -0.206 0.685 -0.024 l 2.453 2.288 c 0.196 0.182 0.206 0.489 0.024 0.685 C 237.843 221.665 237.714 221.717 237.584 221.717 z" stroke-linecap="round"/>
</g>
		<g transform="matrix(1 0 0 1 -43.716 19.0695)" id="Window_No_Data">
<path style="stroke: none; stroke-width: 1; stroke-dasharray: none; stroke-linecap: butt; stroke-dashoffset: 0; stroke-linejoin: miter; stroke-miterlimit: 4; is-custom-font: none; font-file-url: none; fill: rgb(64,123,255); fill-rule: nonzero; opacity: 1;" transform=" translate(-206.284, -269.0695)" d="M 202.257 265.153 h 2.26 l 3.261 4.334 l -0.312 -4.334 h 2.281 l 0.564 7.833 h -2.282 l -3.243 -4.301 l 0.31 4.301 h -2.276 L 202.257 265.153 z" stroke-linecap="round"/>
</g>
		<g transform="matrix(1 0 0 1 -34.6086 19.068)" id="Window_No_Data">
<path style="stroke: none; stroke-width: 1; stroke-dasharray: none; stroke-linecap: butt; stroke-dashoffset: 0; stroke-linejoin: miter; stroke-miterlimit: 4; is-custom-font: none; font-file-url: none; fill: rgb(64,123,255); fill-rule: nonzero; opacity: 1;" transform=" translate(-215.3914, -269.068)" d="M 211.334 269.074 c -0.092 -1.279 0.192 -2.274 0.854 -2.987 c 0.661 -0.712 1.628 -1.069 2.899 -1.069 c 1.304 0 2.333 0.35 3.089 1.05 c 0.756 0.7 1.179 1.68 1.27 2.941 c 0.066 0.915 -0.034 1.666 -0.3 2.252 c -0.266 0.586 -0.678 1.042 -1.237 1.368 c -0.559 0.326 -1.273 0.489 -2.142 0.489 c -0.883 0 -1.625 -0.141 -2.224 -0.422 c -0.599 -0.281 -1.1 -0.727 -1.504 -1.336 C 211.635 270.752 211.4 269.99 211.334 269.074 z M 213.755 269.085 c 0.057 0.791 0.245 1.359 0.563 1.704 c 0.319 0.346 0.731 0.518 1.237 0.518 c 0.52 0 0.91 -0.169 1.171 -0.508 c 0.261 -0.338 0.359 -0.946 0.296 -1.822 c -0.053 -0.737 -0.241 -1.276 -0.563 -1.616 s -0.738 -0.51 -1.247 -0.51 c -0.488 0 -0.867 0.173 -1.138 0.518 C 213.804 267.716 213.698 268.287 213.755 269.085 z" stroke-linecap="round"/>
</g>
		<g transform="matrix(1 0 0 1 -22.091 19.069)" id="Window_No_Data">
<path style="stroke: none; stroke-width: 1; stroke-dasharray: none; stroke-linecap: butt; stroke-dashoffset: 0; stroke-linejoin: miter; stroke-miterlimit: 4; is-custom-font: none; font-file-url: none; fill: rgb(64,123,255); fill-rule: nonzero; opacity: 1;" transform=" translate(-227.909, -269.069)" d="M 224.152 265.153 h 3.596 c 0.709 0 1.288 0.096 1.739 0.288 c 0.45 0.192 0.831 0.468 1.142 0.828 c 0.311 0.36 0.548 0.778 0.71 1.256 c 0.163 0.477 0.263 0.983 0.302 1.517 c 0.06 0.837 0.012 1.486 -0.146 1.948 c -0.157 0.461 -0.394 0.848 -0.71 1.159 c -0.316 0.312 -0.664 0.519 -1.045 0.622 c -0.52 0.143 -0.996 0.214 -1.427 0.214 h -3.596 L 224.152 265.153 z M 226.7 266.927 l 0.308 4.28 h 0.593 c 0.506 0 0.861 -0.056 1.067 -0.168 c 0.206 -0.112 0.359 -0.308 0.46 -0.588 c 0.101 -0.28 0.129 -0.733 0.084 -1.36 c -0.06 -0.83 -0.236 -1.398 -0.529 -1.704 c -0.293 -0.306 -0.753 -0.459 -1.38 -0.459 H 226.7 z" stroke-linecap="round"/>
</g>
		<g transform="matrix(1 0 0 1 -13.7965 19.0685)" id="Window_No_Data">
<path style="stroke: none; stroke-width: 1; stroke-dasharray: none; stroke-linecap: butt; stroke-dashoffset: 0; stroke-linejoin: miter; stroke-miterlimit: 4; is-custom-font: none; font-file-url: none; fill: rgb(64,123,255); fill-rule: nonzero; opacity: 1;" transform=" translate(-236.2035, -269.0685)" d="M 237.448 271.692 H 234.7 l -0.289 1.293 h -2.471 l 2.38 -7.833 h 2.64 l 3.507 7.833 h -2.535 L 237.448 271.692 z M 236.824 269.999 l -1.068 -2.816 l -0.653 2.816 H 236.824 z" stroke-linecap="round"/>
</g>
		<g transform="matrix(1 0 0 1 -6.883 19.0695)" id="Window_No_Data">
<path style="stroke: none; stroke-width: 1; stroke-dasharray: none; stroke-linecap: butt; stroke-dashoffset: 0; stroke-linejoin: miter; stroke-miterlimit: 4; is-custom-font: none; font-file-url: none; fill: rgb(64,123,255); fill-rule: nonzero; opacity: 1;" transform=" translate(-243.117, -269.0695)" d="M 239.369 265.153 h 7.357 l 0.139 1.934 h -2.468 l 0.425 5.899 h -2.42 l -0.425 -5.899 h -2.468 L 239.369 265.153 z" stroke-linecap="round"/>
</g>
		<g transform="matrix(1 0 0 1 1.1205 19.0685)" id="Window_No_Data">
<path style="stroke: none; stroke-width: 1; stroke-dasharray: none; stroke-linecap: butt; stroke-dashoffset: 0; stroke-linejoin: miter; stroke-miterlimit: 4; is-custom-font: none; font-file-url: none; fill: rgb(64,123,255); fill-rule: nonzero; opacity: 1;" transform=" translate(-251.1205, -269.0685)" d="M 252.365 271.692 h -2.748 l -0.289 1.293 h -2.471 l 2.38 -7.833 h 2.64 l 3.507 7.833 h -2.535 L 252.365 271.692 z M 251.741 269.999 l -1.067 -2.816 l -0.653 2.816 H 251.741 z" stroke-linecap="round"/>
</g>
		<g transform="matrix(1 0 0 1 119.6893 -93.3965)" id="Character_1_">
<path style="stroke: none; stroke-width: 1; stroke-dasharray: none; stroke-linecap: butt; stroke-dashoffset: 0; stroke-linejoin: miter; stroke-miterlimit: 4; is-custom-font: none; font-file-url: none; fill: rgb(255,181,115); fill-rule: nonzero; opacity: 1;" transform=" translate(-369.6893, -156.6035)" d="M 353.688 173.08 c 0.894 -0.448 1.959 -1.027 2.944 -1.568 c 1.003 -0.551 2.001 -1.126 2.983 -1.724 c 1.959 -1.206 3.934 -2.398 5.808 -3.722 c 3.782 -2.605 7.325 -5.496 10.513 -8.653 c 0.418 -0.382 0.773 -0.806 1.159 -1.21 l 0.57 -0.612 l 0.286 -0.306 l 0.143 -0.153 c 0.038 -0.04 0.029 -0.032 0.011 -0.008 l -0.032 0.049 c -0.142 0.267 -0.024 0.186 0.031 -0.072 c 0.067 -0.248 0.123 -0.653 0.141 -1.091 c 0.064 -1.816 -0.294 -4.105 -0.729 -6.318 c -0.89 -4.485 -2.238 -9.098 -3.57 -13.618 l 3.885 -1.704 c 2.434 4.346 4.462 8.785 6.113 13.598 c 0.786 2.438 1.508 4.886 1.719 7.893 c 0.039 0.766 0.056 1.571 -0.083 2.51 c -0.147 0.924 -0.38 2.03 -1.223 3.284 l -0.167 0.231 l -0.129 0.168 l -0.154 0.188 l -0.308 0.374 l -0.617 0.75 c -0.417 0.494 -0.813 1.015 -1.256 1.478 c -3.448 3.829 -7.284 7.211 -11.379 10.152 c -2.038 1.489 -4.12 2.903 -6.283 4.19 c -1.077 0.652 -2.168 1.278 -3.277 1.885 c -1.123 0.624 -2.191 1.167 -3.467 1.766 L 353.688 173.08 z" stroke-linecap="round"/>
</g>
		<g transform="matrix(1 0 0 1 95.005 157.1165)" id="Character_1_">
<path style="stroke: none; stroke-width: 1; stroke-dasharray: none; stroke-linecap: butt; stroke-dashoffset: 0; stroke-linejoin: miter; stroke-miterlimit: 4; is-custom-font: none; font-file-url: none; fill: rgb(64,123,255); fill-rule: nonzero; opacity: 1;" transform=" translate(-345.005, -407.1165)" d="M 344.794 408.178 c 0.774 0 1.62 -0.16 2.211 -0.3 c 0.077 -0.018 0.136 -0.08 0.15 -0.159 c 0.014 -0.078 -0.02 -0.157 -0.086 -0.2 c -0.287 -0.189 -2.83 -1.83 -3.805 -1.389 c -0.154 0.07 -0.347 0.223 -0.395 0.558 c -0.063 0.444 0.048 0.798 0.329 1.054 C 343.555 408.068 344.15 408.178 344.794 408.178 z M 346.444 407.595 c -1.458 0.291 -2.555 0.241 -2.979 -0.146 c -0.18 -0.164 -0.247 -0.395 -0.203 -0.706 c 0.023 -0.167 0.101 -0.222 0.165 -0.251 C 343.94 406.26 345.407 406.968 346.444 407.595 z" stroke-linecap="round"/>
</g>
		<g transform="matrix(1 0 0 1 95.9359 155.9878)" id="Character_1_">
<path style="stroke: none; stroke-width: 1; stroke-dasharray: none; stroke-linecap: butt; stroke-dashoffset: 0; stroke-linejoin: miter; stroke-miterlimit: 4; is-custom-font: none; font-file-url: none; fill: rgb(64,123,255); fill-rule: nonzero; opacity: 1;" transform=" translate(-345.936, -405.9877)" d="M 346.96 407.884 c 0.034 0 0.069 -0.009 0.1 -0.027 c 0.061 -0.036 0.099 -0.101 0.099 -0.172 c 0 -0.102 -0.011 -2.514 -0.922 -3.32 c -0.242 -0.214 -0.524 -0.303 -0.84 -0.265 c -0.497 0.06 -0.631 0.373 -0.668 0.553 c -0.189 0.944 1.334 2.751 2.133 3.204 C 346.892 407.875 346.926 407.884 346.96 407.884 z M 345.535 404.488 c 0.163 0 0.307 0.057 0.439 0.174 c 0.544 0.481 0.73 1.835 0.776 2.638 c -0.797 -0.636 -1.746 -1.994 -1.631 -2.569 c 0.019 -0.094 0.073 -0.206 0.326 -0.237 C 345.475 404.49 345.505 404.488 345.535 404.488 z" stroke-linecap="round"/>
</g>
		<g transform="matrix(1 0 0 1 88.2577 -90.235)" id="Character_1_">
<path style="stroke: none; stroke-width: 1; stroke-dasharray: none; stroke-linecap: butt; stroke-dashoffset: 0; stroke-linejoin: miter; stroke-miterlimit: 4; is-custom-font: none; font-file-url: none; fill: rgb(255,181,115); fill-rule: nonzero; opacity: 1;" transform=" translate(-338.2578, -159.765)" d="M 346.223 148.067 c -0.974 4.97 -3.028 15.037 0.45 18.354 c 0 0 -1.359 5.042 -10.594 5.042 c -10.155 0 -4.853 -5.041 -4.853 -5.041 c 5.543 -1.324 5.4 -5.436 4.434 -9.298 L 346.223 148.067 z" stroke-linecap="round"/>
</g>
		<g transform="matrix(1 0 0 1 89.4785 -84.4052)" id="Character_1_">
<path style="stroke: none; stroke-width: 1; stroke-dasharray: none; stroke-linecap: butt; stroke-dashoffset: 0; stroke-linejoin: miter; stroke-miterlimit: 4; is-custom-font: none; font-file-url: none; fill: rgb(38,50,56); fill-rule: nonzero; opacity: 1;" transform=" translate(-339.4785, -165.5948)" d="M 329.284 168.424 c -1.594 0.216 -0.238 -3.913 0.41 -4.341 c 1.496 -0.989 20.851 -2.389 20.725 -0.04 c -0.08 1.011 -0.555 2.984 -1.401 3.654 C 348.171 168.367 343.199 166.342 329.284 168.424 z" stroke-linecap="round"/>
</g>
		<g transform="matrix(1 0 0 1 90.2055 -86.8635)" id="Character_1_">
<path style="stroke: none; stroke-width: 1; stroke-dasharray: none; stroke-linecap: butt; stroke-dashoffset: 0; stroke-linejoin: miter; stroke-miterlimit: 4; is-custom-font: none; font-file-url: none; fill: rgb(38,50,56); fill-rule: nonzero; opacity: 1;" transform=" translate(-340.2055, -163.1365)" d="M 332.437 167.034 c -1.266 0.428 -1.146 -3.733 -0.715 -4.234 c 0.998 -1.158 16.664 -5.183 17.129 -2.906 c 0.179 0.983 0.265 2.947 -0.272 3.71 C 348.042 164.366 343.439 163.105 332.437 167.034 z" stroke-linecap="round"/>
</g>
		<g transform="matrix(1 0 0 1 75.1167 -111.977)" id="Character_1_">
<path style="stroke: none; stroke-width: 1; stroke-dasharray: none; stroke-linecap: butt; stroke-dashoffset: 0; stroke-linejoin: miter; stroke-miterlimit: 4; is-custom-font: none; font-file-url: none; fill: rgb(38,50,56); fill-rule: nonzero; opacity: 1;" transform=" translate(-325.1167, -138.0229)" d="M 326.61 139.108 c -0.123 0.007 -0.247 -0.042 -0.331 -0.145 c -1.12 -1.37 -2.576 -1.23 -2.59 -1.228 c -0.221 0.023 -0.414 -0.134 -0.437 -0.352 c -0.024 -0.218 0.134 -0.414 0.352 -0.437 c 0.077 -0.008 1.9 -0.185 3.29 1.514 c 0.139 0.17 0.114 0.42 -0.056 0.558 C 326.771 139.074 326.691 139.103 326.61 139.108 z" stroke-linecap="round"/>
</g>
		<g transform="matrix(1 0 0 1 73.9175 -103.5376)" id="Character_1_">
<path style="stroke: none; stroke-width: 1; stroke-dasharray: none; stroke-linecap: butt; stroke-dashoffset: 0; stroke-linejoin: miter; stroke-miterlimit: 4; is-custom-font: none; font-file-url: none; fill: rgb(255,86,82); fill-rule: nonzero; opacity: 1;" transform=" translate(-323.9175, -146.4624)" d="M 324.672 144.001 c 0 0 -0.856 3.007 -1.975 4.527 c 0.969 0.741 2.441 0.214 2.441 0.214 L 324.672 144.001 z" stroke-linecap="round"/>
</g>
		<g transform="matrix(1 0 0 1 74.364 -107.1355)" id="Character_1_">
<path style="stroke: none; stroke-width: 1; stroke-dasharray: none; stroke-linecap: butt; stroke-dashoffset: 0; stroke-linejoin: miter; stroke-miterlimit: 4; is-custom-font: none; font-file-url: none; fill: rgb(38,50,56); fill-rule: nonzero; opacity: 1;" transform=" translate(-324.364, -142.8645)" d="M 325.16 142.786 c 0.066 0.672 -0.237 1.252 -0.676 1.296 c -0.44 0.043 -0.849 -0.467 -0.916 -1.139 c -0.066 -0.672 0.237 -1.252 0.676 -1.296 C 324.684 141.604 325.094 142.114 325.16 142.786 z" stroke-linecap="round"/>
</g>
		<g transform="matrix(1 0 0 1 73.6125 -108.3273)" id="Character_1_">
<path style="stroke: none; stroke-width: 1; stroke-dasharray: none; stroke-linecap: butt; stroke-dashoffset: 0; stroke-linejoin: miter; stroke-miterlimit: 4; is-custom-font: none; font-file-url: none; fill: rgb(38,50,56); fill-rule: nonzero; opacity: 1;" transform=" translate(-323.6125, -141.6727)" d="M 324.443 141.665 l -1.661 -0.307 C 322.782 141.359 323.735 142.539 324.443 141.665 z" stroke-linecap="round"/>
</g>
		<g transform="matrix(1 0 0 1 102.8405 147.9865)" id="Character_1_">
<polygon style="stroke: none; stroke-width: 1; stroke-dasharray: none; stroke-linecap: butt; stroke-dashoffset: 0; stroke-linejoin: miter; stroke-miterlimit: 4; is-custom-font: none; font-file-url: none; fill: rgb(255,181,115); fill-rule: nonzero; opacity: 1;" points="3.8595,9.6985 -4.5165,9.6985 -3.8595,-9.6985 4.5165,-9.6985 "/>
</g>
		<g transform="matrix(1 0 0 1 97.2145 161.477)" id="Character_1_">
<path style="stroke: none; stroke-width: 1; stroke-dasharray: none; stroke-linecap: butt; stroke-dashoffset: 0; stroke-linejoin: miter; stroke-miterlimit: 4; is-custom-font: none; font-file-url: none; fill: rgb(38,50,56); fill-rule: nonzero; opacity: 1;" transform=" translate(-347.2145, -411.477)" d="M 347.661 406.716 h 9.41 c 0.342 0 0.62 0.238 0.668 0.572 l 1.072 7.445 c 0.111 0.772 -0.553 1.503 -1.343 1.49 c -3.281 -0.056 -4.862 -0.249 -9 -0.249 c -2.546 0 -6.266 0.264 -9.781 0.264 c -3.439 0 -3.703 -3.477 -2.239 -3.791 c 6.564 -1.412 7.601 -3.359 9.813 -5.216 C 346.659 406.896 347.16 406.716 347.661 406.716 z" stroke-linecap="round"/>
</g>
		<g transform="matrix(1 0 0 1 103.002 143.2925)" id="Character_1_">
<polygon style="stroke: none; stroke-width: 1; stroke-dasharray: none; stroke-linecap: butt; stroke-dashoffset: 0; stroke-linejoin: miter; stroke-miterlimit: 4; is-custom-font: none; font-file-url: none; fill: rgb(0,0,0); fill-rule: nonzero; opacity: 0.2;" points="4.357,-4.9995 -4.023,-4.9995 -4.357,4.9995 4.023,4.9995 "/>
</g>
		<g transform="matrix(1 0 0 1 56.9589 -92.962)" id="Character_1_">
<path style="stroke: none; stroke-width: 1; stroke-dasharray: none; stroke-linecap: butt; stroke-dashoffset: 0; stroke-linejoin: miter; stroke-miterlimit: 4; is-custom-font: none; font-file-url: none; fill: rgb(255,181,115); fill-rule: nonzero; opacity: 1;" transform=" translate(-306.9589, -157.038)" d="M 323.374 178.044 c -5.183 -2.029 -10.127 -4.236 -15.05 -6.754 c -4.915 -2.515 -9.754 -5.194 -14.404 -8.773 c -1.158 -0.911 -2.303 -1.907 -3.422 -3.07 c -0.279 -0.3 -0.558 -0.578 -0.832 -0.922 c -0.288 -0.362 -0.505 -0.575 -0.879 -1.131 c -0.676 -0.972 -1.199 -2.277 -1.338 -3.609 c -0.131 -1.333 0.108 -2.606 0.491 -3.621 c 0.382 -1.033 0.883 -1.876 1.407 -2.607 c 1.051 -1.464 2.216 -2.546 3.389 -3.52 c 2.343 -1.939 4.821 -3.349 7.303 -4.667 c 1.24 -0.658 2.504 -1.251 3.784 -1.797 c 1.286 -0.555 2.541 -1.071 3.906 -1.541 l 1.775 3.853 c -4.362 2.749 -8.88 5.771 -12.202 9.159 c -0.807 0.839 -1.513 1.717 -1.957 2.49 c -0.476 0.787 -0.47 1.376 -0.389 1.331 c 0.041 0 0.025 -0.018 0.141 0.098 l 0.398 0.427 c 0.15 0.179 0.361 0.362 0.55 0.546 c 0.785 0.733 1.706 1.469 2.699 2.169 c 1.985 1.413 4.172 2.735 6.434 3.97 c 2.254 1.252 4.573 2.45 6.935 3.587 c 4.712 2.257 9.598 4.429 14.392 6.413 L 323.374 178.044 z" stroke-linecap="round"/>
</g>
		<g transform="matrix(1 0 0 1 59.821 -113.7225)" id="Character_1_">
<path style="stroke: none; stroke-width: 1; stroke-dasharray: none; stroke-linecap: butt; stroke-dashoffset: 0; stroke-linejoin: miter; stroke-miterlimit: 4; is-custom-font: none; font-file-url: none; fill: rgb(255,181,115); fill-rule: nonzero; opacity: 1;" transform=" translate(-309.821, -136.2775)" d="M 311.969 137.154 l 1.385 -3.004 l -6.296 -2.186 c 0 0 -1.961 5.903 0.376 8.627 l 0 0 C 309.424 140.272 311.125 138.984 311.969 137.154 z" stroke-linecap="round"/>
</g>
		<g transform="matrix(1 0 0 1 60.206 -119.8225)" id="Character_1_">
<polygon style="stroke: none; stroke-width: 1; stroke-dasharray: none; stroke-linecap: butt; stroke-dashoffset: 0; stroke-linejoin: miter; stroke-miterlimit: 4; is-custom-font: none; font-file-url: none; fill: rgb(255,181,115); fill-rule: nonzero; opacity: 1;" points="3.148,-2.5215 -1.885,-3.9725 -3.148,1.7855 3.148,3.9725 "/>
</g>
		<g transform="matrix(1 0 0 1 125.8398 -118.002)" id="Character_1_">
<path style="stroke: none; stroke-width: 1; stroke-dasharray: none; stroke-linecap: butt; stroke-dashoffset: 0; stroke-linejoin: miter; stroke-miterlimit: 4; is-custom-font: none; font-file-url: none; fill: rgb(255,181,115); fill-rule: nonzero; opacity: 1;" transform=" translate(-375.8399, -131.998)" d="M 378.35 134.441 l 0.734 -7.02 l -6.488 1.525 c 0 0 -0.095 6.58 3.337 7.629 L 378.35 134.441 z" stroke-linecap="round"/>
</g>
		<g transform="matrix(1 0 0 1 125.407 -124.2735)" id="Character_1_">
<polygon style="stroke: none; stroke-width: 1; stroke-dasharray: none; stroke-linecap: butt; stroke-dashoffset: 0; stroke-linejoin: miter; stroke-miterlimit: 4; is-custom-font: none; font-file-url: none; fill: rgb(255,181,115); fill-rule: nonzero; opacity: 1;" points="0.551,-3.2195 -3.676,-1.2455 -2.812,3.2195 3.676,1.6945 "/>
</g>
		<g transform="matrix(1 0 0 1 85.9494 -106.8087)" id="Character_1_">
<path style="stroke: none; stroke-width: 1; stroke-dasharray: none; stroke-linecap: butt; stroke-dashoffset: 0; stroke-linejoin: miter; stroke-miterlimit: 4; is-custom-font: none; font-file-url: none; fill: rgb(255,181,115); fill-rule: nonzero; opacity: 1;" transform=" translate(-335.9495, -143.1912)" d="M 347.54 138.255 c 0.305 8.307 0.612 11.817 -3.142 16.466 c -5.646 6.992 -15.917 5.55 -18.698 -2.499 c -2.503 -7.245 -2.582 -19.613 5.178 -23.695 C 338.523 124.507 347.235 129.947 347.54 138.255 z" stroke-linecap="round"/>
</g>
		<g transform="matrix(1 0 0 1 89.5474 -111.6749)" id="Character_1_">
<path style="stroke: none; stroke-width: 1; stroke-dasharray: none; stroke-linecap: butt; stroke-dashoffset: 0; stroke-linejoin: miter; stroke-miterlimit: 4; is-custom-font: none; font-file-url: none; fill: rgb(38,50,56); fill-rule: nonzero; opacity: 1;" transform=" translate(-339.5474, -138.3251)" d="M 343.921 154.705 c 8.155 -3.524 13.519 -10.955 11.255 -22.574 c -2.166 -11.116 -9.671 -12.214 -12.771 -9.908 c -3.1 2.306 -10.827 -1.131 -15.464 2.771 c -8.035 6.761 -0.439 14.05 3.518 18.369 C 332.823 148.221 335.919 158.163 343.921 154.705 z" stroke-linecap="round"/>
</g>
		<g transform="matrix(1 0 0 1 97.3425 -124.5645)" id="Character_1_">
<path style="stroke: none; stroke-width: 1; stroke-dasharray: none; stroke-linecap: butt; stroke-dashoffset: 0; stroke-linejoin: miter; stroke-miterlimit: 4; is-custom-font: none; font-file-url: none; fill: rgb(64,123,255); fill-rule: nonzero; opacity: 1;" transform=" translate(-347.3425, -125.4355)" d="M 340.535 130.137 c 2.752 3.985 8.03 5.11 11.79 2.513 c 3.76 -2.596 4.577 -7.931 1.825 -11.916 c -2.752 -3.985 -8.03 -5.11 -11.79 -2.513 C 338.6 120.817 337.783 126.152 340.535 130.137 z" stroke-linecap="round"/>
</g>
		<g transform="matrix(1 0 0 1 104.3399 -119.8227)" id="Character_1_">
<path style="stroke: none; stroke-width: 1; stroke-dasharray: none; stroke-linecap: butt; stroke-dashoffset: 0; stroke-linejoin: miter; stroke-miterlimit: 4; is-custom-font: none; font-file-url: none; fill: rgb(38,50,56); fill-rule: nonzero; opacity: 1;" transform=" translate(-354.3399, -130.1773)" d="M 342.652 123.002 c -1.177 -6.698 5.161 -11.863 13.636 -9.367 c 8.475 2.496 3.992 10.009 2.254 16.009 c -1.738 6 2.823 11.715 4.729 7.145 c 1.906 -4.569 -1.298 -5.98 -1.298 -5.98 s 8.999 2.333 0.639 12.477 c -8.36 10.145 -15.928 -1.057 -13.881 -7.668 C 350.385 130.276 343.765 129.333 342.652 123.002 z" stroke-linecap="round"/>
</g>
		<g transform="matrix(1 0 0 1 76.5019 -120.1864)" id="Character_1_">
<path style="stroke: none; stroke-width: 1; stroke-dasharray: none; stroke-linecap: butt; stroke-dashoffset: 0; stroke-linejoin: miter; stroke-miterlimit: 4; is-custom-font: none; font-file-url: none; fill: rgb(38,50,56); fill-rule: nonzero; opacity: 1;" transform=" translate(-326.5019, -129.8135)" d="M 334.182 125.533 c -3.869 -2.018 -10.421 -3.65 -14.15 2.623 c -1.763 2.966 -1.08 6.989 -1.08 6.989 l 11.389 0.758 L 334.182 125.533 z" stroke-linecap="round"/>
</g>
		<g transform="matrix(1 0 0 1 76.1219 -121.7766)" id="Character_1_">
<path style="stroke: none; stroke-width: 1; stroke-dasharray: none; stroke-linecap: butt; stroke-dashoffset: 0; stroke-linejoin: miter; stroke-miterlimit: 4; is-custom-font: none; font-file-url: none; fill: rgb(38,50,56); fill-rule: nonzero; opacity: 1;" transform=" translate(-326.1219, -128.2235)" d="M 317.612 133.178 c -0.005 0 -0.01 0 -0.016 -0.001 c -0.138 -0.008 -0.242 -0.127 -0.234 -0.265 c 0.01 -0.17 0.286 -4.193 2.714 -6.717 c 5.869 -6.098 12.75 -1.04 14.719 0.656 c 0.105 0.09 0.117 0.248 0.026 0.353 c -0.091 0.105 -0.248 0.116 -0.353 0.026 c -1.885 -1.623 -8.467 -6.47 -14.032 -0.688 c -2.299 2.389 -2.573 6.361 -2.576 6.401 C 317.853 133.075 317.743 133.178 317.612 133.178 z" stroke-linecap="round"/>
</g>
		<g transform="matrix(1 0 0 1 79.3045 -105.5962)" id="Character_1_">
<path style="stroke: none; stroke-width: 1; stroke-dasharray: none; stroke-linecap: butt; stroke-dashoffset: 0; stroke-linejoin: miter; stroke-miterlimit: 4; is-custom-font: none; font-file-url: none; fill: rgb(255,181,115); fill-rule: nonzero; opacity: 1;" transform=" translate(-329.3045, -144.4038)" d="M 331.853 143.033 c -0.012 1.618 -0.737 3.202 -1.655 4.277 c -1.382 1.616 -2.966 0.82 -3.329 -0.972 c -0.327 -1.613 -0.003 -4.397 1.744 -5.373 C 330.333 140.004 331.867 141.183 331.853 143.033 z" stroke-linecap="round"/>
</g>
		<g transform="matrix(1 0 0 1 94.763 57.739)" id="Character_1_">
<path style="stroke: none; stroke-width: 1; stroke-dasharray: none; stroke-linecap: butt; stroke-dashoffset: 0; stroke-linejoin: miter; stroke-miterlimit: 4; is-custom-font: none; font-file-url: none; fill: rgb(38,50,56); fill-rule: nonzero; opacity: 1;" transform=" translate(-344.763, -307.739)" d="M 330.053 219.122 c 0 0 0.534 58.144 5.578 90.545 c 4.074 26.17 11.613 86.689 11.613 86.689 h 11.422 c 0 0 1.116 -58.424 -0.952 -84.308 c -5.233 -65.498 8.271 -77.743 -2.626 -92.926 H 330.053 z" stroke-linecap="round"/>
</g>
		<g transform="matrix(1 0 0 1 94.763 57.739)" id="Character_1_">
<path style="stroke: none; stroke-width: 1; stroke-dasharray: none; stroke-linecap: butt; stroke-dashoffset: 0; stroke-linejoin: miter; stroke-miterlimit: 4; is-custom-font: none; font-file-url: none; fill: rgb(255,255,255); fill-rule: nonzero; opacity: 0.1;" transform=" translate(-344.763, -307.739)" d="M 330.053 219.122 c 0 0 0.534 58.144 5.578 90.545 c 4.074 26.17 11.613 86.689 11.613 86.689 h 11.422 c 0 0 1.116 -58.424 -0.952 -84.308 c -5.233 -65.498 8.271 -77.743 -2.626 -92.926 H 330.053 z" stroke-linecap="round"/>
</g>
		<g transform="matrix(1 0 0 1 84.2887 21.7039)" id="Character_1_">
<path style="stroke: none; stroke-width: 1; stroke-dasharray: none; stroke-linecap: butt; stroke-dashoffset: 0; stroke-linejoin: miter; stroke-miterlimit: 4; is-custom-font: none; font-file-url: none; fill: rgb(0,0,0); fill-rule: nonzero; opacity: 0.3;" transform=" translate(-334.2887, -271.7038)" d="M 336.057 245.5 c 4.01 17.55 0.81 45.19 -1.38 57.36 c -2.32 -18.48 -3.49 -42.43 -4.07 -59.98 C 332.677 239.52 334.637 239.3 336.057 245.5 z" stroke-linecap="round"/>
</g>
		<g transform="matrix(1 0 0 1 103.296 143.7695)" id="Character_1_">
<polygon style="stroke: none; stroke-width: 1; stroke-dasharray: none; stroke-linecap: butt; stroke-dashoffset: 0; stroke-linejoin: miter; stroke-miterlimit: 4; is-custom-font: none; font-file-url: none; fill: rgb(64,123,255); fill-rule: nonzero; opacity: 1;" points="-7.615,2.8125 6.934,2.8125 7.698,-2.2915 -7.698,-2.8125 "/>
</g>
		<g transform="matrix(1 0 0 1 107.1594 -72.3412)" id="Character_1_">
<path style="stroke: none; stroke-width: 1; stroke-dasharray: none; stroke-linecap: butt; stroke-dashoffset: 0; stroke-linejoin: miter; stroke-miterlimit: 4; is-custom-font: none; font-file-url: none; fill: rgb(64,123,255); fill-rule: nonzero; opacity: 1;" transform=" translate(-357.1593, -177.6588)" d="M 349.833 170.042 c 1.368 -2.721 8.725 -4.433 12.746 -4.427 l 3.01 13.365 c 0 0 -8.012 11.89 -11.343 10.629 C 350.31 188.122 346.901 175.872 349.833 170.042 z" stroke-linecap="round"/>
</g>
		<g transform="matrix(1 0 0 1 107.1594 -72.3412)" id="Character_1_">
<path style="stroke: none; stroke-width: 1; stroke-dasharray: none; stroke-linecap: butt; stroke-dashoffset: 0; stroke-linejoin: miter; stroke-miterlimit: 4; is-custom-font: none; font-file-url: none; fill: rgb(0,0,0); fill-rule: nonzero; opacity: 0.4;" transform=" translate(-357.1593, -177.6588)" d="M 349.833 170.042 c 1.368 -2.721 8.725 -4.433 12.746 -4.427 l 3.01 13.365 c 0 0 -8.012 11.89 -11.343 10.629 C 350.31 188.122 346.901 175.872 349.833 170.042 z" stroke-linecap="round"/>
</g>
		<g transform="matrix(1 0 0 1 88.9251 144.4677)" id="Character_1_">
<path style="stroke: none; stroke-width: 1; stroke-dasharray: none; stroke-linecap: butt; stroke-dashoffset: 0; stroke-linejoin: miter; stroke-miterlimit: 4; is-custom-font: none; font-file-url: none; fill: rgb(64,123,255); fill-rule: nonzero; opacity: 1;" transform=" translate(-338.9251, -394.4676)" d="M 341.353 393.313 c 0.036 -0.059 0.039 -0.134 0.006 -0.196 c -0.039 -0.074 -0.121 -0.116 -0.205 -0.103 c -0.42 0.063 -4.122 0.651 -4.622 1.708 c -0.097 0.205 -0.083 0.421 0.039 0.625 c 0.204 0.341 0.493 0.533 0.858 0.57 c 1.213 0.125 2.965 -1.558 3.901 -2.572 C 341.338 393.334 341.346 393.324 341.353 393.313 z M 336.912 394.85 c 0.342 -0.561 2.256 -1.078 3.717 -1.347 c -1.319 1.341 -2.481 2.088 -3.161 2.018 c -0.238 -0.025 -0.42 -0.149 -0.558 -0.379 c -0.054 -0.09 -0.06 -0.167 -0.02 -0.251 C 336.897 394.877 336.904 394.863 336.912 394.85 z" stroke-linecap="round"/>
</g>
		<g transform="matrix(1 0 0 1 89.1862 142.3403)" id="Character_1_">
<path style="stroke: none; stroke-width: 1; stroke-dasharray: none; stroke-linecap: butt; stroke-dashoffset: 0; stroke-linejoin: miter; stroke-miterlimit: 4; is-custom-font: none; font-file-url: none; fill: rgb(64,123,255); fill-rule: nonzero; opacity: 1;" transform=" translate(-339.1862, -392.3402)" d="M 341.353 393.313 c 0.008 -0.012 0.014 -0.026 0.018 -0.04 c 0.023 -0.066 0.008 -0.14 -0.037 -0.193 c -0.063 -0.073 -1.546 -1.782 -2.913 -1.871 c -0.419 -0.027 -0.785 0.097 -1.09 0.37 c -0.411 0.368 -0.376 0.688 -0.273 0.891 c 0.433 0.858 3.093 1.157 4.166 0.934 C 341.278 393.392 341.324 393.359 341.353 393.313 z M 337.438 392.054 c 0.031 -0.051 0.081 -0.111 0.158 -0.18 c 0.225 -0.202 0.487 -0.29 0.799 -0.269 c 0.898 0.059 1.919 0.988 2.383 1.461 c -1.185 0.1 -3.106 -0.26 -3.366 -0.775 C 337.397 392.26 337.358 392.184 337.438 392.054 z" stroke-linecap="round"/>
</g>
		<g transform="matrix(1 0 0 1 92.0535 132.7185)" id="Character_1_">
<polygon style="stroke: none; stroke-width: 1; stroke-dasharray: none; stroke-linecap: butt; stroke-dashoffset: 0; stroke-linejoin: miter; stroke-miterlimit: 4; is-custom-font: none; font-file-url: none; fill: rgb(255,181,115); fill-rule: nonzero; opacity: 1;" points="8.0295,7.0465 0.3685,10.4495 -3.0455,3.3445 -7.5065,-5.9595 -8.0295,-7.0415 -0.3775,-10.4495 0.2145,-9.2315 4.5395,-0.2215 "/>
</g>
		<g transform="matrix(1 0 0 1 90.57 129.775)" id="Character_1_">
<polygon style="stroke: none; stroke-width: 1; stroke-dasharray: none; stroke-linecap: butt; stroke-dashoffset: 0; stroke-linejoin: miter; stroke-miterlimit: 4; is-custom-font: none; font-file-url: none; fill: rgb(0,0,0); fill-rule: nonzero; opacity: 0.2;" points="6.023,2.722 -1.562,6.288 -6.023,-3.016 1.698,-6.288 "/>
</g>
		<g transform="matrix(1 0 0 1 74.3407 51.3235)" id="Character_1_">
<path style="stroke: none; stroke-width: 1; stroke-dasharray: none; stroke-linecap: butt; stroke-dashoffset: 0; stroke-linejoin: miter; stroke-miterlimit: 4; is-custom-font: none; font-file-url: none; fill: rgb(38,50,56); fill-rule: nonzero; opacity: 1;" transform=" translate(-324.3408, -301.3235)" d="M 321.069 219.122 c 0 0 -24.474 60.835 -17.84 89.482 c 5.995 25.89 32.504 74.921 32.504 74.921 l 10.25 -5.145 c 0 0 -16.388 -59.188 -18.166 -72.046 c -3.459 -25.018 18.776 -60.333 18.776 -87.212 L 321.069 219.122 z" stroke-linecap="round"/>
</g>
		<g transform="matrix(1 0 0 1 74.3407 51.3235)" id="Character_1_">
<path style="stroke: none; stroke-width: 1; stroke-dasharray: none; stroke-linecap: butt; stroke-dashoffset: 0; stroke-linejoin: miter; stroke-miterlimit: 4; is-custom-font: none; font-file-url: none; fill: rgb(255,255,255); fill-rule: nonzero; opacity: 0.1;" transform=" translate(-324.3408, -301.3235)" d="M 321.069 219.122 c 0 0 -24.474 60.835 -17.84 89.482 c 5.995 25.89 32.504 74.921 32.504 74.921 l 10.25 -5.145 c 0 0 -16.388 -59.188 -18.166 -72.046 c -3.459 -25.018 18.776 -60.333 18.776 -87.212 L 321.069 219.122 z" stroke-linecap="round"/>
</g>
		<g transform="matrix(1 0 0 1 94.5045 146.5813)" id="Character_1_">
<path style="stroke: none; stroke-width: 1; stroke-dasharray: none; stroke-linecap: butt; stroke-dashoffset: 0; stroke-linejoin: miter; stroke-miterlimit: 4; is-custom-font: none; font-file-url: none; fill: rgb(38,50,56); fill-rule: nonzero; opacity: 1;" transform=" translate(-344.5045, -396.5813)" d="M 341.055 392.103 l 7.608 -5.538 c 0.277 -0.202 0.642 -0.173 0.877 0.069 l 5.248 5.389 c 0.544 0.559 0.437 1.541 -0.209 1.995 c -2.686 1.885 -4.078 2.66 -7.423 5.095 c -2.059 1.498 -6.161 4.811 -9.003 6.88 c -2.78 2.023 -5.04 -0.632 -4.041 -1.748 c 4.477 -5.004 5.42 -8.099 6.115 -10.902 C 340.352 392.838 340.65 392.398 341.055 392.103 z" stroke-linecap="round"/>
</g>
		<g transform="matrix(1 0 0 1 90.371 129.9725)" id="Character_1_">
<polygon style="stroke: none; stroke-width: 1; stroke-dasharray: none; stroke-linecap: butt; stroke-dashoffset: 0; stroke-linejoin: miter; stroke-miterlimit: 4; is-custom-font: none; font-file-url: none; fill: rgb(64,123,255); fill-rule: nonzero; opacity: 1;" points="-5.298,5.7215 7.933,-0.3305 6.235,-5.7215 -7.933,0.7405 "/>
</g>
		<g transform="matrix(1 0 0 1 69.105 -74.6116)" id="Character_1_">
<path style="stroke: none; stroke-width: 1; stroke-dasharray: none; stroke-linecap: butt; stroke-dashoffset: 0; stroke-linejoin: miter; stroke-miterlimit: 4; is-custom-font: none; font-file-url: none; fill: rgb(64,123,255); fill-rule: nonzero; opacity: 1;" transform=" translate(-319.105, -175.3884)" d="M 327.564 169.36 c -1.098 -2.841 -10.657 -5.957 -15.452 -7.045 l -2.107 15.768 c 0 0 7.831 11.255 11.27 10.324 C 325.335 187.308 329.916 175.447 327.564 169.36 z" stroke-linecap="round"/>
</g>
		<g transform="matrix(1 0 0 1 69.105 -74.6116)" id="Character_1_">
<path style="stroke: none; stroke-width: 1; stroke-dasharray: none; stroke-linecap: butt; stroke-dashoffset: 0; stroke-linejoin: miter; stroke-miterlimit: 4; is-custom-font: none; font-file-url: none; fill: rgb(0,0,0); fill-rule: nonzero; opacity: 0.4;" transform=" translate(-319.105, -175.3884)" d="M 327.564 169.36 c -1.098 -2.841 -10.657 -5.957 -15.452 -7.045 l -2.107 15.768 c 0 0 7.831 11.255 11.27 10.324 C 325.335 187.308 329.916 175.447 327.564 169.36 z" stroke-linecap="round"/>
</g>
		<g transform="matrix(1 0 0 1 88.594 -57.3683)" id="Character_1_">
<path style="stroke: none; stroke-width: 1; stroke-dasharray: none; stroke-linecap: butt; stroke-dashoffset: 0; stroke-linejoin: miter; stroke-miterlimit: 4; is-custom-font: none; font-file-url: none; fill: rgb(64,123,255); fill-rule: nonzero; opacity: 1;" transform=" translate(-338.5941, -192.6317)" d="M 317.066 168.567 c 0 0 -3.99 1.405 4.003 50.555 c 13.499 0 27.451 0 34.019 0 c -0.571 -13.846 -0.587 -22.383 6.03 -50.798 c 0 0 -7.128 -1.551 -14.446 -1.903 c -5.725 -0.276 -10.415 -0.459 -15.448 0.001 C 324.591 167.027 317.066 168.567 317.066 168.567 z" stroke-linecap="round"/>
</g>
		<g transform="matrix(1 0 0 1 88.594 -57.3683)" id="Character_1_">
<path style="stroke: none; stroke-width: 1; stroke-dasharray: none; stroke-linecap: butt; stroke-dashoffset: 0; stroke-linejoin: miter; stroke-miterlimit: 4; is-custom-font: none; font-file-url: none; fill: rgb(0,0,0); fill-rule: nonzero; opacity: 0.4;" transform=" translate(-338.5941, -192.6317)" d="M 317.066 168.567 c 0 0 -3.99 1.405 4.003 50.555 c 13.499 0 27.451 0 34.019 0 c -0.571 -13.846 -0.587 -22.383 6.03 -50.798 c 0 0 -7.128 -1.551 -14.446 -1.903 c -5.725 -0.276 -10.415 -0.459 -15.448 0.001 C 324.591 167.027 317.066 168.567 317.066 168.567 z" stroke-linecap="round"/>
</g>
		<g transform="matrix(1 0 0 1 88.5862 -31.242)" id="Character_1_">
<path style="stroke: none; stroke-width: 1; stroke-dasharray: none; stroke-linecap: butt; stroke-dashoffset: 0; stroke-linejoin: miter; stroke-miterlimit: 4; is-custom-font: none; font-file-url: none; fill: rgb(64,123,255); fill-rule: nonzero; opacity: 1;" transform=" translate(-338.5862, -218.758)" d="M 355.598 217.125 l 1.534 3.045 c 0.119 0.236 -0.161 0.477 -0.554 0.477 h -35.677 c -0.307 0 -0.561 -0.15 -0.58 -0.343 l -0.307 -3.045 c -0.021 -0.211 0.245 -0.39 0.58 -0.39 h 34.45 C 355.297 216.87 355.521 216.973 355.598 217.125 z" stroke-linecap="round"/>
</g>
		<g transform="matrix(1 0 0 1 88.5862 -31.242)" id="Character_1_">
<path style="stroke: none; stroke-width: 1; stroke-dasharray: none; stroke-linecap: butt; stroke-dashoffset: 0; stroke-linejoin: miter; stroke-miterlimit: 4; is-custom-font: none; font-file-url: none; fill: rgb(255,255,255); fill-rule: nonzero; opacity: 0.3;" transform=" translate(-338.5862, -218.758)" d="M 355.598 217.125 l 1.534 3.045 c 0.119 0.236 -0.161 0.477 -0.554 0.477 h -35.677 c -0.307 0 -0.561 -0.15 -0.58 -0.343 l -0.307 -3.045 c -0.021 -0.211 0.245 -0.39 0.58 -0.39 h 34.45 C 355.297 216.87 355.521 216.973 355.598 217.125 z" stroke-linecap="round"/>
</g>
		<g transform="matrix(1 0 0 1 101.193 -31.211)" id="Character_1_">
<path style="stroke: none; stroke-width: 1; stroke-dasharray: none; stroke-linecap: butt; stroke-dashoffset: 0; stroke-linejoin: miter; stroke-miterlimit: 4; is-custom-font: none; font-file-url: none; fill: rgb(38,50,56); fill-rule: nonzero; opacity: 1;" transform=" translate(-351.193, -218.789)" d="M 350.971 220.977 h 0.923 c 0.184 0 0.324 -0.095 0.311 -0.21 l -0.433 -3.956 c -0.013 -0.116 -0.173 -0.21 -0.357 -0.21 h -0.923 c -0.184 0 -0.324 0.095 -0.311 0.21 l 0.433 3.956 C 350.627 220.883 350.788 220.977 350.971 220.977 z" stroke-linecap="round"/>
</g>
		<g transform="matrix(1 0 0 1 78.83 -31.211)" id="Character_1_">
<path style="stroke: none; stroke-width: 1; stroke-dasharray: none; stroke-linecap: butt; stroke-dashoffset: 0; stroke-linejoin: miter; stroke-miterlimit: 4; is-custom-font: none; font-file-url: none; fill: rgb(38,50,56); fill-rule: nonzero; opacity: 1;" transform=" translate(-328.83, -218.789)" d="M 328.608 220.977 h 0.923 c 0.184 0 0.324 -0.095 0.311 -0.21 l -0.433 -3.956 c -0.013 -0.116 -0.173 -0.21 -0.357 -0.21 h -0.923 c -0.184 0 -0.324 0.095 -0.311 0.21 l 0.433 3.956 C 328.263 220.883 328.424 220.977 328.608 220.977 z" stroke-linecap="round"/>
</g>
</g>
</g>
<g transform="matrix(1 0 0 1 470 706.526)" style="" id="917968">
		
<path xml:space="preserve" font-family="Lato" font-size="22" font-style="normal" font-weight="normal" style="stroke: none; stroke-width: 1; stroke-dasharray: none; stroke-linecap: butt; stroke-dashoffset: 0; stroke-linejoin: miter; stroke-miterlimit: 4; is-custom-font: none; font-file-url: none; fill: rgb(153,153,153); fill-rule: nonzero; opacity: 1; white-space: pre;" d="M-86.05-8.85L-86.05-8.85Q-85.77-8.85-85.63-8.78Q-85.49-8.71-85.32-8.49L-85.32-8.49L-76.19 3.39Q-76.22 3.11-76.23 2.84Q-76.24 2.57-76.24 2.31L-76.24 2.31L-76.24-8.85L-74.37-8.85L-74.37 6.91L-75.45 6.91Q-75.70 6.91-75.87 6.82Q-76.04 6.74-76.21 6.53L-76.21 6.53L-85.33-5.34Q-85.31-5.07-85.30-4.80Q-85.28-4.54-85.28-4.32L-85.28-4.32L-85.28 6.91L-87.15 6.91L-87.15-8.85L-86.05-8.85ZM-66.32-4.41L-66.32-4.41Q-65.10-4.41-64.12-4.00Q-63.13-3.59-62.44-2.85Q-61.76-2.10-61.39-1.04Q-61.02 0.03-61.02 1.33L-61.02 1.33Q-61.02 2.65-61.39 3.71Q-61.76 4.77-62.44 5.51Q-63.13 6.26-64.12 6.66Q-65.10 7.07-66.32 7.07L-66.32 7.07Q-67.54 7.07-68.53 6.66Q-69.51 6.26-70.20 5.51Q-70.90 4.77-71.27 3.71Q-71.64 2.65-71.64 1.33L-71.64 1.33Q-71.64 0.03-71.27-1.04Q-70.90-2.10-70.20-2.85Q-69.51-3.59-68.53-4.00Q-67.54-4.41-66.32-4.41ZM-66.32 5.54L-66.32 5.54Q-64.67 5.54-63.86 4.43Q-63.04 3.33-63.04 1.35L-63.04 1.35Q-63.04-0.65-63.86-1.76Q-64.67-2.87-66.32-2.87L-66.32-2.87Q-67.16-2.87-67.77-2.58Q-68.39-2.30-68.80-1.76Q-69.21-1.22-69.42-0.43Q-69.62 0.36-69.62 1.35L-69.62 1.35Q-69.62 2.34-69.42 3.12Q-69.21 3.90-68.80 4.43Q-68.39 4.96-67.77 5.25Q-67.16 5.54-66.32 5.54ZM-46.23-2.96L-46.75-2.25Q-46.84-2.13-46.93-2.06Q-47.02-2.00-47.18-2.00L-47.18-2.00Q-47.35-2.00-47.54-2.14Q-47.73-2.27-48.03-2.44Q-48.32-2.60-48.75-2.74Q-49.17-2.88-49.79-2.88L-49.79-2.88Q-50.60-2.88-51.23-2.59Q-51.86-2.30-52.28-1.75Q-52.70-1.20-52.92-0.41Q-53.13 0.37-53.13 1.33L-53.13 1.33Q-53.13 2.35-52.90 3.13Q-52.67 3.92-52.25 4.45Q-51.83 4.99-51.23 5.27Q-50.63 5.55-49.89 5.55L-49.89 5.55Q-49.17 5.55-48.71 5.38Q-48.25 5.21-47.94 5.00Q-47.63 4.79-47.43 4.62Q-47.24 4.45-47.04 4.45L-47.04 4.45Q-46.78 4.45-46.66 4.63L-46.66 4.63L-46.11 5.35Q-46.84 6.24-47.93 6.65Q-49.02 7.07-50.23 7.07L-50.23 7.07Q-51.27 7.07-52.17 6.68Q-53.07 6.30-53.73 5.56Q-54.39 4.83-54.77 3.77Q-55.14 2.70-55.14 1.33L-55.14 1.33Q-55.14 0.09-54.80-0.96Q-54.45-2.02-53.79-2.79Q-53.12-3.55-52.14-3.98Q-51.16-4.41-49.90-4.41L-49.90-4.41Q-48.73-4.41-47.83-4.03Q-46.93-3.65-46.23-2.96L-46.23-2.96ZM-39.57-4.41L-39.57-4.41Q-38.35-4.41-37.36-4.00Q-36.38-3.59-35.69-2.85Q-35.00-2.10-34.64-1.04Q-34.27 0.03-34.27 1.33L-34.27 1.33Q-34.27 2.65-34.64 3.71Q-35.00 4.77-35.69 5.51Q-36.38 6.26-37.36 6.66Q-38.35 7.07-39.57 7.07L-39.57 7.07Q-40.79 7.07-41.77 6.66Q-42.76 6.26-43.45 5.51Q-44.14 4.77-44.52 3.71Q-44.89 2.65-44.89 1.33L-44.89 1.33Q-44.89 0.03-44.52-1.04Q-44.14-2.10-43.45-2.85Q-42.76-3.59-41.77-4.00Q-40.79-4.41-39.57-4.41ZM-39.57 5.54L-39.57 5.54Q-37.92 5.54-37.10 4.43Q-36.29 3.33-36.29 1.35L-36.29 1.35Q-36.29-0.65-37.10-1.76Q-37.92-2.87-39.57-2.87L-39.57-2.87Q-40.40-2.87-41.02-2.58Q-41.64-2.30-42.05-1.76Q-42.46-1.22-42.67-0.43Q-42.87 0.36-42.87 1.35L-42.87 1.35Q-42.87 2.34-42.67 3.12Q-42.46 3.90-42.05 4.43Q-41.64 4.96-41.02 5.25Q-40.40 5.54-39.57 5.54ZM-32.11-4.23L-30.15-4.23L-30.15 2.87Q-30.15 4.14-29.57 4.83Q-28.99 5.53-27.81 5.53L-27.81 5.53Q-26.95 5.53-26.19 5.12Q-25.43 4.71-24.80 3.99L-24.80 3.99L-24.80-4.23L-22.84-4.23L-22.84 6.91L-24.00 6.91Q-24.42 6.91-24.53 6.50L-24.53 6.50L-24.69 5.31Q-25.41 6.11-26.31 6.60Q-27.22 7.09-28.38 7.09L-28.38 7.09Q-29.29 7.09-29.99 6.78Q-30.69 6.48-31.16 5.93Q-31.64 5.38-31.87 4.60Q-32.11 3.82-32.11 2.87L-32.11 2.87L-32.11-4.23ZM-17.66 6.91L-19.61 6.91L-19.61-4.23L-18.49-4.23Q-18.17-4.23-18.05-4.11Q-17.93-3.99-17.89-3.69L-17.89-3.69L-17.76-1.95Q-17.18-3.12-16.34-3.78Q-15.50-4.43-14.37-4.43L-14.37-4.43Q-13.91-4.43-13.53-4.33Q-13.16-4.22-12.84-4.03L-12.84-4.03L-13.09-2.57Q-13.17-2.30-13.43-2.30L-13.43-2.30Q-13.59-2.30-13.91-2.40Q-14.22-2.50-14.80-2.50L-14.80-2.50Q-15.82-2.50-16.51-1.91Q-17.19-1.32-17.66-0.18L-17.66-0.18L-17.66 6.91ZM-3.93-3.11L-4.37-2.39Q-4.50-2.15-4.78-2.15L-4.78-2.15Q-4.94-2.15-5.15-2.27Q-5.36-2.39-5.66-2.54Q-5.96-2.69-6.38-2.82Q-6.80-2.94-7.37-2.94L-7.37-2.94Q-7.87-2.94-8.26-2.82Q-8.66-2.69-8.94-2.47Q-9.22-2.25-9.37-1.96Q-9.52-1.67-9.52-1.33L-9.52-1.33Q-9.52-0.90-9.27-0.61Q-9.02-0.33-8.61-0.12Q-8.21 0.09-7.69 0.25Q-7.17 0.41-6.63 0.59Q-6.08 0.77-5.57 0.99Q-5.05 1.21-4.64 1.54Q-4.24 1.87-3.99 2.35Q-3.74 2.83-3.74 3.50L-3.74 3.50Q-3.74 4.27-4.02 4.93Q-4.29 5.58-4.83 6.06Q-5.37 6.54-6.15 6.81Q-6.93 7.09-7.95 7.09L-7.95 7.09Q-9.12 7.09-10.07 6.71Q-11.01 6.33-11.67 5.73L-11.67 5.73L-11.21 4.99Q-11.12 4.84-11.00 4.77Q-10.88 4.69-10.68 4.69L-10.68 4.69Q-10.48 4.69-10.26 4.84Q-10.04 5.00-9.73 5.18Q-9.42 5.37-8.97 5.53Q-8.53 5.68-7.86 5.68L-7.86 5.68Q-7.28 5.68-6.85 5.53Q-6.43 5.38-6.14 5.13Q-5.85 4.88-5.72 4.55Q-5.58 4.22-5.58 3.84L-5.58 3.84Q-5.58 3.38-5.83 3.08Q-6.07 2.78-6.48 2.56Q-6.89 2.35-7.41 2.19Q-7.93 2.03-8.48 1.85Q-9.02 1.68-9.54 1.45Q-10.07 1.22-10.47 0.88Q-10.88 0.54-11.13 0.04Q-11.38-0.46-11.38-1.17L-11.38-1.17Q-11.38-1.81-11.11-2.40Q-10.85-2.99-10.34-3.43Q-9.84-3.88-9.10-4.14Q-8.36-4.41-7.42-4.41L-7.42-4.41Q-6.32-4.41-5.44-4.06Q-4.57-3.71-3.93-3.11L-3.93-3.11ZM3.21-4.41L3.21-4.41Q4.21-4.41 5.06-4.07Q5.91-3.74 6.52-3.10Q7.14-2.47 7.48-1.54Q7.83-0.61 7.83 0.58L7.83 0.58Q7.83 1.04 7.73 1.19Q7.63 1.35 7.36 1.35L7.36 1.35L-0.06 1.35Q-0.03 2.40 0.23 3.18Q0.49 3.96 0.96 4.49Q1.42 5.01 2.06 5.27Q2.69 5.53 3.49 5.53L3.49 5.53Q4.22 5.53 4.76 5.35Q5.29 5.18 5.67 4.99Q6.06 4.79 6.32 4.62Q6.58 4.45 6.76 4.45L6.76 4.45Q7.01 4.45 7.14 4.63L7.14 4.63L7.69 5.35Q7.32 5.79 6.82 6.11Q6.31 6.44 5.73 6.65Q5.16 6.86 4.54 6.96Q3.93 7.07 3.32 7.07L3.32 7.07Q2.17 7.07 1.19 6.67Q0.22 6.28-0.49 5.53Q-1.20 4.78-1.60 3.67Q-1.99 2.56-1.99 1.11L-1.99 1.11Q-1.99-0.05-1.64-1.06Q-1.28-2.08-0.61-2.82Q0.06-3.56 1.03-3.98Q2.00-4.41 3.21-4.41ZM3.25-2.97L3.25-2.97Q1.84-2.97 1.02-2.15Q0.21-1.33 0.01 0.12L0.01 0.12L6.07 0.12Q6.07-0.56 5.88-1.12Q5.70-1.69 5.33-2.10Q4.97-2.52 4.45-2.74Q3.93-2.97 3.25-2.97ZM17.15-3.11L16.71-2.39Q16.58-2.15 16.30-2.15L16.30-2.15Q16.14-2.15 15.93-2.27Q15.72-2.39 15.41-2.54Q15.11-2.69 14.69-2.82Q14.28-2.94 13.70-2.94L13.70-2.94Q13.21-2.94 12.81-2.82Q12.42-2.69 12.14-2.47Q11.86-2.25 11.71-1.96Q11.56-1.67 11.56-1.33L11.56-1.33Q11.56-0.90 11.81-0.61Q12.05-0.33 12.46-0.12Q12.87 0.09 13.39 0.25Q13.90 0.41 14.45 0.59Q14.99 0.77 15.51 0.99Q16.03 1.21 16.43 1.54Q16.84 1.87 17.09 2.35Q17.33 2.83 17.33 3.50L17.33 3.50Q17.33 4.27 17.06 4.93Q16.78 5.58 16.25 6.06Q15.71 6.54 14.93 6.81Q14.14 7.09 13.12 7.09L13.12 7.09Q11.96 7.09 11.01 6.71Q10.06 6.33 9.40 5.73L9.40 5.73L9.87 4.99Q9.95 4.84 10.07 4.77Q10.20 4.69 10.39 4.69L10.39 4.69Q10.59 4.69 10.81 4.84Q11.03 5.00 11.34 5.18Q11.66 5.37 12.10 5.53Q12.55 5.68 13.22 5.68L13.22 5.68Q13.79 5.68 14.22 5.53Q14.65 5.38 14.94 5.13Q15.22 4.88 15.36 4.55Q15.50 4.22 15.50 3.84L15.50 3.84Q15.50 3.38 15.25 3.08Q15.00 2.78 14.60 2.56Q14.19 2.35 13.67 2.19Q13.14 2.03 12.60 1.85Q12.05 1.68 11.53 1.45Q11.01 1.22 10.60 0.88Q10.20 0.54 9.95 0.04Q9.70-0.46 9.70-1.17L9.70-1.17Q9.70-1.81 9.96-2.40Q10.23-2.99 10.73-3.43Q11.24-3.88 11.98-4.14Q12.71-4.41 13.66-4.41L13.66-4.41Q14.76-4.41 15.63-4.06Q16.51-3.71 17.15-3.11L17.15-3.11ZM26.53 6.91L24.56 6.91L24.56-2.56L23.33-2.70Q23.10-2.76 22.95-2.87Q22.80-2.99 22.80-3.21L22.80-3.21L22.80-4.01L24.56-4.01L24.56-5.09Q24.56-6.05 24.83-6.79Q25.10-7.53 25.60-8.04Q26.10-8.55 26.81-8.82Q27.51-9.08 28.39-9.08L28.39-9.08Q29.14-9.08 29.78-8.86L29.78-8.86L29.73-7.88Q29.72-7.66 29.54-7.62Q29.37-7.58 29.05-7.58L29.05-7.58L28.71-7.58Q28.20-7.58 27.79-7.44Q27.38-7.31 27.08-7.01Q26.78-6.72 26.62-6.23Q26.46-5.75 26.46-5.03L26.46-5.03L26.46-4.01L29.69-4.01L29.69-2.59L26.53-2.59L26.53 6.91ZM36.05-4.41L36.05-4.41Q37.27-4.41 38.25-4.00Q39.24-3.59 39.92-2.85Q40.61-2.10 40.98-1.04Q41.35 0.03 41.35 1.33L41.35 1.33Q41.35 2.65 40.98 3.71Q40.61 4.77 39.92 5.51Q39.24 6.26 38.25 6.66Q37.27 7.07 36.05 7.07L36.05 7.07Q34.82 7.07 33.84 6.66Q32.86 6.26 32.16 5.51Q31.47 4.77 31.10 3.71Q30.72 2.65 30.72 1.33L30.72 1.33Q30.72 0.03 31.10-1.04Q31.47-2.10 32.16-2.85Q32.86-3.59 33.84-4.00Q34.82-4.41 36.05-4.41ZM36.05 5.54L36.05 5.54Q37.70 5.54 38.51 4.43Q39.32 3.33 39.32 1.35L39.32 1.35Q39.32-0.65 38.51-1.76Q37.70-2.87 36.05-2.87L36.05-2.87Q35.21-2.87 34.59-2.58Q33.98-2.30 33.56-1.76Q33.15-1.22 32.95-0.43Q32.75 0.36 32.75 1.35L32.75 1.35Q32.75 2.34 32.95 3.12Q33.15 3.90 33.56 4.43Q33.98 4.96 34.59 5.25Q35.21 5.54 36.05 5.54ZM43.50-4.23L45.46-4.23L45.46 2.87Q45.46 4.14 46.04 4.83Q46.63 5.53 47.80 5.53L47.80 5.53Q48.66 5.53 49.42 5.12Q50.18 4.71 50.82 3.99L50.82 3.99L50.82-4.23L52.78-4.23L52.78 6.91L51.61 6.91Q51.19 6.91 51.08 6.50L51.08 6.50L50.93 5.31Q50.20 6.11 49.30 6.60Q48.40 7.09 47.23 7.09L47.23 7.09Q46.32 7.09 45.62 6.78Q44.92 6.48 44.45 5.93Q43.98 5.38 43.74 4.60Q43.50 3.82 43.50 2.87L43.50 2.87L43.50-4.23ZM57.96 6.91L56.00 6.91L56.00-4.23L57.17-4.23Q57.58-4.23 57.69-3.82L57.69-3.82L57.85-2.61Q58.57-3.42 59.47-3.91Q60.37-4.41 61.54-4.41L61.54-4.41Q62.46-4.41 63.15-4.11Q63.85-3.80 64.32-3.25Q64.79-2.69 65.03-1.91Q65.27-1.13 65.27-0.18L65.27-0.18L65.27 6.91L63.31 6.91L63.31-0.18Q63.31-1.45 62.74-2.15Q62.16-2.85 60.97-2.85L60.97-2.85Q60.10-2.85 59.35-2.43Q58.60-2.01 57.96-1.29L57.96-1.29L57.96 6.91ZM77.24 6.91L76.07 6.91Q75.66 6.91 75.55 6.50L75.55 6.50L75.37 5.15Q74.66 6.02 73.74 6.54Q72.82 7.07 71.63 7.07L71.63 7.07Q70.67 7.07 69.89 6.70Q69.11 6.33 68.56 5.61Q68.01 4.90 67.71 3.83Q67.42 2.76 67.42 1.38L67.42 1.38Q67.42 0.15 67.75-0.92Q68.08-1.98 68.70-2.76Q69.32-3.54 70.21-3.98Q71.10-4.43 72.24-4.43L72.24-4.43Q73.26-4.43 73.98-4.08Q74.71-3.74 75.28-3.11L75.28-3.11L75.28-9.29L77.24-9.29L77.24 6.91ZM72.28 5.48L72.28 5.48Q73.24 5.48 73.96 5.04Q74.68 4.60 75.28 3.80L75.28 3.80L75.28-1.59Q74.74-2.32 74.10-2.61Q73.46-2.90 72.68-2.90L72.68-2.90Q71.11-2.90 70.28-1.79Q69.44-0.68 69.44 1.38L69.44 1.38Q69.44 2.47 69.63 3.24Q69.82 4.02 70.18 4.52Q70.54 5.02 71.07 5.25Q71.60 5.48 72.28 5.48ZM79.89 5.70L79.89 5.70Q79.89 5.42 80.00 5.16Q80.10 4.91 80.28 4.72Q80.46 4.54 80.72 4.43Q80.97 4.32 81.26 4.32L81.26 4.32Q81.54 4.32 81.79 4.43Q82.05 4.54 82.23 4.72Q82.42 4.91 82.53 5.16Q82.63 5.42 82.63 5.70L82.63 5.70Q82.63 6.00 82.53 6.25Q82.42 6.49 82.23 6.68Q82.05 6.87 81.79 6.97Q81.54 7.08 81.26 7.08L81.26 7.08Q80.97 7.08 80.72 6.97Q80.46 6.87 80.28 6.68Q80.10 6.49 80.00 6.25Q79.89 6.00 79.89 5.70Z"/></g>
</svg>